<?xml version="1.0" encoding="UTF-8" standalone="no"?>
<svg width="17px" height="17px" viewBox="0 0 17 17" version="1.1" xmlns="http://www.w3.org/2000/svg" xmlns:xlink="http://www.w3.org/1999/xlink">
    <!-- Generator: Sketch 44.1 (41455) - http://www.bohemiancoding.com/sketch -->
    <title>camera forbid</title>
    <desc>Created with Sketch.</desc>
    <defs></defs>
    <g id="［定稿］教室" stroke="none" stroke-width="1" fill="none" fill-rule="evenodd">
        <g id="切图" transform="translate(-275.000000, -580.000000)" fill-rule="nonzero" fill="#666666">
            <g id="共用" transform="translate(0.000000, 518.000000)">
                <path d="M284.231605,75.7465124 C284.563423,77.042202 285.738852,78 287.137988,78 C288.537123,78 289.712552,77.042202 290.04437,75.7465124 L284.231605,75.7465124 Z M284.160364,74.6317482 L290.115611,74.6317482 C289.934076,73.1486158 288.670169,72 287.137988,72 C285.605806,72 284.341899,73.1486158 284.160364,74.6317482 Z M284.1375,79 L277.579899,79 C277.065438,79 276.742714,78.441876 277.000893,77.9957566 L278.52909,75.3475154 C276.416192,74.1002792 275,71.80134 275,69.1701842 C275,65.2101619 278.210162,62 282.170184,62 C286.130207,62 289.340369,65.2101619 289.340369,69.1701842 C289.340369,69.6087726 289.300852,70.0382093 289.225192,70.4551473 C288.628708,70.1807629 287.968954,70.0203504 287.273829,70.0018096 C287.317613,69.7310534 287.340369,69.453267 287.340369,69.1701842 C287.340369,66.3158613 285.02689,64 282.170184,64 C279.315861,64 277,66.3134788 277,69.1701842 C277,72.0245072 279.313479,74.3403685 282.170184,74.3403685 L282.170184,74.3403685 C282.173828,74.3403685 282.177472,74.3403647 282.181114,74.3403572 C282.152667,74.5562023 282.137988,74.7763869 282.137988,75 C282.137988,76.635599 282.923331,78.0877712 284.1375,79 Z M282.199945,71.6855125 C280.819233,71.6855125 279.699945,70.5662243 279.699945,69.1855125 C279.699945,67.8048006 280.819233,66.6855125 282.199945,66.6855125 C283.580657,66.6855125 284.699945,67.8048006 284.699945,69.1855125 C284.699945,70.5662243 283.580657,71.6855125 282.199945,71.6855125 Z M287.137988,79 C284.928849,79 283.137988,77.209139 283.137988,75 C283.137988,72.790861 284.928849,71 287.137988,71 C289.347127,71 291.137988,72.790861 291.137988,75 C291.137988,77.209139 289.347127,79 287.137988,79 Z" id="camera-forbid"></path>
            </g>
        </g>
    </g>
</svg>