<svg width="100" height="100" viewBox="0 0 100 100" fill="none" xmlns="http://www.w3.org/2000/svg">
<path fill-rule="evenodd" clip-rule="evenodd" d="M98.5708 56.0605L97.2408 82.0618H90.724L89.3939 56.0605H98.5708ZM91.4332 86.574C92.1878 86.0698 93.0749 85.8007 93.9824 85.8007C95.1993 85.8007 96.3664 86.2841 97.2269 87.1446C98.0874 88.0051 98.5708 89.1722 98.5708 90.3891C98.5708 91.2966 98.3017 92.1838 97.7975 92.9383C97.2933 93.6929 96.5767 94.281 95.7383 94.6283C94.8999 94.9756 93.9773 95.0665 93.0872 94.8894C92.1972 94.7124 91.3796 94.2754 90.7379 93.6337C90.0962 92.992 89.6591 92.1744 89.4821 91.2843C89.305 90.3942 89.3959 89.4716 89.7432 88.6332C90.0905 87.7947 90.6786 87.0782 91.4332 86.574Z" fill="white"/>
<path fill-rule="evenodd" clip-rule="evenodd" d="M23.2463 19.3796C31.5621 15.5973 40.5913 13.639 49.7268 13.6364C58.8624 13.639 67.8915 15.5973 76.2073 19.3796C84.5231 23.1619 91.9328 28.6805 97.9385 35.5646L93.9869 39.5023C88.5009 33.1391 81.7073 28.0336 74.0693 24.5339C66.4312 21.0342 58.1284 19.2226 49.7268 19.2226C41.3252 19.2226 33.0223 21.0342 25.3843 24.5339C17.7463 28.0336 10.9527 33.1391 5.46668 39.5023L1.51514 35.5646C7.52077 28.6805 14.9305 23.1619 23.2463 19.3796ZM47.5005 82.0093C48.1595 81.569 48.9343 81.334 49.7268 81.334C50.7896 81.334 51.8088 81.7561 52.5603 82.5076C53.3118 83.2591 53.734 84.2784 53.734 85.3412C53.734 86.1337 53.499 86.9085 53.0587 87.5674C52.6183 88.2264 51.9925 88.74 51.2603 89.0433C50.5281 89.3466 49.7224 89.426 48.945 89.2713C48.1677 89.1167 47.4537 88.7351 46.8933 88.1747C46.3329 87.6143 45.9512 86.9003 45.7966 86.1229C45.642 85.3456 45.7214 84.5399 46.0246 83.8077C46.3279 83.0754 46.8416 82.4496 47.5005 82.0093ZM49.7268 35.5633C43.2712 35.5631 36.8959 36.9958 31.0611 39.758C25.2262 42.5202 20.0772 46.5431 15.9856 51.5365L19.951 55.502C23.512 51.0191 28.0392 47.3982 33.1949 44.9092C38.3506 42.4203 44.0018 41.1276 49.7268 41.1276C55.4518 41.1276 61.103 42.4203 66.2587 44.9092C71.4144 47.3982 75.9416 51.0191 79.5025 55.502L83.468 51.5365C79.3763 46.5431 74.2273 42.5202 68.3925 39.758C62.5576 36.9958 56.1824 35.5631 49.7268 35.5633ZM39.5569 61.8065C42.6837 60.1266 46.1774 59.246 49.7268 59.2431C53.2763 59.246 56.7699 60.1266 59.8966 61.8065C63.0234 63.4864 65.6862 65.9134 67.6479 68.8715L63.599 72.9205C62.2141 70.4594 60.1994 68.411 57.7617 66.9855C55.3239 65.56 52.5508 64.8087 49.7268 64.8087C46.9028 64.8087 44.1297 65.56 41.6919 66.9855C39.2541 68.411 37.2395 70.4594 35.8547 72.9205L31.8057 68.8715C33.7674 65.9134 36.4302 63.4864 39.5569 61.8065Z" fill="white"/>
</svg>
