<?xml version="1.0" encoding="UTF-8" standalone="no"?>
<svg width="50px" height="60px" viewBox="0 0 224 251" version="1.1" xmlns="http://www.w3.org/2000/svg" xmlns:xlink="http://www.w3.org/1999/xlink">
    <g id="Page-1" stroke="none" stroke-width="1" fill="none" fill-rule="evenodd">
        <g id="TM＋-LOGO-DEMO-Copy" transform="translate(-81.000000, -766.000000)">
            <g id="Group-9" transform="translate(65.000000, 763.000000)">
                <g id="256">
                    <g id="Group-Copy-3" transform="translate(20.000000, 7.000000)">
                        <path d="M95.8758378,3.09501961 C102.571828,-0.778407279 113.428581,-0.778170991 120.124162,3.09501961 L205.586721,52.5325157 C211.324965,55.8519155 215.976731,63.9105853 215.976731,70.5492527 L215.976731,171.458911 C215.976731,178.08988 211.319791,186.159241 205.586721,189.475648 L118.390009,239.916298 C112.651766,243.235698 103.343061,243.232705 97.6099906,239.916298 L10.4132788,189.475648 C4.67503509,186.156248 0.0232694513,178.097578 0.0232694513,171.458911 L0.0232694513,70.5492527 C0.0232694513,63.9182834 4.68020881,55.8489227 10.4132788,52.5325157 L95.8758378,3.09501961 Z" id="Polygon" stroke="#FF4B59" stroke-width="8"></path>
                        <g id="Group-4" transform="translate(30.162162, 52.704430)">
                            <path d="M143.549531,52.7408949 C136.751193,21.8764173 109.819313,0 77.5126793,0 C45.2447823,0 18.3032189,21.8571089 11.4951962,52.6733155 C4.67748927,55.9267809 0,62.8681508 0,70.9294078 C0,82.0896631 8.8029767,91.5797417 20.0463826,91.5797417 L20.0463826,53.6676981 C26.3314562,27.2441526 49.6511128,8.60189225 77.5126793,8.60189225 C105.06435,8.60189225 128.180638,26.8676388 134.73687,52.8470911 L134.73687,91.1453027 C146.203013,91.1453027 154.918832,82.0896631 154.918832,70.9294078 C154.918832,62.926076 150.289764,56.0233229 143.549531,52.7408949 L143.549531,52.7408949 Z" id="Shape" fill="#FF4B59"></path>
                            <g id="Group-3" transform="translate(26.296236, 17.500773)">
                                <path d="M33.7276908,11.9842252 C30.5146854,13.9444359 27.5657597,42.7501583 30.5146854,51.7226757 C33.1640059,59.7836024 8.98643639,76.3658032 26.1526639,95.1174264 C27.6259381,95.4469814 28.3762752,96.2434059 28.7219362,96.8180146 C30.1193336,99.1375746 28.6512193,105.639419 27.5657597,111.201715 C26.4803002,116.766124 32.3797203,113.876181 33.6843793,113.231859 C34.7234698,112.720626 61.2503042,97.4227225 77.1696752,82.4617715 C74.7662342,62.6522638 83.7194749,61.8146192 83.7194749,47.7683946 C83.7194749,19.9442372 36.9406962,10.0240146 33.7276908,11.9842252 Z" id="Shape" fill="#FF4B59" fill-rule="nonzero" transform="translate(51.833203, 63.150376) scale(-1, 1) translate(-51.833203, -63.150376) "></path>
                                <ellipse id="Oval" fill="#FF4B59" transform="translate(51.496796, 51.385734) scale(-1, 1) translate(-51.496796, -51.385734) " cx="51.4967965" cy="51.3857343" rx="51.4967965" ry="51.3857343"></ellipse>
                                <path d="M50.9411054,40.2705179 C53.9064013,35.8259619 58.7142237,35.8261535 61.6793918,40.2705179 L75.5455372,61.0538934 C78.5108331,65.4984493 76.580085,69.1014738 71.2366393,69.1014738 L41.3838579,69.1014738 C36.0388234,69.1014738 34.1097918,65.4982578 37.07496,61.0538934 L50.9411054,40.2705179 Z" id="Triangle" fill="#FFFFFF" transform="translate(56.310112, 53.019323) rotate(90.000000) translate(-56.310112, -53.019323) "></path>
                            </g>
                        </g>
                    </g>
                </g>
            </g>
        </g>
    </g>
</svg>