<?xml version="1.0" encoding="UTF-8" standalone="no"?>
<svg width="16px" height="17px" viewBox="0 0 16 17" version="1.1" xmlns="http://www.w3.org/2000/svg" xmlns:xlink="http://www.w3.org/1999/xlink">
    <!-- Generator: Sketch 44.1 (41455) - http://www.bohemiancoding.com/sketch -->
    <title>mic forbid</title>
    <desc>Created with Sketch.</desc>
    <defs>
        <path d="M305.093618,593.746512 C305.425435,595.042202 306.600865,596 308,596 C309.399135,596 310.574565,595.042202 310.906382,593.746512 L305.093618,593.746512 Z M305.022376,592.631748 L310.977624,592.631748 C310.796089,591.148616 309.532181,590 308,590 C306.467819,590 305.203911,591.148616 305.022376,592.631748 Z M303.680385,595.519731 L303.680385,595.583333 L303.7182,595.583333 C304.051062,596.133858 304.487098,596.615013 304.999513,597 L300.354298,597 C299.960632,597 299.641565,596.682903 299.641565,596.291667 C299.641565,595.900431 299.960632,595.583333 300.354298,595.583333 L302.254919,595.583333 L302.254919,594.331472 C298.909588,594.004694 296.315478,591.199222 296.315478,587.791667 L296.371546,587.515889 C296.479644,587.261833 296.732902,587.083333 297.028211,587.083333 C297.421877,587.083333 297.740944,587.400431 297.740944,587.791667 L297.847141,588.838583 C298.336551,591.207486 300.443152,592.986111 302.967652,592.986111 C302.978449,592.986111 302.989238,592.986079 303.000019,592.986014 C303.000006,592.990674 303,592.995336 303,593 C303,593.918874 303.247866,594.779856 303.680385,595.519731 Z M308.190091,588.003547 C308.192928,587.93327 308.19436,587.862635 308.19436,587.791667 L308.250428,587.515889 C308.358526,587.261833 308.611784,587.083333 308.907093,587.083333 C309.300759,587.083333 309.619826,587.400431 309.619826,587.791667 L309.576062,588.253466 C309.137841,588.108031 308.672713,588.021586 308.190091,588.003547 Z M307.214071,588.061414 C305.221422,588.376016 303.620086,589.867666 303.14444,591.80199 C303.085807,591.804359 303.02687,591.805556 302.967652,591.805556 C300.605893,591.805556 298.691254,589.902736 298.691254,587.555556 L298.691254,584.25 C298.691254,581.902819 300.605893,580 302.967652,580 C305.329411,580 307.244049,581.902819 307.244049,584.25 L307.244049,587.555556 C307.244049,587.726727 307.233867,587.895535 307.214071,588.061414 Z M308,597 C305.790861,597 304,595.209139 304,593 C304,590.790861 305.790861,589 308,589 C310.209139,589 312,590.790861 312,593 C312,595.209139 310.209139,597 308,597 Z" id="path-1"></path>
    </defs>
    <g id="［定稿］教室" stroke="none" stroke-width="1" fill="none" fill-rule="evenodd">
        <g id="切图" transform="translate(-296.000000, -580.000000)">
            <mask id="mask-2" fill="white">
                <use xlink:href="#path-1"></use>
            </mask>
            <use id="mic-forbid" fill="#666666" xlink:href="#path-1"></use>
        </g>
    </g>
</svg>