<?xml version="1.0" encoding="UTF-8" standalone="no"?>
<svg width="110px" height="111px" viewBox="0 0 110 111" version="1.1" xmlns="http://www.w3.org/2000/svg" xmlns:xlink="http://www.w3.org/1999/xlink">
    <!-- Generator: Sketch 44.1 (41455) - http://www.bohemiancoding.com/sketch -->
    <title>pic_clock@1x</title>
    <desc>Created with Sketch.</desc>
    <defs></defs>
    <g id="定稿" stroke="none" stroke-width="1" fill="none" fill-rule="evenodd" opacity="0.5">
        <g id="切图" transform="translate(-900.000000, -2406.000000)" stroke="#FFFFFF" fill-rule="nonzero" stroke-width="1.5" fill="#FFFFFF">
            <path d="M957.261183,2460.64358 L974.611833,2460.64358 L974.611833,2460.64358 C976.50538,2460.64358 978.040404,2462.1786 978.040404,2464.07215 L978.040404,2464.07215 L978.040404,2464.14141 L978.040404,2464.14141 C978.040404,2466.03496 976.50538,2467.56999 974.611833,2467.56999 L953.6575,2467.56999 L953.6575,2467.56999 C951.763952,2467.56999 950.228928,2466.03496 950.228928,2464.14141 L950.228928,2464.07215 L950.228928,2464.07215 C950.228928,2463.77028 950.267941,2463.47752 950.341201,2463.19864 C950.336939,2463.12864 950.334776,2463.05808 950.334776,2462.98701 L950.334776,2443.29293 C950.334776,2441.39938 951.8698,2439.86436 953.763348,2439.86436 L953.832612,2439.86436 C955.72616,2439.86436 957.261183,2441.39938 957.261183,2443.29293 L957.261183,2460.64358 Z M954.952381,2503.90476 C932.335005,2503.90476 914,2485.56976 914,2462.95238 C914,2440.33501 932.335005,2422 954.952381,2422 C977.569756,2422 995.904762,2440.33501 995.904762,2462.95238 C995.904762,2485.56976 977.569756,2503.90476 954.952381,2503.90476 Z M954.952381,2498.19048 C974.413844,2498.19048 990.190476,2482.41384 990.190476,2462.95238 C990.190476,2443.49092 974.413844,2427.71429 954.952381,2427.71429 C935.490918,2427.71429 919.714286,2443.49092 919.714286,2462.95238 C919.714286,2482.41384 935.490918,2498.19048 954.952381,2498.19048 Z" id="Combined-Shape"></path>
        </g>
    </g>
</svg>