<?xml version="1.0" encoding="UTF-8" standalone="no"?>
<svg width="110px" height="111px" viewBox="0 0 110 111" version="1.1" xmlns="http://www.w3.org/2000/svg" xmlns:xlink="http://www.w3.org/1999/xlink">
    <!-- Generator: Sketch 44.1 (41455) - http://www.bohemiancoding.com/sketch -->
    <title>pic_coffee@1x</title>
    <desc>Created with Sketch.</desc>
    <defs></defs>
    <g id="定稿" stroke="none" stroke-width="1" fill="none" fill-rule="evenodd" opacity="0.5">
        <g id="切图" transform="translate(-1032.000000, -2406.000000)" stroke="#FFFFFF" fill-rule="nonzero" stroke-width="1.5" fill="#FFFFFF">
            <path d="M1049,2501.21433 C1049,2502.52645 1050.07355,2503.6 1051.38567,2503.6 L1112.57824,2503.6 C1113.89036,2503.6 1114.96391,2502.52645 1114.96391,2501.21433 C1114.96391,2499.9022 1113.89036,2498.82865 1112.57824,2498.82865 L1099.57631,2498.82865 C1104.22837,2495.96584 1108.28402,2492.02948 1111.02755,2487.25813 L1122.24022,2487.25813 C1128.68154,2487.25813 1133.93003,2482.00964 1133.93003,2475.56832 C1133.93003,2469.127 1128.68154,2463.87851 1122.24022,2463.87851 L1115.7989,2463.87851 L1115.7989,2455.29008 C1115.7989,2453.97796 1114.72534,2452.90441 1113.41322,2452.90441 L1051.50496,2452.90441 C1050.19284,2452.90441 1049.11928,2453.97796 1049.11928,2455.29008 L1049.11928,2470.31983 C1049.11928,2482.48678 1055.56061,2493.10303 1065.34187,2498.94793 L1051.38567,2498.94793 C1050.07355,2498.82865 1049,2499.9022 1049,2501.21433 Z M1122.24022,2468.64986 C1126.0573,2468.64986 1129.15868,2471.75124 1129.15868,2475.56832 C1129.15868,2479.3854 1126.0573,2482.48678 1122.24022,2482.48678 L1113.41322,2482.48678 C1114.96391,2478.6697 1115.7989,2474.49477 1115.7989,2470.20055 L1115.7989,2468.53058 L1122.24022,2468.53058 L1122.24022,2468.64986 Z M1053.89063,2470.31983 L1053.89063,2457.67576 L1111.02755,2457.67576 L1111.02755,2470.31983 C1111.02755,2486.06529 1098.26419,2498.94793 1082.39945,2498.94793 C1066.53471,2498.94793 1053.89063,2486.06529 1053.89063,2470.31983 Z M1082.76022,2417.01453 C1083.47517,2416.93028 1084.18377,2417.21621 1084.64003,2417.77305 C1087.23128,2420.79567 1088.04447,2423.85492 1087.50922,2426.47955 C1086.97397,2429.10419 1085.40855,2431.05684 1084.07939,2432.74559 C1082.75022,2434.43435 1081.65765,2435.90936 1081.40807,2436.96693 C1081.1585,2438.0245 1081.24556,2438.90619 1083.22193,2440.82549 C1083.76391,2441.35569 1083.98187,2442.13477 1083.79369,2442.86925 C1083.60552,2443.60372 1083.03979,2444.18202 1082.30963,2444.38629 C1081.57947,2444.59056 1080.79579,2444.38978 1080.2538,2443.85957 C1077.63688,2441.3182 1076.74187,2438.45465 1077.31866,2436.01053 C1077.89544,2433.56641 1079.45034,2431.78959 1080.74849,2430.14024 C1082.04664,2428.49089 1083.0795,2427.00033 1083.35384,2425.65507 C1083.62819,2424.30982 1083.44365,2422.88476 1081.40807,2420.51032 C1080.88607,2419.91937 1080.73694,2419.08675 1081.02138,2418.35136 C1081.30583,2417.61596 1081.97642,2417.10041 1082.76022,2417.01453 Z M1099.07427,2417.01453 C1099.78922,2416.93028 1100.49782,2417.21621 1100.95408,2417.77305 C1103.54533,2420.79567 1104.35852,2423.85492 1103.82327,2426.47955 C1103.28802,2429.10419 1101.7226,2431.05684 1100.39344,2432.74559 C1099.06427,2434.43435 1097.9717,2435.90936 1097.72212,2436.96693 C1097.47255,2438.0245 1097.55961,2438.90619 1099.53598,2440.82549 C1100.07796,2441.35569 1100.29592,2442.13477 1100.10774,2442.86925 C1099.91957,2443.60372 1099.35384,2444.18202 1098.62368,2444.38629 C1097.89352,2444.59056 1097.10984,2444.38978 1096.56785,2443.85957 C1093.95093,2441.3182 1093.05592,2438.45465 1093.63271,2436.01053 C1094.20949,2433.56641 1095.76439,2431.78959 1097.06254,2430.14024 C1098.36069,2428.49089 1099.39355,2427.00033 1099.66789,2425.65507 C1099.94224,2424.30982 1099.7577,2422.88476 1097.72212,2420.51032 C1097.20012,2419.91937 1097.05099,2419.08675 1097.33543,2418.35136 C1097.61988,2417.61596 1098.29047,2417.10041 1099.07427,2417.01453 Z M1066.44617,2417.01453 C1067.16112,2416.93028 1067.86972,2417.21621 1068.32598,2417.77305 C1070.91723,2420.79567 1071.73042,2423.85492 1071.19517,2426.47955 C1070.65992,2429.10419 1069.0945,2431.05684 1067.76534,2432.74559 C1066.43617,2434.43435 1065.3436,2435.90936 1065.09402,2436.96693 C1064.84445,2438.0245 1064.93151,2438.90619 1066.90788,2440.82549 C1067.44986,2441.35569 1067.66782,2442.13477 1067.47964,2442.86925 C1067.29147,2443.60372 1066.72574,2444.18202 1065.99558,2444.38629 C1065.26542,2444.59056 1064.48174,2444.38978 1063.93975,2443.85957 C1061.32283,2441.3182 1060.42782,2438.45465 1061.00461,2436.01053 C1061.58139,2433.56641 1063.13629,2431.78959 1064.43444,2430.14024 C1065.73259,2428.49089 1066.76545,2427.00033 1067.03979,2425.65507 C1067.31414,2424.30982 1067.1296,2422.88476 1065.09402,2420.51032 C1064.57202,2419.91937 1064.42289,2419.08675 1064.70733,2418.35136 C1064.99178,2417.61596 1065.66237,2417.10041 1066.44617,2417.01453 Z" id="Shape"></path>
        </g>
    </g>
</svg>