<?xml version="1.0" encoding="UTF-8" standalone="no"?>
<svg width="129px" height="137px" viewBox="0 0 129 137" version="1.1" xmlns="http://www.w3.org/2000/svg" xmlns:xlink="http://www.w3.org/1999/xlink">
    <!-- Generator: Sketch 44.1 (41455) - http://www.bohemiancoding.com/sketch -->
    <title>pic_facefocus</title>
    <desc>Created with Sketch.</desc>
    <defs></defs>
    <g id="定稿" stroke="none" stroke-width="1" fill="none" fill-rule="evenodd" opacity="0.5">
        <g id="切图" transform="translate(-1201.000000, -2401.000000)" fill-rule="nonzero" fill="#FFFFFF">
            <g id="pic_facefocus" transform="translate(1201.000000, 2401.000000)">
                <path d="M109.800512,90.4774828 C110.099163,89.4160617 111.20172,88.7977144 112.263141,89.0963654 C113.324562,89.3950165 113.942909,90.4975729 113.644258,91.558994 C113.148078,93.322444 112.599,95.0571354 111.998551,96.759277 C111.631738,97.7991114 110.491425,98.3447031 109.451591,97.9778903 C108.411757,97.6110774 107.866165,96.4707645 108.232978,95.4309301 C108.804639,93.8103959 109.327659,92.1580285 109.800512,90.4774828 Z M105.270489,102.637456 C104.523889,104.214193 103.728519,105.747148 102.886813,107.23215 C102.343099,108.191412 102.679967,109.409814 103.639228,109.953528 C104.59849,110.497242 105.816892,110.160374 106.360606,109.201112 C107.250725,107.630696 108.091119,106.010965 108.879358,104.346289 C109.351239,103.349727 108.925902,102.159319 107.92934,101.687437 C106.932778,101.215556 105.74237,101.640894 105.270489,102.637456 Z M98.6696306,113.7468 C97.6362367,115.14775 96.5576531,116.484919 95.437453,117.753947 C94.7077528,118.580593 94.7863435,119.842262 95.6129903,120.571962 C96.439637,121.301662 97.7013055,121.223072 98.4310057,120.396425 C99.6289561,119.039317 100.780813,117.611308 101.882997,116.1171 C102.537538,115.229753 102.348811,113.979807 101.461464,113.325267 C100.574117,112.670726 99.3241709,112.859453 98.6696306,113.7468 Z M89.9510007,123.139896 C88.6301409,124.255524 87.2713585,125.283743 85.8792908,126.220668 C84.9645437,126.836334 84.7220908,128.076979 85.3377571,128.991726 C85.9534234,129.906474 87.1940686,130.148926 88.1088157,129.53326 C89.6222403,128.514657 91.0967499,127.398865 92.5275248,126.1904 C93.3698981,125.478913 93.4760021,124.21926 92.7645146,123.376886 C92.0530271,122.534513 90.7933741,122.428409 89.9510007,123.139896 Z M79.1492931,129.919978 C77.5857471,130.5975 75.9961551,131.166012 74.3853426,131.62285 C73.3245428,131.923701 72.7084822,133.027536 73.0093327,134.088336 C73.3101833,135.149136 74.4140189,135.765196 75.4748187,135.464346 C77.2565211,134.959042 79.0124474,134.331041 80.7369094,133.583791 C81.7486433,133.145383 82.2134157,131.96981 81.7750076,130.958077 C81.3365995,129.946343 80.1610271,129.48157 79.1492931,129.919978 Z M66.9867423,132.917737 C66.1638839,132.974633 65.3379467,133.003284 64.5093945,133.003499 C63.6434346,133.0035 62.7884647,132.973109 61.9356708,132.912288 C60.8358279,132.833847 59.8806405,133.661857 59.8022,134.7617 C59.7237595,135.861543 60.5517697,136.81673 61.6516126,136.895171 C62.5990337,136.962741 63.5487515,136.9965 64.5099152,136.996499 C65.4305686,136.99626 66.3480274,136.964435 67.262181,136.901225 C68.362191,136.825165 69.1922663,135.871772 69.116206,134.771762 C69.0401457,133.671752 68.0867523,132.841676 66.9867423,132.917737 Z M54.4664463,131.580484 C52.8570824,131.116836 51.2691128,130.541624 49.707374,129.857531 C48.6973831,129.415123 47.5199805,129.875239 47.0775715,130.88523 C46.6351626,131.89522 47.0952787,133.072623 48.1052696,133.515032 C49.8274081,134.269385 51.5812305,134.904674 53.3610468,135.417428 C54.4205897,135.722676 55.5269711,135.111199 55.8322187,134.051656 C56.1374663,132.992113 55.5259892,131.885732 54.4664463,131.580484 Z M43.0074349,126.144178 C41.618069,125.202904 40.2621021,124.17058 38.9441635,123.051099 C38.1037802,122.337262 36.8438358,122.439848 36.1299989,123.280231 C35.416162,124.120615 35.5187481,125.380559 36.3591315,126.094396 C37.7864676,127.306801 39.2576334,128.426829 40.7678213,129.449958 C41.6806871,130.06841 42.9220657,129.82974 43.540518,128.916875 C44.1589702,128.004009 43.9203008,126.76263 43.0074349,126.144178 Z M33.4832916,117.663969 C32.3655709,116.39231 31.2895351,115.052701 30.2587475,113.649503 C29.6059574,112.760868 28.3563853,112.569678 27.4677503,113.222468 C26.5791152,113.875258 26.3879252,115.12483 27.0407153,116.013465 C28.139989,117.509893 29.2889824,118.94033 30.4841269,120.300076 C31.2120677,121.128272 32.4735663,121.209545 33.3017627,120.481605 C34.1299592,119.753664 34.2112325,118.492165 33.4832916,117.663969 Z M26.0273892,107.080328 C25.1892121,105.592726 24.3974354,104.057394 23.6544799,102.478501 C23.185008,101.480802 21.9956309,101.052589 20.9979319,101.522061 C20.0002328,101.991533 19.5720202,103.18091 20.0414921,104.178609 C20.8258011,105.845385 21.6623049,107.467447 22.5485885,109.040429 C23.0898553,110.001073 24.3073949,110.341046 25.2680392,109.799779 C26.2286834,109.258512 26.568656,108.040973 26.0273892,107.080328 Z M15.234242,91.4480155 C15.0074956,90.368945 15.6984408,89.3103711 16.7775114,89.0836247 C17.0349928,89.0295063 17.2160878,89.0078705 17.5344707,89.0486806 L18.8445331,89.2166035 L19.2024383,90.4879672 C19.6672298,92.1390162 20.1804479,93.7628627 20.7406469,95.3560407 C21.1064075,96.3962457 20.5596624,97.5360061 19.5194574,97.9017667 C18.4792524,98.2675273 17.339492,97.7207822 16.9737314,96.6805772 C16.4495068,95.1897085 15.9646656,93.6739488 15.520231,92.1358404 C15.386185,91.9324203 15.2873755,91.700874 15.234242,91.4480155 Z M17.5953222,92.9919777 C17.5332599,93.0049364 17.4747482,93.0153174 17.4121142,93.0214812 C17.4730163,93.0145315 17.534135,93.0047292 17.5953222,92.9919777 Z M10.4393395,87.9920129 C9.18817841,87.2546493 8.04689172,86.2156611 7.08199676,84.9314877 C6.41963974,84.0499603 5.16807419,83.8722877 4.28654686,84.5346447 C3.40501952,85.1970017 3.22734688,86.4485673 3.8897039,87.3300946 C5.16352055,89.0254102 6.69669336,90.4211581 8.4119768,91.4320491 C9.36191658,91.9918899 10.5858355,91.6756522 11.1456763,90.7257124 C11.705517,89.7757726 11.3892793,88.5518537 10.4393395,87.9920129 Z M4.30967054,78.4961858 C4.10490325,77.4225103 3.99908931,76.3150329 3.99654693,75.188958 C3.99650544,74.6594459 4.01590452,74.1691618 4.0556261,73.6787507 C4.14464427,72.5797134 3.32586197,71.6166041 2.22682465,71.527586 C1.12778734,71.4385678 0.164678074,72.2573501 0.0756599049,73.3563874 C0.0271533541,73.9552597 0.00349614694,74.5531617 0.00355203019,75.1936397 C0.00665912009,76.5719196 0.136112335,77.9268122 0.387365774,79.2442328 C0.593933252,80.3273473 1.63942711,81.0379291 2.72254166,80.8313617 C3.80565622,80.6247942 4.51623802,79.5793003 4.30967054,78.4961858 Z M6.08733353,66.8859408 C6.88524692,65.4755676 7.87851027,64.2647896 9.00920296,63.3167624 C9.85414251,62.6083244 9.96479889,61.3490631 9.25636088,60.5041235 C8.54792288,59.659184 7.28866156,59.5485276 6.44372201,60.2569656 C4.93927697,61.5183648 3.64083856,63.1011481 2.6119638,64.9197632 C2.06901886,65.87946 2.40686303,67.0975919 3.36655989,67.6405368 C4.32625674,68.1834818 5.54438859,67.8456376 6.08733353,66.8859408 Z M16.2992707,58.3345576 C16.4286621,56.5707627 16.5994257,54.8376305 16.8113695,53.1371308 C16.9477428,52.0429601 16.1712946,51.045407 15.0771239,50.9090337 C13.9829532,50.7726604 12.9854001,51.5491086 12.8490268,52.6432794 C12.6286581,54.4113741 12.451269,56.2117511 12.3169719,58.0424175 C12.2362997,59.1420989 13.0623698,60.0989646 14.1620513,60.1796369 C15.2617327,60.2603091 16.2185984,59.434239 16.2992707,58.3345576 Z M18.1042651,45.4194485 C18.4723293,43.6942959 18.8879707,42.0124567 19.350707,40.3761608 C19.6507597,39.3151351 19.0338693,38.211763 17.9728436,37.9117102 C16.9118178,37.6116574 15.8084457,38.2285479 15.5083929,39.2895736 C15.021739,41.0104453 14.585214,42.7767875 14.1991543,44.5862865 C13.969083,45.6646531 14.6567621,46.7253515 15.7351287,46.9554229 C16.8134952,47.1854942 17.8741937,46.497815 18.1042651,45.4194485 Z M21.8716,33.0267298 C22.5348811,31.4064512 23.2524717,29.8457936 24.0234951,28.3471111 C24.5279246,27.3666224 24.1420024,26.1628583 23.1615137,25.6584288 C22.181025,25.1539992 20.977261,25.5399214 20.4728314,26.5204101 C19.6485206,28.1226704 18.8827655,29.788079 18.1762427,31.5139894 C17.7585109,32.5344341 18.2471064,33.7003065 19.2675511,34.1180382 C20.2879959,34.53577 21.4538682,34.0471745 21.8716,33.0267298 Z M28.0263031,21.7839488 C29.0354468,20.3829067 30.1043165,19.0592055 31.2317396,17.8149836 C31.9721262,16.9978944 31.9099465,15.7353107 31.0928572,14.994924 C30.2757679,14.2545374 29.0131842,14.3167171 28.2727976,15.1338064 C27.0444394,16.48942 25.8818587,17.9291741 24.7862779,19.4502209 C24.1418368,20.3449292 24.3447184,21.5926563 25.2394266,22.2370974 C26.1341349,22.8815386 27.381862,22.678657 28.0263031,21.7839488 Z M36.8782019,12.6204048 C38.2256483,11.5952273 39.6330925,10.6583683 41.0995028,9.81151342 C42.0543513,9.26008651 42.3813891,8.03900905 41.8299622,7.08416057 C41.2785353,6.12931208 40.0574578,5.80227427 39.1026093,6.35370117 C37.4898546,7.28507021 35.9418617,8.31548492 34.4604331,9.44260004 C33.5829066,10.1102485 33.4127667,11.3628603 34.0804152,12.2403868 C34.7480636,13.1179134 36.0006754,13.2880532 36.8782019,12.6204048 Z M47.9704212,6.65683496 C49.5492929,6.1000455 51.1811364,5.62927762 52.865101,5.24582264 C53.9402165,5.00100848 54.6133087,3.9309941 54.3684945,2.85587863 C54.1236804,1.78076315 53.053666,1.10767094 51.9785505,1.3524851 C50.1458882,1.76979997 48.3666492,2.28308974 46.6424448,2.89113081 C45.6025743,3.25784135 45.0568704,4.39810058 45.4235809,5.43797107 C45.7902915,6.47784155 46.9305507,7.02354551 47.9704212,6.65683496 Z M60.503345,4.13346949 C61.8060434,4.04258336 63.1339277,3.99680069 64.4866513,3.99650148 C64.8881444,3.99650006 65.2759685,4.00024457 65.6633178,4.00782104 C66.7657435,4.02938426 67.6769165,3.15317215 67.6984797,2.05074651 C67.7200429,0.948320873 66.8438308,0.0371478734 65.7414052,0.0155846535 C65.3278607,0.00749580883 64.9140053,0.00349996043 64.4862024,0.00350152509 C63.0412413,0.00382109222 61.620976,0.0527888665 60.2254385,0.150152154 C59.1254758,0.226893902 58.2959913,1.18080134 58.3727331,2.28076405 C58.4494748,3.38072676 59.4033822,4.21021124 60.503345,4.13346949 Z M73.330052,4.69602114 C75.0420259,4.97899876 76.7042139,5.34716314 78.315784,5.79932757 C79.3774249,6.09719627 80.4795252,5.47803653 80.7773939,4.41639559 C81.0752626,3.35475464 80.4561029,2.25265432 79.3944619,1.95478562 C77.6413257,1.46290143 75.8364249,1.06312703 73.9812319,0.756476276 C72.8933566,0.57665791 71.8656879,1.31278348 71.6858695,2.40065875 C71.5060511,3.48853403 72.2421767,4.51620277 73.330052,4.69602114 Z M85.4673274,8.51559236 C86.9945527,9.26317301 88.4636358,10.1013714 89.8736011,11.0285847 C90.7948811,11.6344316 92.032862,11.3787226 92.6387089,10.4574426 C93.2445558,9.53616261 92.9888468,8.29818168 92.0675668,7.69233478 C90.5169132,6.67260278 88.9013987,5.75085675 87.2228694,4.9292124 C86.2325179,4.44443286 85.0366879,4.85427989 84.5519084,5.84463137 C84.0671288,6.83498285 84.4769759,8.03081282 85.4673274,8.51559236 Z M95.8035624,15.7846008 C97.0108911,16.952151 98.1590657,18.2024148 99.2469069,19.5333529 C99.9447121,20.3870948 101.20249,20.5135064 102.056231,19.8157012 C102.909973,19.117896 103.036385,17.8601186 102.33858,17.0063767 C101.152919,15.5557598 99.8993884,14.1907723 98.579358,12.9142336 C97.786728,12.1477188 96.5227914,12.1688894 95.7562766,12.9615194 C94.9897618,13.7541494 95.0109324,15.018086 95.8035624,15.7846008 Z M103.642321,25.9074018 C104.487628,27.3626643 105.278187,28.8838 106.013035,30.4684657 C106.476906,31.4687812 107.663863,31.9036555 108.664179,31.4397847 C109.664494,30.9759139 110.099369,29.7889563 109.635498,28.7886408 C108.849621,27.0939349 108.002563,25.4640885 107.095099,23.9018155 C106.541271,22.9483573 105.319375,22.6243925 104.365917,23.1782199 C103.412459,23.7320473 103.088494,24.9539436 103.642321,25.9074018 Z M108.807216,37.6076139 C109.333393,39.2204185 109.811097,40.8821133 110.239766,42.5904246 C110.508131,43.6599044 111.592669,44.3093358 112.662149,44.0409701 C113.731629,43.7726044 114.38106,42.6880663 114.112695,41.6185865 C113.661723,39.8213909 113.158457,38.0707809 112.603297,36.3691422 C112.261303,35.3208832 111.13428,34.7483426 110.086021,35.0903371 C109.037762,35.4323317 108.465221,36.5593548 108.807216,37.6076139 Z M111.787783,50.2722388 C112.050743,51.9627602 112.271298,53.6884601 112.4492,55.4473081 C112.560163,56.5443471 113.539441,57.3437202 114.63648,57.2327579 C115.733519,57.1217956 116.532892,56.142517 116.42193,55.045478 C116.236918,53.2163426 116.007335,51.4199993 115.733335,49.6585083 C115.563858,48.5689741 114.543228,47.8231203 113.453694,47.9925973 C112.36416,48.1620744 111.618306,49.1827046 111.787783,50.2722388 Z M117.911655,61.9522357 C119.20782,62.5899755 120.406515,63.5442336 121.439009,64.7628984 C122.151777,65.604188 123.41159,65.708375 124.25288,64.9956064 C125.09417,64.2828379 125.198357,63.0230248 124.485588,62.1817352 C123.106676,60.5541886 121.475263,59.2554523 119.674471,58.3694258 C118.685106,57.8826374 117.488446,58.2900568 117.001658,59.2794225 C116.51487,60.2687881 116.922289,61.4654473 117.911655,61.9522357 Z M124.527706,71.0393872 C124.838779,72.3460292 125.000307,73.7113366 125.003453,75.1058229 C125.003495,75.3739055 124.999308,75.6055501 124.990395,75.8407963 C124.948647,76.9426423 125.808027,77.8697075 126.909873,77.9114546 C128.011719,77.9532016 128.938785,77.0938217 128.980532,75.9919757 C128.991402,75.7050585 128.996503,75.4228677 128.996448,75.100977 C128.992601,73.3942089 128.794716,71.7215921 128.412143,70.1146176 C128.156775,69.04196 127.080197,68.3794159 126.00754,68.634784 C124.934882,68.8901521 124.272338,69.9667296 124.527706,71.0393872 Z M123.272801,82.732032 C122.546689,84.184935 121.619239,85.4566862 120.544002,86.4827745 C119.746303,87.2440119 119.716744,88.5077801 120.477982,89.3054799 C121.239219,90.1031796 122.502987,90.1327382 123.300687,89.3715007 C124.715347,88.021504 125.915991,86.375139 126.844582,84.5170883 C127.337512,83.5307681 126.93754,82.3315991 125.95122,81.8386694 C124.964899,81.3457397 123.76573,81.7457118 123.272801,82.732032 Z M114.603281,89.2472847 C115.703242,89.1705188 116.657168,89.9999824 116.733934,91.0999434 C116.810699,92.1999045 115.981236,93.1538301 114.881275,93.230596 C114.595522,93.2505386 114.308686,93.26078 114.017756,93.2612585 C113.088913,93.2612756 112.184342,93.1633022 111.295104,92.9684772 C110.218015,92.7324956 109.536163,91.6680419 109.772145,90.5909532 C110.008126,89.5138646 111.07258,88.8320126 112.149669,89.0679942 C112.758259,89.2013316 113.376293,89.2682703 114.014417,89.2682613 C114.211502,89.2679353 114.407823,89.2609257 114.603281,89.2472847 Z"></path>
            </g>
        </g>
    </g>
</svg>