<svg width="17" height="17" viewBox="0 0 17 17" fill="none" xmlns="http://www.w3.org/2000/svg">
<g clip-path="url(#clip0_1744_2432)">
<path d="M12.775 9.675C13.065 9.675 13.3 9.43995 13.3 9.15C13.3 8.86005 13.065 8.625 12.775 8.625C12.4851 8.625 12.25 8.86005 12.25 9.15C12.25 9.43995 12.4851 9.675 12.775 9.675Z" fill="#777777"/>
<path d="M12.775 7.57499C13.0225 7.57499 13.2249 7.37249 13.2249 7.12499C13.2249 6.87749 13.0225 6.67499 12.775 6.67499C12.5275 6.67499 12.325 6.87749 12.325 7.12499C12.325 7.37249 12.5275 7.57499 12.775 7.57499Z" fill="#777777"/>
<path d="M12.775 5.40002C12.9821 5.40002 13.15 5.23213 13.15 5.02502C13.15 4.81792 12.9821 4.65002 12.775 4.65002C12.5679 4.65002 12.4 4.81792 12.4 5.02502C12.4 5.23213 12.5679 5.40002 12.775 5.40002Z" fill="#777777"/>
<path d="M4.52502 5.40002C4.73213 5.40002 4.90002 5.23213 4.90002 5.02502C4.90002 4.81792 4.73213 4.65002 4.52502 4.65002C4.31792 4.65002 4.15002 4.81792 4.15002 5.02502C4.15002 5.23213 4.31792 5.40002 4.52502 5.40002Z" fill="#777777"/>
<path d="M4.52495 7.57499C4.77245 7.57499 4.97495 7.37249 4.97495 7.12499C4.97495 6.87749 4.77245 6.67499 4.52495 6.67499C4.27745 6.67499 4.07495 6.87749 4.07495 7.12499C4.07495 7.37249 4.27745 7.57499 4.52495 7.57499Z" fill="#777777"/>
<path d="M4.52495 9.60001C4.77245 9.60001 4.97495 9.39751 4.97495 9.15001C4.97495 8.90251 4.77245 8.70001 4.52495 8.70001C4.27745 8.70001 4.07495 8.90251 4.07495 9.15001C4.07495 9.39751 4.27745 9.60001 4.52495 9.60001Z" fill="#777777"/>
<path d="M2.42498 15.225C2.37998 15.225 2.34998 15.255 2.34998 15.3C2.34998 15.345 2.37998 15.375 2.42498 15.375C2.46998 15.375 2.49998 15.345 2.49998 15.3C2.49998 15.255 2.46998 15.225 2.42498 15.225Z" fill="#777777"/>
<path d="M14.8 15.15C14.7175 15.15 14.65 15.2175 14.65 15.3C14.65 15.3825 14.7175 15.45 14.8 15.45C14.8825 15.45 14.95 15.3825 14.95 15.3C14.95 15.2175 14.8825 15.15 14.8 15.15Z" fill="#777777"/>
<path d="M14.8 13.05C14.6725 13.05 14.575 13.1475 14.575 13.275C14.575 13.4025 14.6725 13.5 14.8 13.5C14.9275 13.5 15.025 13.4025 15.025 13.275C15.025 13.1475 14.9275 13.05 14.8 13.05Z" fill="#777777"/>
<path d="M14.8 10.875C14.635 10.875 14.5 11.01 14.5 11.175C14.5 11.34 14.635 11.475 14.8 11.475C14.965 11.475 15.1 11.34 15.1 11.175C15.1 11.01 14.965 10.875 14.8 10.875Z" fill="#777777"/>
<path d="M14.8 9.52502C15.0072 9.52502 15.175 9.35713 15.175 9.15002C15.175 8.94292 15.0072 8.77502 14.8 8.77502C14.5929 8.77502 14.425 8.94292 14.425 9.15002C14.425 9.35713 14.5929 9.52502 14.8 9.52502Z" fill="#777777"/>
<path d="M14.8 7.42501C14.965 7.42501 15.1 7.29001 15.1 7.12501C15.1 6.96001 14.965 6.82501 14.8 6.82501C14.635 6.82501 14.5 6.96001 14.5 7.12501C14.5 7.29001 14.635 7.42501 14.8 7.42501Z" fill="#777777"/>
<path d="M14.8 5.24999C14.9275 5.24999 15.025 5.15249 15.025 5.02499C15.025 4.89749 14.9275 4.79999 14.8 4.79999C14.6725 4.79999 14.575 4.89749 14.575 5.02499C14.575 5.15249 14.6725 5.24999 14.8 5.24999Z" fill="#777777"/>
<path d="M14.8 3.07499C14.845 3.07499 14.875 3.04499 14.875 2.99999C14.875 2.95499 14.845 2.92499 14.8 2.92499C14.755 2.92499 14.725 2.95499 14.725 2.99999C14.725 3.04499 14.755 3.07499 14.8 3.07499Z" fill="#777777"/>
<path d="M12.775 3.22502C12.9025 3.22502 13 3.12752 13 3.00002C13 2.87252 12.9025 2.77502 12.775 2.77502C12.6475 2.77502 12.55 2.87252 12.55 3.00002C12.55 3.12752 12.6475 3.22502 12.775 3.22502Z" fill="#777777"/>
<path d="M10.675 3.30001C10.84 3.30001 10.975 3.16501 10.975 3.00001C10.975 2.83501 10.84 2.70001 10.675 2.70001C10.51 2.70001 10.375 2.83501 10.375 3.00001C10.375 3.16501 10.51 3.30001 10.675 3.30001Z" fill="#777777"/>
<path d="M8.64998 3.30001C8.81498 3.30001 8.94998 3.16501 8.94998 3.00001C8.94998 2.83501 8.81498 2.70001 8.64998 2.70001C8.48498 2.70001 8.34998 2.83501 8.34998 3.00001C8.34998 3.16501 8.48498 3.30001 8.64998 3.30001Z" fill="#777777"/>
<path d="M6.55 3.30001C6.715 3.30001 6.85 3.16501 6.85 3.00001C6.85 2.83501 6.715 2.70001 6.55 2.70001C6.385 2.70001 6.25 2.83501 6.25 3.00001C6.25 3.16501 6.385 3.30001 6.55 3.30001Z" fill="#777777"/>
<path d="M4.52505 3.22502C4.65255 3.22502 4.75005 3.12752 4.75005 3.00002C4.75005 2.87252 4.65255 2.77502 4.52505 2.77502C4.39755 2.77502 4.30005 2.87252 4.30005 3.00002C4.30005 3.12752 4.39755 3.22502 4.52505 3.22502Z" fill="#777777"/>
<path d="M2.42498 3.07499C2.46998 3.07499 2.49998 3.04499 2.49998 2.99999C2.49998 2.95499 2.46998 2.92499 2.42498 2.92499C2.37998 2.92499 2.34998 2.95499 2.34998 2.99999C2.34998 3.04499 2.37998 3.07499 2.42498 3.07499Z" fill="#777777"/>
<path d="M2.42495 5.24999C2.55245 5.24999 2.64995 5.15249 2.64995 5.02499C2.64995 4.89749 2.55245 4.79999 2.42495 4.79999C2.29745 4.79999 2.19995 4.89749 2.19995 5.02499C2.19995 5.15249 2.29745 5.24999 2.42495 5.24999Z" fill="#777777"/>
<path d="M2.425 6.82501C2.26 6.82501 2.125 6.96001 2.125 7.12501C2.125 7.29001 2.26 7.42501 2.425 7.42501C2.59 7.42501 2.725 7.29001 2.725 7.12501C2.725 6.96001 2.59 6.82501 2.425 6.82501Z" fill="#777777"/>
<path d="M2.425 8.84998C2.26 8.84998 2.125 8.98498 2.125 9.14998C2.125 9.31498 2.26 9.44998 2.425 9.44998C2.59 9.44998 2.725 9.31498 2.725 9.14998C2.725 8.98498 2.59 8.84998 2.425 8.84998Z" fill="#777777"/>
<path d="M2.425 10.875C2.26 10.875 2.125 11.01 2.125 11.175C2.125 11.34 2.26 11.475 2.425 11.475C2.59 11.475 2.725 11.34 2.725 11.175C2.725 11.01 2.59 10.875 2.425 10.875Z" fill="#777777"/>
<path d="M2.42495 13.05C2.29745 13.05 2.19995 13.1475 2.19995 13.275C2.19995 13.4025 2.29745 13.5 2.42495 13.5C2.55245 13.5 2.64995 13.4025 2.64995 13.275C2.64995 13.1475 2.55245 13.05 2.42495 13.05Z" fill="#777777"/>
<path d="M16.825 13.2C16.78 13.2 16.75 13.23 16.75 13.275C16.75 13.32 16.78 13.35 16.825 13.35C16.87 13.35 16.9 13.32 16.9 13.275C16.9 13.23 16.87 13.2 16.825 13.2Z" fill="#777777"/>
<path d="M16.825 11.025C16.7425 11.025 16.675 11.0925 16.675 11.175C16.675 11.2575 16.7425 11.325 16.825 11.325C16.9075 11.325 16.975 11.2575 16.975 11.175C16.975 11.0925 16.9075 11.025 16.825 11.025Z" fill="#777777"/>
<path d="M16.825 9C16.7425 9 16.675 9.0675 16.675 9.15C16.675 9.2325 16.7425 9.3 16.825 9.3C16.9075 9.3 16.975 9.2325 16.975 9.15C16.975 9.0675 16.9075 9 16.825 9Z" fill="#777777"/>
<path d="M16.825 7.27497C16.9075 7.27497 16.975 7.20748 16.975 7.12498C16.975 7.04248 16.9075 6.97498 16.825 6.97498C16.7425 6.97498 16.675 7.04248 16.675 7.12498C16.675 7.20748 16.7425 7.27497 16.825 7.27497Z" fill="#777777"/>
<path d="M16.825 5.10001C16.87 5.10001 16.9 5.07001 16.9 5.02501C16.9 4.98001 16.87 4.95001 16.825 4.95001C16.78 4.95001 16.75 4.98001 16.75 5.02501C16.75 5.07001 16.78 5.10001 16.825 5.10001Z" fill="#777777"/>
<path d="M12.775 0.975012C12.82 0.975012 12.8499 0.945012 12.8499 0.900012C12.8499 0.855012 12.82 0.825012 12.775 0.825012C12.73 0.825012 12.7 0.855012 12.7 0.900012C12.7 0.945012 12.73 0.975012 12.775 0.975012Z" fill="#777777"/>
<path d="M10.675 1.05C10.7575 1.05 10.825 0.9825 10.825 0.9C10.825 0.8175 10.7575 0.75 10.675 0.75C10.5925 0.75 10.525 0.8175 10.525 0.9C10.525 0.9825 10.5925 1.05 10.675 1.05Z" fill="#777777"/>
<path d="M8.65 1.05C8.73284 1.05 8.8 0.982843 8.8 0.9C8.8 0.817157 8.73284 0.75 8.65 0.75C8.56716 0.75 8.5 0.817157 8.5 0.9C8.5 0.982843 8.56716 1.05 8.65 1.05Z" fill="#777777"/>
<path d="M6.54998 0.975012C6.59497 0.975012 6.62498 0.945012 6.62498 0.900012C6.62498 0.855012 6.59497 0.825012 6.54998 0.825012C6.50498 0.825012 6.47498 0.855012 6.47498 0.900012C6.47498 0.945012 6.50498 0.975012 6.54998 0.975012Z" fill="#777777"/>
<path d="M0.399951 7.19999C0.444951 7.19999 0.474951 7.16999 0.474951 7.12499C0.474951 7.07999 0.444951 7.04999 0.399951 7.04999C0.354951 7.04999 0.324951 7.07999 0.324951 7.12499C0.324951 7.16999 0.354951 7.19999 0.399951 7.19999Z" fill="#777777"/>
<path d="M0.4 9.3C0.482843 9.3 0.55 9.23284 0.55 9.15C0.55 9.06716 0.482843 9 0.4 9C0.317157 9 0.25 9.06716 0.25 9.15C0.25 9.23284 0.317157 9.3 0.4 9.3Z" fill="#777777"/>
<path d="M0.4 11.325C0.482843 11.325 0.55 11.2579 0.55 11.175C0.55 11.0922 0.482843 11.025 0.4 11.025C0.317157 11.025 0.25 11.0922 0.25 11.175C0.25 11.2579 0.317157 11.325 0.4 11.325Z" fill="#777777"/>
<path d="M0.399951 13.2C0.354951 13.2 0.324951 13.23 0.324951 13.275C0.324951 13.32 0.354951 13.35 0.399951 13.35C0.444951 13.35 0.474951 13.32 0.474951 13.275C0.474951 13.23 0.444951 13.2 0.399951 13.2Z" fill="#777777"/>
<path d="M10.795 9.51748C11.5375 8.87998 11.9725 7.94248 11.9725 6.95998C11.9725 5.10748 10.465 3.59998 8.61253 3.59998C6.76003 3.59998 5.25253 5.10748 5.25253 6.95998C5.25253 7.94248 5.68753 8.87998 6.43003 9.51748C4.46503 10.38 3.16003 12.3525 3.16003 14.5125C3.16003 15.57 4.02253 16.425 5.07253 16.425H12.145C13.2025 16.425 14.0575 15.5625 14.0575 14.5125C14.0575 12.36 12.7525 10.3875 10.7875 9.51748H10.795ZM8.61253 10.3275C10.9225 10.3275 12.7975 12.2025 12.7975 14.5125C12.7975 14.8725 12.505 15.165 12.145 15.165L5.08003 15.165C4.72003 15.165 4.42753 14.8725 4.42753 14.5125C4.42753 12.2025 6.30253 10.3275 8.61253 10.3275ZM8.61253 9.06748C7.45753 9.06748 6.51253 8.12998 6.51253 6.96748C6.51253 5.80498 7.45003 4.86748 8.61253 4.86748C9.77503 4.86748 10.7125 5.80498 10.7125 6.96748C10.7125 8.12998 9.77503 9.06748 8.61253 9.06748Z" fill="#777777"/>
</g>
<defs>
<clipPath id="clip0_1744_2432">
<rect width="16.725" height="15.9375" fill="white" transform="translate(0.25 0.75)"/>
</clipPath>
</defs>
</svg>
