<svg width="18" height="18" viewBox="0 0 18 18" fill="none" xmlns="http://www.w3.org/2000/svg">
<g clip-path="url(#clip0_1744_3401)">
<path d="M13.275 9.675C13.5675 9.675 13.8 9.4425 13.8 9.15C13.8 8.8575 13.5675 8.625 13.275 8.625C12.9825 8.625 12.75 8.8575 12.75 9.15C12.75 9.4425 12.9825 9.675 13.275 9.675Z" fill="#777777"/>
<path d="M13.275 7.57499C13.5225 7.57499 13.7249 7.37249 13.7249 7.12499C13.7249 6.87749 13.5225 6.67499 13.275 6.67499C13.0275 6.67499 12.825 6.87749 12.825 7.12499C12.825 7.37249 13.0275 7.57499 13.275 7.57499Z" fill="#777777"/>
<path d="M13.275 5.40002C13.4821 5.40002 13.65 5.23213 13.65 5.02502C13.65 4.81792 13.4821 4.65002 13.275 4.65002C13.0679 4.65002 12.9 4.81792 12.9 5.02502C12.9 5.23213 13.0679 5.40002 13.275 5.40002Z" fill="#777777"/>
<path d="M5.02502 5.40002C5.23213 5.40002 5.40002 5.23213 5.40002 5.02502C5.40002 4.81792 5.23213 4.65002 5.02502 4.65002C4.81792 4.65002 4.65002 4.81792 4.65002 5.02502C4.65002 5.23213 4.81792 5.40002 5.02502 5.40002Z" fill="#777777"/>
<path d="M5.02495 7.57499C5.27245 7.57499 5.47495 7.37249 5.47495 7.12499C5.47495 6.87749 5.27245 6.67499 5.02495 6.67499C4.77745 6.67499 4.57495 6.87749 4.57495 7.12499C4.57495 7.37249 4.77745 7.57499 5.02495 7.57499Z" fill="#777777"/>
<path d="M5.02495 9.60001C5.27245 9.60001 5.47495 9.39751 5.47495 9.15001C5.47495 8.90251 5.27245 8.70001 5.02495 8.70001C4.77745 8.70001 4.57495 8.90251 4.57495 9.15001C4.57495 9.39751 4.77745 9.60001 5.02495 9.60001Z" fill="#777777"/>
<path d="M2.92498 15.225C2.87998 15.225 2.84998 15.255 2.84998 15.3C2.84998 15.345 2.87998 15.375 2.92498 15.375C2.96998 15.375 2.99998 15.345 2.99998 15.3C2.99998 15.255 2.96998 15.225 2.92498 15.225Z" fill="#777777"/>
<path d="M15.3 9.52503C15.5072 9.52503 15.675 9.35713 15.675 9.15002C15.675 8.94292 15.5072 8.77502 15.3 8.77502C15.0929 8.77502 14.925 8.94292 14.925 9.15002C14.925 9.35713 15.0929 9.52503 15.3 9.52503Z" fill="#777777"/>
<path d="M15.3 7.42501C15.465 7.42501 15.6 7.29001 15.6 7.12501C15.6 6.96001 15.465 6.82501 15.3 6.82501C15.135 6.82501 15 6.96001 15 7.12501C15 7.29001 15.135 7.42501 15.3 7.42501Z" fill="#777777"/>
<path d="M15.3 5.24999C15.4242 5.24999 15.525 5.14925 15.525 5.02499C15.525 4.90072 15.4242 4.79999 15.3 4.79999C15.1757 4.79999 15.075 4.90072 15.075 5.02499C15.075 5.14925 15.1757 5.24999 15.3 5.24999Z" fill="#777777"/>
<path d="M15.3 3.07499C15.345 3.07499 15.375 3.04499 15.375 2.99999C15.375 2.95499 15.345 2.92499 15.3 2.92499C15.255 2.92499 15.225 2.95499 15.225 2.99999C15.225 3.04499 15.255 3.07499 15.3 3.07499Z" fill="#777777"/>
<path d="M13.275 3.22502C13.4025 3.22502 13.5 3.12752 13.5 3.00002C13.5 2.87252 13.4025 2.77502 13.275 2.77502C13.1475 2.77502 13.05 2.87252 13.05 3.00002C13.05 3.12752 13.1475 3.22502 13.275 3.22502Z" fill="#777777"/>
<path d="M11.175 3.30001C11.34 3.30001 11.475 3.16501 11.475 3.00001C11.475 2.83501 11.34 2.70001 11.175 2.70001C11.01 2.70001 10.875 2.83501 10.875 3.00001C10.875 3.16501 11.01 3.30001 11.175 3.30001Z" fill="#777777"/>
<path d="M9.14998 3.30001C9.31498 3.30001 9.44998 3.16501 9.44998 3.00001C9.44998 2.83501 9.31498 2.70001 9.14998 2.70001C8.98498 2.70001 8.84998 2.83501 8.84998 3.00001C8.84998 3.16501 8.98498 3.30001 9.14998 3.30001Z" fill="#777777"/>
<path d="M7.05 3.30001C7.215 3.30001 7.35 3.16501 7.35 3.00001C7.35 2.83501 7.215 2.70001 7.05 2.70001C6.885 2.70001 6.75 2.83501 6.75 3.00001C6.75 3.16501 6.885 3.30001 7.05 3.30001Z" fill="#777777"/>
<path d="M5.02505 3.22502C5.14931 3.22502 5.25005 3.12429 5.25005 3.00002C5.25005 2.87576 5.14931 2.77502 5.02505 2.77502C4.90078 2.77502 4.80005 2.87576 4.80005 3.00002C4.80005 3.12429 4.90078 3.22502 5.02505 3.22502Z" fill="#777777"/>
<path d="M2.92498 3.07499C2.96998 3.07499 2.99998 3.04499 2.99998 2.99999C2.99998 2.95499 2.96998 2.92499 2.92498 2.92499C2.87998 2.92499 2.84998 2.95499 2.84998 2.99999C2.84998 3.04499 2.87998 3.07499 2.92498 3.07499Z" fill="#777777"/>
<path d="M2.92495 5.24999C3.04922 5.24999 3.14995 5.14925 3.14995 5.02499C3.14995 4.90072 3.04922 4.79999 2.92495 4.79999C2.80069 4.79999 2.69995 4.90072 2.69995 5.02499C2.69995 5.14925 2.80069 5.24999 2.92495 5.24999Z" fill="#777777"/>
<path d="M2.925 6.82501C2.76 6.82501 2.625 6.96001 2.625 7.12501C2.625 7.29001 2.76 7.42501 2.925 7.42501C3.09 7.42501 3.225 7.29001 3.225 7.12501C3.225 6.96001 3.09 6.82501 2.925 6.82501Z" fill="#777777"/>
<path d="M2.925 8.84998C2.76 8.84998 2.625 8.98498 2.625 9.14998C2.625 9.31498 2.76 9.44998 2.925 9.44998C3.09 9.44998 3.225 9.31498 3.225 9.14998C3.225 8.98498 3.09 8.84998 2.925 8.84998Z" fill="#777777"/>
<path d="M2.925 10.875C2.76 10.875 2.625 11.01 2.625 11.175C2.625 11.34 2.76 11.475 2.925 11.475C3.09 11.475 3.225 11.34 3.225 11.175C3.225 11.01 3.09 10.875 2.925 10.875Z" fill="#777777"/>
<path d="M2.92495 13.5C3.04922 13.5 3.14995 13.3993 3.14995 13.275C3.14995 13.1507 3.04922 13.05 2.92495 13.05C2.80069 13.05 2.69995 13.1507 2.69995 13.275C2.69995 13.3993 2.80069 13.5 2.92495 13.5Z" fill="#777777"/>
<path d="M17.325 13.2C17.28 13.2 17.25 13.23 17.25 13.275C17.25 13.32 17.28 13.35 17.325 13.35C17.37 13.35 17.4 13.32 17.4 13.275C17.4 13.23 17.37 13.2 17.325 13.2Z" fill="#777777"/>
<path d="M17.325 11.025C17.2425 11.025 17.175 11.0925 17.175 11.175C17.175 11.2575 17.2425 11.325 17.325 11.325C17.4075 11.325 17.475 11.2575 17.475 11.175C17.475 11.0925 17.4075 11.025 17.325 11.025Z" fill="#777777"/>
<path d="M17.325 9.3C17.4079 9.3 17.475 9.23284 17.475 9.15C17.475 9.06716 17.4079 9 17.325 9C17.2422 9 17.175 9.06716 17.175 9.15C17.175 9.23284 17.2422 9.3 17.325 9.3Z" fill="#777777"/>
<path d="M17.325 7.27498C17.4079 7.27498 17.475 7.20782 17.475 7.12498C17.475 7.04213 17.4079 6.97498 17.325 6.97498C17.2422 6.97498 17.175 7.04213 17.175 7.12498C17.175 7.20782 17.2422 7.27498 17.325 7.27498Z" fill="#777777"/>
<path d="M17.325 5.10001C17.37 5.10001 17.4 5.07001 17.4 5.02501C17.4 4.98001 17.37 4.95001 17.325 4.95001C17.28 4.95001 17.25 4.98001 17.25 5.02501C17.25 5.07001 17.28 5.10001 17.325 5.10001Z" fill="#777777"/>
<path d="M13.275 0.975012C13.32 0.975012 13.3499 0.945012 13.3499 0.900012C13.3499 0.855012 13.32 0.825012 13.275 0.825012C13.23 0.825012 13.2 0.855012 13.2 0.900012C13.2 0.945012 13.23 0.975012 13.275 0.975012Z" fill="#777777"/>
<path d="M11.175 1.05C11.2579 1.05 11.325 0.982843 11.325 0.9C11.325 0.817157 11.2579 0.75 11.175 0.75C11.0922 0.75 11.025 0.817157 11.025 0.9C11.025 0.982843 11.0922 1.05 11.175 1.05Z" fill="#777777"/>
<path d="M9.15 1.05C9.2325 1.05 9.3 0.9825 9.3 0.9C9.3 0.8175 9.2325 0.75 9.15 0.75C9.0675 0.75 9 0.8175 9 0.9C9 0.9825 9.0675 1.05 9.15 1.05Z" fill="#777777"/>
<path d="M7.04998 0.975012C7.09497 0.975012 7.12498 0.945012 7.12498 0.900012C7.12498 0.855012 7.09497 0.825012 7.04998 0.825012C7.00498 0.825012 6.97498 0.855012 6.97498 0.900012C6.97498 0.945012 7.00498 0.975012 7.04998 0.975012Z" fill="#777777"/>
<path d="M0.899951 7.19999C0.944951 7.19999 0.974951 7.16999 0.974951 7.12499C0.974951 7.07999 0.944951 7.04999 0.899951 7.04999C0.854951 7.04999 0.824951 7.07999 0.824951 7.12499C0.824951 7.16999 0.854951 7.19999 0.899951 7.19999Z" fill="#777777"/>
<path d="M0.9 9C0.8175 9 0.75 9.0675 0.75 9.15C0.75 9.2325 0.8175 9.3 0.9 9.3C0.9825 9.3 1.05 9.2325 1.05 9.15C1.05 9.0675 0.9825 9 0.9 9Z" fill="#777777"/>
<path d="M0.9 11.025C0.8175 11.025 0.75 11.0925 0.75 11.175C0.75 11.2575 0.8175 11.325 0.9 11.325C0.9825 11.325 1.05 11.2575 1.05 11.175C1.05 11.0925 0.9825 11.025 0.9 11.025Z" fill="#777777"/>
<path d="M0.899951 13.2C0.854951 13.2 0.824951 13.23 0.824951 13.275C0.824951 13.32 0.854951 13.35 0.899951 13.35C0.944951 13.35 0.974951 13.32 0.974951 13.275C0.974951 13.23 0.944951 13.2 0.899951 13.2Z" fill="#777777"/>
<path d="M10.545 15.165H5.58003C5.22003 15.165 4.92753 14.8725 4.92753 14.5125C4.92753 12.2025 6.80253 10.3275 9.11253 10.3275C9.99003 10.3275 10.8 10.5975 11.475 11.055C11.835 10.77 12.2475 10.5525 12.705 10.4325C12.285 10.0575 11.8125 9.74253 11.2875 9.51003H11.295C12.0375 8.87253 12.4725 7.93503 12.4725 6.95253C12.4725 5.10003 10.965 3.59253 9.11253 3.59253C7.26003 3.59253 5.75253 5.10003 5.75253 6.95253C5.75253 7.93503 6.18753 8.87253 6.93003 9.51003C4.96503 10.3725 3.66003 12.345 3.66003 14.505C3.66003 15.5625 4.52253 16.4175 5.57253 16.4175H11.61C11.16 16.095 10.7925 15.66 10.545 15.1575V15.165ZM9.11253 4.86753C10.275 4.86753 11.2125 5.80503 11.2125 6.96753C11.2125 8.13003 10.275 9.06753 9.11253 9.06753C7.95003 9.06753 7.01253 8.13003 7.01253 6.96753C7.01253 5.80503 7.95003 4.86753 9.11253 4.86753Z" fill="#777777"/>
<path d="M13.5601 10.3125C11.7001 10.3125 10.1851 11.82 10.1851 13.68C10.1851 15.54 11.6926 17.0475 13.5601 17.0475C15.4276 17.0475 16.9276 15.54 16.9276 13.68C16.9276 11.82 15.4201 10.3125 13.5601 10.3125ZM11.3326 13.6875H11.3401C11.3401 13.095 11.5726 12.5325 11.9926 12.1125C12.4126 11.6925 12.9751 11.46 13.5676 11.46C13.9576 11.46 14.3476 11.565 14.6776 11.76L11.6326 14.7975C11.4376 14.46 11.3326 14.0775 11.3326 13.6875ZM15.1351 15.2625C14.4376 15.96 13.2901 16.1025 12.4501 15.615L15.4876 12.5775C15.6826 12.915 15.7876 13.2975 15.7876 13.6875C15.7876 14.28 15.5551 14.8425 15.1351 15.2625Z" fill="#777777"/>
</g>
<defs>
<clipPath id="clip0_1744_3401">
<rect width="16.725" height="16.305" fill="white" transform="translate(0.75 0.75)"/>
</clipPath>
</defs>
</svg>
