<svg xmlns="http://www.w3.org/2000/svg" width="25" height="24">
    <path fill-rule="evenodd" fill="#fcaf15" d="m24.085 17.955-4.964-5.637a.434.434 0 0 1 0-.583l4.964-5.637c.304-.344.915-.149.915.292v11.274c0 .44-.611.635-.915.291zM16.219 4.964c1.382 0 2.503 1.018 2.503 2.272v8.014L8.628 4.964h7.591zm7.549 17.513c0 .292-.112.566-.315.773a1.058 1.058 0 0 1-1.516 0L1.546 2.472a1.097 1.097 0 0 1-.315-.773c0-.292.112-.566.315-.773a1.06 1.06 0 0 1 1.517 0l20.391 20.778c.202.206.314.481.314.773zm-7.409-3.278c-.047.003-.092.013-.14.013H2.503c-1.383 0-2.504-1.017-2.504-2.273V7.236c0-1.222 1.066-2.211 2.399-2.262l13.961 14.225z"/>
</svg>
