<svg xmlns="http://www.w3.org/2000/svg" width="15" height="22">
    <path fill-rule="evenodd" fill="#FFF" d="M14.412 14.338a7.176 7.176 0 0 1-1.611 2.282 7.525 7.525 0 0 1-2.386 1.542 7.603 7.603 0 0 1-1.947.507v1.485h3.47c.529 0 .963.415.963.922 0 .507-.434.922-.963.922H3.072c-.53 0-.964-.415-.964-.922 0-.507.434-.922.964-.922h3.469v-1.485a7.603 7.603 0 0 1-1.947-.507 7.525 7.525 0 0 1-2.386-1.542 7.176 7.176 0 0 1-1.611-2.282 6.814 6.814 0 0 1-.592-2.786v-.251c0-.509.433-.922.964-.922.532 0 .964.413.964.922v.251c0 .715.147 1.41.438 2.065a5.364 5.364 0 0 0 1.2 1.699 5.623 5.623 0 0 0 1.776 1.149c.685.278 1.41.419 2.158.419.747 0 1.473-.141 2.157-.419a5.623 5.623 0 0 0 1.776-1.149 5.364 5.364 0 0 0 1.2-1.699c.291-.655.439-1.35.439-2.065v-.251c0-.509.432-.922.963-.922.531 0 .964.413.964.922v.251c0 .965-.199 1.902-.592 2.786zm-6.907 1.205c-2.39 0-4.346-1.871-4.346-4.158V4.158C3.159 1.871 5.115 0 7.505 0s4.345 1.871 4.345 4.158v7.227c0 2.287-1.955 4.158-4.345 4.158z"/>
</svg>
