<svg xmlns="http://www.w3.org/2000/svg" width="24" height="24">
    <path fill-rule="evenodd" fill="#5cc3ff" d="M22.743 23.25a1.089 1.089 0 0 1-1.545 0L.422 2.472a1.086 1.086 0 0 1-.321-.773c0-.292.114-.566.321-.773a1.089 1.089 0 0 1 1.545 0l20.777 20.778c.206.206.32.481.32.773 0 .292-.114.566-.321.773zm-4.29-7.47-1.49-1.49c.178-.53.295-1.075.295-1.639v-.256c0-.518.44-.939.982-.939.541 0 .981.421.981.939v.256c0 .982-.202 1.936-.602 2.837-.046.102-.116.191-.166.292zM7.218 4.544c.3-2.055 2.137-3.656 4.365-3.656 2.434 0 4.426 1.906 4.426 4.234v7.359c0 .264-.033.521-.082.773l-8.709-8.71zm-.061 7.937V10.84l5.679 5.68c-.4.114-.815.195-1.253.195-2.435 0-4.426-1.906-4.426-4.234zm-2.231-1.025c.541 0 .982.421.982.939v.256c0 .728.149 1.436.446 2.102a5.437 5.437 0 0 0 1.223 1.731 5.728 5.728 0 0 0 1.808 1.17 5.82 5.82 0 0 0 2.198.427c.761 0 1.5-.144 2.197-.427.044-.018.082-.046.125-.065l1.4 1.4c-.25.135-.491.285-.757.393a7.797 7.797 0 0 1-1.984.516v1.512h3.534c.54 0 .982.422.982.939 0 .516-.442.939-.982.939H7.067c-.539 0-.981-.423-.981-.939 0-.517.442-.939.981-.939h3.534v-1.512a7.8 7.8 0 0 1-4.413-2.086 7.322 7.322 0 0 1-1.641-2.324 6.948 6.948 0 0 1-.603-2.837v-.256c0-.518.441-.939.982-.939z"/>
</svg>
