<svg xmlns="http://www.w3.org/2000/svg" width="25" height="24">
    <path fill-rule="evenodd" fill="#5cc3ff" d="M23.848 16.687a9.93 9.93 0 0 1-1.603 2.166l-1.366-1.392c1.354-1.455 2.137-3.355 2.137-5.342 0-2.564-1.286-4.988-3.441-6.486a.94.94 0 0 1-.227-1.339c.194-.261.498-.4.806-.4.201 0 .403.058.578.18a10.084 10.084 0 0 1 3.102 3.452A9.664 9.664 0 0 1 25 12.119a9.666 9.666 0 0 1-1.152 4.568zm-3.273-4.568a5.496 5.496 0 0 1-1.377 3.629l-1.388-1.413a3.582 3.582 0 0 0 .781-2.216 3.675 3.675 0 0 0-1.572-2.99.94.94 0 0 1-.216-1.341c.194-.257.496-.393.802-.393.203-.001.407.06.584.184a5.724 5.724 0 0 1 1.734 1.953c.426.793.652 1.687.652 2.587zm-8.788-9.64c.245-.202.762-.557 1.341-.557h.147c.919 0 1.663.712 1.663 1.591v7.897L8.719 5.074c1.444-1.223 2.943-2.493 3.068-2.595zm11.985 20.014c0 .292-.112.567-.315.773a1.058 1.058 0 0 1-1.517 0L1.543 2.488a1.095 1.095 0 0 1-.315-.773c0-.292.112-.566.315-.772a1.05 1.05 0 0 1 .758-.32c.287 0 .556.113.759.32l20.397 20.778c.203.206.315.48.315.772zM4.755 7.393l10.183 10.373v2.93c0 .878-.744 1.591-1.663 1.591h-.147c-.579 0-1.096-.355-1.341-.557a4673.91 4673.91 0 0 1-5.806-4.915H3.199C1.361 16.815 0 15.447 0 13.69v-3.172c0-1.757 1.361-3.125 3.199-3.125h1.556z"/>
</svg>
