<svg xmlns="http://www.w3.org/2000/svg" width="25" height="20">
    <path fill-rule="evenodd" fill="#FFF" d="M23.847 14.5a9.962 9.962 0 0 1-3.07 3.383c-.176.122-.38.18-.582.18a1.01 1.01 0 0 1-.803-.388.913.913 0 0 1 .219-1.317c2.132-1.472 3.405-3.843 3.405-6.344 0-2.517-1.287-4.899-3.442-6.369a.914.914 0 0 1-.227-1.316c.194-.256.498-.392.807-.392.2 0 .402.057.577.177a9.958 9.958 0 0 1 3.103 3.39A9.364 9.364 0 0 1 25 10.014c0 1.56-.399 3.111-1.153 4.486zm-3.273-4.486c0 .873-.22 1.742-.637 2.515a5.653 5.653 0 0 1-1.699 1.909 1.024 1.024 0 0 1-.593.187c-.302 0-.601-.131-.795-.379a.912.912 0 0 1 .201-1.319c.979-.693 1.54-1.755 1.54-2.913 0-1.156-.588-2.253-1.572-2.936a.912.912 0 0 1-.216-1.317 1.03 1.03 0 0 1 1.386-.205 5.657 5.657 0 0 1 1.734 1.917c.426.779.651 1.658.651 2.541zM13.275 20h-.147c-.579 0-1.096-.349-1.341-.547-.246-.198-5.807-4.826-5.807-4.826H3.199C1.361 14.627 0 13.283 0 11.557V8.442c0-1.725 1.361-3.069 3.199-3.069H5.98S11.541.745 11.787.547C12.032.349 12.549 0 13.128 0h.147c.918 0 1.663.699 1.663 1.562v16.875c0 .863-.745 1.563-1.663 1.563z"/>
</svg>
