<svg width="668" height="182" viewBox="0 0 668 182" fill="none" xmlns="http://www.w3.org/2000/svg">
<path d="M192.794 69.8701C193.044 71.3301 193.244 72.8 193.424 74.27C193.244 72.83 193.034 71.3702 192.794 69.9102V69.8701ZM173.514 29.4102C173.774 29.7102 174.044 30.0101 174.294 30.3101L173.514 29.4102ZM190.314 59.52C191.02 61.8134 191.624 64.1467 192.124 66.52C191.624 64.15 191.034 61.8301 190.314 59.5701V59.52ZM192.314 67.29C192.474 68.06 192.624 68.8301 192.754 69.6101C192.614 68.8701 192.464 68.1001 192.304 67.3301L192.314 67.29ZM193.574 75.5801C193.647 76.2467 193.708 76.9134 193.754 77.5801C193.701 76.9067 193.637 76.2534 193.564 75.6201L193.574 75.5801ZM193.964 80.9202C193.964 80.7002 193.964 80.48 193.964 80.26C193.964 80.49 193.964 80.7102 193.964 80.9302V80.9202ZM106.174 1.16016L107.234 1.1001C106.824 1.1601 106.474 1.18996 106.124 1.20996L106.174 1.16016ZM187.784 52.3401C187.984 52.8101 188.184 53.28 188.364 53.75C188.134 53.33 187.934 52.8601 187.734 52.3901L187.784 52.3401ZM189.364 56.4302C189.584 57.0702 189.804 57.7201 190.014 58.3701C189.744 57.7801 189.534 57.13 189.314 56.49L189.364 56.4302ZM222.784 66.6802C220.054 58.6802 207.534 57.5201 194.784 58.3501C195.679 61.2895 196.42 64.2735 197.004 67.29C198.554 67.22 200.004 67.1802 201.304 67.1802C210.304 67.1802 213.754 68.7201 214.304 69.5801C214.444 70.8601 211.544 75.84 198.614 84.26C197.364 85.08 196.024 85.9301 194.614 86.8101C192.834 87.8901 190.914 89.03 188.814 90.21C170.284 100.65 144.874 111.59 117.254 121.01C92.7942 129.36 68.9842 135.7 49.2542 139.17C47.4742 139.484 45.7242 139.773 44.0042 140.04L41.824 140.37C17.384 143.92 9.74398 140.95 9.01398 139.68C8.80398 138.24 12.6639 131.78 31.7239 120.68C30.4472 117.926 29.319 115.105 28.3441 112.23C14.4741 120.23 -3.1558 131.9 0.484197 142.59C2.7442 149.21 11.7042 151.15 21.9642 151.15C28.5634 151.044 35.1481 150.496 41.6741 149.51C44.8041 149.08 48.0839 148.51 51.4539 147.94C53.2639 147.62 55.0939 147.28 56.9739 146.94C71.0057 159.285 88.8078 166.508 107.474 167.43L105.984 171.43L103.254 178.64C103.108 179.047 103.087 179.488 103.193 179.907C103.3 180.326 103.529 180.703 103.851 180.991C104.173 181.279 104.574 181.464 105.002 181.523C105.43 181.581 105.866 181.511 106.254 181.32C111.254 178.62 119.254 174.32 127.094 170.13C134.934 165.94 142.684 161.86 147.094 159.64C171.044 147.64 189.014 125.16 193.514 97.96L194.464 97.4302C195.584 96.7902 196.734 96.1202 197.894 95.4302C211.084 87.5102 226.134 76.69 222.734 66.74L222.784 66.6802ZM126.864 53.9102C133.36 56.0935 140.108 57.4377 146.944 57.9102C146.04 46.8004 142.983 35.9725 137.944 26.03C130.316 33.2667 123.544 41.3566 117.764 50.1401C120.702 51.5949 123.724 52.8737 126.814 53.97L126.864 53.9102ZM147.304 63.5801C139.733 63.1384 132.255 61.6785 125.074 59.24C121.506 58.0356 118.018 56.6026 114.634 54.95C108.654 64.5971 103.425 74.6904 98.994 85.1401C96.6989 90.6714 94.7159 96.3268 93.054 102.08C97.3444 104.106 101.748 105.883 106.244 107.4C112.656 109.562 119.24 111.177 125.924 112.23C131.204 110.31 136.384 108.34 141.414 106.34C146.094 90.3201 147.734 76.0801 147.254 63.6401L147.304 63.5801ZM152.304 58.1301C158.349 58.1434 164.356 57.1809 170.094 55.28C164.557 43.9657 156.002 34.4007 145.374 27.6401C149.061 36.4461 151.342 45.7763 152.134 55.29C152.174 56.28 152.184 57.2502 152.254 58.1902L152.304 58.1301ZM91.5042 107.56C90.0742 112.95 88.764 118.74 87.744 124.62C96.674 122.07 105.874 119.19 115.174 116.01L115.504 115.9C111.814 115.02 108.114 113.97 104.444 112.73C100.024 111.266 95.6869 109.561 91.4539 107.62L91.5042 107.56ZM175.344 69.6702C174.552 66.497 173.55 63.3801 172.344 60.3401C165.987 62.5117 159.321 63.6397 152.604 63.6802C152.775 77.1932 151.161 90.6696 147.804 103.76C158.694 99.26 168.804 94.64 177.734 90.05C177.79 83.2004 176.969 76.3717 175.294 69.73L175.344 69.6702ZM54.8538 80.47C53.1655 84.5879 51.8113 88.8351 50.804 93.1702C47.629 106.397 48.1932 120.246 52.4339 133.17C61.5439 131.4 71.4342 129.08 81.6942 126.28C82.8632 119.107 84.4221 112.003 86.3641 105C74.3812 98.9457 63.6683 90.6532 54.804 80.5701L54.8538 80.47ZM45.7938 92.02C47.081 86.4748 48.8995 81.0666 51.2239 75.8701C43.9939 66.0001 39.7538 55.37 39.3138 44.98C37.9848 47.14 36.7666 49.3664 35.6639 51.6501C33.6149 55.9433 31.8317 60.3583 30.324 64.8701C28.8392 71.1352 28.0872 77.5514 28.0838 83.99C28.0578 102.257 34.0895 120.017 45.2342 134.49L47.1439 134.17H47.324C42.9775 120.545 42.4312 105.993 45.744 92.0801L45.7938 92.02ZM174.794 30.79L174.384 30.29C174.134 29.99 173.864 29.6901 173.604 29.3901C172.964 28.6601 172.334 27.95 171.674 27.25L171.244 26.8C167.775 23.1299 163.979 19.7827 159.904 16.8L159.744 16.6902C158.174 15.5502 156.544 14.48 154.894 13.45C151.644 15.2927 148.524 17.3543 145.554 19.6201C156.021 21.0107 166.01 24.8589 174.704 30.8501L174.794 30.79ZM83.6839 37.1101C85.2939 35.9901 86.914 34.98 88.534 33.96C84.2469 28.4188 81.4326 21.8823 80.3538 14.96C66.7986 18.0678 54.6249 25.5065 45.6741 36.1501C43.3641 47.2401 46.584 59.15 54.034 70.24C61.1333 57.034 71.264 45.7006 83.5941 37.1702L83.6839 37.1101ZM80.3738 6.90015C80.0038 7.05015 79.6242 7.18009 79.2542 7.34009L78.2542 7.75C77.3442 8.15 76.4338 8.54998 75.5438 8.97998L74.6341 9.42017C73.7541 9.85017 72.8842 10.29 72.0242 10.75L71.0242 11.29C70.2242 11.73 69.4339 12.1902 68.6439 12.6602L67.494 13.3601L66.6439 13.9001C70.9689 12.023 75.4671 10.5727 80.074 9.57007C80.034 8.74007 80.164 7.83996 80.284 6.95996L80.3738 6.90015ZM180.514 68.3701C182.053 74.5598 182.892 80.9029 183.014 87.28C184.294 86.59 185.554 85.9 186.774 85.21C188.874 84.03 190.774 82.8901 192.574 81.8101L194.024 80.9102C194.024 80.6902 194.024 80.47 194.024 80.24C194.024 79.34 193.924 78.43 193.854 77.54C193.807 76.8734 193.747 76.2067 193.674 75.54C193.674 75.1 193.584 74.67 193.534 74.23C193.354 72.76 193.154 71.2901 192.904 69.8301C192.904 69.7401 192.904 69.6601 192.854 69.5701C192.724 68.7901 192.574 68.02 192.414 67.25L192.234 66.4302C191.734 64.0902 191.131 61.7568 190.424 59.4302L190.074 58.3C189.864 57.65 189.644 57.0001 189.424 56.3601C189.104 55.4501 188.774 54.5602 188.424 53.6702C188.244 53.2002 188.044 52.73 187.844 52.26C187.644 51.79 187.534 51.5302 187.384 51.1602C184.422 54.0516 181.003 56.4335 177.264 58.21C178.543 61.5427 179.599 64.9571 180.424 68.4302L180.514 68.3701ZM139.804 17.05C142.8 14.5889 145.95 12.3209 149.234 10.26C147.164 9.18001 145.034 8.18001 142.864 7.26001L142.614 7.16016C141.444 6.68016 140.264 6.22005 139.074 5.80005C136.694 4.95005 134.254 4.21008 131.774 3.58008L131.074 3.41016C130.074 3.15016 129.004 2.91995 127.964 2.69995L127.344 2.57007H127.074C131.989 6.75928 136.249 11.6602 139.714 17.1101L139.804 17.05ZM97.2142 7.72998C108.515 7.82289 119.702 9.99946 130.214 14.1501C126.596 9.58105 122.275 5.61507 117.414 2.40015C116.694 1.93015 115.944 1.53009 115.204 1.09009C114.024 1.03009 112.844 1.01 111.654 1H111.144C109.844 1 108.564 1.0001 107.294 1.1001L106.234 1.16016C105.234 1.21016 104.234 1.29013 103.234 1.38013L102.344 1.46997C99.7374 1.73664 97.1674 2.13015 94.6341 2.65015L94.1238 2.75C91.5838 3.28333 89.0905 3.92684 86.6439 4.68018C86.2765 5.94175 86.0224 7.23338 85.8841 8.54004C89.6088 8.02949 93.3643 7.77889 97.1238 7.79004L97.2142 7.72998ZM129.214 19.4302C119.048 15.2904 108.19 13.1151 97.2142 13.02C93.4074 13.0265 89.6065 13.3208 85.8441 13.9001C86.4941 19.7001 89.1238 25.6001 93.3338 31.1401C105.034 24.6301 117.144 20.63 129.094 19.49L129.214 19.4302ZM175.054 53.22C178.627 51.4991 181.831 49.0977 184.484 46.1501C176.13 36.4966 165.069 29.5742 152.734 26.28C162.209 33.3517 169.827 42.6167 174.934 53.28L175.054 53.22ZM112.844 47.6201C118.355 39.2752 124.679 31.4972 131.724 24.4001C120.124 25.1701 108.254 28.8301 96.7239 35.1401C101.392 40.1057 106.787 44.3339 112.724 47.6802L112.844 47.6201ZM91.8441 37.96C90.1141 39.03 88.3841 40.1301 86.6741 41.3201C74.2734 49.8688 64.2299 61.4084 57.4739 74.8701C64.9239 84.2201 75.3938 92.8 88.0438 99.53C89.7158 93.8956 91.6788 88.3517 93.9241 82.9202C98.4253 72.3328 103.737 62.109 109.814 52.3401C103.041 48.5751 96.9225 43.7392 91.6942 38.02L91.8441 37.96Z" fill="url(#paint0_linear_18177_25966)"/>
<path d="M273.381 15.7524H254.221V2.66233H307.351V15.7524H288.181V69.8325H273.381V15.7524ZM346.381 69.8325H332.721V63.5625H332.531C331.976 64.5153 331.323 65.4068 330.581 66.2224C329.743 67.1536 328.768 67.9526 327.691 68.5923C326.473 69.3262 325.165 69.9011 323.801 70.3025C322.262 70.7536 320.665 70.9759 319.061 70.9624C316.046 71.0832 313.044 70.5156 310.281 69.3025C308.14 68.2954 306.329 66.6999 305.061 64.7024C303.776 62.5884 302.939 60.2332 302.601 57.7824C302.17 54.923 301.962 52.0341 301.981 49.1423V23.7224H316.211V46.3025C316.211 47.6325 316.211 49.0023 316.351 50.4323C316.432 51.779 316.722 53.1048 317.211 54.3623C317.654 55.5238 318.408 56.5412 319.391 57.3025C320.632 58.14 322.117 58.541 323.611 58.4424C325.16 58.5053 326.698 58.1605 328.071 57.4424C329.17 56.8131 330.073 55.8926 330.681 54.7824C331.298 53.6141 331.698 52.3435 331.861 51.0324C332.057 49.5874 332.153 48.1306 332.151 46.6723V23.6723H346.381V69.8325ZM385.461 35.1023H372.941V50.4624C372.933 51.6218 372.997 52.7807 373.131 53.9323C373.225 54.8813 373.515 55.8005 373.981 56.6323C374.445 57.4135 375.145 58.0266 375.981 58.3823C377.141 58.8422 378.384 59.0536 379.631 59.0024C380.635 58.9846 381.637 58.9044 382.631 58.7624C383.654 58.6948 384.631 58.3141 385.431 57.6723V69.5324C383.838 70.1057 382.184 70.4883 380.501 70.6723C378.841 70.8573 377.172 70.9508 375.501 70.9524C373.265 70.9717 371.036 70.7199 368.861 70.2024C366.953 69.742 365.15 68.9206 363.551 67.7824C362.021 66.6632 360.797 65.1777 359.991 63.4624C359.086 61.4356 358.649 59.2312 358.711 57.0124V35.0923H349.601V23.7124H358.711V10.0625H372.941V23.7224H385.461V35.1023ZM388.591 46.7724C388.544 43.3352 389.225 39.9271 390.591 36.7724C391.866 33.8774 393.725 31.2764 396.051 29.1323C398.423 26.9835 401.196 25.3252 404.211 24.2524C407.418 23.0993 410.803 22.5204 414.211 22.5425C417.619 22.5204 421.004 23.0993 424.211 24.2524C427.227 25.3228 430.001 26.9814 432.371 29.1323C434.697 31.2764 436.556 33.8774 437.831 36.7724C439.201 39.9256 439.883 43.3348 439.831 46.7724C439.885 50.2103 439.203 53.6199 437.831 56.7724C436.558 59.6689 434.699 62.2702 432.371 64.4123C430.005 66.5705 427.23 68.2333 424.211 69.3025C421.003 70.4522 417.618 71.0276 414.211 71.0024C410.804 71.0276 407.419 70.4522 404.211 69.3025C401.193 68.2301 398.42 66.5677 396.051 64.4123C393.723 62.2702 391.864 59.6689 390.591 56.7724C389.21 53.6214 388.515 50.2127 388.551 46.7724H388.591ZM402.821 46.7724C402.692 49.8709 403.767 52.8992 405.821 55.2224C407.821 57.3691 410.621 58.4424 414.221 58.4424C417.821 58.4424 420.618 57.3691 422.611 55.2224C424.665 52.8992 425.741 49.8709 425.611 46.7724C425.738 43.6773 424.663 40.6532 422.611 38.3325C420.611 36.1792 417.814 35.1023 414.221 35.1023C410.628 35.1023 407.828 36.1792 405.821 38.3325C403.755 40.647 402.665 43.6719 402.781 46.7724H402.821ZM445.821 23.7724H460.021V31.1723H460.211C461.463 28.6312 463.317 26.4344 465.611 24.7724C467.957 23.2706 470.707 22.5236 473.491 22.6323C474.311 22.6323 475.131 22.6324 475.951 22.7324C476.721 22.7857 477.485 22.9128 478.231 23.1123V36.1123C477.248 35.8078 476.246 35.5706 475.231 35.4023C474.212 35.2394 473.182 35.1592 472.151 35.1623C469.943 35.0655 467.742 35.4548 465.701 36.3025C464.195 36.9785 462.917 38.0759 462.021 39.4624C461.119 40.9531 460.549 42.621 460.351 44.3523C460.091 46.4286 459.968 48.5198 459.981 50.6123V69.8723H445.751L445.821 23.7724ZM505.961 2.71238H518.201L547.421 69.8823H530.721L524.931 55.6523H498.851L493.251 69.8823H476.931L505.961 2.71238ZM511.651 22.2524L503.491 43.1223H519.911L511.651 22.2524ZM551.781 2.71238H576.831C579.765 2.71586 582.696 2.92314 585.601 3.33249C588.364 3.6867 591.044 4.51908 593.521 5.79246C595.83 7.00275 597.792 8.78215 599.221 10.9624C600.791 13.6311 601.548 16.6998 601.401 19.7925C601.532 23.2192 600.4 26.5746 598.221 29.2224C596 31.7881 593.082 33.6535 589.821 34.5923V34.7724C591.908 35.0594 593.935 35.6841 595.821 36.6223C597.569 37.5032 599.145 38.6922 600.471 40.1323C601.784 41.59 602.803 43.2879 603.471 45.1323C604.158 47.0812 604.497 49.136 604.471 51.2024C604.584 54.3172 603.792 57.3982 602.191 60.0725C600.7 62.4136 598.687 64.3781 596.311 65.8125C593.804 67.3061 591.062 68.3643 588.201 68.9424C585.242 69.5702 582.226 69.8885 579.201 69.8923H551.691L551.781 2.71238ZM566.581 29.5625H577.301C578.435 29.5613 579.565 29.4338 580.671 29.1823C581.736 28.9489 582.752 28.5291 583.671 27.9424C584.558 27.3735 585.29 26.5935 585.801 25.6723C586.366 24.6228 586.645 23.4437 586.611 22.2524C586.657 21.0357 586.344 19.8324 585.711 18.7925C585.132 17.8927 584.329 17.1586 583.381 16.6623C582.371 16.1325 581.284 15.7616 580.161 15.5625C579.003 15.3464 577.828 15.2359 576.651 15.2324H566.591L566.581 29.5625ZM566.581 57.3523H579.861C581.028 57.3525 582.192 57.2252 583.331 56.9724C584.463 56.7399 585.539 56.2917 586.501 55.6523C587.453 55.0139 588.249 54.1698 588.831 53.1823C589.46 52.0532 589.771 50.7745 589.731 49.4824C589.794 48.1029 589.373 46.7447 588.541 45.6423C587.747 44.6561 586.714 43.8886 585.541 43.4123C584.296 42.892 582.988 42.5389 581.651 42.3623C580.362 42.1815 579.062 42.0882 577.761 42.0825H566.561L566.581 57.3523ZM654.811 20.1623C653.37 18.4024 651.533 17.0078 649.451 16.0923C647.13 15.1004 644.625 14.6131 642.101 14.6623C639.434 14.6375 636.794 15.1903 634.361 16.2824C632.016 17.3356 629.917 18.8686 628.201 20.7824C626.413 22.7932 625.028 25.1288 624.121 27.6623C623.122 30.4288 622.624 33.3513 622.651 36.2925C622.615 39.2507 623.113 42.191 624.121 44.9724C625.02 47.4773 626.376 49.7934 628.121 51.8025C629.786 53.7066 631.829 55.2426 634.121 56.3125C636.454 57.3947 638.999 57.9445 641.571 57.9223C644.377 57.9771 647.151 57.3273 649.641 56.0324C651.976 54.7612 653.961 52.9339 655.421 50.7124L667.751 59.9123C665.033 63.7983 661.291 66.8549 656.941 68.7424C652.695 70.6089 648.109 71.5759 643.471 71.5825C638.523 71.6343 633.606 70.801 628.951 69.1223C624.683 67.5708 620.777 65.1652 617.471 62.0525C614.197 58.9112 611.627 55.1107 609.931 50.9023C608.078 46.2574 607.161 41.2927 607.231 36.2925C607.161 31.2922 608.078 26.3273 609.931 21.6823C611.627 17.4767 614.197 13.6796 617.471 10.5425C620.774 7.42632 624.681 5.0201 628.951 3.47239C633.604 1.78549 638.522 0.948879 643.471 1.00242C645.458 1.01365 647.442 1.18758 649.401 1.52244C651.474 1.87607 653.507 2.43197 655.471 3.18235C657.496 3.95327 659.422 4.96022 661.211 6.18235C663.077 7.47798 664.739 9.04545 666.141 10.8325L654.811 20.1623Z" fill="#333333"/>
<path d="M296.641 142.77C296.648 145.788 296.377 148.801 295.831 151.77C295.352 154.536 294.303 157.171 292.751 159.51C291.103 161.856 288.859 163.72 286.251 164.91C282.761 166.387 278.987 167.071 275.201 166.91C270.428 167.068 265.722 165.744 261.731 163.12C258.058 160.587 255.685 156.633 254.611 151.26L268.181 147.94C268.359 149.565 269.158 151.06 270.411 152.11C271.613 153.216 273.188 153.827 274.821 153.82C276.268 153.913 277.697 153.456 278.821 152.54C279.781 151.678 280.501 150.583 280.911 149.36C281.365 148.029 281.637 146.643 281.721 145.24C281.811 143.75 281.861 142.37 281.861 141.11V98.04H296.661L296.641 142.77ZM349.571 165.25H335.911V158.99H335.721C335.174 159.945 334.523 160.837 333.781 161.65C332.939 162.581 331.961 163.38 330.881 164.02C329.665 164.757 328.357 165.332 326.991 165.73C325.452 166.183 323.855 166.405 322.251 166.39C319.24 166.51 316.241 165.942 313.481 164.73C311.34 163.723 309.53 162.128 308.261 160.13C306.973 158.017 306.132 155.661 305.791 153.21C305.368 150.35 305.164 147.461 305.181 144.57V119.15H319.411V141.73C319.411 143.06 319.411 144.43 319.551 145.85C319.628 147.2 319.915 148.529 320.401 149.79C320.848 150.95 321.601 151.966 322.581 152.73C323.826 153.567 325.314 153.968 326.811 153.87C328.357 153.939 329.894 153.594 331.261 152.87C332.364 152.25 333.268 151.332 333.871 150.22C334.491 149.052 334.894 147.782 335.061 146.47C335.253 145.025 335.347 143.568 335.341 142.11V119.11H349.571V165.25ZM357.261 119.15H370.921V125.41H371.111C371.614 124.437 372.254 123.541 373.011 122.75C373.88 121.831 374.869 121.034 375.951 120.38C377.17 119.65 378.477 119.079 379.841 118.68C381.378 118.219 382.976 117.993 384.581 118.01C387.579 117.893 390.565 118.46 393.311 119.67C395.427 120.696 397.216 122.288 398.481 124.27C399.772 126.39 400.625 128.746 400.991 131.2C401.451 134.053 401.674 136.94 401.661 139.83V165.25H387.411V142.68C387.411 141.35 387.361 139.97 387.261 138.55C387.184 137.2 386.898 135.871 386.411 134.61C385.968 133.449 385.214 132.431 384.231 131.67C382.989 130.834 381.505 130.433 380.011 130.53C378.463 130.466 376.924 130.811 375.551 131.53C374.448 132.154 373.544 133.076 372.941 134.19C372.32 135.354 371.916 136.621 371.751 137.93C371.559 139.379 371.466 140.839 371.471 142.3V165.25H357.241L357.261 119.15ZM408.391 104.63C408.378 103.545 408.586 102.469 409.002 101.466C409.418 100.464 410.033 99.5569 410.811 98.8C411.568 98.0223 412.475 97.4067 413.477 96.9907C414.48 96.5747 415.556 96.367 416.641 96.3801C417.728 96.3656 418.806 96.5727 419.81 96.9887C420.814 97.4048 421.723 98.0211 422.481 98.8C423.259 99.5569 423.874 100.464 424.291 101.466C424.707 102.469 424.914 103.545 424.901 104.63C424.916 105.717 424.709 106.795 424.292 107.799C423.876 108.803 423.26 109.712 422.481 110.47C421.723 111.249 420.814 111.865 419.81 112.281C418.806 112.697 417.728 112.905 416.641 112.89C415.556 112.903 414.48 112.695 413.477 112.279C412.475 111.863 411.568 111.248 410.811 110.47C410.036 109.71 409.423 108.801 409.01 107.797C408.598 106.793 408.394 105.715 408.411 104.63H408.391ZM409.531 119.15H423.761V165.25H409.531V119.15ZM429.931 142.15C429.877 138.712 430.559 135.302 431.931 132.15C433.203 129.256 435.059 126.655 437.381 124.51C439.753 122.361 442.526 120.703 445.541 119.63C448.748 118.477 452.133 117.898 455.541 117.92C458.949 117.898 462.334 118.477 465.541 119.63C468.556 120.703 471.33 122.361 473.701 124.51C476.021 126.657 477.876 129.257 479.151 132.15C480.523 135.302 481.205 138.712 481.151 142.15C481.205 145.588 480.523 148.997 479.151 152.15C477.879 155.044 476.024 157.645 473.701 159.79C471.333 161.945 468.559 163.608 465.541 164.68C462.332 165.824 458.948 166.4 455.541 166.38C452.134 166.4 448.75 165.824 445.541 164.68C442.523 163.608 439.75 161.945 437.381 159.79C435.056 157.647 433.2 155.046 431.931 152.15C430.566 149.013 429.884 145.621 429.931 142.2V142.15ZM444.151 142.15C444.022 145.248 445.097 148.277 447.151 150.6C449.151 152.75 451.941 153.82 455.551 153.82C459.161 153.82 461.951 152.75 463.941 150.6C466.004 148.282 467.08 145.25 466.941 142.15C467.081 139.053 466.004 136.024 463.941 133.71C461.941 131.563 459.144 130.487 455.551 130.48C451.941 130.48 449.151 131.56 447.151 133.71C445.081 136.039 444.004 139.087 444.151 142.2V142.15ZM487.151 119.15H501.411V126.55H501.601C502.857 124.008 504.714 121.811 507.011 120.15C509.354 118.648 512.101 117.901 514.881 118.01C515.701 118.01 516.521 118.01 517.351 118.11C518.118 118.163 518.879 118.29 519.621 118.49V131.49C518.638 131.186 517.636 130.948 516.621 130.78C515.603 130.617 514.573 130.536 513.541 130.54C511.333 130.443 509.132 130.832 507.091 131.68C505.593 132.366 504.326 133.471 503.441 134.86C502.54 136.35 501.973 138.019 501.781 139.75C501.513 141.826 501.386 143.917 501.401 146.01V165.26H487.171L487.151 119.15Z" fill="#FF66CC"/>
<defs>
<linearGradient id="paint0_linear_18177_25966" x1="53.3442" y1="23.46" x2="150.194" y2="158.65" gradientUnits="userSpaceOnUse">
<stop stop-color="#D9CACD"/>
<stop offset="1" stop-color="#FF66CC"/>
</linearGradient>
</defs>
</svg>
