<svg width="668" height="182" viewBox="0 0 668 182" fill="none" xmlns="http://www.w3.org/2000/svg">
<path d="M171.154 26.6281C171.294 26.7881 171.444 26.9283 171.584 27.0782C171.444 26.9283 171.294 26.7481 171.154 26.6281ZM159.814 16.6288C159.765 16.5865 159.711 16.5498 159.654 16.5189L159.814 16.6288ZM192.794 69.6053C193.044 71.0652 193.244 72.535 193.424 74.0049C193.244 72.605 193.034 71.135 192.794 69.6851V69.6053ZM190.314 59.2459C191.02 61.5458 191.624 63.8789 192.124 66.2454C191.624 63.9256 191.034 61.6058 190.314 59.326V59.2459ZM192.314 67.0154C192.474 67.7954 192.624 68.5654 192.754 69.3453C192.614 68.6454 192.464 67.8754 192.304 67.0955L192.314 67.0154ZM193.574 75.3149C193.644 75.9648 193.704 76.6248 193.754 77.3147C193.694 76.7448 193.634 76.0447 193.564 75.3947L193.574 75.3149ZM193.964 80.6544C193.964 80.4344 193.964 80.2145 193.964 79.9945C193.964 80.2145 193.964 80.4444 193.964 80.6644V80.6544ZM187.784 52.0665C187.984 52.5465 188.184 53.0663 188.364 53.4863C188.134 53.1063 187.934 52.6363 187.734 52.1563L187.784 52.0665ZM189.364 56.146C189.584 56.796 189.804 57.4462 190.014 58.0961C189.744 57.5561 189.534 56.9061 189.314 56.2561L189.364 56.146ZM222.784 66.3953C220.054 58.3959 207.534 57.2361 194.784 58.0761C195.679 61.0153 196.42 63.9991 197.004 67.0154C198.554 66.9454 200.004 66.9053 201.304 66.9053C210.304 66.9053 213.754 68.4454 214.304 69.3053C214.444 70.5852 211.544 75.5548 198.614 83.9842C197.364 84.8041 196.024 85.6541 194.614 86.5341C192.834 87.614 190.914 88.7438 188.814 89.9337C170.284 100.373 144.874 111.312 117.254 120.732C92.7942 129.081 68.9842 135.421 49.2542 138.89C47.4742 139.204 45.7242 139.49 44.0042 139.75C43.2742 139.87 42.534 139.99 41.824 140.09C17.384 143.64 9.74398 140.67 9.01398 139.4C8.80398 137.96 12.6639 131.501 31.7239 120.402C30.4472 117.647 29.319 114.827 28.3441 111.952C14.4741 119.952 -3.1558 131.621 0.484197 142.31C2.7442 148.93 11.7042 150.869 21.9642 150.869C28.5634 150.764 35.1481 150.216 41.6741 149.23C44.8041 148.8 48.0839 148.23 51.4539 147.66C53.2639 147.34 55.0939 147 56.9739 146.66C71.0022 159.01 88.8057 166.237 107.474 167.158L105.984 171.158L103.254 178.368C103.108 178.774 103.087 179.215 103.193 179.634C103.3 180.053 103.529 180.431 103.851 180.718C104.173 181.006 104.574 181.191 105.002 181.25C105.43 181.309 105.866 181.238 106.254 181.048C111.254 178.348 119.254 174.048 127.094 169.858C134.934 165.669 142.684 161.589 147.094 159.359C171.044 147.36 189.014 124.891 193.514 97.6932L194.464 97.1632C195.584 96.5233 196.734 95.8533 197.894 95.1634C211.084 87.2839 226.134 76.4547 222.734 66.5054L222.784 66.3953ZM126.864 53.6262C133.356 55.8309 140.105 57.1921 146.944 57.676C146.04 46.567 142.983 35.7401 137.944 25.7983C130.316 33.0345 123.544 41.1236 117.764 49.9065C120.7 51.3688 123.722 52.6512 126.814 53.7463L126.864 53.6262ZM147.304 63.3057C139.733 62.8641 132.255 61.4043 125.074 58.9659C121.506 57.7616 118.018 56.3287 114.634 54.6762C108.654 64.3227 103.425 74.4153 98.994 84.8643C96.7003 90.3922 94.7173 96.0439 93.054 101.793C97.3424 103.827 101.747 105.606 106.244 107.122C112.656 109.284 119.24 110.899 125.924 111.952C131.204 110.032 136.384 108.063 141.414 106.063C146.094 90.0939 147.734 75.8547 147.254 63.4156L147.304 63.3057ZM152.304 57.8561C158.348 57.8645 164.355 56.9022 170.094 55.0062C164.557 43.6927 156.002 34.1284 145.374 27.3683C149.061 36.1736 151.342 45.5032 152.134 55.0162C152.174 56.0562 152.184 57.0261 152.254 57.966L152.304 57.8561ZM91.5042 107.283C90.0742 112.672 88.764 118.462 87.744 124.281C96.674 121.742 105.874 118.862 115.174 115.682L115.504 115.572C111.814 114.692 108.114 113.642 104.444 112.402C100.026 110.971 95.6889 109.299 91.4539 107.392L91.5042 107.283ZM175.344 69.3951C174.551 66.2194 173.549 63.0996 172.344 60.0559C165.989 62.2356 159.322 63.3668 152.604 63.4056C152.775 76.9177 151.161 90.3933 147.804 103.483C158.694 98.9832 168.804 94.3635 177.734 89.7738C177.786 82.9414 176.965 76.1303 175.294 69.5052L175.344 69.3951ZM54.8538 80.1944C53.1655 84.312 51.8113 88.5587 50.804 92.8935C47.629 106.119 48.1932 119.967 52.4339 132.891C61.5439 131.121 71.4342 128.801 81.6942 126.001C82.8632 118.829 84.4221 111.726 86.3641 104.723C74.3821 98.6718 63.6692 90.3833 54.804 80.3045L54.8538 80.1944ZM45.7938 91.7437C47.081 86.1988 48.8995 80.791 51.2239 75.5949C43.9939 65.7256 39.7538 55.0962 39.3138 44.7069C37.9848 46.8667 36.7666 49.0927 35.6639 51.3764C33.6149 55.6692 31.8317 60.0841 30.324 64.5957C28.8383 70.8601 28.0863 77.276 28.0838 83.7142C28.0578 101.98 34.0895 119.738 45.2342 134.211L47.1439 133.891H47.324C42.9868 120.282 42.4404 105.749 45.744 91.8538L45.7938 91.7437ZM174.794 30.5179L174.384 30.018L173.604 29.1081C172.964 28.3882 172.334 27.6781 171.674 26.9681C171.534 26.8182 171.384 26.6782 171.244 26.5182C167.773 22.8507 163.977 19.504 159.904 16.5189C159.855 16.4767 159.801 16.4397 159.744 16.4088C158.174 15.2689 156.544 14.199 154.894 13.1691C151.644 15.0117 148.524 17.0731 145.554 19.3388C156.026 20.7472 166.015 24.6157 174.704 30.6278L174.794 30.5179ZM83.6839 36.8276C85.2939 35.7176 86.914 34.6976 88.534 33.6876C84.2469 28.1469 81.4326 21.6109 80.3538 14.689C66.7986 17.7966 54.6249 25.2345 45.6741 35.8774C43.3641 46.9667 46.584 58.8759 54.034 69.9551C61.1463 56.7729 71.2753 45.4591 83.5941 36.9374L83.6839 36.8276ZM80.3738 6.62947C80.0038 6.76946 79.6242 6.90964 79.2542 7.06963L78.2542 7.47951C77.3442 7.86948 76.4338 8.27944 75.5438 8.70941L74.6341 9.14932C73.7541 9.57929 72.8842 10.0193 72.0242 10.4793L71.0242 11.0193C70.2242 11.4593 69.4339 11.9191 68.6439 12.3891L67.494 13.0892L66.6439 13.629C70.9672 11.7475 75.4658 10.2974 80.074 9.29945C80.034 8.51951 80.164 7.61952 80.284 6.74958L80.3738 6.62947ZM180.514 68.0954C182.053 74.2847 182.892 80.6273 183.014 87.004C184.294 86.3141 185.554 85.614 186.774 84.9341C188.874 83.7442 190.774 82.6143 192.574 81.5344L194.024 80.6343C194.024 80.4143 194.024 80.1844 194.024 79.9645C194.024 79.0545 193.924 78.1546 193.854 77.2547C193.804 76.5947 193.744 75.9348 193.674 75.2548C193.674 74.8148 193.584 74.3848 193.534 73.9449C193.354 72.475 193.154 71.0052 192.904 69.5453C192.904 69.4553 192.904 69.3753 192.854 69.2853C192.724 68.5053 192.574 67.7353 192.414 66.9554L192.234 66.1454C191.734 63.8055 191.131 61.4723 190.424 59.1458C190.304 58.7759 190.194 58.406 190.074 58.026C189.864 57.3761 189.644 56.7262 189.424 56.0762C189.104 55.1763 188.774 54.2862 188.424 53.3962C188.244 52.9263 188.044 52.4564 187.844 51.9764L187.384 50.8864C184.418 53.7599 180.999 56.1247 177.264 57.8859C178.547 61.251 179.603 64.6986 180.424 68.2053L180.514 68.0954ZM139.804 16.7789C142.8 14.3179 145.95 12.0501 149.234 9.98935C147.164 8.90942 145.034 7.90949 142.864 6.98955L142.614 6.88946C141.444 6.4095 140.264 5.94967 139.074 5.5297C136.694 4.67975 134.254 3.93984 131.774 3.30988L131.074 3.12972C130.074 2.87973 129.004 2.6498 127.964 2.42981L127.344 2.29994H127.074C131.992 6.50461 136.253 11.422 139.714 16.8888L139.804 16.7789ZM97.2142 7.45949C108.515 7.55239 119.702 9.72857 130.214 13.879C126.596 9.31019 122.275 5.34448 117.414 2.12979C116.694 1.65982 115.944 1.26003 115.204 0.820062C114.024 0.760066 112.844 0.73998 111.654 0.72998H111.144C109.844 0.72998 108.564 0.730078 107.294 0.830071L106.234 0.879872C105.234 0.939868 104.234 1.02009 103.234 1.11008L102.344 1.18991C99.7374 1.46989 97.1674 1.86337 94.6341 2.37L94.1238 2.47986C91.5838 3.01315 89.0905 3.65638 86.6439 4.40966C86.2758 5.67096 86.0217 6.9628 85.8841 8.2695C89.61 7.77571 93.3655 7.54187 97.1238 7.56959L97.2142 7.45949ZM129.214 19.1486C119.047 15.0162 108.189 12.8449 97.2142 12.7492C93.4074 12.7556 89.6065 13.0497 85.8441 13.629C86.4941 19.4286 89.1238 25.3184 93.3338 30.858C104.328 24.5716 116.503 20.6226 129.094 19.2587L129.214 19.1486ZM175.054 52.9463C178.627 51.2255 181.831 48.8241 184.484 45.8767C176.13 36.2239 165.069 29.3022 152.734 26.0083C162.216 33.0935 169.834 42.3757 174.934 53.0564L175.054 52.9463ZM112.844 47.3469C118.355 38.9994 124.679 31.2186 131.724 24.1185C120.124 24.8984 108.254 28.5582 96.7239 34.8677C101.388 39.8507 106.783 44.0954 112.724 47.4567L112.844 47.3469ZM91.8441 37.6874C90.1141 38.7573 88.3841 39.8573 86.6741 41.0472C74.2734 49.5954 64.2299 61.1342 57.4739 74.595C64.9239 83.9443 75.3938 92.5236 88.0438 99.2532C89.7158 93.6191 91.6788 88.0753 93.9241 82.6442C98.4253 72.0576 103.737 61.8347 109.814 52.0665C103.047 48.3137 96.9289 43.4956 91.6942 37.7975L91.8441 37.6874Z" fill="url(#paint0_linear_17076_27710)"/>
<path d="M302.111 115.28C300.668 113.52 298.832 112.123 296.751 111.2C294.429 110.212 291.924 109.727 289.401 109.78C286.742 109.756 284.109 110.306 281.681 111.39C279.336 112.448 277.238 113.984 275.521 115.9C273.73 117.905 272.345 120.238 271.441 122.77C270.441 125.536 269.944 128.459 269.971 131.4C269.936 134.355 270.433 137.292 271.441 140.07C272.339 142.572 273.696 144.884 275.441 146.89C277.106 148.793 279.15 150.329 281.441 151.4C283.772 152.477 286.313 153.027 288.881 153.01C291.685 153.066 294.458 152.413 296.941 151.11C299.279 149.847 301.265 148.022 302.721 145.8L315.041 155C312.324 158.88 308.586 161.933 304.241 163.82C299.999 165.686 295.416 166.653 290.781 166.66C285.836 166.713 280.922 165.88 276.271 164.2C272.005 162.651 268.102 160.245 264.801 157.13C261.525 153.994 258.955 150.197 257.261 145.99C255.408 141.352 254.491 136.394 254.561 131.4C254.49 126.403 255.407 121.441 257.261 116.8C258.957 112.594 261.527 108.797 264.801 105.66C268.102 102.545 272.005 100.139 276.271 98.5898C280.922 96.9103 285.836 96.0772 290.781 96.1299C292.766 96.1361 294.746 96.3101 296.701 96.6499C298.774 97.0035 300.807 97.5594 302.771 98.3098C304.794 99.0783 306.717 100.085 308.501 101.31C310.367 102.606 312.029 104.173 313.431 105.96L302.111 115.28ZM333.201 93.2798V125.13H333.391C333.762 124.153 334.308 123.252 335.001 122.47C335.802 121.555 336.728 120.757 337.751 120.1C338.93 119.36 340.205 118.788 341.541 118.4C343.08 117.945 344.677 117.72 346.281 117.73C349.276 117.61 352.259 118.178 355.001 119.39C357.121 120.41 358.912 122.003 360.171 123.99C361.46 126.107 362.313 128.459 362.681 130.91C363.14 133.763 363.364 136.65 363.351 139.54V164.94H349.131V142.38C349.131 141.05 349.131 139.68 348.991 138.26C348.91 136.91 348.619 135.581 348.131 134.32C347.69 133.16 346.935 132.145 345.951 131.39C344.709 130.554 343.225 130.153 341.731 130.25C340.186 130.187 338.651 130.532 337.281 131.25C336.18 131.876 335.276 132.798 334.671 133.91C334.053 135.074 333.653 136.342 333.491 137.65C333.296 139.095 333.199 140.552 333.201 142.01V164.95H318.981V93.2898L333.201 93.2798ZM370.081 104.37C370.062 103.284 370.267 102.206 370.684 101.203C371.1 100.2 371.719 99.293 372.501 98.5398C373.256 97.7593 374.162 97.1418 375.165 96.7256C376.168 96.3093 377.245 96.1032 378.331 96.1199C379.416 96.1067 380.493 96.3144 381.495 96.7305C382.497 97.1465 383.404 97.7621 384.161 98.5398C384.94 99.295 385.556 100.202 385.971 101.205C386.385 102.208 386.59 103.285 386.571 104.37C386.585 105.454 386.379 106.53 385.965 107.532C385.551 108.535 384.937 109.442 384.161 110.2C383.403 110.976 382.496 111.59 381.494 112.004C380.491 112.418 379.415 112.624 378.331 112.61C377.246 112.628 376.169 112.424 375.166 112.01C374.163 111.595 373.256 110.979 372.501 110.2C371.721 109.447 371.103 108.542 370.687 107.541C370.271 106.54 370.065 105.464 370.081 104.38V104.37ZM371.221 118.87H385.411V164.94H371.191L371.221 118.87ZM393.301 118.87H406.951V125.13H407.141C407.649 124.16 408.288 123.265 409.041 122.47C409.909 121.551 410.899 120.753 411.981 120.1C413.201 119.372 414.508 118.8 415.871 118.4C417.409 117.944 419.007 117.718 420.611 117.73C423.606 117.612 426.589 118.18 429.331 119.39C431.446 120.413 433.233 122.006 434.491 123.99C435.783 126.106 436.64 128.459 437.011 130.91C437.467 133.764 437.687 136.65 437.671 139.54V164.94H423.411V142.38C423.411 141.05 423.361 139.68 423.271 138.26C423.19 136.91 422.899 135.581 422.411 134.32C421.97 133.16 421.215 132.145 420.231 131.39C418.993 130.554 417.512 130.153 416.021 130.25C414.472 130.186 412.934 130.531 411.561 131.25C410.46 131.876 409.556 132.798 408.951 133.91C408.333 135.074 407.933 136.342 407.771 137.65C407.576 139.095 407.479 140.552 407.481 142.01V164.95H393.261L393.301 118.87ZM488.961 156.98C486.675 159.892 483.712 162.202 480.331 163.71C476.941 165.271 473.253 166.079 469.521 166.08C466.114 166.101 462.73 165.525 459.521 164.38C456.506 163.309 453.735 161.647 451.371 159.49C449.043 157.354 447.187 154.755 445.921 151.86C444.555 148.723 443.874 145.331 443.921 141.91C443.868 138.472 444.55 135.063 445.921 131.91C447.189 129.016 449.045 126.418 451.371 124.28C453.738 122.129 456.508 120.47 459.521 119.4C462.728 118.247 466.113 117.668 469.521 117.69C472.606 117.643 475.668 118.225 478.521 119.4C481.137 120.491 483.471 122.159 485.351 124.28C487.278 126.513 488.743 129.107 489.661 131.91C490.714 135.137 491.228 138.516 491.181 141.91V146.36H458.181C458.633 148.884 459.935 151.178 461.871 152.86C463.833 154.488 466.322 155.345 468.871 155.27C470.954 155.339 473.012 154.797 474.791 153.71C476.433 152.649 477.864 151.293 479.011 149.71L488.961 156.98ZM476.961 136.69C477.011 135.555 476.826 134.423 476.418 133.363C476.01 132.303 475.388 131.338 474.591 130.53C473.768 129.684 472.777 129.019 471.681 128.579C470.586 128.138 469.411 127.93 468.231 127.97C466.805 127.945 465.387 128.203 464.061 128.73C462.93 129.195 461.889 129.851 460.981 130.67C460.142 131.448 459.463 132.382 458.981 133.42C458.514 134.451 458.243 135.56 458.181 136.69H476.961ZM523.501 132.43C522.53 131.177 521.276 130.172 519.842 129.496C518.409 128.82 516.836 128.492 515.251 128.54C514.034 128.547 512.836 128.838 511.751 129.39C511.202 129.649 510.744 130.069 510.439 130.594C510.134 131.119 509.995 131.724 510.041 132.33C510.035 132.88 510.201 133.417 510.514 133.869C510.828 134.32 511.274 134.663 511.791 134.85C513.227 135.469 514.721 135.945 516.251 136.27L522.031 137.59C524.057 138.057 526.006 138.808 527.821 139.82C529.611 140.824 531.137 142.24 532.271 143.95C533.542 146.056 534.151 148.494 534.021 150.95C534.13 153.539 533.454 156.101 532.081 158.3C530.8 160.219 529.088 161.811 527.081 162.95C524.966 164.155 522.659 164.987 520.261 165.41C517.792 165.881 515.285 166.118 512.771 166.12C509.471 166.107 506.187 165.647 503.011 164.75C499.842 163.898 496.959 162.213 494.661 159.87L503.291 150.29C504.495 151.823 505.994 153.098 507.701 154.04C509.448 154.92 511.385 155.356 513.341 155.31C514.854 155.334 516.36 155.094 517.791 154.6C518.371 154.459 518.885 154.124 519.248 153.652C519.612 153.179 519.803 152.596 519.791 152C519.798 151.425 519.635 150.861 519.322 150.378C519.009 149.896 518.56 149.517 518.031 149.29C516.614 148.61 515.119 148.103 513.581 147.78L507.791 146.45C505.78 145.995 503.837 145.279 502.011 144.32C500.213 143.38 498.68 142.005 497.551 140.32C496.281 138.214 495.671 135.776 495.801 133.32C495.735 130.882 496.307 128.469 497.461 126.32C498.531 124.399 500.021 122.744 501.821 121.48C503.707 120.183 505.81 119.234 508.031 118.68C510.354 118.082 512.743 117.78 515.141 117.78C518.255 117.795 521.351 118.243 524.341 119.11C527.344 119.944 530.062 121.583 532.201 123.85L523.501 132.43ZM582.561 156.98C580.281 159.894 577.321 162.205 573.941 163.71C570.551 165.271 566.863 166.079 563.131 166.08C559.724 166.101 556.34 165.525 553.131 164.38C550.114 163.308 547.34 161.645 544.971 159.49C542.65 157.348 540.795 154.75 539.521 151.86C538.16 148.721 537.479 145.331 537.521 141.91C537.473 138.473 538.155 135.064 539.521 131.91C540.796 129.02 542.651 126.423 544.971 124.28C547.343 122.131 550.116 120.473 553.131 119.4C556.338 118.247 559.723 117.668 563.131 117.69C566.216 117.644 569.278 118.226 572.131 119.4C574.744 120.491 577.075 122.159 578.951 124.28C580.885 126.51 582.354 129.104 583.271 131.91C584.321 135.138 584.831 138.516 584.781 141.91V146.36H551.781C552.237 148.885 553.543 151.179 555.481 152.86C557.443 154.489 559.932 155.346 562.481 155.27C564.564 155.338 566.622 154.795 568.401 153.71C570.043 152.649 571.474 151.293 572.621 149.71L582.561 156.98ZM570.561 136.69C570.616 135.555 570.433 134.421 570.025 133.36C569.617 132.3 568.992 131.336 568.191 130.53C567.37 129.683 566.381 129.018 565.287 128.577C564.194 128.136 563.02 127.929 561.841 127.97C560.414 127.945 558.997 128.203 557.671 128.73C556.539 129.192 555.497 129.849 554.591 130.67C553.749 131.445 553.069 132.38 552.591 133.42C552.121 134.45 551.846 135.559 551.781 136.69H570.561Z" fill="#CC3333"/>
<path d="M273.381 15.5222H254.221V2.43235H307.351V15.5222H288.181V69.6323H273.381V15.5222ZM346.381 69.5923H332.711V63.3322H332.521C331.971 64.2855 331.321 65.1774 330.581 65.9924C329.743 66.9237 328.769 67.7226 327.691 68.3623C326.473 69.0962 325.166 69.6708 323.801 70.0722C322.259 70.5241 320.658 70.7466 319.051 70.7324C316.04 70.8524 313.041 70.2845 310.281 69.0722C308.14 68.0652 306.33 66.4699 305.061 64.4724C303.773 62.3591 302.932 60.0036 302.591 57.5522C302.169 54.6919 301.965 51.8036 301.981 48.9123V23.4924H316.211V46.0722C316.211 47.4022 316.261 48.7724 316.351 50.1924C316.432 51.5413 316.719 52.8699 317.201 54.1323C317.648 55.2946 318.406 56.3116 319.391 57.0722C320.633 57.9098 322.117 58.311 323.611 58.2124C325.16 58.2806 326.7 57.9354 328.071 57.2124C329.169 56.5867 330.072 55.6694 330.681 54.5622C331.298 53.3939 331.698 52.1233 331.861 50.8122C332.056 49.3671 332.153 47.9106 332.151 46.4524V23.4524H346.381V69.5923ZM385.461 34.8723H372.881V50.2424C372.873 51.3986 372.937 52.554 373.071 53.7024C373.164 54.6548 373.454 55.5775 373.921 56.4123C374.385 57.1936 375.086 57.8066 375.921 58.1623C377.083 58.6175 378.325 58.8284 379.571 58.7822C380.575 58.7643 381.577 58.6842 382.571 58.5422C383.594 58.4745 384.572 58.0942 385.371 57.4524V69.3122C383.779 69.8855 382.124 70.2683 380.441 70.4524C378.781 70.6373 377.112 70.7308 375.441 70.7324C373.205 70.7541 370.975 70.4988 368.801 69.9724C366.889 69.5246 365.084 68.7019 363.491 67.5522C361.96 66.4389 360.735 64.9564 359.931 63.2424C359.022 61.2171 358.584 59.0114 358.651 56.7922V34.8723H349.541V23.4924H358.651V9.83225H372.881V23.4924H385.401L385.461 34.8723ZM388.591 46.5422C388.542 43.1049 389.224 39.6963 390.591 36.5422C391.867 33.6472 393.725 31.0464 396.051 28.9023C398.423 26.7536 401.196 25.095 404.211 24.0222C407.418 22.869 410.804 22.2902 414.211 22.3122C417.619 22.2902 421.004 22.869 424.211 24.0222C427.227 25.095 430 26.7536 432.371 28.9023C434.697 31.0464 436.556 33.6472 437.831 36.5422C439.204 39.6947 439.886 43.1044 439.831 46.5422C439.886 49.98 439.204 53.3897 437.831 56.5422C436.559 59.4387 434.7 62.0402 432.371 64.1823C430.003 66.3377 427.229 67.9999 424.211 69.0722C421.003 70.2174 417.618 70.7926 414.211 70.7722C410.804 70.7931 407.42 70.2178 404.211 69.0722C401.194 67.9999 398.42 66.3377 396.051 64.1823C393.723 62.0402 391.864 59.4387 390.591 56.5422C389.21 53.3911 388.515 49.9825 388.551 46.5422H388.591ZM402.821 46.5422C402.685 49.6387 403.761 52.6666 405.821 54.9824C407.821 57.1424 410.611 58.2124 414.211 58.2124C417.811 58.2124 420.621 57.1424 422.611 54.9824C424.671 52.6666 425.748 49.6387 425.611 46.5422C425.746 43.446 424.67 40.4191 422.611 38.1023C420.611 35.9556 417.811 34.879 414.211 34.8723C410.611 34.8656 407.815 35.9423 405.821 38.1023C403.749 40.413 402.658 43.4405 402.781 46.5422H402.821ZM445.821 23.5422H460.051V30.9424H460.241C461.497 28.4006 463.354 26.2035 465.651 24.5422C467.998 23.0404 470.748 22.2936 473.531 22.4023C474.351 22.4023 475.171 22.4024 475.991 22.5024C476.761 22.5575 477.524 22.6812 478.271 22.8723V35.8723C477.289 35.5678 476.286 35.3306 475.271 35.1623C474.253 34.9994 473.223 34.9192 472.191 34.9223C469.984 34.8255 467.782 35.2146 465.741 36.0622C464.241 36.7483 462.97 37.8526 462.081 39.2424C461.187 40.7359 460.621 42.4029 460.421 44.1323C460.158 46.2085 460.031 48.2996 460.041 50.3923V69.6323H445.811L445.821 23.5422ZM505.971 2.4824H518.211L547.431 69.6423H530.731L524.941 55.4123H498.861L493.261 69.6423H476.881L505.971 2.4824ZM511.661 22.0222L503.501 42.8923H519.881L511.661 22.0222ZM551.791 2.4824H576.791C579.726 2.4809 582.656 2.68796 585.561 3.10227C588.324 3.45647 591.004 4.28886 593.481 5.56223C595.793 6.76922 597.755 8.54955 599.181 10.7324C600.75 13.398 601.507 16.4628 601.361 19.5522C601.489 22.9815 600.358 26.3393 598.181 28.9924C595.962 31.558 593.043 33.4205 589.781 34.3523V34.5422C591.868 34.8292 593.895 35.4541 595.781 36.3923C597.53 37.2732 599.105 38.4622 600.431 39.9023C601.747 41.3581 602.766 43.0565 603.431 44.9023C604.14 46.8506 604.495 48.9095 604.481 50.9824C604.593 54.0971 603.801 57.1775 602.201 59.8523C600.71 62.1934 598.698 64.1579 596.321 65.5923C593.812 67.0818 591.071 68.1399 588.211 68.7224C585.252 69.347 582.236 69.6619 579.211 69.6623H551.701L551.791 2.4824ZM566.591 29.3323H577.311C578.445 29.3311 579.576 29.2038 580.681 28.9524C581.745 28.7125 582.759 28.2932 583.681 27.7124C584.566 27.141 585.297 26.3616 585.811 25.4424C586.376 24.3929 586.655 23.2134 586.621 22.0222C586.668 20.8055 586.355 19.6022 585.721 18.5622C585.14 17.662 584.338 16.9255 583.391 16.4223C582.378 15.9018 581.293 15.5343 580.171 15.3322C579.014 15.1162 577.839 15.0059 576.661 15.0024H566.601L566.591 29.3323ZM566.591 57.1223H579.871C581.038 57.1226 582.202 56.9952 583.341 56.7424C584.475 56.5103 585.552 56.0584 586.511 55.4123C587.465 54.7803 588.262 53.9389 588.841 52.9524C589.471 51.8232 589.782 50.5445 589.741 49.2524C589.804 47.8729 589.383 46.5147 588.551 45.4123C587.757 44.4261 586.725 43.6586 585.551 43.1823C584.307 42.6621 582.999 42.3089 581.661 42.1323C580.372 41.9516 579.073 41.858 577.771 41.8523H566.571L566.591 57.1223ZM654.821 19.9323C653.378 18.1723 651.542 16.7749 649.461 15.8523C647.135 14.8677 644.627 14.384 642.101 14.4323C639.439 14.409 636.803 14.9579 634.371 16.0422C632.028 17.1024 629.93 18.6383 628.211 20.5522C626.423 22.563 625.038 24.8988 624.131 27.4323C623.132 30.1986 622.634 33.121 622.661 36.0622C622.626 39.0204 623.124 41.9608 624.131 44.7424C625.03 47.2473 626.386 49.5631 628.131 51.5722C629.799 53.4734 631.842 55.0089 634.131 56.0822C636.466 57.1598 639.01 57.7096 641.581 57.6924C644.385 57.7496 647.158 57.0958 649.641 55.7922C651.983 54.5309 653.973 52.7061 655.431 50.4824L667.761 59.6823C665.043 63.5684 661.302 66.6247 656.951 68.5122C652.706 70.3786 648.119 71.3457 643.481 71.3523C638.534 71.404 633.616 70.571 628.961 68.8923C624.694 67.3408 620.788 64.935 617.481 61.8222C614.183 58.6734 611.592 54.8591 609.881 50.6323C608.029 45.9874 607.111 41.0224 607.181 36.0222C607.111 31.022 608.029 26.0572 609.881 21.4123C611.58 17.2053 614.149 13.4052 617.421 10.2622C620.728 7.15256 624.634 4.75043 628.901 3.20237C633.554 1.51547 638.472 0.678859 643.421 0.732397C645.409 0.74403 647.392 0.917961 649.351 1.25242C651.424 1.60605 653.457 2.16195 655.421 2.91233C657.448 3.67919 659.375 4.68638 661.161 5.91233C663.03 7.20513 664.692 8.77273 666.091 10.5622L654.821 19.9323Z" fill="#333333"/>
<defs>
<linearGradient id="paint0_linear_17076_27710" x1="53.3442" y1="23.2384" x2="150.185" y2="158.425" gradientUnits="userSpaceOnUse">
<stop stop-color="#FF8590"/>
<stop offset="1" stop-color="#CC3333"/>
</linearGradient>
</defs>
</svg>
