<svg width="1071" height="208" viewBox="0 0 1071 208" fill="none" xmlns="http://www.w3.org/2000/svg">
<path d="M192.95 82.7802C193.203 84.2402 193.413 85.7102 193.58 87.1902C193.413 85.7635 193.203 84.3201 192.95 82.8601V82.7802ZM190.48 72.4302C191.18 74.7202 191.79 77.0402 192.29 79.4302C191.777 77.1035 191.173 74.7968 190.48 72.5101V72.4302ZM192.48 80.2002C192.64 80.9702 192.79 81.7501 192.93 82.5201C192.75 81.8201 192.62 81.0501 192.46 80.2802L192.48 80.2002ZM193.75 88.4901C193.81 89.1501 193.88 89.8101 193.93 90.4901C193.86 89.8801 193.75 89.2302 193.75 88.5702V88.4901ZM194.14 93.8302C194.14 93.6102 194.14 93.3902 194.14 93.1702C194.14 93.4002 194.14 93.6202 194.14 93.8402V93.8302ZM189.53 69.3402C189.76 69.9802 189.97 70.6302 190.18 71.3402C189.91 70.7302 189.75 70.0802 189.47 69.4402L189.53 69.3402ZM222.96 79.5902C220.23 71.5902 207.71 70.4301 194.96 71.2601C195.863 74.1981 196.607 77.1824 197.19 80.2002C198.74 80.1302 200.19 80.0902 201.49 80.0902C210.49 80.0902 213.93 81.6301 214.49 82.4901C214.62 83.7701 211.72 88.7502 198.8 97.1802C197.55 97.9902 196.21 98.8402 194.8 99.7202C193.02 100.807 191.087 101.94 189 103.12C170.47 113.56 145 124.5 117.44 133.93C92.9798 142.27 69.1598 148.61 49.4398 152.08C47.6498 152.4 45.91 152.68 44.18 152.95L41.9999 153.28C17.5699 156.84 9.92979 153.87 9.18979 152.59C8.98979 151.16 12.85 144.69 31.91 133.59C30.636 130.837 29.5044 128.02 28.5199 125.15C14.6499 133.15 -2.98023 144.82 0.669773 155.5C2.92977 162.13 11.8898 164.06 22.1498 164.06C28.7452 163.953 35.3266 163.409 41.8499 162.43C44.9899 161.99 48.26 161.43 51.64 160.86C53.45 160.53 55.2798 160.19 57.1498 159.86C71.1842 172.207 88.9904 179.43 107.66 180.35L106.17 184.29L103.44 191.51C103.283 191.924 103.256 192.376 103.363 192.806C103.47 193.235 103.705 193.622 104.038 193.913C104.371 194.205 104.786 194.388 105.226 194.437C105.666 194.487 106.11 194.401 106.5 194.19C111.5 191.49 119.5 187.19 127.34 183C135.18 178.81 142.93 174.72 147.34 172.5C171.29 160.5 189.26 138.02 193.76 110.82C194.07 110.64 194.4 110.47 194.7 110.29C195.82 109.65 196.97 108.98 198.13 108.29C211.25 100.46 226.29 89.6702 222.9 79.6702L222.96 79.5902ZM127.04 66.8202C133.535 69.0054 140.283 70.3497 147.12 70.8202C146.213 59.7141 143.156 48.8901 138.12 38.9502C130.483 46.1779 123.708 54.265 117.93 63.0502C120.867 64.5182 123.889 65.8105 126.98 66.9202L127.04 66.8202ZM147.48 76.4901C139.905 76.0495 132.425 74.5897 125.24 72.1501C121.671 70.9483 118.183 69.5152 114.8 67.8601C108.827 77.5098 103.602 87.6027 99.1698 98.0502C96.8753 103.583 94.8892 109.238 93.2201 114.99C97.5112 117.015 101.915 118.791 106.41 120.31C112.823 122.469 119.406 124.085 126.09 125.14C131.383 123.22 136.55 121.257 141.59 119.25C146.26 103.27 147.89 89.0302 147.42 76.5902L147.48 76.4901ZM152.48 71.0402C158.524 71.0525 164.53 70.0936 170.27 68.2002C164.734 56.8828 156.179 47.3143 145.55 40.5502C149.24 49.3556 151.524 58.686 152.32 68.2002C152.33 69.2302 152.35 70.2001 152.41 71.1401L152.48 71.0402ZM91.6898 120.48C90.2498 125.86 88.94 131.66 87.93 137.48C96.85 134.93 106.06 132.05 115.36 128.88L115.68 128.76C111.993 127.88 108.327 126.824 104.68 125.59C100.239 124.159 95.8789 122.487 91.62 120.58L91.6898 120.48ZM175.53 82.5802C174.733 79.4084 173.731 76.2917 172.53 73.2501C166.165 75.4551 159.485 76.6102 152.75 76.6702C152.917 90.183 151.303 103.659 147.95 116.75C158.83 112.26 168.95 107.63 177.87 103.04C177.934 96.1754 177.124 89.3304 175.46 82.6702L175.53 82.5802ZM55.0399 93.3901C53.3455 97.5068 51.9877 101.754 50.9798 106.09C47.8079 119.317 48.3721 133.165 52.6097 146.09C61.7197 144.32 71.6097 142 81.8797 139.2C83.0476 132.03 84.6066 124.93 86.5497 117.93C74.5592 111.874 63.8398 103.578 54.9701 93.4901L55.0399 93.3901ZM45.9798 104.93C47.2636 99.3853 49.0786 93.9769 51.3998 88.7802C44.1698 78.9101 39.9299 68.2901 39.4999 57.8901C38.1335 60.0838 36.8818 62.3469 35.7499 64.6702C33.6977 68.9632 31.9109 73.3782 30.3998 77.8901C28.9149 84.1552 28.1634 90.5715 28.16 97.0101C28.1392 115.281 34.1734 133.043 45.3197 147.52L47.2298 147.19H47.3998C43.0751 133.534 42.5602 118.957 45.91 105.03L45.9798 104.93ZM174.98 43.7102L174.57 43.2002L173.78 42.3002C173.15 41.5802 172.51 40.8602 171.86 40.1602L171.43 39.7102C167.964 36.037 164.168 32.6896 160.09 29.7102L159.93 29.5902C158.36 28.4502 156.73 27.3802 155.08 26.3502C151.829 28.1906 148.708 30.2521 145.74 32.5201C156.206 33.9295 166.188 37.7986 174.87 43.8102L174.98 43.7102ZM83.87 50.0201C85.47 48.9001 87.0901 47.8901 88.7201 46.8701C84.433 41.329 81.6187 34.7925 80.5399 27.8701C66.9797 30.9786 54.8018 38.421 45.8499 49.0702C43.5499 60.1602 46.7601 72.0701 54.2201 83.1501C61.3188 69.964 71.4378 58.6454 83.7499 50.1201L83.87 50.0201ZM80.5599 19.8102L79.4398 20.2501L78.4398 20.6602C77.5298 21.0602 76.6301 21.4601 75.7401 21.8901L74.8197 22.3302C73.9497 22.7602 73.0801 23.2002 72.2201 23.6602L71.2201 24.2002C70.4201 24.6502 69.6197 25.1002 68.8397 25.5702L67.6898 26.2701L66.8397 26.8102C71.1642 24.9316 75.6625 23.4813 80.2699 22.4802C80.2886 21.6212 80.3489 20.7634 80.4501 19.9102L80.5599 19.8102ZM180.7 81.2802C182.24 87.4698 183.078 93.8131 183.2 100.19C184.48 99.5002 185.74 98.8101 186.96 98.1201C189.046 96.9401 190.98 95.8069 192.76 94.7202C193.26 94.4202 193.76 94.1202 194.21 93.8202C194.21 93.6002 194.21 93.3801 194.21 93.1501C194.21 92.2501 194.11 91.3502 194.04 90.4502C193.99 89.7902 193.92 89.1302 193.86 88.4502L193.71 87.1501C193.536 85.6701 193.327 84.2001 193.08 82.7401C193.08 82.6601 193.08 82.5702 193.08 82.4802C192.94 81.7102 192.79 80.9302 192.63 80.1602C192.58 79.8902 192.52 79.6102 192.46 79.3402C191.96 77.0002 191.35 74.6802 190.65 72.3402L190.29 71.2202C190.08 70.5602 189.87 69.9102 189.64 69.2202C189.33 68.3202 189 67.4202 188.64 66.5302L188.06 65.1201C187.91 64.7501 187.75 64.3901 187.59 64.0201C184.628 66.8937 181.212 69.2588 177.48 71.0201C178.745 74.4007 179.784 77.8617 180.59 81.3801L180.7 81.2802ZM139.98 29.9602C142.981 27.5012 146.134 25.2334 149.42 23.1702C147.34 22.0902 145.22 21.0902 143.05 20.1702L142.79 20.0702C141.63 19.5902 140.45 19.1302 139.26 18.7102C136.87 17.8502 134.43 17.1202 131.95 16.4802L131.26 16.3102C130.26 16.0502 129.19 15.8201 128.15 15.6101L127.53 15.4702H127.26C132.171 19.6737 136.422 24.5921 139.87 30.0602L139.98 29.9602ZM97.3998 20.6401C108.701 20.7328 119.888 22.9093 130.4 27.0602C126.782 22.494 122.466 18.5283 117.61 15.3102C116.88 14.8502 116.13 14.4401 115.4 14.0001C114.22 13.9401 113.03 13.9202 111.84 13.9102H111.33C110.04 13.9102 108.76 13.9101 107.48 14.0101L106.43 14.0702C105.43 14.1302 104.43 14.2002 103.43 14.2902L102.54 14.3801C99.9299 14.6501 97.3597 15.0502 94.8197 15.5602L94.3099 15.6602C91.7799 16.1902 89.3097 16.8302 86.8397 17.5902C86.4733 18.852 86.2192 20.1437 86.0799 21.4502C89.7957 20.9544 93.5413 20.7171 97.2899 20.7401L97.3998 20.6401ZM129.4 32.3402C119.234 28.2015 108.375 26.0297 97.3998 25.9402C93.5932 25.943 89.7923 26.2338 86.0296 26.8102C86.6696 32.6102 89.3099 38.5102 93.5199 44.0502C105.16 37.5802 117.3 33.5802 129.25 32.4402L129.4 32.3402ZM175.25 66.1301C178.825 64.4125 182.029 62.0106 184.68 59.0602C176.318 49.4106 165.255 42.4894 152.92 39.1902C162.39 46.2787 170 55.557 175.1 66.2302L175.25 66.1301ZM113.04 60.5402C118.548 52.1902 124.872 44.4087 131.92 37.3102C120.32 38.0902 108.44 41.7402 96.9198 48.0502C101.574 53.0408 106.959 57.2959 112.89 60.6702L113.04 60.5402ZM92.0399 50.8801C90.3099 51.9401 88.58 53.0402 86.87 54.2302C74.469 62.7816 64.4231 74.3202 57.66 87.7802C65.11 97.1402 75.5801 105.71 88.2401 112.44C89.9121 106.806 91.8746 101.262 94.12 95.8302C98.6219 85.245 103.931 75.0215 110 65.2501C103.225 61.4999 97.0997 56.6814 91.8597 50.9802L92.0399 50.8801Z" fill="url(#paint0_linear_17825_9850)"/>
<path d="M290.75 65.3901H254.4V40.5601H355.16V65.3901H318.82V167.95H290.75V65.3901ZM433.62 167.95H407.75V156.08H407.39C406.336 157.87 405.1 159.546 403.7 161.08C402.103 162.844 400.253 164.361 398.21 165.58C395.897 166.968 393.417 168.057 390.83 168.82C387.909 169.683 384.876 170.108 381.83 170.08C375.003 170.08 369.457 169.03 365.19 166.93C361.132 165.017 357.7 161.994 355.29 158.21C352.842 154.2 351.252 149.726 350.62 145.07C349.804 139.652 349.41 134.179 349.44 128.7V80.4702H376.44V123.3C376.44 125.82 376.53 128.427 376.71 131.12C376.861 133.678 377.404 136.197 378.32 138.59C379.163 140.794 380.595 142.724 382.46 144.17C384.32 145.61 386.987 146.33 390.46 146.33C393.397 146.457 396.316 145.805 398.92 144.44C401.02 143.273 402.752 141.541 403.92 139.44C405.096 137.227 405.859 134.817 406.17 132.33C406.537 129.589 406.718 126.826 406.71 124.06V80.5101H433.71L433.62 167.95ZM512.25 102.09H488.5V131.24C488.483 133.435 488.604 135.63 488.86 137.81C489.034 139.615 489.586 141.363 490.48 142.94C491.375 144.436 492.729 145.604 494.34 146.27C496.545 147.134 498.904 147.532 501.27 147.44C503.167 147.406 505.061 147.255 506.94 146.99C508.879 146.853 510.73 146.131 512.25 144.92V167.41C509.226 168.496 506.084 169.221 502.89 169.57C499.726 169.926 496.544 170.106 493.36 170.11C489.114 170.148 484.878 169.665 480.75 168.67C477.124 167.808 473.701 166.249 470.67 164.08C467.769 161.963 465.448 159.15 463.92 155.9C462.203 152.054 461.376 147.87 461.5 143.66V102.09H444.22V80.5001H461.5V54.5902H488.5V80.5001H512.25V102.09ZM522.68 124.23C522.586 117.733 523.874 111.291 526.46 105.33C528.877 99.8427 532.4 94.9132 536.81 90.8502C541.303 86.7623 546.565 83.6109 552.29 81.5802C558.383 79.3902 564.815 78.2934 571.29 78.3402C577.765 78.295 584.196 79.3918 590.29 81.5802C596.015 83.6109 601.277 86.7623 605.77 90.8502C610.174 94.9163 613.693 99.8452 616.11 105.33C618.696 111.291 619.984 117.733 619.89 124.23C619.984 130.724 618.696 137.163 616.11 143.12C613.696 148.609 610.176 153.542 605.77 157.61C601.277 161.695 596.014 164.843 590.29 166.87C584.196 169.058 577.765 170.155 571.29 170.11C564.815 170.157 558.383 169.06 552.29 166.87C546.566 164.843 541.303 161.695 536.81 157.61C532.398 153.545 528.874 148.612 526.46 143.12C523.874 137.163 522.586 130.724 522.68 124.23ZM549.68 124.23C549.68 130.83 551.567 136.164 555.34 140.23C559.113 144.297 564.423 146.337 571.27 146.35C578.11 146.35 583.417 144.31 587.19 140.23C590.963 136.15 592.853 130.817 592.86 124.23C592.86 117.63 590.97 112.297 587.19 108.23C583.41 104.164 578.103 102.123 571.27 102.11C564.43 102.11 559.12 104.15 555.34 108.23C551.56 112.31 549.673 117.644 549.68 124.23ZM635.68 80.5001H662.68V94.5001H663.04C665.92 89.1001 669.34 85.0502 673.3 82.3502C677.26 79.6502 682.24 78.3168 688.24 78.3502C689.79 78.3502 691.35 78.4101 692.91 78.5301C694.369 78.6332 695.816 78.8742 697.23 79.2501V103.9C695.375 103.326 693.484 102.875 691.57 102.55C689.635 102.25 687.679 102.099 685.72 102.1C680.56 102.1 676.48 102.82 673.48 104.26C670.642 105.554 668.236 107.636 666.55 110.26C664.845 113.087 663.77 116.249 663.4 119.53C662.899 123.467 662.659 127.432 662.68 131.4V167.93H635.68V80.5001ZM754.26 40.5601H777.48L832.9 167.95H801.23L790.23 140.95H740.75L730.13 167.95H699.13L754.26 40.5601ZM765.06 77.6201L749.58 117.21H780.75L765.06 77.6201ZM845.67 40.5601H893.18C898.747 40.5656 904.306 40.9532 909.82 41.7202C915.053 42.4028 920.128 43.9861 924.82 46.4001C929.198 48.6914 932.914 52.0695 935.61 56.2102C938.37 60.4102 939.75 65.9868 939.75 72.9401C939.75 80.1401 937.75 86.1102 933.75 90.8502C929.543 95.7119 924.011 99.2424 917.83 101.01V101.37C921.803 101.909 925.66 103.095 929.25 104.88C932.571 106.545 935.56 108.802 938.07 111.54C940.56 114.289 942.486 117.5 943.74 120.99C945.082 124.678 945.759 128.575 945.74 132.5C945.74 139.22 944.3 144.83 941.42 149.33C938.594 153.776 934.773 157.504 930.26 160.22C925.508 163.058 920.307 165.063 914.88 166.15C909.291 167.338 903.594 167.941 897.88 167.95H845.7L845.67 40.5601ZM873.74 91.4802H894.08C896.227 91.4813 898.367 91.2396 900.46 90.7601C902.472 90.3166 904.391 89.5247 906.13 88.4201C907.796 87.3289 909.17 85.8456 910.13 84.1002C911.219 82.1339 911.778 79.9178 911.75 77.6701C911.837 75.3629 911.243 73.081 910.04 71.1101C908.939 69.4063 907.421 68.0122 905.63 67.0601C903.709 66.0586 901.645 65.3603 899.51 64.9901C897.317 64.578 895.091 64.3671 892.86 64.3601H873.75L873.74 91.4802ZM873.74 144.2H898.93C901.139 144.195 903.342 143.954 905.5 143.48C907.641 143.025 909.677 142.17 911.5 140.96C913.306 139.754 914.813 138.154 915.91 136.28C917.106 134.146 917.697 131.725 917.62 129.28C917.742 126.662 916.946 124.084 915.37 121.99C913.865 120.127 911.915 118.672 909.7 117.76C907.339 116.771 904.858 116.098 902.32 115.76C899.878 115.414 897.416 115.234 894.95 115.22H873.75L873.74 144.2ZM1045.58 73.6601C1042.84 70.3243 1039.36 67.6767 1035.42 65.9301C1031 64.0461 1026.23 63.1257 1021.42 63.2302C1016.37 63.1824 1011.37 64.2262 1006.76 66.2901C1002.31 68.2951 998.326 71.2034 995.06 74.8302C991.674 78.6295 989.046 83.0423 987.32 87.8302C985.428 93.0782 984.486 98.6216 984.54 104.2C984.47 109.813 985.412 115.392 987.32 120.67C989.039 125.442 991.634 129.85 994.97 133.67C998.146 137.282 1002.04 140.194 1006.4 142.22C1010.82 144.271 1015.65 145.316 1020.52 145.28C1025.84 145.385 1031.1 144.147 1035.82 141.68C1040.26 139.283 1044.04 135.819 1046.82 131.6L1070.22 149.06C1065.06 156.424 1057.95 162.215 1049.7 165.79C1041.65 169.343 1032.95 171.182 1024.15 171.19C1014.77 171.289 1005.44 169.704 996.62 166.51C988.524 163.578 981.115 159.018 974.85 153.11C968.637 147.153 963.759 139.944 960.54 131.96C957.019 123.152 955.275 113.735 955.41 104.25C955.278 94.7657 957.021 85.3487 960.54 76.5401C963.762 68.5609 968.639 61.3557 974.85 55.4001C981.116 49.4924 988.525 44.9289 996.62 41.9901C1005.44 38.8044 1014.77 37.2229 1024.15 37.3201C1027.92 37.3383 1031.68 37.6728 1035.4 38.3201C1039.33 38.9908 1043.18 40.0424 1046.91 41.4602C1050.76 42.9361 1054.41 44.87 1057.8 47.2202C1061.34 49.678 1064.5 52.6507 1067.16 56.0401L1045.58 73.6601Z" fill="#0033CC"/>
<defs>
<linearGradient id="paint0_linear_17825_9850" x1="56.4898" y1="40.5702" x2="153.34" y2="175.76" gradientUnits="userSpaceOnUse">
<stop stop-color="#A9FBEC"/>
<stop offset="0.94" stop-color="#0033CC"/>
</linearGradient>
</defs>
</svg>
