<svg width="120" height="26" viewBox="0 0 120 26" fill="none" xmlns="http://www.w3.org/2000/svg">
<path d="M21.547 10.6658C21.5753 10.8264 21.5988 10.9881 21.6174 11.1509C21.5988 10.994 21.5753 10.8352 21.547 10.6746V10.6658ZM21.2712 9.52729C21.3494 9.77919 21.4175 10.0344 21.4733 10.2973C21.416 10.0414 21.3486 9.78762 21.2712 9.53609V9.52729ZM21.4945 10.382C21.5124 10.4667 21.5292 10.5525 21.5448 10.6372C21.5247 10.5602 21.5102 10.4755 21.4923 10.3908L21.4945 10.382ZM21.6364 11.2939C21.6431 11.3665 21.6509 11.4391 21.6565 11.5139C21.6487 11.4468 21.6364 11.3753 21.6364 11.3027V11.2939ZM21.6799 11.8813C21.6799 11.8571 21.6799 11.8329 21.6799 11.8087C21.6799 11.834 21.6799 11.8582 21.6799 11.8824V11.8813ZM21.1651 9.18739C21.1908 9.25779 21.2143 9.32929 21.2377 9.40739C21.2076 9.34029 21.1897 9.26879 21.1584 9.19839L21.1651 9.18739ZM24.8983 10.3149C24.5934 9.43489 23.1953 9.30729 21.7715 9.39859C21.8723 9.72176 21.9554 10.05 22.0205 10.382C22.1936 10.3743 22.3556 10.3699 22.5007 10.3699C23.5058 10.3699 23.8899 10.5393 23.9525 10.6339C23.967 10.7747 23.6431 11.3225 22.2003 12.2498C22.0607 12.3389 21.9111 12.4324 21.7536 12.5292C21.5548 12.6487 21.3389 12.7734 21.1059 12.9032C19.0367 14.0516 16.1924 15.255 13.1147 16.2923C10.3832 17.2097 7.72323 17.9071 5.52107 18.2888C5.32118 18.324 5.12689 18.3548 4.9337 18.3845L4.69024 18.4208C1.96211 18.8124 1.10893 18.4857 1.0263 18.3449C1.00396 18.1876 1.43504 17.4759 3.56349 16.2549C3.42122 15.952 3.29485 15.6421 3.18491 15.3265C1.63603 16.2065 -0.332746 17.4902 0.0748546 18.665C0.327232 19.3943 1.3278 19.6066 2.47355 19.6066C3.21008 19.5948 3.94502 19.5349 4.6735 19.4273C5.02415 19.3789 5.38932 19.3173 5.76677 19.2546C5.96889 19.2183 6.17322 19.1809 6.38205 19.1446C7.94929 20.5027 9.93774 21.2973 12.0226 21.3985L11.8562 21.8319L11.5513 22.6261C11.5338 22.6716 11.5308 22.7213 11.5427 22.7686C11.5547 22.8158 11.581 22.8584 11.6182 22.8905C11.6554 22.9225 11.7017 22.9426 11.7508 22.9481C11.7999 22.9535 11.8495 22.944 11.893 22.9209C12.4514 22.6239 13.3448 22.1509 14.2203 21.69C15.0958 21.2291 15.9612 20.7792 16.4537 20.535C19.1282 19.215 21.1349 16.7422 21.6375 13.7502C21.6721 13.7304 21.709 13.7117 21.7425 13.6919C21.8675 13.6215 21.9959 13.5478 22.1255 13.4719C23.5906 12.6106 25.2701 11.4237 24.8916 10.3237L24.8983 10.3149ZM14.1868 8.91019C14.9121 9.15057 15.6657 9.29844 16.4291 9.35019C16.3279 8.12852 15.9865 6.93789 15.4241 5.84449C14.5713 6.63954 13.8147 7.52912 13.1695 8.49549C13.4975 8.65697 13.8349 8.79912 14.1801 8.92119L14.1868 8.91019ZM16.4693 9.97388C15.6235 9.92541 14.7881 9.76484 13.9858 9.49649C13.5872 9.36428 13.1977 9.20665 12.8199 9.02458C12.1529 10.086 11.5694 11.1963 11.0745 12.3455C10.8183 12.9541 10.5965 13.5761 10.4101 14.2089C10.8893 14.4316 11.3811 14.627 11.883 14.7941C12.5991 15.0316 13.3343 15.2093 14.0807 15.3254C14.6718 15.1142 15.2487 14.8982 15.8116 14.6775C16.3331 12.9197 16.5151 11.3533 16.4626 9.98489L16.4693 9.97388ZM17.0277 9.37439C17.7026 9.37574 18.3734 9.27027 19.0143 9.06199C18.3961 7.81708 17.4408 6.76454 16.2538 6.02049C16.6659 6.98909 16.921 8.01543 17.0098 9.06199C17.0109 9.17529 17.0132 9.28199 17.0199 9.38539L17.0277 9.37439ZM10.2392 14.8128C10.0784 15.4046 9.93211 16.0426 9.81932 16.6828C10.8154 16.4023 11.8439 16.0855 12.8824 15.7368L12.9182 15.7236C12.5065 15.6268 12.097 15.5106 11.6898 15.3749C11.1939 15.2175 10.707 15.0335 10.2314 14.8238L10.2392 14.8128ZM19.6017 10.6438C19.5127 10.2949 19.4008 9.95206 19.2667 9.61748C18.556 9.86003 17.81 9.98709 17.0578 9.99369C17.0765 11.4801 16.8963 12.9625 16.5218 14.4025C17.7368 13.9086 18.8669 13.3993 19.863 12.8944C19.8702 12.1393 19.7798 11.3863 19.5939 10.6537L19.6017 10.6438ZM6.14644 11.8329C5.95722 12.2857 5.80559 12.7529 5.69305 13.2299C5.33884 14.6849 5.40184 16.2081 5.87506 17.6299C6.89238 17.4352 7.99682 17.18 9.14368 16.872C9.2741 16.0833 9.44819 15.3022 9.66518 14.5323C8.32618 13.8662 7.12914 12.9536 6.13864 11.8439L6.14644 11.8329ZM5.13469 13.1023C5.27805 12.4924 5.48073 11.8974 5.73994 11.3258C4.93256 10.2401 4.45908 9.07189 4.41106 7.92789C4.25848 8.16919 4.1187 8.41813 3.99229 8.67369C3.76313 9.14593 3.5636 9.63157 3.39484 10.1279C3.22903 10.817 3.14511 11.5228 3.14473 12.2311C3.1424 14.2409 3.81625 16.1947 5.06097 17.7872L5.27428 17.7509H5.29325C4.81031 16.2488 4.75281 14.6453 5.12689 13.1133L5.13469 13.1023ZM19.5403 6.36809L19.4945 6.31199L19.4063 6.21299C19.3359 6.13379 19.2645 6.05459 19.1919 5.97759L19.1439 5.92809C18.7568 5.52404 18.3329 5.15583 17.8775 4.82809L17.8597 4.81489C17.6843 4.68949 17.5023 4.57179 17.318 4.45849C16.955 4.66094 16.6065 4.8877 16.275 5.13719C17.4437 5.29222 18.5585 5.71781 19.528 6.37909L19.5403 6.36809ZM9.36593 7.06219C9.54461 6.93899 9.72552 6.82788 9.90755 6.71568C9.4288 6.10616 9.11453 5.38715 8.99406 4.62568C7.47978 4.96762 6.11985 5.78628 5.12019 6.95769C4.86334 8.17759 5.22182 9.48769 6.05489 10.7065C6.84761 9.25601 7.97761 8.01096 9.35252 7.07318L9.36593 7.06219ZM8.99629 3.73909L8.87121 3.78748L8.75954 3.83259C8.65792 3.87659 8.55744 3.92059 8.45806 3.96789L8.35527 4.01629C8.25812 4.06359 8.16101 4.11199 8.06497 4.16259L7.9533 4.22199C7.86396 4.27149 7.77458 4.32099 7.68748 4.37269L7.55907 4.44969L7.46414 4.50909C7.94706 4.30244 8.44939 4.14292 8.9639 4.0328C8.966 3.9383 8.97273 3.84395 8.98403 3.75009L8.99629 3.73909ZM20.1791 10.5008C20.351 11.1817 20.4446 11.8794 20.4583 12.5809C20.6012 12.505 20.7419 12.4291 20.8781 12.3532C21.1111 12.2234 21.327 12.0987 21.5258 11.9792C21.5816 11.9462 21.6375 11.9132 21.6877 11.8802C21.6877 11.856 21.6877 11.8318 21.6877 11.8065C21.6877 11.7075 21.6766 11.6085 21.6688 11.5095C21.6632 11.4369 21.6553 11.3643 21.6486 11.2895L21.6319 11.1465C21.6125 10.9837 21.5891 10.822 21.5616 10.6614C21.5616 10.6526 21.5616 10.6427 21.5616 10.6328C21.5459 10.5481 21.5291 10.4623 21.5113 10.3776C21.5057 10.3479 21.499 10.3171 21.4923 10.2874C21.4365 10.03 21.3683 9.77479 21.2902 9.51739L21.25 9.39419C21.2265 9.32159 21.2031 9.25009 21.1774 9.17419C21.1428 9.07519 21.1059 8.97619 21.0657 8.87829L21.001 8.72318C20.9842 8.68248 20.9663 8.64289 20.9485 8.60219C20.6177 8.91828 20.2362 9.17844 19.8195 9.37219C19.9607 9.74405 20.0768 10.1248 20.1668 10.5118L20.1791 10.5008ZM15.6318 4.85559C15.9669 4.58511 16.319 4.33564 16.686 4.10869C16.4537 3.98989 16.2169 3.87989 15.9746 3.77869L15.9456 3.76769C15.8161 3.71489 15.6843 3.66429 15.5514 3.61809C15.2845 3.52349 15.012 3.4432 14.7351 3.3728L14.658 3.35409C14.5463 3.32549 14.4269 3.30018 14.3107 3.27708L14.2415 3.26169H14.2113C14.7597 3.72408 15.2345 4.2651 15.6195 4.86659L15.6318 4.85559ZM10.8768 3.83039C12.1388 3.84058 13.3881 4.07999 14.562 4.53659C14.158 4.03431 13.676 3.59809 13.1337 3.24409C13.0522 3.19349 12.9684 3.14838 12.8869 3.09998C12.7551 3.09338 12.6222 3.09119 12.4893 3.09009H12.4324C12.2884 3.09009 12.1454 3.09009 12.0025 3.10109L11.8852 3.10769C11.7736 3.11429 11.6619 3.12199 11.5502 3.13189L11.4508 3.14178C11.1594 3.17148 10.8723 3.21549 10.5887 3.27159L10.5318 3.28259C10.2492 3.34089 9.97339 3.41129 9.69757 3.49489C9.65665 3.63369 9.62827 3.77577 9.61272 3.91949C10.0277 3.86496 10.4459 3.83885 10.8646 3.84138L10.8768 3.83039ZM14.4503 5.11739C13.3151 4.66213 12.1025 4.42324 10.8768 4.41339C10.4517 4.4137 10.0273 4.44569 9.60711 4.50909C9.67857 5.14709 9.97341 5.79609 10.4435 6.40549C11.7434 5.69379 13.0991 5.25379 14.4336 5.12839L14.4503 5.11739ZM19.5704 8.83429C19.9697 8.64535 20.3275 8.38114 20.6235 8.05659C19.6897 6.99514 18.4543 6.2338 17.0768 5.87089C18.1343 6.65063 18.9842 7.67124 19.5537 8.8453L19.5704 8.83429ZM12.6234 8.21939C13.2385 7.3009 13.9447 6.44492 14.7317 5.66409C13.4363 5.74989 12.1097 6.15139 10.8232 6.84549C11.3429 7.39446 11.9443 7.86252 12.6066 8.23369L12.6234 8.21939ZM10.2783 7.15679C10.0851 7.27339 9.8919 7.3944 9.70095 7.5253C8.31611 8.46595 7.19427 9.73519 6.43903 11.2158C7.27098 12.2454 8.44019 13.1881 9.85395 13.9284C10.0407 13.3086 10.2598 12.6988 10.5106 12.1013C11.0133 10.9369 11.6061 9.81233 12.2839 8.73748C11.5274 8.32496 10.8433 7.79493 10.2582 7.1678L10.2783 7.15679Z" fill="#E8E8E8" fill-opacity="0.7"/>
<path d="M32.4684 8.75289H28.4092V6.0216H39.6612V8.75289H35.6031V20.0345H32.4684V8.75289ZM48.4229 20.0345H45.534V18.7288H45.4938C45.3761 18.9257 45.238 19.11 45.0817 19.2788C44.9034 19.4728 44.6968 19.6396 44.4686 19.7738C44.2103 19.9264 43.9334 20.0462 43.6445 20.1302C43.3183 20.2251 42.9796 20.2718 42.6395 20.2688C41.8771 20.2688 41.2577 20.1533 40.7813 19.9223C40.3281 19.7119 39.9448 19.3793 39.6757 18.9631C39.4024 18.522 39.2248 18.0298 39.1542 17.5177C39.0631 16.9217 39.019 16.3197 39.0224 15.717V10.4117H42.0376V15.123C42.0376 15.4002 42.0476 15.6869 42.0677 15.9832C42.0845 16.2645 42.1452 16.5417 42.2475 16.8049C42.3417 17.0473 42.5016 17.2596 42.7098 17.4187C42.9175 17.5771 43.2153 17.6563 43.6032 17.6563C43.9312 17.6703 44.2571 17.5985 44.5479 17.4484C44.7825 17.32 44.9759 17.1294 45.1063 16.8984C45.2376 16.6549 45.3228 16.3899 45.3575 16.1163C45.3986 15.8148 45.4187 15.5108 45.4178 15.2066V10.4161H48.433L48.4229 20.0345ZM57.2036 12.7899H54.5515V15.9964C54.5496 16.2379 54.563 16.4793 54.5917 16.7191C54.6111 16.9176 54.6727 17.1099 54.7726 17.2834C54.8725 17.448 55.0237 17.5764 55.2036 17.6497C55.4498 17.7447 55.7133 17.7885 55.9775 17.7784C56.1894 17.7746 56.4008 17.7581 56.6107 17.7289C56.8272 17.7138 57.0339 17.6344 57.2036 17.5012V19.9751C56.8659 20.0945 56.5151 20.1743 56.1584 20.2127C55.805 20.2518 55.4498 20.2716 55.0942 20.2721C54.62 20.2763 54.147 20.2231 53.686 20.1137C53.2811 20.0189 52.8988 19.8474 52.5603 19.6088C52.2364 19.3759 51.9772 19.0665 51.8066 18.709C51.6148 18.2859 51.5225 17.8257 51.5363 17.3626V12.7899H49.6066V10.415H51.5363V7.5649H54.5515V10.415H57.2036V12.7899ZM58.3684 15.2253C58.3579 14.5107 58.5018 13.802 58.7905 13.1463C59.0604 12.5427 59.4539 12.0004 59.9463 11.5535C60.448 11.1038 61.0357 10.7572 61.675 10.5338C62.3554 10.2929 63.0737 10.1723 63.7967 10.1774C64.5197 10.1724 65.238 10.2931 65.9185 10.5338C66.5578 10.7572 67.1454 11.1038 67.6472 11.5535C68.1389 12.0008 68.532 12.543 68.8018 13.1463C69.0906 13.802 69.2344 14.5107 69.2239 15.2253C69.2344 15.9396 69.0906 16.6479 68.8018 17.3032C68.5323 17.907 68.1392 18.4496 67.6472 18.8971C67.1454 19.3464 66.5577 19.6927 65.9185 19.9157C65.238 20.1564 64.5197 20.2771 63.7967 20.2721C63.0737 20.2772 62.3554 20.1566 61.675 19.9157C61.0358 19.6927 60.4481 19.3464 59.9463 18.8971C59.4536 18.45 59.0601 17.9073 58.7905 17.3032C58.5018 16.6479 58.3579 15.9396 58.3684 15.2253ZM61.3835 15.2253C61.3835 15.9513 61.5942 16.538 62.0156 16.9853C62.4369 17.4326 63.0299 17.657 63.7945 17.6585C64.5583 17.6585 65.1509 17.4341 65.5723 16.9853C65.9937 16.5365 66.2047 15.9498 66.2055 15.2253C66.2055 14.4993 65.9944 13.9126 65.5723 13.4653C65.1502 13.018 64.5576 12.7936 63.7945 12.7921C63.0307 12.7921 62.4377 13.0165 62.0156 13.4653C61.5935 13.9141 61.3828 14.5008 61.3835 15.2253ZM70.9872 10.415H74.0024V11.955H74.0426C74.3642 11.361 74.7461 10.9155 75.1883 10.6185C75.6305 10.3215 76.1867 10.1748 76.8567 10.1785C77.0298 10.1785 77.204 10.1851 77.3782 10.1983C77.5412 10.2096 77.7027 10.2361 77.8606 10.2775V12.989C77.6535 12.9258 77.4423 12.8762 77.2286 12.8405C77.0124 12.8074 76.794 12.7909 76.5753 12.791C75.999 12.791 75.5434 12.8702 75.2084 13.0286C74.8915 13.1709 74.6229 13.4 74.4345 13.6886C74.2441 13.9996 74.1241 14.3474 74.0828 14.7083C74.0268 15.1413 74 15.5775 74.0024 16.014V20.0323H70.9872V10.415ZM84.2292 6.0216H86.8222L93.0111 20.0345H89.4744L88.246 17.0645H82.7205L81.5346 20.0345H78.0728L84.2292 6.0216ZM85.4353 10.0982L83.7066 14.4531H87.1874L85.4353 10.0982ZM94.4371 6.0216H99.7426C100.364 6.0222 100.985 6.06484 101.601 6.1492C102.185 6.22429 102.752 6.39846 103.276 6.66399C103.765 6.91604 104.18 7.28763 104.481 7.7431C104.789 8.2051 104.943 8.81853 104.943 9.5834C104.943 10.3754 104.72 11.0321 104.273 11.5535C103.803 12.0883 103.186 12.4766 102.495 12.6711V12.7107C102.939 12.77 103.37 12.9004 103.771 13.0968C104.141 13.2799 104.475 13.5282 104.756 13.8294C105.034 14.1318 105.249 14.485 105.389 14.8689C105.539 15.2746 105.614 15.7033 105.612 16.135C105.612 16.8742 105.451 17.4913 105.13 17.9863C104.814 18.4753 104.387 18.8854 103.883 19.1842C103.353 19.4963 102.772 19.7169 102.166 19.8365C101.542 19.9672 100.906 20.0335 100.267 20.0345H94.4405L94.4371 6.0216ZM97.5717 11.6228H99.8431C100.083 11.6229 100.322 11.5963 100.556 11.5436C100.78 11.4948 100.995 11.4077 101.189 11.2862C101.375 11.1662 101.528 11.003 101.635 10.811C101.757 10.5947 101.819 10.3509 101.816 10.1037C101.826 9.8499 101.76 9.59889 101.625 9.38209C101.502 9.19467 101.333 9.04133 101.133 8.9366C100.918 8.82643 100.688 8.74961 100.449 8.70889C100.205 8.66356 99.9561 8.64036 99.7069 8.63959H97.5728L97.5717 11.6228ZM97.5717 17.422H100.385C100.631 17.4214 100.877 17.3949 101.118 17.3428C101.357 17.2928 101.585 17.1987 101.788 17.0656C101.99 16.933 102.158 16.7569 102.281 16.5508C102.414 16.316 102.48 16.0498 102.472 15.7808C102.485 15.4928 102.397 15.2092 102.221 14.9789C102.053 14.7739 101.835 14.6139 101.587 14.5136C101.324 14.4047 101.047 14.3308 100.763 14.2936C100.491 14.2556 100.216 14.2357 99.9403 14.2342H97.5728L97.5717 17.422ZM116.761 9.66259C116.456 9.29566 116.067 9.00442 115.627 8.8123C115.133 8.60505 114.6 8.50381 114.063 8.5153C113.499 8.51005 112.941 8.62486 112.426 8.85189C111.929 9.07245 111.484 9.39235 111.12 9.7913C110.742 10.2092 110.448 10.6946 110.255 11.2213C110.044 11.7986 109.939 12.4084 109.945 13.022C109.937 13.6394 110.042 14.2531 110.255 14.8337C110.447 15.3586 110.737 15.8435 111.11 16.2637C111.464 16.661 111.899 16.9813 112.386 17.2042C112.88 17.4297 113.418 17.5447 113.963 17.5408C114.557 17.5523 115.145 17.4161 115.671 17.1448C116.168 16.8811 116.59 16.5001 116.9 16.036L119.513 17.9566C118.936 18.7667 118.143 19.4036 117.221 19.7969C116.322 20.1877 115.351 20.39 114.368 20.3909C113.32 20.4018 112.279 20.2274 111.294 19.8761C110.39 19.5536 109.562 19.0519 108.863 18.4021C108.169 17.7468 107.624 16.9538 107.265 16.0756C106.872 15.1067 106.677 14.0708 106.692 13.0275C106.677 11.9842 106.872 10.9483 107.265 9.97939C107.625 9.10168 108.169 8.30911 108.863 7.65399C109.563 7.00415 110.39 6.50216 111.294 6.17889C112.279 5.82847 113.321 5.65451 114.368 5.6652C114.789 5.6672 115.21 5.70399 115.624 5.7752C116.063 5.84897 116.494 5.96465 116.91 6.1206C117.34 6.28295 117.748 6.49569 118.126 6.7542C118.521 7.02456 118.874 7.35156 119.171 7.7244L116.761 9.66259Z" fill="#E8E8E8" fill-opacity="0.7"/>
</svg>
