<svg width="86" height="30" viewBox="0 0 86 30" fill="none" xmlns="http://www.w3.org/2000/svg">
<g clip-path="url(#clip0_2_6)">
<path d="M21.9996 6.51138C22.0176 6.53249 22.0368 6.55097 22.0548 6.57075C22.0368 6.55097 22.0176 6.52721 21.9996 6.51138ZM20.542 5.1928C20.5355 5.18723 20.5288 5.18238 20.5214 5.17831L20.542 5.1928ZM24.7811 12.1787C24.8132 12.3712 24.839 12.565 24.862 12.7589C24.839 12.5743 24.8119 12.3804 24.7811 12.1892V12.1787ZM24.4623 10.8126C24.5531 11.1159 24.6306 11.4236 24.695 11.7357C24.6306 11.4297 24.5548 11.1238 24.4623 10.8232V10.8126ZM24.7194 11.8372C24.7399 11.94 24.7593 12.0415 24.7759 12.1445C24.7579 12.0522 24.7386 11.9506 24.7181 11.8477L24.7194 11.8372ZM24.8813 12.9316C24.8904 13.0174 24.898 13.1044 24.9045 13.1954C24.8968 13.1202 24.889 13.0279 24.88 12.9421L24.8813 12.9316ZM24.9315 13.6357C24.9315 13.6067 24.9315 13.5778 24.9315 13.5487C24.9315 13.5778 24.9315 13.608 24.9315 13.6371V13.6357ZM24.1371 9.8659C24.1628 9.92919 24.1885 9.99775 24.2116 10.0531C24.1821 10.003 24.1564 9.94104 24.1307 9.87775L24.1371 9.8659ZM24.3402 10.4039C24.3685 10.4896 24.3967 10.5753 24.4238 10.661C24.389 10.5898 24.362 10.5041 24.3338 10.4184L24.3402 10.4039ZM28.6359 11.7554C28.2849 10.7005 26.6757 10.5476 25.0369 10.6584C25.1519 11.046 25.2472 11.4394 25.3222 11.8372C25.5215 11.828 25.7078 11.8227 25.8749 11.8227C27.0318 11.8227 27.4752 12.0257 27.5459 12.1392C27.5639 12.308 27.1911 12.9632 25.5292 14.0749C25.3685 14.183 25.1963 14.295 25.015 14.4111C24.7862 14.5535 24.5394 14.7024 24.2694 14.8594C21.8877 16.236 18.6216 17.6785 15.0714 18.9207C11.9274 20.0217 8.86699 20.8576 6.33097 21.3152C6.10217 21.3565 5.87723 21.3943 5.65615 21.4287C5.56232 21.4445 5.46718 21.4603 5.37592 21.4734C2.23449 21.9415 1.25246 21.5499 1.15863 21.3824C1.13163 21.1926 1.62779 20.3407 4.07768 18.8772C3.91357 18.5139 3.76857 18.142 3.64325 17.7629C1.86044 18.8177 -0.405636 20.3566 0.0622369 21.7662C0.35273 22.639 1.50442 22.8949 2.8232 22.8949C3.67144 22.8809 4.51782 22.8087 5.35665 22.6786C5.75897 22.622 6.18055 22.5467 6.61371 22.4716C6.84636 22.4294 7.08158 22.3846 7.32323 22.3397C9.12638 23.9684 11.4148 24.9214 13.8144 25.0429L13.6229 25.5703L13.272 26.5209C13.2532 26.5746 13.2504 26.6329 13.2641 26.688C13.2777 26.7433 13.3072 26.793 13.3487 26.831C13.3901 26.8689 13.4416 26.8934 13.4966 26.9011C13.5517 26.9089 13.6077 26.8995 13.6576 26.8744C14.3002 26.5184 15.3285 25.9514 16.3362 25.3989C17.3439 24.8464 18.3401 24.3084 18.9069 24.0144C21.9854 22.432 24.2952 19.4692 24.8736 15.8826L24.9957 15.8128C25.1398 15.7283 25.2874 15.6399 25.4366 15.549C27.132 14.51 29.0665 13.082 28.6295 11.7699L28.6359 11.7554ZM16.3066 10.0716C17.1412 10.3623 18.0086 10.5418 18.8877 10.6056C18.7715 9.1407 18.3785 7.71296 17.7309 6.40196C16.7503 7.35619 15.88 8.42288 15.1369 9.58106C15.5144 9.77391 15.9028 9.94301 16.3002 10.0874L16.3066 10.0716ZM18.934 11.348C17.9608 11.2898 16.9997 11.0973 16.0766 10.7757C15.6179 10.6169 15.1697 10.428 14.7347 10.21C13.9659 11.4821 13.2939 12.813 12.7243 14.1909C12.4295 14.9198 12.1746 15.6651 11.9609 16.4233C12.5121 16.6914 13.0782 16.9261 13.6562 17.1261C14.4805 17.411 15.3267 17.6241 16.1859 17.7629C16.8645 17.5097 17.5304 17.25 18.1768 16.9862C18.7784 14.8805 18.9893 13.0028 18.9276 11.3625L18.934 11.348ZM19.5766 10.6294C20.3536 10.6305 21.1256 10.5036 21.8633 10.2536C21.1516 8.76166 20.052 7.50044 18.6859 6.609C19.1598 7.77015 19.453 9.00041 19.5548 10.2549C19.56 10.392 19.5612 10.5199 19.5703 10.6439L19.5766 10.6294ZM11.7616 17.1472C11.5778 17.8579 11.4094 18.6214 11.2783 19.3888C12.4261 19.0538 13.6086 18.6741 14.804 18.2548L14.8465 18.2402C14.3722 18.1243 13.8966 17.9857 13.4249 17.8222C12.857 17.6335 12.2995 17.413 11.7552 17.1616L11.7616 17.1472ZM22.5381 12.151C22.4361 11.7322 22.3074 11.3208 22.1525 10.9195C21.3357 11.2069 20.4787 11.3561 19.6151 11.3612C19.6372 13.143 19.4298 14.9199 18.9982 16.6461C20.3979 16.0527 21.6975 15.4435 22.8454 14.8384C22.8519 13.9373 22.7465 13.0392 22.5317 12.1655L22.5381 12.151ZM7.05072 13.5751C6.83371 14.118 6.65965 14.6781 6.53018 15.2497C6.12207 16.9937 6.19458 18.8198 6.73967 20.524C7.91064 20.2906 9.1819 19.9847 10.5007 19.6155C10.6509 18.6697 10.8513 17.733 11.1009 16.8096C9.56082 16.0117 8.18382 14.9187 7.04432 13.5895L7.05072 13.5751ZM5.88617 15.0981C6.05163 14.3669 6.28537 13.6537 6.58415 12.9685C5.65483 11.6671 5.10981 10.2654 5.05326 8.8954C4.88244 9.18022 4.72586 9.47376 4.58411 9.7749C4.32074 10.341 4.09154 10.9232 3.89775 11.5181C3.70677 12.3442 3.61012 13.1902 3.6098 14.0392C3.60645 16.4479 4.38175 18.7897 5.81424 20.698L6.05971 20.6559H6.08287C5.52537 18.8614 5.45515 16.9449 5.87977 15.1126L5.88617 15.0981ZM22.4673 7.02434L22.4147 6.95841L22.3145 6.83843C22.2321 6.74349 22.1512 6.64986 22.0665 6.55623C22.0485 6.53646 22.0291 6.51799 22.0111 6.4969C21.5649 6.01327 21.0771 5.57195 20.5535 5.17831C20.5472 5.17274 20.5402 5.16786 20.5329 5.16379C20.3311 5.01347 20.1216 4.87239 19.9096 4.73657C19.4918 4.97956 19.0907 5.25139 18.709 5.55016C20.0551 5.73589 21.339 6.24602 22.4559 7.03882L22.4673 7.02434ZM10.7564 7.85638C10.9634 7.71001 11.1716 7.57549 11.3799 7.44232C10.8288 6.71167 10.4671 5.84978 10.3284 4.93699C8.58606 5.34679 7.02129 6.32762 5.8708 7.73108C5.57388 9.1934 5.98774 10.7638 6.94534 12.2249C7.85953 10.4865 9.16148 8.9946 10.7449 7.87086L10.7564 7.85638ZM10.331 3.87421C10.2834 3.89267 10.2346 3.91116 10.1871 3.93225L10.0585 3.98631C9.94155 4.03772 9.82454 4.09179 9.71013 4.14848L9.59321 4.20649C9.4801 4.26319 9.36829 4.32122 9.25775 4.38188L9.12921 4.45308C9.02638 4.51111 8.92479 4.57174 8.82325 4.63372L8.67544 4.72605L8.56617 4.79722C9.12187 4.54911 9.70011 4.35789 10.2924 4.22629C10.2873 4.12344 10.304 4.00477 10.3194 3.89005L10.331 3.87421ZM23.2027 11.9796C23.4005 12.7958 23.5083 13.6321 23.524 14.473C23.6885 14.382 23.8506 14.2897 24.0073 14.2C24.2772 14.0431 24.5215 13.8942 24.7528 13.7518L24.9392 13.633C24.9392 13.6041 24.9392 13.5737 24.9392 13.5448C24.9392 13.4248 24.9262 13.306 24.9173 13.1874C24.9109 13.1004 24.9032 13.0133 24.8943 12.9237C24.8943 12.8657 24.8827 12.809 24.8761 12.7509C24.8531 12.5571 24.8274 12.3634 24.7952 12.1708C24.7952 12.1589 24.7952 12.1484 24.7888 12.1365C24.772 12.0337 24.7528 11.9322 24.7322 11.8292L24.7091 11.7225C24.6448 11.4139 24.5673 11.1062 24.4764 10.7994C24.461 10.7507 24.4469 10.7019 24.4315 10.6518C24.4045 10.5661 24.3762 10.4804 24.348 10.3947C24.3068 10.276 24.2644 10.1586 24.2194 10.0413C24.1963 9.97928 24.1706 9.91732 24.1448 9.85403L24.0857 9.71028C23.7045 10.0892 23.265 10.4011 22.7848 10.6333C22.9498 11.077 23.0856 11.5317 23.1911 11.9941L23.2027 11.9796ZM17.9699 5.21259C18.355 4.88807 18.7599 4.58902 19.182 4.31726C18.916 4.17486 18.6422 4.04301 18.3633 3.92169L18.3311 3.90849C18.1807 3.8452 18.029 3.78457 17.8761 3.72918C17.5701 3.6171 17.2565 3.51953 16.9378 3.43646L16.8479 3.41271C16.7193 3.37974 16.5817 3.34942 16.448 3.32041L16.3683 3.30328H16.3337C16.9659 3.85774 17.5135 4.50619 17.9584 5.22708L17.9699 5.21259ZM12.4956 3.98366C13.9482 3.99592 15.3861 4.28288 16.7373 4.83018C16.2722 4.22771 15.7168 3.70476 15.092 3.28084C14.9994 3.21887 14.903 3.16615 14.8079 3.10814C14.6562 3.10022 14.5046 3.09757 14.3517 3.09625H14.2861C14.1189 3.09625 13.9544 3.09626 13.7912 3.10945L13.655 3.11602C13.5264 3.12393 13.3979 3.13451 13.2693 3.14638L13.1549 3.1569C12.8198 3.19382 12.4896 3.24571 12.164 3.31252L12.0984 3.32701C11.7719 3.39733 11.4514 3.48216 11.1369 3.58148C11.0896 3.74781 11.0569 3.91816 11.0392 4.09048C11.5182 4.02536 12.0009 3.99452 12.484 3.99818L12.4956 3.98366ZM16.6088 5.52509C15.3018 4.98015 13.9062 4.69383 12.4956 4.6812C12.0063 4.68205 11.5177 4.72082 11.0341 4.79722C11.1176 5.562 11.4557 6.33869 11.9968 7.06918C13.41 6.24019 14.9749 5.71946 16.5933 5.5396L16.6088 5.52509ZM22.5008 9.98192C22.9602 9.75501 23.3718 9.43833 23.713 9.04967C22.6391 7.77677 21.2173 6.86402 19.632 6.42966C20.8506 7.36397 21.8298 8.588 22.4854 9.99645L22.5008 9.98192ZM14.5045 9.24353C15.2129 8.14277 16.0258 7.11674 16.9313 6.18045C15.4403 6.2833 13.9146 6.76591 12.4325 7.59794C13.0321 8.25503 13.7256 8.81477 14.4892 9.25802L14.5045 9.24353ZM11.8053 7.96975C11.5829 8.11085 11.3606 8.25591 11.1408 8.41282C9.54684 9.54004 8.25589 11.0616 7.3875 12.8367C8.3451 14.0695 9.69086 15.2009 11.3168 16.0883C11.5318 15.3454 11.7841 14.6143 12.0727 13.8981C12.6513 12.502 13.334 11.154 14.1151 9.8659C13.2453 9.37103 12.4589 8.73569 11.786 7.98428L11.8053 7.96975Z" fill="#E8E8E8" fill-opacity="0.9"/>
<path d="M38.8322 18.2017C38.6467 17.9697 38.4107 17.7854 38.1432 17.6638C37.8448 17.5334 37.5228 17.4696 37.1986 17.4765C36.8567 17.4734 36.5182 17.5459 36.2062 17.6888C35.9048 17.8283 35.6351 18.0308 35.4143 18.2835C35.1842 18.548 35.0061 18.8556 34.89 19.1895C34.7614 19.5543 34.6975 19.9396 34.701 20.3275C34.6965 20.7171 34.7604 21.1045 34.89 21.4708C35.0054 21.8007 35.1797 22.1056 35.404 22.3701C35.6181 22.6211 35.8808 22.8237 36.1753 22.9649C36.475 23.107 36.8016 23.1794 37.1317 23.1772C37.4921 23.1846 37.8484 23.0984 38.1676 22.9266C38.4682 22.7601 38.7235 22.5194 38.9106 22.2263L40.4942 23.4396C40.1449 23.9512 39.6645 24.3538 39.1059 24.6027C38.5607 24.8488 37.9716 24.9763 37.3758 24.9772C36.7404 24.9841 36.1087 24.8743 35.5108 24.6528C34.9624 24.4485 34.4608 24.1312 34.0365 23.7204C33.6155 23.3069 33.285 22.8061 33.0673 22.2515C32.8292 21.6398 32.7112 20.9861 32.7203 20.3275C32.7111 19.6685 32.8291 19.0143 33.0673 18.4023C33.2853 17.8476 33.6157 17.347 34.0365 16.9332C34.4608 16.5225 34.9624 16.2052 35.5108 16.0009C36.1087 15.7795 36.7404 15.6696 37.3758 15.6765C37.631 15.6773 37.8855 15.7003 38.1368 15.7451C38.4032 15.7917 38.6646 15.8651 38.9171 15.964C39.177 16.0653 39.4242 16.1981 39.6536 16.3596C39.8933 16.5305 40.107 16.7371 40.2872 16.9728L38.8322 18.2017ZM42.8283 15.3007V19.5007H42.8528C42.9005 19.3718 42.9707 19.253 43.0597 19.15C43.1627 19.0293 43.2817 18.9241 43.4133 18.8374C43.5647 18.7399 43.7286 18.6644 43.9004 18.6132C44.0982 18.5533 44.3034 18.5235 44.5097 18.5249C44.8946 18.5091 45.2781 18.584 45.6305 18.7438C45.9029 18.8782 46.1332 19.0885 46.2951 19.3504C46.4606 19.6295 46.5703 19.9398 46.6176 20.2628C46.6767 20.6392 46.7055 21.0198 46.7037 21.4009V24.7504H44.876V21.7754C44.876 21.6 44.876 21.4193 44.8579 21.2322C44.8475 21.0541 44.8102 20.8789 44.7474 20.7125C44.6908 20.5596 44.5938 20.4259 44.4673 20.3262C44.3075 20.2159 44.1169 20.163 43.9248 20.1758C43.7262 20.1675 43.5288 20.213 43.3528 20.3077C43.2113 20.3903 43.0952 20.5118 43.0173 20.6585C42.9379 20.8121 42.8865 20.9791 42.8656 21.1516C42.8406 21.3423 42.8281 21.5344 42.8283 21.7266V24.7516H41.0006V15.302L42.8283 15.3007ZM47.5688 16.7631C47.5664 16.6199 47.5927 16.4778 47.6463 16.3454C47.6997 16.2132 47.7793 16.0936 47.8799 15.9943C47.9769 15.8914 48.0934 15.8099 48.2223 15.7551C48.3512 15.7002 48.4897 15.673 48.6292 15.6751C48.7687 15.6734 48.9071 15.7009 49.0359 15.7557C49.1647 15.8106 49.2813 15.8917 49.3786 15.9943C49.4788 16.0939 49.5579 16.2135 49.6112 16.3458C49.6644 16.478 49.6907 16.62 49.6884 16.7631C49.6902 16.9061 49.6637 17.048 49.6104 17.1801C49.5572 17.3123 49.4783 17.432 49.3786 17.5319C49.2812 17.6343 49.1646 17.7151 49.0357 17.7698C48.9069 17.8244 48.7687 17.8516 48.6292 17.8497C48.4898 17.8521 48.3514 17.8252 48.2224 17.7705C48.0935 17.7158 47.977 17.6346 47.8799 17.5319C47.7795 17.4327 47.7002 17.3133 47.6468 17.1813C47.5932 17.0493 47.5667 16.9073 47.5688 16.7644V16.7631ZM47.7153 18.6751H49.5392V24.7504H47.7114L47.7153 18.6751ZM50.5534 18.6751H52.308V19.5007H52.3324C52.3976 19.3728 52.4797 19.2547 52.5766 19.15C52.6882 19.0287 52.8154 18.9236 52.9544 18.8374C53.1113 18.7414 53.2793 18.666 53.4545 18.6132C53.6522 18.5531 53.8576 18.5233 54.0637 18.5249C54.4488 18.5093 54.8321 18.5842 55.1846 18.7438C55.4564 18.8787 55.6861 19.0888 55.8478 19.3504C56.014 19.6294 56.1241 19.9396 56.1718 20.2628C56.2302 20.6392 56.2587 21.0198 56.2566 21.4009V24.7504H54.4237V21.7754C54.4237 21.6 54.4172 21.4193 54.4057 21.2322C54.3952 21.0541 54.3579 20.8789 54.2951 20.7125C54.2385 20.5596 54.1415 20.4259 54.0149 20.3262C53.8557 20.2159 53.6654 20.163 53.4738 20.1758C53.2747 20.1674 53.0769 20.2129 52.9004 20.3077C52.7591 20.3903 52.6428 20.5118 52.565 20.6585C52.4856 20.8121 52.4342 20.9791 52.4133 21.1516C52.3882 21.3423 52.3758 21.5344 52.3761 21.7266V24.7516H50.5483L50.5534 18.6751ZM62.8493 23.7007C62.5554 24.0847 62.1746 24.3893 61.74 24.5881C61.3042 24.794 60.8302 24.9006 60.3504 24.9007C59.9125 24.9034 59.4776 24.8276 59.0651 24.6765C58.6776 24.5354 58.3213 24.3162 58.0176 24.0316C57.7183 23.75 57.4797 23.4073 57.3171 23.0255C57.1415 22.6118 57.0539 22.1646 57.06 21.7135C57.0531 21.2601 57.1408 20.8106 57.3171 20.3947C57.48 20.0131 57.7186 19.6706 58.0176 19.3886C58.3218 19.105 58.6778 18.8863 59.0651 18.7451C59.4774 18.593 59.9124 18.5167 60.3504 18.5196C60.7471 18.5134 61.1406 18.5901 61.5073 18.7451C61.8435 18.889 62.1436 19.1089 62.3852 19.3886C62.6329 19.683 62.8212 20.025 62.9392 20.3947C63.0746 20.8203 63.1406 21.2659 63.1346 21.7135V22.3003H58.8929C58.9509 22.6332 59.1184 22.9356 59.3672 23.1574C59.6194 23.3721 59.9393 23.4851 60.267 23.4753C60.5347 23.4843 60.7993 23.4127 61.0279 23.2695C61.2389 23.1296 61.4228 22.9507 61.5703 22.742L62.8493 23.7007ZM61.3068 21.0251C61.3132 20.8755 61.2895 20.7261 61.237 20.5864C61.1845 20.4465 61.1046 20.3194 61.0021 20.2128C60.8963 20.1012 60.7689 20.0136 60.6282 19.9555C60.4874 19.8973 60.3363 19.87 60.1846 19.8753C60.0013 19.8718 59.8191 19.906 59.6487 19.9754C59.5033 20.0367 59.3695 20.1232 59.2527 20.2312C59.145 20.3338 59.0576 20.457 58.9957 20.5939C58.9357 20.7298 58.9008 20.8761 58.8929 21.0251H61.3068ZM67.2889 20.4634C67.1641 20.2981 67.0028 20.1656 66.8186 20.0765C66.6343 19.9873 66.4321 19.9441 66.2285 19.9504C66.0721 19.9513 65.918 19.9897 65.7785 20.0624C65.708 20.0967 65.6492 20.1521 65.61 20.2213C65.5706 20.2905 65.5529 20.3703 65.5587 20.4501C65.558 20.5226 65.5792 20.5935 65.6196 20.6531C65.6599 20.7126 65.7172 20.7578 65.7837 20.7824C65.9683 20.8641 66.1604 20.9268 66.357 20.9697L67.1 21.1438C67.3602 21.2053 67.6108 21.3043 67.8441 21.4378C68.0743 21.5703 68.2704 21.7569 68.4161 21.9824C68.5795 22.2601 68.6578 22.5817 68.6411 22.9055C68.6551 23.247 68.5681 23.5849 68.3917 23.8747C68.227 24.1278 68.007 24.3378 67.7491 24.488C67.4771 24.6469 67.1806 24.7566 66.8725 24.8123C66.5551 24.8744 66.2327 24.9058 65.9097 24.9059C65.4854 24.9043 65.0635 24.8436 64.6551 24.7253C64.2479 24.613 63.8772 24.3907 63.5819 24.0818L64.6912 22.8185C64.8458 23.0206 65.0386 23.1889 65.2579 23.313C65.4826 23.429 65.7315 23.4866 65.983 23.4805C66.1775 23.4837 66.371 23.452 66.5549 23.3869C66.6294 23.3683 66.6955 23.3241 66.7422 23.2618C66.789 23.1995 66.8136 23.1226 66.812 23.044C66.8129 22.9681 66.792 22.8937 66.7517 22.8301C66.7115 22.7666 66.6537 22.7166 66.5858 22.6866C66.4036 22.5971 66.2115 22.5301 66.0138 22.4875L65.2695 22.3121C65.0111 22.2521 64.7613 22.1577 64.5266 22.0312C64.2956 21.9073 64.0984 21.726 63.9534 21.5038C63.7901 21.2261 63.7118 20.9045 63.7284 20.5807C63.7199 20.2591 63.7935 19.941 63.9418 19.6576C64.0793 19.4043 64.2709 19.1861 64.5022 19.0193C64.7446 18.8483 65.015 18.7233 65.3004 18.6501C65.599 18.5713 65.906 18.5314 66.2143 18.5315C66.6145 18.5335 67.0125 18.5924 67.3968 18.7069C67.7828 18.8168 68.1322 19.0329 68.4072 19.3319L67.2889 20.4634ZM74.8802 23.7007C74.5871 24.085 74.2068 24.3897 73.7723 24.5881C73.3366 24.794 72.8625 24.9006 72.3828 24.9007C71.9449 24.9034 71.5098 24.8276 71.0975 24.6765C70.7095 24.5351 70.3531 24.316 70.0486 24.0316C69.7502 23.7492 69.5117 23.4067 69.348 23.0255C69.1731 22.6116 69.0855 22.1645 69.091 21.7135C69.0848 21.2602 69.1724 20.8107 69.348 20.3947C69.512 20.0137 69.7504 19.6713 70.0486 19.3886C70.3534 19.1052 70.7099 18.8865 71.0975 18.7451C71.5096 18.593 71.9447 18.5167 72.3828 18.5196C72.7793 18.5135 73.1729 18.5902 73.5396 18.7451C73.8754 18.889 74.1751 19.1089 74.4163 19.3886C74.6647 19.6827 74.8536 20.0248 74.9715 20.3947C75.1064 20.8204 75.172 21.2659 75.1656 21.7135V22.3003H70.9239C70.9825 22.6333 71.1503 22.9357 71.3995 23.1574C71.6516 23.3722 71.9716 23.4852 72.2993 23.4753C72.567 23.4841 72.8315 23.4126 73.0602 23.2695C73.2712 23.1296 73.4551 22.9507 73.6026 22.742L74.8802 23.7007ZM73.3378 21.0251C73.3448 20.8754 73.3213 20.7259 73.2689 20.586C73.2164 20.4462 73.1361 20.319 73.0332 20.2128C72.9277 20.1011 72.8005 20.0134 72.6599 19.9552C72.5193 19.8972 72.3684 19.8698 72.217 19.8753C72.0336 19.8718 71.8514 19.906 71.681 19.9754C71.5355 20.0365 71.4016 20.123 71.2851 20.2312C71.1768 20.3335 71.0894 20.4568 71.028 20.5939C70.9675 20.7298 70.9323 20.876 70.9239 21.0251H73.3378Z" fill="#E8E8E8" fill-opacity="0.9"/>
<path d="M35.1394 5.04687H32.6767V3.32074H39.5058V5.04687H37.0417V12.1823H35.1394V5.04687ZM44.5225 12.177H42.7655V11.3515H42.7411C42.6703 11.4772 42.5867 11.5948 42.4917 11.7023C42.384 11.8251 42.2587 11.9304 42.1203 12.0148C41.9636 12.1116 41.7957 12.1874 41.6202 12.2402C41.422 12.2999 41.2162 12.3292 41.0097 12.3274C40.6226 12.3432 40.2371 12.2683 39.8824 12.1085C39.6072 11.9757 39.3745 11.7652 39.2114 11.5018C39.0458 11.2232 38.9378 10.9126 38.894 10.5893C38.8397 10.2121 38.8134 9.83124 38.8156 9.44996V6.09789H40.6446V9.07544C40.6446 9.25083 40.6511 9.43151 40.6626 9.61876C40.6731 9.79664 40.7099 9.97184 40.7719 10.1383C40.8294 10.2916 40.9267 10.4257 41.0534 10.526C41.2129 10.6364 41.4037 10.6894 41.5958 10.6763C41.795 10.6853 41.9928 10.6398 42.1691 10.5445C42.3102 10.462 42.4263 10.341 42.5045 10.195C42.5839 10.0409 42.6352 9.8734 42.6562 9.70051C42.6813 9.50994 42.6937 9.31787 42.6935 9.12558V6.0926H44.5225V12.177ZM49.5459 7.59853H47.9288V9.62536C47.9278 9.77781 47.9359 9.93019 47.9533 10.0816C47.9652 10.2072 48.0023 10.3289 48.0625 10.439C48.122 10.542 48.2122 10.6228 48.3196 10.6697C48.4688 10.7298 48.6285 10.7576 48.7887 10.7515C48.9177 10.7491 49.0465 10.7386 49.1743 10.7198C49.3059 10.7109 49.4314 10.6608 49.5343 10.5761V12.1401C49.3295 12.2157 49.1168 12.2661 48.9005 12.2904C48.6871 12.3148 48.4726 12.3271 48.2578 12.3274C47.9705 12.3302 47.6838 12.2965 47.4043 12.2271C47.1585 12.1681 46.9265 12.0595 46.7218 11.9079C46.5251 11.7612 46.3676 11.5657 46.2642 11.3396C46.1474 11.0726 46.0911 10.7817 46.0998 10.4891V7.59853H44.9288V6.09789H46.0998V4.29655H47.9288V6.09789H49.5381L49.5459 7.59853ZM49.9481 9.13742C49.9418 8.68414 50.0294 8.23466 50.2052 7.81874C50.3691 7.43697 50.608 7.09401 50.907 6.81129C51.2119 6.52793 51.5683 6.30921 51.9558 6.16775C52.368 6.01569 52.8032 5.93936 53.2412 5.94226C53.6792 5.93936 54.1144 6.01569 54.5266 6.16775C54.9141 6.30921 55.2706 6.52793 55.5755 6.81129C55.8744 7.09401 56.1133 7.43697 56.2772 7.81874C56.4536 8.23445 56.5413 8.68408 56.5343 9.13742C56.5413 9.59076 56.4536 10.0404 56.2772 10.4561C56.1136 10.8381 55.8747 11.1811 55.5755 11.4636C55.2711 11.7478 54.9144 11.967 54.5266 12.1085C54.1142 12.2594 53.6791 12.3353 53.2412 12.3325C52.8033 12.3353 52.3683 12.2595 51.9558 12.1085C51.568 11.967 51.2114 11.7478 50.907 11.4636C50.6077 11.1811 50.3688 10.8381 50.2052 10.4561C50.0277 10.0406 49.9382 9.59108 49.943 9.13742H49.9481ZM51.7772 9.13742C51.7596 9.54575 51.898 9.94504 52.1628 10.2504C52.4199 10.5352 52.7785 10.6763 53.2412 10.6763C53.704 10.6763 54.0651 10.5352 54.3209 10.2504C54.5857 9.94504 54.7241 9.54575 54.7065 9.13742C54.7237 8.72913 54.5855 8.32999 54.3209 8.02446C54.0638 7.74139 53.704 7.59941 53.2412 7.59853C52.7785 7.59766 52.4191 7.73962 52.1628 8.02446C51.8964 8.32917 51.7562 8.7284 51.772 9.13742H51.7772ZM57.3042 6.10445H59.1334V7.08029H59.1578C59.3191 6.74513 59.5579 6.45539 59.8531 6.23633C60.1547 6.03828 60.5082 5.93981 60.866 5.95414C60.9714 5.95414 61.0769 5.95415 61.1822 5.96734C61.2811 5.9746 61.3792 5.99091 61.4752 6.01611V7.73039C61.349 7.69025 61.2201 7.65897 61.0897 7.63678C60.9587 7.6153 60.8263 7.60472 60.6938 7.60513C60.4101 7.59236 60.127 7.64367 59.8647 7.75544C59.6718 7.84592 59.5086 7.99153 59.3942 8.17481C59.2792 8.37176 59.2065 8.59158 59.1808 8.81964C59.1471 9.09341 59.1307 9.36917 59.132 9.64513V12.1823H57.3029L57.3042 6.10445ZM65.0357 3.32734H66.6091L70.3649 12.1836H68.2183L67.4741 10.3071H64.1218L63.4021 12.1836H61.2966L65.0357 3.32734ZM65.7671 5.90402L64.7182 8.65611H66.8237L65.7671 5.90402ZM70.9252 3.32734H74.1386C74.5158 3.32714 74.8926 3.35444 75.2659 3.40908C75.6211 3.45579 75.9655 3.56555 76.284 3.73347C76.5811 3.89263 76.8333 4.12741 77.0167 4.41524C77.2183 4.76676 77.3156 5.17091 77.2968 5.5783C77.3132 6.03051 77.1678 6.4733 76.8881 6.82316C76.6028 7.16148 76.2276 7.40709 75.8083 7.52996V7.55501C76.0766 7.59284 76.3372 7.67525 76.5796 7.79898C76.8043 7.91514 77.0068 8.07193 77.1773 8.26183C77.3464 8.4538 77.4774 8.67776 77.5629 8.92118C77.654 9.17809 77.6996 9.44959 77.6979 9.72294C77.7122 10.1337 77.6104 10.5399 77.4048 10.8926C77.2131 11.2013 76.9544 11.4604 76.649 11.6495C76.3265 11.846 75.9741 11.9855 75.6066 12.0623C75.2263 12.1447 74.8385 12.1861 74.4497 12.1862H70.9138L70.9252 3.32734ZM72.8277 6.86798H74.2055C74.3512 6.86783 74.4965 6.85104 74.6387 6.81789C74.7754 6.78625 74.9058 6.73096 75.0243 6.65436C75.138 6.57902 75.232 6.47624 75.298 6.35502C75.3706 6.21663 75.4065 6.0611 75.4022 5.90402C75.4081 5.74358 75.3679 5.58489 75.2866 5.44775C75.2118 5.32904 75.1086 5.23193 74.9871 5.16557C74.8568 5.09693 74.7173 5.04848 74.5731 5.02182C74.4244 4.99333 74.2734 4.97879 74.122 4.97833H72.8289L72.8277 6.86798ZM72.8277 10.5326H74.5346C74.6846 10.5326 74.8341 10.5158 74.9806 10.4825C75.1263 10.4519 75.2647 10.3923 75.3881 10.3071C75.5106 10.2238 75.613 10.1128 75.6876 9.98271C75.7684 9.83382 75.8084 9.6652 75.8033 9.49481C75.8113 9.31289 75.7572 9.13379 75.6503 8.98842C75.5481 8.85838 75.4155 8.75717 75.2647 8.69436C75.1047 8.62576 74.9366 8.57919 74.7646 8.55589C74.599 8.53206 74.432 8.51973 74.2647 8.51897H72.825L72.8277 10.5326ZM84.1684 5.62843C83.9829 5.39634 83.7469 5.21207 83.4794 5.09039C83.1805 4.96056 82.858 4.89678 82.5334 4.90316C82.1912 4.90008 81.8524 4.97246 81.5398 5.11544C81.2386 5.25526 80.969 5.45778 80.748 5.71017C80.5182 5.97533 80.3402 6.28334 80.2236 6.61744C80.0951 6.98222 80.0311 7.36759 80.0347 7.75544C80.0301 8.14553 80.0941 8.53329 80.2236 8.90008C80.3391 9.23041 80.5134 9.53578 80.7377 9.80072C80.9521 10.0514 81.2146 10.2539 81.509 10.3954C81.809 10.5375 82.1361 10.61 82.4665 10.6078C82.8269 10.6153 83.1834 10.5291 83.5026 10.3572C83.8036 10.1909 84.0593 9.95024 84.2469 9.65701L85.8317 10.8702C85.4823 11.3826 85.0014 11.7856 84.4421 12.0345C83.8964 12.2807 83.3069 12.4082 82.7108 12.409C82.0748 12.4159 81.4428 12.306 80.8445 12.0847C80.2959 11.8801 79.7938 11.5628 79.3688 11.1524C78.9449 10.7371 78.6119 10.2341 78.392 9.67677C78.1538 9.06426 78.0359 8.40954 78.0449 7.75017C78.0359 7.09079 78.1538 6.4361 78.392 5.82359C78.6103 5.26881 78.9405 4.76771 79.3611 4.35324C79.7862 3.94318 80.2882 3.62642 80.8367 3.42228C81.4348 3.19983 82.0669 3.08951 82.7031 3.09657C82.9586 3.09811 83.2135 3.12103 83.4653 3.16514C83.7317 3.21177 83.9931 3.28508 84.2455 3.38403C84.506 3.48515 84.7537 3.61797 84.9834 3.77964C85.2235 3.95012 85.4371 4.15683 85.617 4.39281L84.1684 5.62843Z" fill="#E8E8E8" fill-opacity="0.9"/>
</g>
<defs>
<clipPath id="clip0_2_6">
<rect width="86" height="30" fill="white"/>
</clipPath>
</defs>
</svg>
