<svg width="86" height="30" viewBox="0 0 86 30" fill="none" xmlns="http://www.w3.org/2000/svg">
<g clip-path="url(#clip0_2_2)">
<path d="M24.7811 12.2137C24.8132 12.4062 24.839 12.6 24.862 12.7939C24.839 12.6039 24.8119 12.4115 24.7811 12.2189V12.2137ZM22.3029 6.8783C22.3363 6.91786 22.371 6.9574 22.4031 6.99697L22.3029 6.8783ZM24.4623 10.8488C24.5531 11.1512 24.6306 11.4589 24.695 11.7719C24.6306 11.4594 24.5548 11.1534 24.4623 10.8554V10.8488ZM24.7194 11.8734C24.7399 11.975 24.7593 12.0765 24.7759 12.1793C24.7579 12.0818 24.7386 11.9803 24.7181 11.8788L24.7194 11.8734ZM24.8813 12.9666C24.8908 13.0545 24.8985 13.1424 24.9045 13.2304C24.8977 13.1416 24.8894 13.0554 24.88 12.9719L24.8813 12.9666ZM24.9315 13.6708C24.9315 13.6418 24.9315 13.6128 24.9315 13.5838C24.9315 13.6141 24.9315 13.6431 24.9315 13.6722V13.6708ZM13.6473 3.15302L13.7835 3.1451C13.7308 3.15301 13.6858 3.15695 13.6407 3.15959L13.6473 3.15302ZM24.1371 9.90202C24.1628 9.964 24.1885 10.026 24.2116 10.088C24.1821 10.0326 24.1564 9.97061 24.1307 9.90862L24.1371 9.90202ZM24.3402 10.4414C24.3685 10.5258 24.3967 10.6115 24.4238 10.6972C24.389 10.6194 24.362 10.5337 24.3338 10.4493L24.3402 10.4414ZM28.6359 11.793C28.2849 10.7381 26.6757 10.5851 25.0369 10.6946C25.1519 11.0822 25.2472 11.4757 25.3222 11.8734C25.5215 11.8642 25.7078 11.8589 25.8749 11.8589C27.0318 11.8589 27.4752 12.062 27.5459 12.1754C27.5639 12.3442 27.1911 13.0009 25.5292 14.1112C25.3685 14.2193 25.1963 14.3315 25.015 14.4476C24.7862 14.5899 24.5394 14.7403 24.2694 14.8958C21.8877 16.2726 18.6216 17.7153 15.0714 18.9574C11.9274 20.0585 8.86699 20.8946 6.33097 21.3522C6.10217 21.3935 5.87723 21.4317 5.65615 21.4669L5.37592 21.5104C2.23449 21.9785 1.25246 21.5869 1.15863 21.4194C1.13163 21.2295 1.62779 20.3776 4.07768 18.9139C3.91357 18.5508 3.76857 18.1788 3.64325 17.7996C1.86044 18.8546 -0.405636 20.3934 0.0622369 21.8031C0.35273 22.6761 1.50442 22.9319 2.8232 22.9319C3.67144 22.9179 4.51782 22.8457 5.35665 22.7157C5.75897 22.6589 6.18055 22.5838 6.61371 22.5087C6.84636 22.4664 7.08158 22.4216 7.32323 22.3768C9.12683 24.0046 11.415 24.9571 13.8144 25.0788L13.6229 25.6062L13.272 26.5569C13.2532 26.6106 13.2504 26.6688 13.2641 26.724C13.2777 26.7792 13.3072 26.829 13.3487 26.867C13.3901 26.9049 13.4416 26.9294 13.4966 26.9371C13.5517 26.9449 13.6077 26.9355 13.6576 26.9104C14.3002 26.5543 15.3285 25.9873 16.3362 25.4348C17.3439 24.8823 18.3401 24.3442 18.9069 24.0515C21.9854 22.4691 24.2952 19.5046 24.8736 15.9178L24.9957 15.848C25.1398 15.7635 25.2874 15.6753 25.4366 15.5842C27.132 14.5399 29.0665 13.113 28.6295 11.8009L28.6359 11.793ZM16.3066 10.1091C17.1416 10.397 18.009 10.5742 18.8877 10.6365C18.7715 9.17152 18.3785 7.74366 17.7309 6.43257C16.7503 7.38685 15.88 8.45365 15.1369 9.61192C15.5146 9.80376 15.903 9.97239 16.3002 10.117L16.3066 10.1091ZM18.934 11.3842C17.9608 11.326 16.9997 11.1335 16.0766 10.8119C15.6179 10.6531 15.1697 10.4641 14.7347 10.2462C13.9659 11.5183 13.2939 12.8494 12.7243 14.2273C12.4293 14.9568 12.1745 15.7025 11.9609 16.4611C12.5123 16.7284 13.0784 16.9626 13.6562 17.1627C14.4805 17.4477 15.3267 17.6608 16.1859 17.7996C16.8645 17.5464 17.5304 17.2866 18.1768 17.0229C18.7784 14.9104 18.9893 13.0326 18.9276 11.3921L18.934 11.3842ZM19.5766 10.6655C20.3536 10.6673 21.1257 10.5404 21.8633 10.2897C21.1516 8.79771 20.052 7.53639 18.6859 6.64489C19.1598 7.80612 19.453 9.03647 19.5548 10.291C19.56 10.4216 19.5612 10.5495 19.5703 10.6735L19.5766 10.6655ZM11.7616 17.1838C11.5778 17.8946 11.4094 18.6581 11.2783 19.4334C12.4261 19.0972 13.6086 18.7174 14.804 18.2981L14.8465 18.2835C14.3722 18.1676 13.8966 18.029 13.4249 17.8655C12.8567 17.6726 12.2993 17.4476 11.7552 17.1918L11.7616 17.1838ZM22.5381 12.1873C22.4364 11.7689 22.3075 11.3579 22.1525 10.957C21.3355 11.2433 20.4786 11.3921 19.6151 11.3974C19.6372 13.1794 19.4298 14.9564 18.9982 16.6827C20.3979 16.0893 21.6975 15.48 22.8454 14.8747C22.8525 13.9715 22.747 13.071 22.5317 12.1951L22.5381 12.1873ZM7.05072 13.6115C6.83371 14.1545 6.65965 14.7146 6.53018 15.2862C6.12207 17.0303 6.19458 18.8566 6.73967 20.561C7.91064 20.3276 9.1819 20.0216 10.5007 19.6523C10.6509 18.7065 10.8513 17.7697 11.1009 16.8462C9.5607 16.0478 8.1837 14.9543 7.04432 13.6246L7.05072 13.6115ZM5.88617 15.1346C6.05163 14.4033 6.28537 13.6902 6.58415 13.0049C5.65483 11.7034 5.10981 10.3016 5.05326 8.93146C4.88244 9.21629 4.72586 9.50989 4.58411 9.81104C4.32074 10.3772 4.09154 10.9594 3.89775 11.5543C3.70689 12.3804 3.61023 13.2266 3.6098 14.0757C3.60645 16.4844 4.38175 18.8264 5.81424 20.735L6.05971 20.6928H6.08287C5.52418 18.8961 5.45395 16.977 5.87977 15.1424L5.88617 15.1346ZM22.4673 7.06026L22.4147 6.99433C22.3826 6.95476 22.3478 6.91522 22.3145 6.87565C22.2321 6.77939 22.1512 6.68574 22.0665 6.59344L22.0111 6.5341C21.5652 6.05012 21.0773 5.60874 20.5535 5.21542L20.5329 5.20094C20.3311 5.0506 20.1216 4.90948 19.9096 4.77366C19.4918 5.01666 19.0907 5.28852 18.709 5.5873C20.0544 5.77067 21.3383 6.27812 22.4559 7.06817L22.4673 7.06026ZM10.7564 7.89367C10.9634 7.74598 11.1716 7.61278 11.3799 7.47827C10.8288 6.74758 10.4671 5.88562 10.3284 4.97278C8.58606 5.3826 7.02129 6.36353 5.8708 7.76708C5.57388 9.2295 5.98774 10.8 6.94534 12.2624C7.85786 10.521 9.16003 9.02648 10.7449 7.9016L10.7564 7.89367ZM10.331 3.90995C10.2834 3.92972 10.2346 3.94686 10.1871 3.96796L10.0585 4.02201C9.94155 4.07476 9.82454 4.1275 9.71013 4.1842L9.59321 4.24225C9.4801 4.29895 9.36829 4.35696 9.25775 4.41762L9.12921 4.48883C9.02638 4.54685 8.92479 4.60753 8.82325 4.6695L8.67544 4.76181L8.56617 4.83302C9.12209 4.58548 9.70027 4.39423 10.2924 4.26202C10.2873 4.15257 10.304 4.03387 10.3194 3.91783L10.331 3.90995ZM23.2027 12.0158C23.4005 12.8321 23.5083 13.6686 23.524 14.5095C23.6885 14.4185 23.8506 14.3274 24.0073 14.2365C24.2772 14.0809 24.5215 13.9306 24.7528 13.7881L24.9392 13.6695C24.9392 13.6404 24.9392 13.6115 24.9392 13.5811C24.9392 13.4624 24.9262 13.3424 24.9173 13.2251C24.9113 13.1371 24.9037 13.0492 24.8943 12.9614C24.8943 12.9034 24.8827 12.8466 24.8761 12.7886C24.8531 12.5947 24.8274 12.4009 24.7952 12.2084C24.7952 12.1965 24.7952 12.186 24.7888 12.1741C24.772 12.0712 24.7528 11.9697 24.7322 11.8681L24.7091 11.76C24.6448 11.4515 24.5673 11.1438 24.4764 10.837L24.4315 10.688C24.4045 10.6022 24.3762 10.5165 24.348 10.4321C24.3068 10.3121 24.2644 10.1948 24.2194 10.0774C24.1963 10.0154 24.1706 9.95345 24.1448 9.89146C24.1191 9.82949 24.105 9.79522 24.0857 9.74642C23.705 10.1277 23.2654 10.4418 22.7848 10.6761C22.9493 11.1156 23.085 11.5658 23.1911 12.0238L23.2027 12.0158ZM17.9699 5.2484C18.355 4.92384 18.7599 4.62477 19.182 4.353C18.916 4.21058 18.6422 4.07872 18.3633 3.95739L18.3311 3.94423C18.1807 3.88094 18.029 3.82026 17.8761 3.76487C17.5701 3.65279 17.2565 3.55521 16.9378 3.47213L16.8479 3.44972C16.7193 3.41544 16.5817 3.38509 16.448 3.35607L16.3683 3.33894H16.3337C16.9654 3.89137 17.513 4.53765 17.9584 5.25631L17.9699 5.2484ZM12.4956 4.01938C13.9482 4.03162 15.3861 4.31864 16.7373 4.86599C16.2722 4.26347 15.7168 3.74048 15.092 3.31654C14.9994 3.25456 14.903 3.20181 14.8079 3.14378C14.6562 3.13587 14.5046 3.13322 14.3517 3.1319H14.2861C14.1189 3.1319 13.9544 3.13192 13.7912 3.1451L13.655 3.15302C13.5264 3.15961 13.3979 3.17016 13.2693 3.18203L13.1549 3.19388C12.8198 3.22904 12.4896 3.28093 12.164 3.3495L12.0984 3.36267C11.7719 3.433 11.4514 3.51786 11.1369 3.6172C11.0897 3.78357 11.057 3.95389 11.0392 4.12619C11.518 4.05887 12.0007 4.02582 12.484 4.02729L12.4956 4.01938ZM16.6088 5.56225C15.302 5.01635 13.9064 4.7295 12.4956 4.71696C12.0063 4.71781 11.5177 4.75662 11.0341 4.83302C11.1176 5.59785 11.4557 6.37588 11.9968 7.10642C13.5006 6.24796 15.0573 5.72047 16.5933 5.57015L16.6088 5.56225ZM22.5008 10.0181C22.9602 9.79111 23.3718 9.47445 23.713 9.08577C22.6391 7.81277 21.2173 6.89993 19.632 6.46553C20.8498 7.39806 21.829 8.61982 22.4854 10.026L22.5008 10.0181ZM14.5045 9.27961C15.2129 8.17918 16.0258 7.15351 16.9313 6.21764C15.4403 6.31918 13.9146 6.80181 12.4325 7.63389C13.0326 8.2887 13.7261 8.84626 14.4892 9.28753L14.5045 9.27961ZM11.8053 8.00574C11.5829 8.14685 11.3606 8.29191 11.1408 8.44883C9.54684 9.57615 8.25589 11.0978 7.3875 12.873C8.3451 14.106 9.69086 15.2374 11.3168 16.1249C11.5318 15.3818 11.7841 14.6508 12.0727 13.9346C12.6513 12.5384 13.334 11.1902 14.1151 9.90202C13.2446 9.40554 12.4581 8.76785 11.786 8.01366L11.8053 8.00574Z" fill="#E8E8E8" fill-opacity="0.9"/>
<path d="M35.1394 5.07727H32.6767V3.3511H39.5058V5.07727H37.0417V12.2088H35.1394V5.07727ZM44.5225 12.2088H42.7668V11.3819H42.7423C42.671 11.5075 42.587 11.6251 42.4917 11.7327C42.3839 11.8554 42.2587 11.9608 42.1202 12.0451C41.9636 12.1419 41.7955 12.2177 41.6202 12.2707C41.4224 12.3301 41.217 12.3594 41.0109 12.3577C40.6234 12.3736 40.2374 12.2987 39.8823 12.1388C39.6071 12.006 39.3745 11.7957 39.2114 11.5322C39.0463 11.2534 38.9386 10.9429 38.8953 10.6197C38.8398 10.2426 38.8132 9.86167 38.8155 9.48033V6.12826H40.6446V9.10585C40.6446 9.28123 40.6446 9.46188 40.6626 9.65045C40.6731 9.82803 40.7103 10.0029 40.7732 10.1687C40.83 10.3219 40.927 10.456 41.0533 10.5564C41.2129 10.6668 41.4037 10.7197 41.5958 10.7067C41.7948 10.715 41.9925 10.6695 42.169 10.5748C42.3103 10.4919 42.4263 10.3705 42.5045 10.2241C42.5838 10.07 42.6352 9.90248 42.6562 9.72958C42.6813 9.53903 42.6937 9.34692 42.6935 9.15462V6.12166H44.5225V12.2088ZM49.5457 7.6289H47.9365V9.65441C47.9355 9.80731 47.9436 9.96011 47.9609 10.112C47.973 10.2371 48.0102 10.3583 48.0701 10.468C48.1297 10.571 48.2197 10.6519 48.3272 10.6988C48.4762 10.7595 48.6362 10.7873 48.7964 10.7806C48.9254 10.7782 49.0543 10.7676 49.182 10.7489C49.3135 10.74 49.4391 10.6898 49.5418 10.6052V12.1692C49.3372 12.2448 49.1245 12.2952 48.9082 12.3194C48.6948 12.3439 48.4803 12.3562 48.2655 12.3564C47.9781 12.359 47.6916 12.3258 47.412 12.2574C47.1667 12.1968 46.9351 12.0884 46.7295 11.9384C46.5329 11.7908 46.3755 11.5949 46.2719 11.3687C46.1556 11.1014 46.0993 10.8107 46.1073 10.5182V7.62758H44.9365V6.12693H46.1073V4.32695H47.9365V6.12826H49.5457V7.6289ZM49.9481 9.16782C49.942 8.71457 50.0296 8.26513 50.2052 7.84914C50.369 7.46738 50.608 7.12438 50.9069 6.84165C51.2118 6.5583 51.5682 6.33961 51.9558 6.19815C52.368 6.04608 52.8031 5.96975 53.2411 5.97266C53.6792 5.96975 54.1143 6.04608 54.5265 6.19815C54.9142 6.3393 55.2708 6.55802 55.5754 6.84165C55.8744 7.12438 56.1133 7.46738 56.2772 7.84914C56.4534 8.26494 56.541 8.71451 56.5343 9.16782C56.5412 9.62117 56.4536 10.0708 56.2772 10.4865C56.1136 10.8685 55.8746 11.2115 55.5754 11.494C55.2713 11.7786 54.9145 11.9978 54.5265 12.1388C54.1143 12.2904 53.6791 12.3664 53.2411 12.363C52.8032 12.3664 52.368 12.2904 51.9558 12.1388C51.5679 11.9974 51.2114 11.7781 50.9069 11.494C50.6077 11.2115 50.3687 10.8685 50.2052 10.4865C50.0276 10.071 49.9382 9.62148 49.9429 9.16782H49.9481ZM51.7771 9.16782C51.7605 9.57641 51.8987 9.97575 52.1628 10.2821C52.4199 10.5652 52.7797 10.7067 53.2425 10.7067C53.7052 10.7067 54.0646 10.5652 54.3209 10.2821C54.585 9.97575 54.7232 9.57641 54.7065 9.16782C54.7228 8.75968 54.5846 8.36088 54.3209 8.05487C54.0638 7.77091 53.7044 7.6289 53.2425 7.6289C52.7806 7.6289 52.4207 7.77091 52.1628 8.05487C51.8971 8.36007 51.7571 8.75896 51.772 9.16782H51.7771ZM57.3042 6.13486H59.1295V7.11067H59.1539C59.3148 6.77558 59.553 6.48588 59.848 6.26672C60.1495 6.06867 60.5031 5.97017 60.8608 5.98451C60.9662 5.98451 61.0716 5.98452 61.177 5.99771C61.276 6.00474 61.3742 6.0215 61.47 6.0478V7.76209C61.3438 7.72194 61.2149 7.69066 61.0844 7.66847C60.9536 7.64698 60.8211 7.6364 60.6886 7.63682C60.4048 7.62405 60.1218 7.67539 59.8595 7.78717C59.6659 7.87631 59.5017 8.02103 59.3865 8.20385C59.2705 8.40043 59.1973 8.62038 59.1719 8.84868C59.1385 9.12249 59.1226 9.39825 59.1243 9.67418V12.2139H57.2953L57.3042 6.13486ZM65.0343 3.3577H66.6077L70.3635 12.2153H68.2169L67.4727 10.3388H64.1206L63.4007 12.2153H61.303L65.0343 3.3577ZM65.7658 5.93441L64.7169 8.68648H66.8275L65.7658 5.93441ZM70.924 3.3577H74.1438C74.5209 3.35816 74.8976 3.3855 75.2711 3.43948C75.6262 3.48619 75.9707 3.59596 76.2891 3.76387C76.5859 3.92347 76.838 4.15811 77.0217 4.44562C77.2235 4.79754 77.3209 5.20219 77.3019 5.61002C77.3187 6.0619 77.1733 6.50438 76.8932 6.85353C76.6078 7.19186 76.2326 7.43786 75.8135 7.56165V7.5854C76.0818 7.62325 76.3422 7.70562 76.5847 7.82934C76.8095 7.94551 77.0118 8.1023 77.1824 8.2922C77.3511 8.48443 77.4821 8.70832 77.568 8.95155C77.6563 9.20854 77.6998 9.4795 77.6965 9.75199C77.7111 10.1627 77.6093 10.569 77.4034 10.9217C77.2118 11.2304 76.9531 11.4895 76.6477 11.6786C76.3255 11.8755 75.973 12.0151 75.6052 12.0913C75.2249 12.1741 74.8372 12.2161 74.4484 12.2166H70.9124L70.924 3.3577ZM72.8263 6.89838H74.2042C74.35 6.89823 74.4953 6.88141 74.6373 6.84825C74.7742 6.81746 74.9048 6.76211 75.023 6.68473C75.1369 6.60972 75.2311 6.50687 75.2968 6.38539C75.3694 6.247 75.4052 6.0915 75.4009 5.93441C75.4069 5.77397 75.3666 5.61529 75.2852 5.47816C75.2108 5.35951 75.1076 5.26271 74.9857 5.19725C74.8558 5.12739 74.7162 5.07849 74.5717 5.05223C74.423 5.02374 74.272 5.00917 74.1206 5.00869H72.8275L72.8263 6.89838ZM72.8263 10.563H74.5332C74.6833 10.563 74.8328 10.5462 74.9793 10.5129C75.1248 10.4822 75.2631 10.4231 75.3867 10.3388C75.509 10.2546 75.6114 10.1433 75.6862 10.0131C75.7671 9.86419 75.807 9.69556 75.8019 9.52518C75.8099 9.34327 75.7559 9.16417 75.6489 9.01879C75.5469 8.88874 75.4142 8.78754 75.2633 8.72473C75.1033 8.65613 74.9352 8.60956 74.7633 8.58626C74.5977 8.56243 74.4306 8.55012 74.2633 8.54937H72.8238L72.8263 10.563ZM84.167 5.65879C83.9819 5.42672 83.7458 5.24282 83.4781 5.12208C83.1798 4.99129 82.8578 4.92702 82.5334 4.93352C82.1906 4.93025 81.8512 5.00314 81.5385 5.14717C81.2371 5.28605 80.9673 5.4882 80.7467 5.74058C80.5169 6.00573 80.3388 6.31372 80.2223 6.64781C80.0939 7.01262 80.0299 7.39801 80.0333 7.78585C80.0286 8.17594 80.0927 8.56368 80.2223 8.93045C80.3378 9.26077 80.5122 9.56619 80.7364 9.83112C80.9504 10.0822 81.2131 10.2848 81.5077 10.4258C81.8075 10.5686 82.1347 10.6411 82.4653 10.6381C82.8259 10.6454 83.1825 10.5597 83.5025 10.3889C83.8026 10.2213 84.0578 9.98032 84.2455 9.68738L85.8303 10.9006C85.481 11.413 85 11.8161 84.4409 12.065C83.8951 12.3111 83.3056 12.4386 82.7094 12.4395C82.0735 12.4463 81.4414 12.3364 80.8431 12.1151C80.2945 11.9105 79.7924 11.5933 79.3674 11.1828C78.9466 10.7685 78.6164 10.2674 78.3983 9.71243C78.1602 9.09991 78.0422 8.44522 78.0513 7.78585C78.0422 7.12647 78.1602 6.47176 78.3983 5.85924C78.6163 5.30465 78.9466 4.80393 79.3674 4.39024C79.7922 3.97932 80.2943 3.66202 80.8431 3.45792C81.4412 3.23547 82.0733 3.12515 82.7094 3.13222C82.9649 3.13369 83.2198 3.15663 83.4717 3.20079C83.7381 3.24743 83.9994 3.32073 84.2519 3.41968C84.5121 3.52134 84.7598 3.65412 84.9897 3.81528C85.2295 3.98614 85.4432 4.19284 85.6234 4.42849L84.167 5.65879Z" fill="#E8E8E8" fill-opacity="0.9"/>
<path d="M38.1291 21.8269C38.13 22.2249 38.0951 22.6222 38.025 23.0137C37.9634 23.3783 37.8286 23.726 37.6291 24.0343C37.4172 24.3436 37.1288 24.5895 36.7935 24.7464C36.3451 24.9412 35.8599 25.0313 35.3733 25.0101C34.7597 25.031 34.1548 24.8564 33.6419 24.5104C33.1697 24.1763 32.8647 23.655 32.7268 22.9464L34.471 22.5085C34.4938 22.7229 34.5965 22.92 34.7576 23.0585C34.912 23.2043 35.1146 23.285 35.3244 23.284C35.5104 23.2963 35.6941 23.2359 35.8386 23.1152C35.962 23.0016 36.0545 22.8571 36.1073 22.6958C36.1655 22.5203 36.2005 22.3377 36.2114 22.1526C36.223 21.9561 36.2294 21.7741 36.2294 21.608V15.9284H38.1317L38.1291 21.8269ZM44.9326 24.7912H43.1767V23.9657H43.1523C43.082 24.0916 42.9983 24.2093 42.903 24.3165C42.7947 24.4393 42.6691 24.5447 42.5302 24.6291C42.3738 24.7262 42.2058 24.802 42.0303 24.8545C41.8325 24.9142 41.6271 24.9435 41.4209 24.9415C41.0338 24.9574 40.6483 24.8825 40.2936 24.7227C40.0184 24.5899 39.7858 24.3795 39.6227 24.1161C39.4571 23.8374 39.349 23.5268 39.3052 23.2035C39.2509 22.8263 39.2247 22.4454 39.2268 22.0642V18.712H41.0559V21.6897C41.0559 21.865 41.0558 22.0457 41.0738 22.233C41.0837 22.4109 41.1206 22.5862 41.1831 22.7526C41.2405 22.9055 41.3374 23.0394 41.4633 23.1403C41.6234 23.2506 41.8146 23.3034 42.0071 23.2906C42.2058 23.2997 42.4033 23.2542 42.5791 23.1587C42.7208 23.077 42.8371 22.9559 42.9146 22.8092C42.9943 22.6553 43.0461 22.4877 43.0674 22.3147C43.0922 22.1242 43.1042 21.9321 43.1034 21.7399V18.7069H44.9326V24.7912ZM45.921 18.712H47.6768V19.5376H47.7012C47.7659 19.4093 47.8481 19.2912 47.9455 19.1869C48.0571 19.0656 48.1842 18.9605 48.3234 18.8743C48.48 18.778 48.648 18.7027 48.8233 18.6501C49.0209 18.5894 49.2263 18.5596 49.4326 18.5618C49.818 18.5464 50.2018 18.6211 50.5547 18.7807C50.8267 18.9159 51.0567 19.1259 51.2193 19.3873C51.3851 19.6667 51.4948 19.9775 51.5419 20.3011C51.6009 20.6774 51.6297 21.058 51.628 21.4392V24.7912H49.7964V21.815C49.7964 21.6396 49.79 21.4576 49.7771 21.2704C49.7673 21.0924 49.7304 20.9172 49.6679 20.7508C49.6109 20.5977 49.514 20.4635 49.3876 20.3631C49.228 20.2528 49.0372 20.1999 48.8452 20.2127C48.6462 20.2043 48.4484 20.2498 48.2719 20.3446C48.1302 20.4269 48.0139 20.5485 47.9364 20.6954C47.8566 20.8489 47.8048 21.016 47.7835 21.1885C47.7588 21.3796 47.7467 21.5722 47.7475 21.7649V24.7912H45.9185L45.921 18.712ZM52.493 16.7974C52.4914 16.6543 52.5181 16.5124 52.5716 16.3802C52.625 16.248 52.7041 16.1284 52.8041 16.0287C52.9013 15.9261 53.018 15.8449 53.1468 15.79C53.2756 15.7351 53.414 15.7078 53.5535 15.7095C53.6932 15.7075 53.8317 15.7349 53.9609 15.7897C54.0899 15.8446 54.2067 15.9259 54.3042 16.0287C54.4042 16.1284 54.4833 16.248 54.5367 16.3802C54.5902 16.5124 54.6169 16.6543 54.6152 16.7974C54.6171 16.9407 54.5905 17.0829 54.5369 17.2153C54.4835 17.3477 54.4043 17.4675 54.3042 17.5675C54.2067 17.6702 54.0899 17.7515 53.9609 17.8064C53.8317 17.8612 53.6932 17.8885 53.5535 17.8866C53.414 17.8883 53.2756 17.861 53.1468 17.806C53.018 17.7512 52.9013 17.67 52.8041 17.5675C52.7045 17.4673 52.6257 17.3474 52.5727 17.215C52.5196 17.0826 52.4935 16.9405 52.4957 16.7974H52.493ZM52.6396 18.712H54.4687V24.7912H52.6396V18.712ZM55.2618 21.745C55.2548 21.2917 55.3424 20.842 55.5188 20.4264C55.6824 20.0447 55.9209 19.7018 56.2193 19.4189C56.5241 19.1356 56.8806 18.9169 57.2682 18.7754C57.6804 18.6233 58.1155 18.547 58.5535 18.5499C58.9916 18.547 59.4267 18.6233 59.8389 18.7754C60.2265 18.9169 60.583 19.1356 60.8878 19.4189C61.186 19.702 61.4244 20.045 61.5883 20.4264C61.7647 20.842 61.8523 21.2917 61.8453 21.745C61.8523 22.1984 61.7647 22.648 61.5883 23.0638C61.4248 23.4454 61.1864 23.7884 60.8878 24.0712C60.5833 24.3555 60.2268 24.5746 59.8389 24.7161C59.4265 24.867 58.9914 24.9428 58.5535 24.9403C58.1157 24.9428 57.6807 24.867 57.2682 24.7161C56.8803 24.5746 56.5238 24.3555 56.2193 24.0712C55.9204 23.7887 55.6819 23.4457 55.5188 23.0638C55.3433 22.6501 55.2557 22.2028 55.2618 21.7516V21.745ZM57.0895 21.745C57.0729 22.1536 57.2111 22.553 57.4752 22.8594C57.7323 23.1429 58.0908 23.284 58.5549 23.284C59.0188 23.284 59.3775 23.1429 59.6333 22.8594C59.8984 22.5537 60.0367 22.1539 60.0189 21.745C60.0368 21.3367 59.8984 20.9372 59.6333 20.6322C59.3762 20.349 59.0167 20.2071 58.5549 20.2062C58.0908 20.2062 57.7323 20.3485 57.4752 20.6322C57.209 20.9393 57.0706 21.3411 57.0895 21.7516V21.745ZM62.6166 18.712H64.4495V19.688H64.474C64.6353 19.3528 64.874 19.063 65.1693 18.8439C65.4704 18.6458 65.8235 18.5474 66.1809 18.5618C66.2863 18.5618 66.3918 18.5618 66.4984 18.575C66.597 18.5819 66.6947 18.5986 66.7902 18.625V20.3393C66.6639 20.2992 66.535 20.2679 66.4046 20.2457C66.2737 20.2242 66.1412 20.2137 66.0087 20.2141C65.7249 20.2013 65.4419 20.2527 65.1796 20.3645C64.9871 20.4549 64.8242 20.6005 64.7105 20.7838C64.5946 20.9803 64.5218 21.2003 64.4971 21.4285C64.4626 21.7024 64.4463 21.9781 64.4483 22.2541V24.7926H62.6192L62.6166 18.712Z" fill="#E8E8E8" fill-opacity="0.9"/>
</g>
<defs>
<clipPath id="clip0_2_2">
<rect width="86" height="30" fill="white"/>
</clipPath>
</defs>
</svg>
