<svg width="34" height="34" viewBox="0 0 34 34" fill="none" xmlns="http://www.w3.org/2000/svg">
<g clip-path="url(#clip0_4592_2892)">
<path d="M32.6733 2.08264C32.4833 1.89264 32.2633 1.75264 32.0233 1.65264C31.7833 1.55264 31.5233 1.49264 31.2433 1.49264H20.1833C19.0733 1.48264 18.1733 2.37264 18.1733 3.48264C18.1733 4.59264 19.0733 5.49264 20.1833 5.49264H26.3933L1.3433 30.5426C0.563301 31.3226 0.563301 32.6026 1.3433 33.3926C2.1233 34.1726 3.4033 34.1726 4.1933 33.3926L29.2333 8.34264V14.5526C29.2333 15.6626 30.1333 16.5626 31.2433 16.5626C31.8133 16.5626 32.2933 16.3326 32.6633 15.9626C33.0333 15.5926 33.2433 15.0926 33.2633 14.5426V3.46264C33.2633 3.20264 33.2233 2.93264 33.1033 2.68264C33.0033 2.44264 32.8633 2.27264 32.6733 2.08264Z" fill="#6C78FF"/>
</g>
<defs>
<clipPath id="clip0_4592_2892">
<rect width="32.5" height="32.49" fill="white" transform="translate(0.753418 1.48264)"/>
</clipPath>
</defs>
</svg>
