<svg width="34" height="34" viewBox="0 0 34 34" fill="none" xmlns="http://www.w3.org/2000/svg">
<g clip-path="url(#clip0_4594_2947)">
<path d="M7.23012 24.81L1.52012 30.51C0.820117 31.21 0.820117 32.35 1.52012 33.05C2.22012 33.75 3.36012 33.75 4.06012 33.05L9.76012 27.35C10.4601 26.65 10.4601 25.51 9.76012 24.81C9.06012 24.11 7.92012 24.11 7.22012 24.81H7.23012Z" fill="#6C78FF"/>
<path d="M18.8798 13.16L13.1798 18.86C12.4798 19.56 12.4798 20.7 13.1798 21.4C13.8798 22.1 15.0198 22.1 15.7198 21.4L21.4198 15.7C22.1198 15 22.1198 13.86 21.4198 13.16C20.7198 12.46 19.5798 12.46 18.8798 13.16Z" fill="#6C78FF"/>
<path d="M30.5102 1.52L24.8102 7.22C24.1102 7.91999 24.1102 9.06 24.8102 9.76C25.5102 10.46 26.6502 10.46 27.3502 9.76L33.0502 4.06C33.7502 3.36 33.7502 2.22 33.0502 1.52C32.3502 0.819995 31.2102 0.819995 30.5102 1.52Z" fill="#6C78FF"/>
</g>
<defs>
<clipPath id="clip0_4594_2947">
<rect width="32.58" height="32.58" fill="white" transform="translate(1 1)"/>
</clipPath>
</defs>
</svg>
