<svg width="24" height="24" viewBox="0 0 24 24" fill="none" xmlns="http://www.w3.org/2000/svg">
<path d="M10.3642 13.2607C10.0634 13.2607 9.76317 13.3753 9.53346 13.605L5.34981 17.7886L5.34981 16.5384C5.34981 15.8898 4.8234 15.3634 4.17479 15.3634C3.52618 15.3634 2.99978 15.8898 2.99978 16.5384L2.99978 20.6251C2.99977 21.2737 3.52618 21.8001 4.17479 21.8001L8.2615 21.8001C8.91011 21.8001 9.43652 21.2737 9.43652 20.6251C9.43652 19.9765 8.91011 19.4501 8.2615 19.4501L7.01128 19.4501L11.1949 15.2659C11.6538 14.807 11.6538 14.0632 11.1949 13.6044C10.9652 13.3753 10.665 13.2607 10.3642 13.2607Z" fill="white"/>
<path d="M15.2661 11.1958L19.4498 7.01211L19.4498 8.26174C19.4498 8.91035 19.9762 9.43675 20.6248 9.43675C21.2734 9.43675 21.7998 8.91035 21.7998 8.26174L21.7998 4.17503C21.7998 3.52642 21.2734 3.00001 20.6248 3.00001L16.5381 3.00001C15.8895 3.00001 15.3631 3.52642 15.3631 4.17503C15.3631 4.82364 15.8895 5.35004 16.5381 5.35004L17.7883 5.35004L13.6046 9.53428C13.1458 9.99312 13.1458 10.7369 13.6046 11.1958C14.0635 11.6546 14.8073 11.6546 15.2661 11.1958Z" fill="white"/>
</svg>
