<svg width="40" height="40" viewBox="0 0 40 40" fill="none" xmlns="http://www.w3.org/2000/svg">
<g clip-path="url(#clip0_4523_1364)">
<path d="M14.1199 30.5911L9.40586 25.8771C9.16933 25.6467 8.85218 25.5177 8.52197 25.5177C8.19177 25.5177 7.87461 25.6467 7.63809 25.8771L4.10256 29.4126C3.96874 29.5473 3.86735 29.7107 3.80609 29.8904C3.74483 30.07 3.72531 30.2613 3.749 30.4497C3.77559 30.7277 3.90104 30.987 4.10256 31.1804L4.31469 31.3925L10.2072 34.928C10.4477 35.0698 10.7283 35.1282 11.0053 35.0941C11.2824 35.06 11.5404 34.9353 11.7393 34.7395L14.1199 32.3589C14.3503 32.1224 14.4793 31.8052 14.4793 31.475C14.4793 31.1448 14.3503 30.8276 14.1199 30.5911Z" fill="#FFB300"/>
<path d="M19.1992 28.9058C19.1761 28.7425 19.1191 28.5857 19.0318 28.4457C18.9445 28.3056 18.8289 28.1854 18.6924 28.0927L11.9042 21.3044C11.8123 21.1672 11.6922 21.0511 11.552 20.9637C11.4119 20.8764 11.2547 20.8198 11.091 20.7977C10.8952 20.7664 10.6948 20.7821 10.5062 20.8436C10.3177 20.9051 10.1465 21.0105 10.0068 21.1512L7.64977 23.5083C7.10169 24.0563 6.79281 24.799 6.7906 25.5741C6.78839 26.3492 7.09304 27.0937 7.63799 27.6448L12.352 32.3589C12.9012 32.9018 13.6422 33.2063 14.4144 33.2063C15.1866 33.2063 15.9277 32.9018 16.4768 32.3589L18.8338 30.0019C18.9784 29.862 19.0871 29.6894 19.1507 29.4986C19.2143 29.3078 19.231 29.1044 19.1992 28.9058Z" fill="#08080A"/>
<path d="M36.1029 12.8977C36.5738 12.3388 36.819 11.6243 36.7907 10.8941C36.7624 10.1638 36.4625 9.47044 35.9497 8.94972L31.0471 4.04711C30.5285 3.53595 29.8383 3.23596 29.1108 3.20546C28.3833 3.17497 27.6704 3.41616 27.1109 3.88212L10.2779 18.7353C9.97072 18.9968 9.72112 19.3193 9.54491 19.6823C9.3687 20.0452 9.26971 20.4408 9.2542 20.844C9.2387 21.2472 9.30701 21.6492 9.45482 22.0246C9.60263 22.4 9.82673 22.7407 10.1129 23.0251L16.9719 29.884C17.2572 30.1714 17.5993 30.3963 17.9763 30.5443C18.3533 30.6922 18.757 30.7601 19.1616 30.7434C19.5663 30.7268 19.963 30.6261 20.3266 30.4477C20.6902 30.2693 21.0127 30.0171 21.2734 29.7072L36.1029 12.8977Z" fill="#6C78FF"/>
</g>
<defs>
<clipPath id="clip0_4523_1364">
<rect width="40" height="40" fill="white"/>
</clipPath>
</defs>
</svg>
