<svg width="40" height="40" viewBox="0 0 40 40" fill="none" xmlns="http://www.w3.org/2000/svg">
<path d="M22.7114 28.9134L21.3845 30.2403V24.1827C21.3845 23.4182 20.7643 22.7836 19.9855 22.7836C19.2066 22.7836 18.5864 23.4038 18.5864 24.1827V30.2403L17.2595 28.9134C16.7403 28.3942 15.8172 28.3798 15.2835 28.9134C15.0239 29.173 14.8797 29.5336 14.8797 29.8942C14.8797 30.2548 15.0239 30.6153 15.2835 30.875L18.9903 34.5673C19.2499 34.8269 19.6249 34.9855 19.9855 34.9855C20.0287 34.9855 20.072 34.9855 20.1009 34.9855C20.7355 34.9134 21.1537 34.4086 21.572 33.9759L24.2259 31.3221C24.3701 31.1778 24.5287 31.0192 24.673 30.875C24.9326 30.6153 25.0768 30.2548 25.0768 29.8942C25.0768 29.5336 24.9326 29.173 24.673 28.9134C24.1393 28.3798 23.2307 28.3798 22.697 28.9134H22.7114Z" fill="#6C78FF"/>
<path d="M17.2884 11.0865L18.6153 9.75962V15.8173C18.6153 16.5817 19.2355 17.2163 20.0143 17.2163C20.7932 17.2163 21.4134 16.5962 21.4134 15.8173V9.75962L22.7403 11.0865C23.274 11.6202 24.1826 11.6202 24.7163 11.0865C25.2644 10.5385 25.2644 9.65866 24.7163 9.11058L20.9807 5.40385C20.9807 5.40385 20.923 5.34615 20.8797 5.31731C20.8653 5.30288 20.8365 5.28846 20.8076 5.25962L20.3172 5.02885H20.2595L20.1297 5C20.0432 5 19.9422 5 19.8557 5H19.7836C19.7836 5 19.7403 5.01442 19.7259 5.01442L19.524 5.07212C19.524 5.07212 19.4807 5.07212 19.4663 5.08654L19.3365 5.14423C19.3365 5.14423 19.2932 5.17308 19.2788 5.17308C19.2643 5.17308 19.2355 5.20192 19.2211 5.21635L19.1201 5.28846C19.1201 5.28846 19.048 5.34615 19.0192 5.375L15.3124 9.08173C14.7643 9.62981 14.7643 10.5096 15.3124 11.0577C15.8461 11.5913 16.7547 11.5769 17.2884 11.0577V11.0865Z" fill="#6C78FF"/>
<path d="M15.8173 21.3991C16.5817 21.3991 17.2163 20.7789 17.2163 20.0001C17.2163 19.2212 16.5961 18.6011 15.8173 18.6011H9.75957L11.0865 17.2741C11.3461 17.0145 11.4903 16.6684 11.4903 16.2934C11.4903 15.9184 11.3461 15.5722 11.0865 15.3126C10.5384 14.7645 9.65861 14.7645 9.11053 15.3126L5.4038 19.0193C5.4038 19.0193 5.34611 19.077 5.30284 19.1203L5.17303 19.2934L5.04322 19.5962C5.04322 19.5962 5.04322 19.6395 5.0288 19.6684C5.0288 19.6828 5.0288 19.7116 5.01438 19.7405V19.8703C4.98553 19.9568 4.98553 20.0578 4.99995 20.1443C4.99995 20.1587 4.99995 20.1876 4.99995 20.202L5.04322 20.4039C5.04322 20.4039 5.04322 20.4472 5.07207 20.4761C5.07207 20.5049 5.07207 20.5193 5.11534 20.577L5.15861 20.6491C5.15861 20.6491 5.17303 20.6924 5.18745 20.7068L5.31726 20.8799C5.31726 20.8799 5.37495 20.952 5.4038 20.9809L9.11053 24.6876C9.37015 24.9472 9.73072 25.0914 10.0913 25.0914C10.4519 25.0914 10.8125 24.9472 11.0721 24.6876C11.3317 24.428 11.4759 24.0818 11.4759 23.7068C11.4759 23.3318 11.3317 22.9857 11.0721 22.7261L9.74515 21.3991H15.8173Z" fill="#6C78FF"/>
<path d="M34.9855 19.8557C34.9855 19.7836 34.9567 19.7115 34.9422 19.5961L34.899 19.4663C34.899 19.4663 34.8845 19.4231 34.8701 19.3942L34.7692 19.2211C34.7692 19.2211 34.7403 19.1779 34.7259 19.1634C34.7259 19.1634 34.6826 19.1202 34.6826 19.1057C34.6538 19.0625 34.6249 19.0336 34.5961 19.0048L30.8893 15.2981C30.6297 15.0384 30.2692 14.8942 29.9086 14.8942C29.548 14.8942 29.1874 15.0384 28.9278 15.2981C28.3797 15.8461 28.3797 16.7259 28.9278 17.274L30.2547 18.6009H24.197C23.4326 18.6009 22.798 19.2211 22.798 20C22.798 20.7788 23.4182 21.399 24.197 21.399H30.2547L28.9278 22.7259C28.3797 23.274 28.3797 24.1538 28.9278 24.7019C29.1874 24.9615 29.5336 25.1057 29.9086 25.1057C30.2836 25.1057 30.6297 24.9615 30.8893 24.7019L34.5961 20.9952C34.5961 20.9952 34.6538 20.9231 34.697 20.8798L34.798 20.75L34.9422 20.4327C34.9422 20.4327 34.9422 20.3894 34.9567 20.3606C34.9567 20.3317 34.9567 20.3173 34.9711 20.3029V20.2307L34.9855 20.1731C34.9855 20.0721 34.9855 19.9856 34.9855 19.899V19.8557Z" fill="#6C78FF"/>
<path d="M22.7114 28.9134L21.3845 30.2403V24.1827C21.3845 23.4182 20.7643 22.7836 19.9855 22.7836C19.2066 22.7836 18.5864 23.4038 18.5864 24.1827V30.2403L17.2595 28.9134C16.7403 28.3942 15.8172 28.3798 15.2835 28.9134C15.0239 29.173 14.8797 29.5336 14.8797 29.8942C14.8797 30.2548 15.0239 30.6153 15.2835 30.875L18.9903 34.5673C19.2499 34.8269 19.6249 34.9855 19.9855 34.9855C20.0287 34.9855 20.072 34.9855 20.1009 34.9855C20.7355 34.9134 21.1537 34.4086 21.572 33.9759L24.2259 31.3221C24.3701 31.1778 24.5287 31.0192 24.673 30.875C24.9326 30.6153 25.0768 30.2548 25.0768 29.8942C25.0768 29.5336 24.9326 29.173 24.673 28.9134C24.1393 28.3798 23.2307 28.3798 22.697 28.9134H22.7114Z" stroke="#6C78FF" stroke-linejoin="round"/>
<path d="M17.2884 11.0865L18.6153 9.75962V15.8173C18.6153 16.5817 19.2355 17.2163 20.0143 17.2163C20.7932 17.2163 21.4134 16.5962 21.4134 15.8173V9.75962L22.7403 11.0865C23.274 11.6202 24.1826 11.6202 24.7163 11.0865C25.2644 10.5385 25.2644 9.65866 24.7163 9.11058L20.9807 5.40385C20.9807 5.40385 20.923 5.34615 20.8797 5.31731C20.8653 5.30288 20.8365 5.28846 20.8076 5.25962L20.3172 5.02885H20.2595L20.1297 5C20.0432 5 19.9422 5 19.8557 5H19.7836C19.7836 5 19.7403 5.01442 19.7259 5.01442L19.524 5.07212C19.524 5.07212 19.4807 5.07212 19.4663 5.08654L19.3365 5.14423C19.3365 5.14423 19.2932 5.17308 19.2788 5.17308C19.2643 5.17308 19.2355 5.20192 19.2211 5.21635L19.1201 5.28846C19.1201 5.28846 19.048 5.34615 19.0192 5.375L15.3124 9.08173C14.7643 9.62981 14.7643 10.5096 15.3124 11.0577C15.8461 11.5913 16.7547 11.5769 17.2884 11.0577V11.0865Z" stroke="#6C78FF" stroke-linejoin="round"/>
<path d="M15.8173 21.3991C16.5817 21.3991 17.2163 20.7789 17.2163 20.0001C17.2163 19.2212 16.5961 18.6011 15.8173 18.6011H9.75957L11.0865 17.2741C11.3461 17.0145 11.4903 16.6684 11.4903 16.2934C11.4903 15.9184 11.3461 15.5722 11.0865 15.3126C10.5384 14.7645 9.65861 14.7645 9.11053 15.3126L5.4038 19.0193C5.4038 19.0193 5.34611 19.077 5.30284 19.1203L5.17303 19.2934L5.04322 19.5962C5.04322 19.5962 5.04322 19.6395 5.0288 19.6684C5.0288 19.6828 5.0288 19.7116 5.01438 19.7405V19.8703C4.98553 19.9568 4.98553 20.0578 4.99995 20.1443C4.99995 20.1587 4.99995 20.1876 4.99995 20.202L5.04322 20.4039C5.04322 20.4039 5.04322 20.4472 5.07207 20.4761C5.07207 20.5049 5.07207 20.5193 5.11534 20.577L5.15861 20.6491C5.15861 20.6491 5.17303 20.6924 5.18745 20.7068L5.31726 20.8799C5.31726 20.8799 5.37495 20.952 5.4038 20.9809L9.11053 24.6876C9.37015 24.9472 9.73072 25.0914 10.0913 25.0914C10.4519 25.0914 10.8125 24.9472 11.0721 24.6876C11.3317 24.428 11.4759 24.0818 11.4759 23.7068C11.4759 23.3318 11.3317 22.9857 11.0721 22.7261L9.74515 21.3991H15.8173Z" stroke="#6C78FF" stroke-linejoin="round"/>
<path d="M34.9855 19.8557C34.9855 19.7836 34.9567 19.7115 34.9422 19.5961L34.899 19.4663C34.899 19.4663 34.8845 19.4231 34.8701 19.3942L34.7692 19.2211C34.7692 19.2211 34.7403 19.1779 34.7259 19.1634C34.7259 19.1634 34.6826 19.1202 34.6826 19.1057C34.6538 19.0625 34.6249 19.0336 34.5961 19.0048L30.8893 15.2981C30.6297 15.0384 30.2692 14.8942 29.9086 14.8942C29.548 14.8942 29.1874 15.0384 28.9278 15.2981C28.3797 15.8461 28.3797 16.7259 28.9278 17.274L30.2547 18.6009H24.197C23.4326 18.6009 22.798 19.2211 22.798 20C22.798 20.7788 23.4182 21.399 24.197 21.399H30.2547L28.9278 22.7259C28.3797 23.274 28.3797 24.1538 28.9278 24.7019C29.1874 24.9615 29.5336 25.1057 29.9086 25.1057C30.2836 25.1057 30.6297 24.9615 30.8893 24.7019L34.5961 20.9952C34.5961 20.9952 34.6538 20.9231 34.697 20.8798L34.798 20.75L34.9422 20.4327C34.9422 20.4327 34.9422 20.3894 34.9567 20.3606C34.9567 20.3317 34.9567 20.3173 34.9711 20.3029V20.2307L34.9855 20.1731C34.9855 20.0721 34.9855 19.9856 34.9855 19.899V19.8557Z" stroke="#6C78FF" stroke-linejoin="round"/>
</svg>
