<svg width="40" height="40" viewBox="0 0 40 40" fill="none" xmlns="http://www.w3.org/2000/svg">
<g clip-path="url(#clip0_4523_1354)">
<path d="M14.1133 33.0976L9.55251 34.8771L7.92616 35.4899C7.44139 35.6267 6.92946 35.6357 6.44022 35.5158C5.95098 35.396 5.50111 35.1515 5.13442 34.8062C4.76773 34.4609 4.49672 34.0265 4.34779 33.5453C4.19885 33.0641 4.17707 32.5526 4.28456 32.0605L4.83846 30.1631L6.61801 25.6022C6.67551 25.4003 6.78363 25.2163 6.93212 25.0678C7.08061 24.9193 7.26457 24.8112 7.46654 24.7537C7.67052 24.7139 7.88113 24.7241 8.08025 24.7837C8.27938 24.8432 8.46107 24.9502 8.6097 25.0955L14.5023 30.988C14.6475 31.1367 14.7545 31.3184 14.8141 31.5175C14.8736 31.7166 14.8839 31.9272 14.844 32.1312C14.8157 32.3415 14.7335 32.541 14.6055 32.7103C14.4775 32.8796 14.308 33.013 14.1133 33.0976Z" fill="#FFB300"/>
<path d="M34.8853 4.88536C34.3844 4.38138 33.789 3.9812 33.1332 3.70777C32.4774 3.43434 31.774 3.29303 31.0635 3.29194C30.353 3.29084 29.6492 3.42999 28.9925 3.70139C28.3359 3.9728 27.7392 4.37114 27.2368 4.87357L25.4572 6.65312C25.2268 6.88965 25.0979 7.2068 25.0979 7.53701C25.0979 7.86721 25.2268 8.18437 25.4572 8.42089L31.3498 14.3134C31.5863 14.5439 31.9035 14.6728 32.2337 14.6728C32.5639 14.6728 32.881 14.5439 33.1176 14.3134L34.8971 12.5339C35.3995 12.0315 35.7979 11.4348 36.0693 10.7782C36.3407 10.1215 36.4798 9.41772 36.4787 8.70718C36.4776 7.99664 36.3363 7.2933 36.0629 6.63747C35.7895 5.98165 35.3893 5.38623 34.8853 4.88536Z" fill="#FFB300"/>
<path d="M33.648 11.9604L27.7555 6.06787C27.2673 5.57972 26.2627 5.79292 25.5115 6.54407L7.37714 24.6784C6.626 25.4296 6.41279 26.4342 6.90095 26.9224L12.7935 32.8149C13.2817 33.3031 14.2863 33.0899 15.0375 32.3388L33.1718 14.2044C33.923 13.4532 34.1362 12.4486 33.648 11.9604Z" fill="#6C78FF"/>
<path d="M9.55267 34.8771L7.92632 35.49C7.44155 35.6268 6.92962 35.6357 6.44038 35.5159C5.95114 35.396 5.50127 35.1516 5.13458 34.8062C4.76789 34.4609 4.49688 34.0265 4.34795 33.5453C4.19901 33.0641 4.17723 32.5526 4.28472 32.0605L4.83862 30.1631L9.55267 34.8771Z" fill="#08080A"/>
</g>
<defs>
<clipPath id="clip0_4523_1354">
<rect width="40" height="40" fill="white"/>
</clipPath>
</defs>
</svg>
