<svg width="24" height="24" viewBox="0 0 24 24" fill="none" xmlns="http://www.w3.org/2000/svg">
    <path
        d="M4.17487 21.8001C4.47567 21.8001 4.77589 21.6856 5.00561 21.4558L9.18925 17.2722V18.5224C9.18925 19.171 9.71566 19.6974 10.3643 19.6974C11.0129 19.6974 11.5393 19.171 11.5393 18.5224V14.4357C11.5393 13.7871 11.0129 13.2607 10.3643 13.2607H6.27756C5.62895 13.2607 5.10255 13.7871 5.10255 14.4357C5.10255 15.0843 5.62895 15.6107 6.27756 15.6107H7.52778L3.34413 19.795C2.88529 20.2538 2.88529 20.9976 3.34413 21.4564C3.57385 21.6856 3.87407 21.8001 4.17487 21.8001Z"
        fill="white" />
    <path
        d="M19.7944 3.34416L15.6108 7.52781V6.27818C15.6108 5.62957 15.0844 5.10316 14.4358 5.10316C13.7871 5.10316 13.2607 5.62957 13.2607 6.27818V10.3649C13.2607 11.0135 13.7871 11.5399 14.4358 11.5399H18.5225C19.1711 11.5399 19.6975 11.0135 19.6975 10.3649C19.6975 9.71628 19.1711 9.18987 18.5225 9.18987H17.2722L21.4559 5.00564C21.9147 4.54679 21.9147 3.80301 21.4559 3.34416C20.9971 2.88532 20.2533 2.88532 19.7944 3.34416Z"
        fill="white" />
</svg>