<svg width="50" height="50" viewBox="0 0 50 50" fill="none" xmlns="http://www.w3.org/2000/svg">
    <circle cx="25" cy="25" r="24.5" fill="white" stroke="#EE79EE" />
    <g clip-path="url(#clip0_739_15083)">
        <path
            d="M20.6263 26.6473H15.7416C14.8435 26.6473 14.1206 27.3794 14.1206 28.289V33.2252C14.1206 34.1348 14.8435 34.8669 15.7416 34.8669H20.6263C21.5244 34.8669 22.2473 34.1348 22.2473 33.2252V28.289C22.2473 27.3794 21.5244 26.6473 20.6263 26.6473ZM15.7416 33.2363V28.3001H20.6263V33.2363H15.7416ZM23.8682 17.5957C23.8682 17.1409 24.2297 16.7749 24.6787 16.7749H36.0582C36.5073 16.7749 36.8687 17.1409 36.8687 17.5957C36.8687 18.0505 36.5073 18.4166 36.0582 18.4166H24.6897C24.2406 18.4166 23.8792 18.0505 23.8792 17.5957H23.8682ZM23.8682 20.8902C23.8682 20.4354 24.2297 20.0694 24.6787 20.0694H31.9949C32.4439 20.0694 32.8054 20.4354 32.8054 20.8902C32.8054 21.345 32.4439 21.7111 31.9949 21.7111H24.6787C24.2297 21.7111 23.8682 21.345 23.8682 20.8902ZM36.8797 29.121C36.8797 29.5758 36.5182 29.9418 36.0692 29.9418H24.6897C24.2406 29.9418 23.8792 29.5758 23.8792 29.121C23.8792 28.6662 24.2406 28.3001 24.6897 28.3001H36.0692C36.5182 28.3001 36.8797 28.6662 36.8797 29.121ZM32.8163 32.4155C32.8163 32.8703 32.4549 33.2363 32.0058 33.2363H24.6897C24.2406 33.2363 23.8792 32.8703 23.8792 32.4155C23.8792 31.9607 24.2406 31.5946 24.6897 31.5946H32.0058C32.4549 31.5946 32.8163 31.9607 32.8163 32.4155ZM22.2473 20.0583V21.7C22.2473 22.6096 21.5244 23.3417 20.6263 23.3417H15.7416C14.8435 23.3528 14.1206 22.6207 14.1206 21.7111V16.7638C14.1206 15.8542 14.8435 15.1221 15.7416 15.1221H18.1839C18.633 15.1221 18.9944 15.4881 18.9944 15.9429C18.9944 16.3977 18.633 16.7638 18.1839 16.7638H15.7416V21.7111H20.6263V20.0694C20.6263 19.6146 20.9877 19.2485 21.4368 19.2485C21.8858 19.2485 22.2473 19.6146 22.2473 20.0694V20.0583ZM22.0063 16.187C22.3239 16.5086 22.3239 17.03 22.0063 17.3517L18.7535 20.6462C18.4358 20.9679 17.9211 20.9679 17.6035 20.6462L16.793 19.8253C16.4863 19.5037 16.4863 18.9823 16.8149 18.6606C17.1325 18.35 17.6254 18.35 17.943 18.6606L18.1839 18.9047L20.8563 16.187C21.1739 15.8653 21.6887 15.8653 22.0063 16.187Z"
            fill="#EE79EE" />
        <path
            d="M20.6262 35H15.7414C14.7776 35 14 34.2124 14 33.2363V28.3001C14 27.3239 14.7776 26.5363 15.7414 26.5363H20.6262C21.59 26.5363 22.3676 27.3239 22.3676 28.3001V33.2363C22.3676 34.2124 21.59 35 20.6262 35ZM15.7414 26.7693C14.909 26.7693 14.23 27.457 14.23 28.3001V33.2363C14.23 34.0793 14.909 34.7671 15.7414 34.7671H20.6262C21.4586 34.7671 22.1376 34.0793 22.1376 33.2363V28.3001C22.1376 27.457 21.4586 26.7693 20.6262 26.7693H15.7414ZM32.0057 33.3583H24.6895C24.1748 33.3583 23.7586 32.9368 23.7586 32.4154C23.7586 31.8941 24.1748 31.4725 24.6895 31.4725H32.0057C32.5205 31.4725 32.9367 31.8941 32.9367 32.4154C32.9367 32.9368 32.5205 33.3583 32.0057 33.3583ZM24.6895 31.7166C24.3062 31.7166 23.9995 32.0272 23.9995 32.4154C23.9995 32.8037 24.3062 33.1143 24.6895 33.1143H32.0057C32.389 33.1143 32.6957 32.8037 32.6957 32.4154C32.6957 32.0272 32.389 31.7166 32.0057 31.7166H24.6895ZM20.7467 33.3583H15.621V28.178H20.7357V33.3583H20.7467ZM15.8729 33.1143H20.5057V28.411H15.8619V33.1143H15.8729ZM36.08 30.0638H24.6895C24.1748 30.0638 23.7586 29.6423 23.7586 29.1209C23.7586 28.5996 24.1748 28.178 24.6895 28.178H36.069C36.5838 28.178 37 28.5996 37 29.1209C37 29.6423 36.5838 30.0638 36.069 30.0638H36.08ZM24.7005 28.4221C24.3171 28.4221 24.0105 28.7327 24.0105 29.1209C24.0105 29.5092 24.3171 29.8197 24.7005 29.8197H36.08C36.4633 29.8197 36.77 29.5092 36.77 29.1209C36.77 28.7327 36.4633 28.4221 36.08 28.4221H24.6895H24.7005ZM20.6371 23.4859H15.7414C14.7776 23.4859 14 22.6983 14 21.7221V16.7637C14 15.7876 14.7776 15 15.7414 15H18.1838C18.6986 15 19.1148 15.4215 19.1148 15.9429C19.1148 16.4642 18.6986 16.8857 18.1838 16.8857H15.8619V21.589H20.5057V20.0582C20.5057 19.5369 20.9219 19.1154 21.4367 19.1154C21.9514 19.1154 22.3676 19.5369 22.3676 20.0582V21.6999C22.3676 22.6761 21.59 23.4637 20.6262 23.4637L20.6371 23.4859ZM15.7414 15.244C14.909 15.244 14.241 15.9207 14.241 16.7637V21.711C14.241 22.5541 14.92 23.2418 15.7524 23.2418H20.6262C21.4586 23.2418 22.1376 22.5541 22.1376 21.711V20.0693C22.1376 19.6811 21.831 19.3705 21.4476 19.3705C21.0643 19.3705 20.7576 19.6811 20.7576 20.0693V21.8331H15.621V16.6417H18.1838C18.5671 16.6417 18.8738 16.3311 18.8738 15.9429C18.8738 15.5546 18.5671 15.244 18.1838 15.244H15.7414ZM32.0057 21.8331H24.6895C24.1748 21.8331 23.7586 21.4115 23.7586 20.8902C23.7586 20.3688 24.1748 19.9473 24.6895 19.9473H32.0057C32.5205 19.9473 32.9367 20.3688 32.9367 20.8902C32.9367 21.4115 32.5205 21.8331 32.0057 21.8331ZM24.6895 20.1913C24.3062 20.1913 23.9995 20.5019 23.9995 20.8902C23.9995 21.2784 24.3062 21.589 24.6895 21.589H32.0057C32.389 21.589 32.6957 21.2784 32.6957 20.8902C32.6957 20.5019 32.389 20.1913 32.0057 20.1913H24.6895ZM18.1838 21.0122C17.9429 21.0122 17.7019 20.9235 17.5267 20.7349L16.7162 19.914C16.3548 19.5369 16.3657 18.9379 16.7381 18.5829C17.0995 18.228 17.669 18.228 18.0305 18.5829L18.1838 18.7382L20.7795 16.0982C21.13 15.7432 21.7433 15.7432 22.0938 16.0982C22.4552 16.4642 22.4552 17.0632 22.0938 17.4293L18.841 20.7238C18.6548 20.9124 18.4248 21.0011 18.1838 21.0011V21.0122ZM17.3843 18.5496C17.209 18.5496 17.0338 18.6162 16.9024 18.7493C16.6286 19.0155 16.6176 19.4703 16.8805 19.7476L17.691 20.5685C17.9648 20.8458 18.4029 20.8458 18.6767 20.5685L21.9295 17.274C22.2033 16.9967 22.2033 16.553 21.9295 16.2757C21.6667 16.0094 21.2176 16.0094 20.9438 16.2757L18.1838 19.071L17.8662 18.7493C17.7348 18.6162 17.5595 18.5496 17.3843 18.5496ZM36.069 18.5496H24.6895C24.1748 18.5496 23.7586 18.1281 23.7586 17.6068C23.7586 17.0854 24.1748 16.6639 24.6895 16.6639H36.069C36.5838 16.6639 37 17.0854 37 17.6068C37 18.1281 36.5838 18.5496 36.069 18.5496ZM24.6895 16.8857C24.3062 16.8857 23.9995 17.1963 23.9995 17.5846C23.9995 17.9728 24.3062 18.2834 24.6895 18.2834H36.069C36.4524 18.2834 36.759 17.9728 36.759 17.5846C36.759 17.1963 36.4524 16.8857 36.069 16.8857H24.6895Z"
            fill="#EE79EE" />
    </g>
    <defs>
        <clipPath id="clip0_739_15083">
            <rect width="23" height="20" fill="white" transform="translate(14 15)" />
        </clipPath>
    </defs>
</svg>