<svg width="60" height="60" viewBox="0 0 60 60" fill="none" xmlns="http://www.w3.org/2000/svg">
<g clip-path="url(#clip0_6439_250)">
<path d="M60 30C60 46.5688 46.5688 60 30 60C13.4312 60 0 46.5688 0 30C0 13.4312 13.4312 0 30 0C46.5688 0 60 13.4312 60 30Z" fill="#A0C0FF"/>
<path d="M42.2896 28.44L25.4146 17.19C24.8392 16.8069 24.0999 16.7712 23.4901 17.0971C22.8809 17.4235 22.5 18.0589 22.5 18.7501V41.2501C22.5 41.9413 22.8809 42.5767 23.4901 42.9031C24.0999 43.229 24.8392 43.1933 25.4146 42.8102L42.2896 31.5602C42.8114 31.2123 43.1245 30.6268 43.1245 30.0001C43.1245 29.3734 42.8114 28.7879 42.2896 28.44Z" fill="white"/>
</g>
<defs>
<clipPath id="clip0_6439_250">
<rect width="60" height="60" fill="white"/>
</clipPath>
</defs>
</svg>
