<svg width="24" height="24" viewBox="0 0 24 24" fill="none" xmlns="http://www.w3.org/2000/svg">
<g clip-path="url(#clip0_7700_118821)">
<mask id="mask0_7700_118821" style="mask-type:luminance" maskUnits="userSpaceOnUse" x="2" y="4" width="20" height="18">
<path d="M22 4H2V22H22V4Z" fill="white"/>
</mask>
<g mask="url(#mask0_7700_118821)">
<path d="M10.6 14.4C11.02 14.82 11.59 14.82 12.02 14.4C12.44 13.98 12.44 13.41 12.02 12.98L10.89 11.85H15.56C16.13 11.85 16.55 11.43 16.55 10.86C16.55 10.58 16.48 10.36 16.26 10.15C16.04 9.94 15.84 9.87 15.55 9.86H10.88L12.01 8.73C12.43 8.31 12.43 7.74 12.01 7.31C11.59 6.89 11.02 6.89 10.59 7.31L7.75999 10.14C7.34999 10.58 7.33999 11.14 7.75999 11.57L10.59 14.4H10.6Z" fill="#777777"/>
<path d="M21.4 4.6C21 4.2 20.5 4 20 4H4C3.5 4 3 4.2 2.6 4.6C2.2 5 2 5.5 2 6V16C2 16.5 2.2 17 2.6 17.4C2.99 17.8 3.5 18 4 18H8V20H7C6.4 20 6 20.4 6 21C6 21.6 6.4 22 7 22H17C17.6 22 18 21.6 18 21C18 20.4 17.6 20 17 20H16V18H20C20.5 18 21 17.8 21.4 17.4C21.8 17.01 22 16.5 22 16V6C22 5.5 21.8 5.01 21.4 4.6ZM14 19.99H10V17.99H14V19.99ZM4 16V6H20V16H4Z" fill="#777777"/>
</g>
</g>
<defs>
<clipPath id="clip0_7700_118821">
<rect width="20" height="18" fill="white" transform="translate(2 4)"/>
</clipPath>
</defs>
</svg>
