<svg width="24" height="24" viewBox="0 0 24 24" fill="none" xmlns="http://www.w3.org/2000/svg">
    <path fill-rule="evenodd" clip-rule="evenodd"
        d="M8 2C8.55228 2 9 2.44772 9 3V4C9 4.55228 8.55228 5 8 5C7.44772 5 7 4.55228 7 4V3C7 2.44772 7.44772 2 8 2ZM12 2C12.5523 2 13 2.44772 13 3V4C13 4.55228 12.5523 5 12 5C11.4477 5 11 4.55228 11 4V3C11 2.44772 11.4477 2 12 2ZM16 2C16.5523 2 17 2.44772 17 3V4C17 4.55228 16.5523 5 16 5C15.4477 5 15 4.55228 15 4V3C15 2.44772 15.4477 2 16 2ZM8 5.5C8.55228 5.5 9 5.94772 9 6.5V10H11V6.5C11 5.94772 11.4477 5.5 12 5.5C12.5523 5.5 13 5.94772 13 6.5V10H15V6.5C15 5.94772 15.4477 5.5 16 5.5C16.5523 5.5 17 5.94772 17 6.5V10H20C20.5523 10 21 10.4477 21 11V15.9799C21.0003 15.9938 21.0003 16.0077 21 16.0217V20H22C22.5523 20 23 20.4477 23 21C23 21.5523 22.5523 22 22 22H2C1.44772 22 1 21.5523 1 21C1 20.4477 1.44772 20 2 20H3V16.0217C2.99971 16.0077 2.99971 15.9938 3 15.9799V11C3 10.4477 3.44772 10 4 10H7V6.5C7 5.94772 7.44772 5.5 8 5.5ZM5 12V14.382L5.55279 14.1056C5.83431 13.9648 6.16569 13.9648 6.44721 14.1056L8 14.882L9.55279 14.1056C9.83431 13.9648 10.1657 13.9648 10.4472 14.1056L12 14.882L13.5528 14.1056C13.8343 13.9648 14.1657 13.9648 14.4472 14.1056L16 14.882L17.5528 14.1056C17.8343 13.9648 18.1657 13.9648 18.4472 14.1056L19 14.382V12H5ZM19 16.618L18 16.118L16.4472 16.8944C16.1657 17.0352 15.8343 17.0352 15.5528 16.8944L14 16.118L12.4472 16.8944C12.1657 17.0352 11.8343 17.0352 11.5528 16.8944L10 16.118L8.44721 16.8944C8.16569 17.0352 7.83431 17.0352 7.55279 16.8944L6 16.118L5 16.618V20H19V16.618Z"
        fill="#AAAAAA" />
</svg>