<svg width="24" height="24" viewBox="0 0 24 24" fill="none" xmlns="http://www.w3.org/2000/svg">
<g clip-path="url(#clip0_7159_75774)">
<path d="M22.38 8.88C22.38 8.88 22.38 8.85 22.38 8.83C22.35 8.36 22.19 7.73 21.6 7.41C21.02 7.1 20.41 7.3 20.01 7.52C19.98 7.54 19.95 7.55 19.93 7.57L16.95 9.68V9.33C16.95 7.52 15.52 6.01 13.69 6.01H5.38C3.56 6 2.12 7.51 2.12 9.32V13.2C1.4 14.02 1 15.05 1 16.14C1 17.34 1.47 18.47 2.32 19.32C3.17 20.17 4.3 20.64 5.5 20.64C6.7 20.64 7.83 20.17 8.68 19.32C8.86 19.14 9.01 18.95 9.15 18.75H13.68C15.5 18.75 16.94 17.24 16.94 15.43V15.08L19.98 17.24C19.98 17.24 20.01 17.26 20.02 17.27C20.44 17.53 21.02 17.69 21.57 17.43C22.17 17.15 22.4 16.55 22.4 15.98L22.38 8.88ZM2.54 16.15C2.54 15.36 2.85 14.61 3.41 14.05C3.97 13.49 4.72 13.18 5.51 13.18C6.03 13.18 6.55 13.32 6.99 13.58L2.93 17.63C2.67 17.18 2.53 16.67 2.53 16.15H2.54ZM4.02 18.72L8.07 14.67C8.33 15.12 8.47 15.63 8.47 16.15C8.47 16.94 8.16 17.69 7.6 18.25C6.67 19.18 5.14 19.37 4.02 18.72ZM15.18 11.37C15.18 11.37 15.18 11.38 15.18 11.39V13.37C15.18 13.37 15.18 13.38 15.18 13.39V15.44C15.18 16.33 14.49 17 13.69 17H9.92C9.97 16.72 10 16.44 10 16.15C10 14.95 9.53 13.82 8.68 12.97C7.83 12.12 6.7 11.65 5.5 11.65C4.94 11.65 4.39 11.76 3.88 11.96V9.32C3.88 8.43 4.57 7.76 5.37 7.76H13.69C14.49 7.76 15.18 8.44 15.18 9.32V11.37ZM16.94 12.93V11.84L20.62 9.24L20.64 15.56L16.94 12.93Z" fill="#777777"/>
</g>
<defs>
<clipPath id="clip0_7159_75774">
<rect width="21.4" height="14.65" fill="white" transform="translate(1 6)"/>
</clipPath>
</defs>
</svg>
