<svg width="24" height="24" viewBox="0 0 24 24" fill="none" xmlns="http://www.w3.org/2000/svg">
<path fill-rule="evenodd" clip-rule="evenodd" d="M2.12 9.44444C2.12 7.63248 3.55357 6.12 5.375 6.12H13.6875C15.5089 6.12 16.9425 7.63248 16.9425 9.44444V9.79937L19.925 7.68914C19.9513 7.67055 19.9786 7.65342 20.0067 7.63782C20.4024 7.41853 21.0105 7.21504 21.5939 7.52707C22.1858 7.84366 22.3502 8.47349 22.3784 8.94777C22.3794 8.96431 22.3799 8.98088 22.38 8.99745L22.4006 16.1007C22.4096 16.671 22.1725 17.2712 21.5748 17.5507C21.0221 17.8091 20.4372 17.658 20.0202 17.3935C20.0071 17.3851 19.9942 17.3765 19.9815 17.3675L16.9425 15.2058V15.5556C16.9425 17.3675 15.5089 18.88 13.6875 18.88H5.375C3.55357 18.88 2.12 17.3675 2.12 15.5556V9.44444ZM15.1825 13.4881C15.1824 13.4955 15.1824 13.503 15.1825 13.5104V15.5556C15.1825 16.4436 14.4894 17.12 13.6875 17.12H5.375C4.57306 17.12 3.88 16.4436 3.88 15.5556V9.44444C3.88 8.55634 4.57306 7.88 5.375 7.88H13.6875C14.4894 7.88 15.1825 8.55634 15.1825 9.44444V11.4895C15.1824 11.497 15.1824 11.5045 15.1825 11.512V13.4881ZM16.9425 13.046L20.6393 15.6755L20.621 9.35268L16.9425 11.9554V13.046ZM21.0052 15.9292C21.0053 15.9294 21.003 15.9288 20.9982 15.9268C21.0028 15.9279 21.0052 15.929 21.0052 15.9292Z" fill="#777777"/>
</svg>
