<svg width="24" height="24" viewBox="0 0 24 24" fill="none" xmlns="http://www.w3.org/2000/svg">
    <path fill-rule="evenodd" clip-rule="evenodd"
        d="M12 2C9.23885 2 6.7376 3.12029 4.92894 4.92892C3.1203 6.73759 2 9.23885 2 12C2 14.7612 3.12029 17.2624 4.92893 19.0711C6.7376 20.8797 9.23884 22 12 22C14.7612 22 17.2624 20.8797 19.0711 19.0711C20.8797 17.2624 22 14.7612 22 12C22 9.23884 20.8797 6.7376 19.0711 4.92893C17.2624 3.12029 14.7612 2 12 2ZM6.21457 6.21458C7.69621 4.73297 9.74043 3.81818 12 3.81818C14.2596 3.81818 16.3038 4.73297 17.7854 6.21458C19.267 7.69622 20.1818 9.74043 20.1818 12C20.1818 14.2596 19.267 16.3038 17.7854 17.7854C16.3038 19.267 14.2596 20.1818 12 20.1818C9.74043 20.1818 7.69622 19.267 6.21458 17.7854C4.73297 16.3038 3.81818 14.2596 3.81818 12C3.81818 9.74043 4.73296 7.69622 6.21457 6.21458Z"
        fill="#777777" />
</svg>