<svg width="24" height="24" viewBox="0 0 24 24" fill="none" xmlns="http://www.w3.org/2000/svg">
    <path
        d="M19.1545 18.1799C19.0045 18.0199 18.7945 17.9199 18.5745 17.9199C18.3745 17.9199 18.1945 17.9899 18.0445 18.1299C17.7245 18.4199 17.7045 18.9199 17.9945 19.2399L19.2345 20.5999C19.3845 20.7599 19.5945 20.8599 19.8145 20.8599C20.0145 20.8599 20.1945 20.7899 20.3445 20.6499C20.6645 20.3599 20.6845 19.8599 20.3945 19.5399L19.1545 18.1799Z"
        fill="#8BA1F1" />
    <path
        d="M21.9446 16.4799L20.2546 15.7199C20.1546 15.6699 20.0446 15.6499 19.9346 15.6499C19.6246 15.6499 19.3446 15.8299 19.2146 16.1099C19.0346 16.4999 19.2146 16.9699 19.6046 17.1499L21.2946 17.9099C21.3946 17.9599 21.5046 17.9799 21.6146 17.9799C21.9246 17.9799 22.2046 17.7999 22.3346 17.5199C22.5146 17.1299 22.3346 16.6599 21.9446 16.4799Z"
        fill="#8BA1F1" />
    <path
        d="M21.3344 12.72C21.7344 12.32 21.9544 11.79 21.9544 11.23C21.9544 10.67 21.7344 10.14 21.3344 9.74C21.2044 9.61 21.0544 9.5 20.8944 9.4C21.1644 9.04 21.3144 8.6 21.3144 8.13C21.3144 7.57 21.0944 7.04 20.6944 6.64C20.5244 6.47 20.3244 6.33 20.1044 6.22C20.1944 5.98 20.2444 5.73 20.2444 5.47C20.2444 4.91 20.0244 4.38 19.6244 3.98C19.2244 3.58 18.7044 3.37 18.1344 3.37C18.0544 3.37 17.9644 3.37 17.8844 3.38C17.7844 3.09 17.6144 2.82 17.3944 2.59C17.0144 2.21 16.5044 2 15.9544 2C15.4044 2 14.9044 2.21 14.5144 2.59L11.4244 5.68C11.3044 4.51 10.4544 3.53 9.27441 3.26C9.16441 3.24 9.05441 3.22 8.94441 3.22C8.30441 3.22 7.72441 3.65 7.53441 4.25C7.38441 4.74 7.10441 5.6 6.76441 6.6C6.51441 6.45 6.24441 6.34 5.95441 6.28C5.84441 6.26 5.73441 6.24 5.62441 6.24C4.97441 6.24 4.39441 6.68 4.21441 7.3C3.99441 8.06 3.04441 11.16 2.29441 13.62C1.44441 16.43 2.47441 19.45 4.87441 21.14C6.03441 21.96 7.39441 22.39 8.80441 22.39C8.99441 22.39 9.18441 22.39 9.37441 22.37C10.9744 22.24 12.4744 21.54 13.6144 20.4L18.7144 15.31L21.3344 12.69V12.72ZM6.52441 9.29L6.07441 11.24C5.99441 11.58 6.15441 11.94 6.45441 12.1C6.57441 12.16 6.70441 12.2 6.83441 12.2C7.04441 12.2 7.24441 12.12 7.39441 11.97L12.9944 6.38C13.0844 6.29 13.1944 6.24 13.3244 6.24C13.4544 6.24 13.5644 6.29 13.6544 6.38C13.7444 6.47 13.7944 6.58 13.7944 6.71C13.7944 6.84 13.7444 6.95 13.6544 7.04L10.2944 10.39C10.1444 10.54 10.0644 10.74 10.0644 10.95C10.0644 11.16 10.1444 11.36 10.2944 11.51C10.4444 11.66 10.6444 11.74 10.8544 11.74C11.0644 11.74 11.2644 11.66 11.4144 11.51L15.1244 7.81C15.2244 7.71 15.3544 7.65 15.5044 7.65C15.6544 7.65 15.7844 7.71 15.8844 7.81C15.9844 7.91 16.0444 8.04 16.0444 8.18C16.0444 8.31 16.0044 8.43 15.9244 8.52L12.1844 12.26C11.8744 12.57 11.8744 13.07 12.1844 13.37C12.2744 13.46 12.3944 13.53 12.5644 13.58L12.6244 13.39L12.6644 13.6L12.7144 13.4L12.7644 13.6L12.8944 13.58C13.0444 13.55 13.1844 13.48 13.2944 13.37L16.2144 10.46C16.3144 10.36 16.4444 10.3 16.5944 10.3C16.7444 10.3 16.8744 10.36 16.9744 10.46C17.0744 10.56 17.1244 10.69 17.1244 10.83C17.1244 10.97 17.0744 11.1 16.9644 11.21L12.6844 15.49C12.5344 15.64 12.4544 15.84 12.4544 16.05C12.4544 16.23 12.5144 16.41 12.6844 16.61L12.8244 16.47L12.8044 16.71L12.9144 16.54L12.9544 16.78L13.0144 16.59L13.0544 16.81L13.1544 16.83L13.2044 16.63L13.2644 16.83L13.4044 16.81C13.5544 16.78 13.6844 16.7 13.7944 16.6L16.8444 13.55C16.9444 13.45 17.0744 13.39 17.2244 13.39C17.3744 13.39 17.5044 13.44 17.6044 13.55C17.7044 13.66 17.7544 13.78 17.7544 13.92C17.7544 14.06 17.7044 14.19 17.6044 14.29L12.5544 19.33C11.6844 20.2 10.5244 20.74 9.29441 20.84C9.14441 20.85 9.00441 20.86 8.85441 20.86C7.76441 20.86 6.71441 20.53 5.82441 19.9C3.98441 18.6 3.18441 16.27 3.84441 14.12C4.57441 11.74 5.47441 8.77 5.73441 7.87C6.01441 7.96 6.24441 8.14 6.40441 8.38C6.57441 8.65 6.62441 8.98 6.55441 9.29H6.52441ZM19.5944 8.52L18.4644 9.65L18.3644 9.74C18.2744 9.59 18.1644 9.45 18.0444 9.33C17.9144 9.2 17.7744 9.09 17.6144 9L18.8644 7.75C18.9644 7.66 19.0844 7.62 19.2144 7.62C19.3544 7.62 19.4844 7.67 19.5944 7.78C19.6944 7.88 19.7444 8.01 19.7444 8.15C19.7444 8.29 19.6944 8.42 19.5844 8.53L19.5944 8.52ZM18.5244 5.87L17.7944 6.6L17.9344 6.74L17.7044 6.69L17.2944 7.1C17.2044 6.95 17.0944 6.81 16.9644 6.68C16.8344 6.55 16.6944 6.44 16.5344 6.35L17.7644 5.12C17.8644 5.02 17.9944 4.97 18.1444 4.97C18.2944 4.97 18.4244 5.03 18.5244 5.13C18.6244 5.23 18.6844 5.36 18.6844 5.5C18.6844 5.64 18.6244 5.77 18.5244 5.88V5.87ZM16.4344 4.05C16.4344 4.17 16.3844 4.29 16.2944 4.38L15.0544 5.63C14.9744 5.5 14.8744 5.38 14.7644 5.27C14.6544 5.16 14.5344 5.06 14.4044 4.98L15.6544 3.74C15.7444 3.65 15.8544 3.6 15.9844 3.6C16.1144 3.6 16.2244 3.65 16.3144 3.74C16.4044 3.83 16.4444 3.94 16.4444 4.06L16.4344 4.05ZM19.5244 10.82C19.6144 10.75 19.7344 10.7 19.8544 10.7C19.9944 10.7 20.1344 10.76 20.2344 10.86C20.3344 10.96 20.3844 11.09 20.3844 11.23C20.3844 11.37 20.3344 11.5 20.2244 11.61L19.0044 12.84C18.9144 12.69 18.8044 12.55 18.6744 12.42C18.5444 12.29 18.4044 12.18 18.2544 12.09L19.5244 10.82ZM9.01441 4.85C9.51441 5 9.86441 5.46 9.87441 5.98C9.87441 6.1 9.85441 6.22 9.81441 6.36L9.35441 7.79L8.12441 9.02C8.12441 8.69 8.06441 8.36 7.94441 8.04C8.42441 6.71 8.81441 5.5 9.01441 4.84V4.85Z"
        fill="#8BA1F1" />
</svg>