<svg viewBox="0 0 18 18" fill="none" xmlns="http://www.w3.org/2000/svg">
    <path
        d="M14.3659 13.6349C14.2534 13.5149 14.0959 13.4399 13.9309 13.4399C13.7809 13.4399 13.6459 13.4924 13.5334 13.5974C13.2934 13.8149 13.2784 14.1899 13.4959 14.4299L14.4259 15.4499C14.5384 15.5699 14.6959 15.6449 14.8609 15.6449C15.0109 15.6449 15.1459 15.5924 15.2584 15.4874C15.4984 15.2699 15.5134 14.8949 15.2959 14.6549L14.3659 13.6349Z"
        fill="#777777" />
    <path
        d="M16.4582 12.36L15.1907 11.79C15.1157 11.7525 15.0332 11.7375 14.9507 11.7375C14.7182 11.7375 14.5082 11.8725 14.4107 12.0825C14.2757 12.375 14.4107 12.7275 14.7032 12.8625L15.9707 13.4325C16.0457 13.47 16.1282 13.485 16.2107 13.485C16.4432 13.485 16.6532 13.35 16.7507 13.14C16.8857 12.8475 16.7507 12.495 16.4582 12.36Z"
        fill="#777777" />
    <path
        d="M16.0008 9.54C16.3008 9.24 16.4658 8.8425 16.4658 8.4225C16.4658 8.0025 16.3008 7.605 16.0008 7.305C15.9033 7.2075 15.7908 7.125 15.6708 7.05C15.8733 6.78 15.9858 6.45 15.9858 6.0975C15.9858 5.6775 15.8208 5.28 15.5208 4.98C15.3933 4.8525 15.2433 4.7475 15.0783 4.665C15.1458 4.485 15.1833 4.2975 15.1833 4.1025C15.1833 3.6825 15.0183 3.285 14.7183 2.985C14.4183 2.685 14.0283 2.5275 13.6008 2.5275C13.5408 2.5275 13.4733 2.5275 13.4133 2.535C13.3383 2.3175 13.2108 2.115 13.0458 1.9425C12.7608 1.6575 12.3783 1.5 11.9658 1.5C11.5533 1.5 11.1783 1.6575 10.8858 1.9425L8.56831 4.26C8.47831 3.3825 7.84081 2.6475 6.95581 2.445C6.87331 2.43 6.79081 2.415 6.70831 2.415C6.22831 2.415 5.79331 2.7375 5.65081 3.1875C5.53831 3.555 5.32831 4.2 5.07331 4.95C4.88581 4.8375 4.68331 4.755 4.46581 4.71C4.38331 4.695 4.30081 4.68 4.21831 4.68C3.73081 4.68 3.29581 5.01 3.16081 5.475C2.99581 6.045 2.28331 8.37 1.72081 10.215C1.08331 12.3225 1.85581 14.5875 3.65581 15.855C4.52581 16.47 5.54581 16.7925 6.60331 16.7925C6.74581 16.7925 6.88831 16.7925 7.03081 16.7775C8.23081 16.68 9.35581 16.155 10.2108 15.3L14.0358 11.4825L16.0008 9.5175V9.54ZM4.89331 6.9675L4.55581 8.43C4.49581 8.685 4.61581 8.955 4.84081 9.075C4.93081 9.12 5.02831 9.15 5.12581 9.15C5.28331 9.15 5.43331 9.09 5.54581 8.9775L9.74581 4.785C9.81331 4.7175 9.89581 4.68 9.99331 4.68C10.0908 4.68 10.1733 4.7175 10.2408 4.785C10.3083 4.8525 10.3458 4.935 10.3458 5.0325C10.3458 5.13 10.3083 5.2125 10.2408 5.28L7.72081 7.7925C7.60831 7.905 7.54831 8.055 7.54831 8.2125C7.54831 8.37 7.60831 8.52 7.72081 8.6325C7.83331 8.745 7.98331 8.805 8.14081 8.805C8.29831 8.805 8.44831 8.745 8.56081 8.6325L11.3433 5.8575C11.4183 5.7825 11.5158 5.7375 11.6283 5.7375C11.7408 5.7375 11.8383 5.7825 11.9133 5.8575C11.9883 5.9325 12.0333 6.03 12.0333 6.135C12.0333 6.2325 12.0033 6.3225 11.9433 6.39L9.13831 9.195C8.90581 9.4275 8.90581 9.8025 9.13831 10.0275C9.20581 10.095 9.29581 10.1475 9.42331 10.185L9.46831 10.0425L9.49831 10.2L9.53581 10.05L9.57331 10.2L9.67081 10.185C9.78331 10.1625 9.88831 10.11 9.97081 10.0275L12.1608 7.845C12.2358 7.77 12.3333 7.725 12.4458 7.725C12.5583 7.725 12.6558 7.77 12.7308 7.845C12.8058 7.92 12.8433 8.0175 12.8433 8.1225C12.8433 8.2275 12.8058 8.325 12.7233 8.4075L9.51331 11.6175C9.40081 11.73 9.34081 11.88 9.34081 12.0375C9.34081 12.1725 9.38581 12.3075 9.51331 12.4575L9.61831 12.3525L9.60331 12.5325L9.68581 12.405L9.71581 12.585L9.76081 12.4425L9.79081 12.6075L9.86581 12.6225L9.90331 12.4725L9.94831 12.6225L10.0533 12.6075C10.1658 12.585 10.2633 12.525 10.3458 12.45L12.6333 10.1625C12.7083 10.0875 12.8058 10.0425 12.9183 10.0425C13.0308 10.0425 13.1283 10.08 13.2033 10.1625C13.2783 10.245 13.3158 10.335 13.3158 10.44C13.3158 10.545 13.2783 10.6425 13.2033 10.7175L9.41581 14.4975C8.76331 15.15 7.89331 15.555 6.97081 15.63C6.85831 15.6375 6.75331 15.645 6.64081 15.645C5.82331 15.645 5.03581 15.3975 4.36831 14.925C2.98831 13.95 2.38831 12.2025 2.88331 10.59C3.43081 8.805 4.10581 6.5775 4.30081 5.9025C4.51081 5.97 4.68331 6.105 4.80331 6.285C4.93081 6.4875 4.96831 6.735 4.91581 6.9675H4.89331ZM14.6958 6.39L13.8483 7.2375L13.7733 7.305C13.7058 7.1925 13.6233 7.0875 13.5333 6.9975C13.4358 6.9 13.3308 6.8175 13.2108 6.75L14.1483 5.8125C14.2233 5.745 14.3133 5.715 14.4108 5.715C14.5158 5.715 14.6133 5.7525 14.6958 5.835C14.7708 5.91 14.8083 6.0075 14.8083 6.1125C14.8083 6.2175 14.7708 6.315 14.6883 6.3975L14.6958 6.39ZM13.8933 4.4025L13.3458 4.95L13.4508 5.055L13.2783 5.0175L12.9708 5.325C12.9033 5.2125 12.8208 5.1075 12.7233 5.01C12.6258 4.9125 12.5208 4.83 12.4008 4.7625L13.3233 3.84C13.3983 3.765 13.4958 3.7275 13.6083 3.7275C13.7208 3.7275 13.8183 3.7725 13.8933 3.8475C13.9683 3.9225 14.0133 4.02 14.0133 4.125C14.0133 4.23 13.9683 4.3275 13.8933 4.41V4.4025ZM12.3258 3.0375C12.3258 3.1275 12.2883 3.2175 12.2208 3.285L11.2908 4.2225C11.2308 4.125 11.1558 4.035 11.0733 3.9525C10.9908 3.87 10.9008 3.795 10.8033 3.735L11.7408 2.805C11.8083 2.7375 11.8908 2.7 11.9883 2.7C12.0858 2.7 12.1683 2.7375 12.2358 2.805C12.3033 2.8725 12.3333 2.955 12.3333 3.045L12.3258 3.0375ZM14.6433 8.115C14.7108 8.0625 14.8008 8.025 14.8908 8.025C14.9958 8.025 15.1008 8.07 15.1758 8.145C15.2508 8.22 15.2883 8.3175 15.2883 8.4225C15.2883 8.5275 15.2508 8.625 15.1683 8.7075L14.2533 9.63C14.1858 9.5175 14.1033 9.4125 14.0058 9.315C13.9083 9.2175 13.8033 9.135 13.6908 9.0675L14.6433 8.115ZM6.76081 3.6375C7.13581 3.75 7.39831 4.095 7.40581 4.485C7.40581 4.575 7.39081 4.665 7.36081 4.77L7.01581 5.8425L6.09331 6.765C6.09331 6.5175 6.04831 6.27 5.95831 6.03C6.31831 5.0325 6.61081 4.125 6.76081 3.63V3.6375Z"
        fill="#777777" />
</svg>