<svg width="24" height="24" viewBox="0 0 24 24" fill="none" xmlns="http://www.w3.org/2000/svg">
<g clip-path="url(#clip0_6313_77198)">
<path fill-rule="evenodd" clip-rule="evenodd" d="M13.53 19H4V5H20V12.05H20.66C21.14 12.05 21.59 12.16 22 12.35V5.13C22 3.95 21.05 3 19.87 3H4.13C2.95 3 2 3.96 2 5.13V18.87C2 20.05 2.95 21 4.13 21H13.53V19Z" fill="#777777"/>
<path d="M14.87 11.46L9.79999 8.28998C9.59999 8.16998 9.35999 8.15998 9.15999 8.26998C8.95999 8.37998 8.82999 8.58998 8.82999 8.81998V15.15C8.82999 15.38 8.94999 15.59 9.15999 15.7C9.25999 15.75 9.35999 15.78 9.46999 15.78C9.58999 15.78 9.69999 15.75 9.80999 15.68L14.88 12.51C15.07 12.39 15.18 12.19 15.18 11.97C15.18 11.75 15.07 11.55 14.88 11.43L14.87 11.46Z" fill="#777777"/>
<path d="M20.66 13.47H16.75C15.76 13.47 14.95 14.28 14.95 15.27V21.6C14.95 22.07 15.21 22.5 15.63 22.73C15.81 22.83 16.02 22.88 16.23 22.88C16.5 22.88 16.76 22.79 17.01 22.62L18.72 21.24L20.49 22.66C20.7 22.8 20.94 22.87 21.2 22.87C21.9 22.87 22.48 22.3 22.48 21.6V15.27C22.48 14.28 21.67 13.48 20.68 13.47H20.66ZM20.68 20.55L19.26 19.4C19.1 19.27 18.9 19.2 18.7 19.2C18.5 19.2 18.3 19.27 18.14 19.4L16.72 20.55V15.27C16.72 15.27 16.73 15.25 16.74 15.24L20.67 15.26V20.54L20.68 20.55Z" fill="#777777"/>
</g>
<defs>
<clipPath id="clip0_6313_77198">
<rect width="20.45" height="19.87" fill="white" transform="translate(2 3)"/>
</clipPath>
</defs>
</svg>
