<svg width="22" height="22" viewBox="0 0 22 22" fill="none" xmlns="http://www.w3.org/2000/svg">
<path d="M13.4094 9.06399L8.95442 6.314C8.77842 6.204 8.56942 6.204 8.39342 6.292C8.21742 6.391 8.10742 6.567 8.10742 6.776V12.32C8.10742 12.518 8.21742 12.705 8.39342 12.804C8.48142 12.848 8.56942 12.87 8.66842 12.87C8.77842 12.87 8.86642 12.848 8.96542 12.782L13.4094 10.01C13.5744 9.89999 13.6734 9.73499 13.6734 9.53699C13.6734 9.33899 13.5744 9.17399 13.4094 9.06399Z" fill="#555555"/>
<path d="M13.7452 18.6254L13.7452 18.6255L13.7477 18.6267C13.8514 18.6766 13.9778 18.701 14.0698 18.701C14.2775 18.701 14.5521 18.6685 14.769 18.4849L16.4793 17.1074L18.4125 18.5944L18.4124 18.5945L18.4178 18.5981C18.6135 18.7294 18.7828 18.7848 18.9291 18.7972C19.0736 18.8094 19.1878 18.7791 19.272 18.7503C19.6593 18.6453 19.9002 18.2191 19.9002 17.5813V11.989C19.9002 11.6117 19.8348 11.3334 19.6666 11.1516C19.4963 10.9675 19.2426 10.9055 18.9264 10.9055H14.296C13.9612 10.884 13.6595 10.9219 13.4403 11.0841C13.2147 11.251 13.1002 11.5308 13.1002 11.9353V17.5276C13.1002 17.8242 13.1746 18.0561 13.2955 18.2366C13.4159 18.4165 13.5783 18.5394 13.7452 18.6254ZM18.5184 12.2862V16.6992L17.0287 15.6552C16.8711 15.5276 16.6833 15.4418 16.4667 15.4418C16.2536 15.4418 16.0315 15.5252 15.8697 15.6565L14.5154 16.692V12.2862H18.5184Z" fill="#555555" stroke="#555555" stroke-width="0.2"/>
<path fill-rule="evenodd" clip-rule="evenodd" d="M2.2002 3.07995C2.2002 2.59595 2.5962 2.19995 3.0802 2.19995H18.3592C18.8432 2.19995 19.0852 2.59595 19.0852 3.07995V7.94195C19.0852 8.42595 18.7882 8.82195 18.3042 8.82195C17.8202 8.82195 17.4792 8.43695 17.4792 7.94195V3.87195H3.8392V15.3119H10.6592C11.1432 15.3119 11.5282 15.6419 11.5282 16.137C11.5282 16.632 11.1432 16.9069 10.6592 16.9069H3.0802C2.5962 16.8959 2.2002 16.5 2.2002 16.016V3.07995Z" fill="#555555"/>
</svg>
