<svg width="22" height="22" viewBox="0 0 22 22" fill="none" xmlns="http://www.w3.org/2000/svg">
    <path fill-rule="evenodd" clip-rule="evenodd"
        d="M3.90516 3.90516C4.22336 3.58695 4.73927 3.58695 5.05748 3.90516L10.9998 9.84752L16.9422 3.90516C17.2604 3.58695 17.7763 3.58695 18.0945 3.90516C18.4127 4.22336 18.4127 4.73927 18.0945 5.05748L12.1522 10.9998L18.0945 16.9422C18.4127 17.2604 18.4127 17.7763 18.0945 18.0945C17.7763 18.4127 17.2604 18.4127 16.9422 18.0945L10.9998 12.1522L5.05748 18.0945C4.73927 18.4127 4.22336 18.4127 3.90516 18.0945C3.58695 17.7763 3.58695 17.2604 3.90516 16.9422L9.84752 10.9998L3.90516 5.05748C3.58695 4.73927 3.58695 4.22336 3.90516 3.90516Z"
        fill="#EE5A50" />
</svg>