<svg width="18" height="16" viewBox="0 0 18 16" fill="none" xmlns="http://www.w3.org/2000/svg">
<g clip-path="url(#clip0_4110_4613)">
<path d="M17.4021 6.32932H13.8102L10.2153 4.57022L11.5665 2.64049C11.6582 2.50989 11.693 2.35123 11.6653 2.19407C11.6376 2.03653 11.5504 1.89958 11.4194 1.80827L9.70635 0.607848C9.43656 0.418879 9.06273 0.484738 8.87376 0.754534L7.05629 3.34996C6.59341 3.13068 6.08749 3.16137 5.78103 3.29458L3.79105 4.15898C3.48869 4.29032 3.23574 4.50698 3.05912 4.78464L0.204368 9.27612C0.0228821 9.56164 -0.0841383 10.0769 0.0849988 10.5843C0.223826 11.0008 0.516448 11.3383 0.909355 11.5348C1.01376 11.5868 1.12489 11.6276 1.24089 11.656L1.0755 11.8921C1.02274 11.9677 0.987562 12.056 0.973717 12.1473L0.630578 14.4606C0.597274 14.6863 0.692321 14.9074 0.879045 15.038C0.981949 15.1102 1.10132 15.1465 1.22143 15.1465C1.31873 15.1465 1.41677 15.1226 1.50657 15.0739L3.38018 14.0595C3.67879 14.5463 4.20902 14.8457 4.78192 14.8457C5.16472 14.8457 5.53331 14.7125 5.8278 14.4692C6.12229 14.7125 6.49088 14.8457 6.87368 14.8457C7.77999 14.8457 8.51753 14.1085 8.51753 13.2022V13.1206C9.47211 13.5655 10.5281 13.8002 11.5803 13.8002C12.6326 13.8002 13.7473 13.5596 14.7127 13.1038V14.2481C14.7127 14.4569 14.8186 14.647 14.9964 14.7566C15.1741 14.8663 15.3915 14.876 15.5779 14.7828L17.6696 13.7369C17.8736 13.6348 18.0001 13.4301 18.0001 13.2022V6.92691C18.0001 6.59725 17.7318 6.32932 17.4025 6.32932H17.4021ZM16.8045 7.52488V12.8329L15.9083 13.2808L15.9083 7.52451H16.8045V7.52488ZM8.9965 2.66444L9.51065 1.93026L10.2448 2.44441L9.73067 3.17858L8.9965 2.66444ZM3.29411 10.4788C3.34912 9.98635 3.76186 9.61664 4.25917 9.61664L7.48662 9.61664C8.60023 9.61664 9.64685 9.18295 10.4342 8.39564C10.6669 8.16251 10.6669 7.78345 10.4342 7.55033C10.3212 7.43732 10.1711 7.3752 10.0113 7.3752C9.85154 7.3752 9.70149 7.43732 9.58848 7.55033C9.03467 8.10414 8.30087 8.41248 7.51917 8.42108L9.52112 5.56222L13.409 7.46426C13.4906 7.50393 13.5815 7.52526 13.6717 7.52526H14.7124L14.7124 11.7769C14.657 11.8012 14.59 11.8341 14.5103 11.8734C14.0276 12.111 13.0236 12.605 11.58 12.605C10.1363 12.605 9.04851 12.0643 8.4947 11.7739C8.36598 11.7062 8.26382 11.6526 8.18374 11.6205C8.1018 11.5801 8.01049 11.5587 7.91919 11.5587L4.25879 11.5587C3.77084 11.5587 3.35922 11.1965 3.29636 10.7145C3.31095 10.6378 3.3102 10.557 3.29374 10.4792L3.29411 10.4788ZM4.96565 8.42108C5.56437 7.56604 7.81628 4.34982 8.3106 3.64371L9.04477 4.15786L6.0598 8.42108H4.96565ZM3.37307 8.6108C2.71224 8.90829 2.23364 9.5317 2.11951 10.2445C2.08396 10.3377 1.99527 10.4182 1.87516 10.4664C1.72847 10.5252 1.56345 10.5248 1.44371 10.4649C1.22967 10.3579 1.13761 10.1042 1.23304 9.88569L4.0687 5.42564C4.11697 5.35005 4.18582 5.29092 4.26815 5.255L6.22857 4.40333C6.26187 4.39397 6.29592 4.38836 6.33035 4.38686L3.37307 8.61005V8.6108ZM2.1356 12.4624L2.53262 11.8951C2.71598 12.1365 2.9491 12.3378 3.21403 12.4845L2.8694 12.9766L1.98816 13.4537L2.13522 12.4624H2.1356ZM5.22983 13.2018C5.22983 13.4488 5.02889 13.6501 4.78192 13.6501C4.53495 13.6501 4.33401 13.4492 4.33401 13.2018V12.9698L4.48518 12.7539H5.22983V13.2018ZM6.42539 12.7539L7.32159 12.7539V13.2018C7.32159 13.4488 7.12065 13.6501 6.87368 13.6501C6.62671 13.6501 6.42577 13.4492 6.42577 13.2018V12.7539H6.42539Z" fill="#EE79EE"/>
</g>
<defs>
<clipPath id="clip0_4110_4613">
<rect width="18" height="14.6468" fill="white" transform="translate(0 0.5)"/>
</clipPath>
</defs>
</svg>
