<svg width="16" height="16" viewBox="0 0 16 16" fill="none" xmlns="http://www.w3.org/2000/svg">
<g id="icon/close">
<path id="Vector (Stroke)" fill-rule="evenodd" clip-rule="evenodd" d="M2.84007 2.84056C3.07149 2.60914 3.4467 2.60914 3.67812 2.84056L7.99984 7.16227L12.3216 2.84056C12.553 2.60914 12.9282 2.60914 13.1596 2.84056C13.391 3.07198 13.391 3.44719 13.1596 3.67861L8.83789 8.00033L13.1596 12.322C13.391 12.5535 13.391 12.9287 13.1596 13.1601C12.9282 13.3915 12.553 13.3915 12.3216 13.1601L7.99984 8.83838L3.67812 13.1601C3.4467 13.3915 3.07149 13.3915 2.84007 13.1601C2.60865 12.9287 2.60865 12.5535 2.84007 12.322L7.16178 8.00033L2.84007 3.67861C2.60865 3.44719 2.60865 3.07198 2.84007 2.84056Z" fill="#080808"/>
</g>
</svg>
