<svg width="24" height="24" viewBox="0 0 24 24" fill="none" xmlns="http://www.w3.org/2000/svg">
<path fill-rule="evenodd" clip-rule="evenodd" d="M12.8892 1.54265C12.7179 1.20945 12.3746 1 11.9999 1C11.6253 1 11.282 1.20945 11.1107 1.54265L2.5417 18.2045C2.2455 18.5281 2 18.9627 2 19.5C2 20.366 2.62116 20.9562 3.15832 21.309C3.7362 21.6885 4.50632 21.9918 5.3684 22.2313C7.10661 22.7141 9.45088 23 12 23C14.5491 23 16.8934 22.7141 18.6316 22.2313C19.4937 21.9918 20.2638 21.6885 20.8417 21.309C21.3788 20.9562 22 20.366 22 19.5C22 18.9627 21.7545 18.528 21.4582 18.2045L12.8892 1.54265ZM18.4449 16.7182L12 4.18652L5.55508 16.7182C5.81063 16.6509 6.07662 16.5882 6.35153 16.5302C7.94215 16.1943 9.89834 16 12 16C14.1017 16 16.0579 16.1943 17.6485 16.5302C17.9234 16.5882 18.1893 16.6509 18.4449 16.7182ZM4.10871 19.5307L4.16089 19.4292C4.32456 19.3071 4.58618 19.1595 4.97071 19.0054C5.4447 18.8156 6.04846 18.6383 6.76477 18.487C8.19673 18.1846 10.0118 18 12 18C13.9882 18 15.8033 18.1846 17.2352 18.487C17.9515 18.6383 18.5553 18.8156 19.0293 19.0054C19.4138 19.1595 19.6754 19.3071 19.8391 19.4292L19.8913 19.5307C19.8536 19.5612 19.8054 19.5968 19.7438 19.6372C19.4108 19.8559 18.8629 20.0913 18.0963 20.3042C16.5772 20.7262 14.4214 21 12 21C9.57857 21 7.42284 20.7262 5.90369 20.3042C5.13708 20.0913 4.58918 19.8559 4.25621 19.6372C4.1946 19.5968 4.14635 19.5612 4.10871 19.5307Z" fill="#FFFFFF"/>
</svg>
