<svg width="24" height="24" viewBox="0 0 24 24" fill="none" xmlns="http://www.w3.org/2000/svg">
<path d="M20.96 7.17C20.96 7.17 20.93 7.11 20.92 7.08C20.9 7.03 20.88 6.98 20.86 6.93C20.84 6.9 20.82 6.88 20.8 6.85C20.77 6.81 20.74 6.76 20.7 6.73C20.68 6.71 20.65 6.69 20.62 6.67C20.58 6.64 20.54 6.6 20.5 6.58H20.49L12.48 2.13C12.18 1.96 11.81 1.96 11.51 2.13L3.52001 6.56H3.51001C3.47001 6.59 3.43001 6.62 3.39001 6.66C3.37001 6.68 3.34001 6.7 3.31001 6.72C3.27001 6.76 3.24001 6.8 3.21001 6.84C3.19001 6.87 3.17001 6.89 3.15001 6.92C3.12001 6.97 3.10001 7.02 3.09001 7.07C3.08001 7.1 3.06001 7.13 3.05001 7.16C3.03001 7.24 3.01001 7.33 3.01001 7.42V17.08C3.01001 17.44 3.21001 17.78 3.53001 17.96L11.53 22.39C11.53 22.39 11.63 22.43 11.68 22.45C11.71 22.46 11.73 22.48 11.76 22.48C11.84 22.5 11.93 22.51 12.01 22.51C12.09 22.51 12.18 22.5 12.26 22.48C12.29 22.48 12.31 22.46 12.34 22.45C12.39 22.43 12.44 22.42 12.49 22.39L20.49 17.96C20.81 17.78 21.01 17.45 21.01 17.08V7.43C21.01 7.34 21 7.25 20.97 7.17H20.96ZM12 4.14L17.94 7.43L12 10.72L6.06001 7.43L12 4.14ZM5.00001 9.13L8.45001 11.04L11 12.45V19.81L5.00001 16.48V9.13ZM19 16.49L13 19.82V12.46L15.55 11.05L19 9.14V16.5V16.49Z" fill="#FFFFFF"/>
</svg>
