<svg width="19" height="18" viewBox="0 0 19 18" fill="none" xmlns="http://www.w3.org/2000/svg">
    <path
        d="M8.13636 6.95455C8.51292 6.95455 8.81818 7.25981 8.81818 7.63636V12.0682C8.81818 12.4447 8.51292 12.75 8.13636 12.75C7.75981 12.75 7.45455 12.4447 7.45455 12.0682V7.63636C7.45455 7.25981 7.75981 6.95455 8.13636 6.95455Z"
        fill="#777777" />
    <path
        d="M11.5455 7.63636C11.5455 7.25981 11.2402 6.95455 10.8636 6.95455C10.4871 6.95455 10.1818 7.25981 10.1818 7.63636L10.1818 12.0682C10.1818 12.4447 10.4871 12.75 10.8636 12.75C11.2402 12.75 11.5455 12.4447 11.5455 12.0682L11.5455 7.63636Z"
        fill="#777777" />
    <path fill-rule="evenodd" clip-rule="evenodd"
        d="M7.89398 1.5C7.64498 1.5 7.41578 1.63573 7.29609 1.85408L6.36894 3.54545L2.68182 3.54545C2.30526 3.54545 2 3.85071 2 4.22727C2 4.60383 2.30526 4.90909 2.68182 4.90909H3.70455L3.70455 15.8182C3.70455 16.1947 4.00981 16.5 4.38636 16.5H14.6136C14.9902 16.5 15.2955 16.1947 15.2955 15.8182L15.2955 4.90909H16.3182C16.6947 4.90909 17 4.60383 17 4.22727C17 3.85071 16.6947 3.54545 16.3182 3.54545L12.635 3.54545L11.7292 1.85918C11.6104 1.63799 11.3796 1.5 11.1286 1.5L7.89398 1.5ZM11.0871 3.54545L10.7208 2.86364H8.29777L7.92402 3.54545L11.0871 3.54545ZM5.06818 4.90909L5.06818 15.1364L13.9318 15.1364L13.9318 4.90909L5.06818 4.90909Z"
        fill="#777777" />
</svg>