<svg width="24" height="24" viewBox="0 0 24 24" fill="none" xmlns="http://www.w3.org/2000/svg">
    <path fill-rule="evenodd" clip-rule="evenodd"
        d="M4.4945 18.6325H11.3416L11.3082 20.6017H8.34626C7.8138 20.6017 7.36062 20.9844 7.36062 21.4886C7.36062 21.9928 7.8138 22.3756 8.34626 22.3756H15.6537C16.1862 22.3756 16.6394 21.9928 16.6394 21.4886C16.6394 20.9844 16.1862 20.6017 15.6537 20.6017H13.0086L13.042 18.6325H19.5055C20.8852 18.6325 22 17.5149 22 16.1345V6.49809C22 5.11629 20.8844 4 19.5055 4H4.4945C3.11484 4 2 5.11769 2 6.49809V16.1345C2 17.5163 3.11563 18.6325 4.4945 18.6325ZM3.77387 16.1345V6.4981C3.77387 6.09647 4.09544 5.7739 4.49449 5.7739H19.5055C19.9047 5.7739 20.2261 6.09606 20.2261 6.4981V16.1345C20.2261 16.5361 19.9045 16.8587 19.5055 16.8587H4.49449C4.09523 16.8587 3.77387 16.5365 3.77387 16.1345Z"
        fill="white" />
</svg>