<svg width="24" height="24" viewBox="0 0 24 24" fill="none" xmlns="http://www.w3.org/2000/svg">
<path d="M18.5004 2.75H18.5001L5.49994 2.75L5.49964 2.75C3.98178 2.75181 2.75181 3.98178 2.75 5.49964V5.49994L2.75 18.5001L2.75 18.5004C2.75181 20.0182 3.98178 21.2482 5.49964 21.25H5.49994H18.5001H18.5004C20.0182 21.2482 21.2482 20.0182 21.25 18.5004V18.5001V5.49994V5.49964C21.2482 3.98178 20.0182 2.75181 18.5004 2.75ZM19.75 18.4998C19.7493 19.1899 19.1899 19.7493 18.4998 19.75H5.50019C4.81015 19.7493 4.25078 19.19 4.25003 18.4999C4.25003 18.4999 4.25003 18.4999 4.25003 18.4998V5.50019C4.25003 5.50015 4.25003 5.50011 4.25003 5.50007C4.25078 4.81008 4.81008 4.25078 5.50007 4.25003C5.50011 4.25003 5.50015 4.25003 5.50019 4.25003H18.4998C18.4999 4.25003 18.4999 4.25003 18.4999 4.25003C19.19 4.25078 19.7493 4.81015 19.75 5.50019V18.4998Z" fill="#777777" stroke="#777777" stroke-width="0.5"/>
<path d="M13.5 12C13.5 12.8283 12.8283 13.5 12 13.5C11.1717 13.5 10.5 12.8283 10.5 12C10.5 11.1717 11.1717 10.5 12 10.5C12.8283 10.5 13.5 11.1717 13.5 12Z" fill="#777777"/>
<path d="M17 15.5C17 16.3283 16.3283 17 15.5 17C14.6717 17 14 16.3283 14 15.5C14 14.6717 14.6717 14 15.5 14C16.3283 14 17 14.6717 17 15.5Z" fill="#777777"/>
<path d="M10 15.5C10 16.3283 9.32834 17 8.5 17C7.67166 17 7 16.3283 7 15.5C7 14.6717 7.67166 14 8.5 14C9.32834 14 10 14.6717 10 15.5Z" fill="#777777"/>
<path d="M17 8.5C17 9.32834 16.3283 10 15.5 10C14.6717 10 14 9.32834 14 8.5C14 7.67166 14.6717 7 15.5 7C16.3283 7 17 7.67166 17 8.5Z" fill="#777777"/>
<path d="M10 8.5C10 9.32834 9.32834 10 8.5 10C7.67166 10 7 9.32834 7 8.5C7 7.67166 7.67166 7 8.5 7C9.32834 7 10 7.67166 10 8.5Z" fill="#777777"/>
</svg>
