<svg width="18" height="18" viewBox="0 0 18 18" fill="none" xmlns="http://www.w3.org/2000/svg">
<g clip-path="url(#clip0_1961_1832)">
<path d="M6.88495 10.1624C6.75745 10.1624 6.63745 10.0874 6.59245 9.95986L5.93245 8.21236L5.26495 9.95986C5.20495 10.1249 5.02495 10.1999 4.85995 10.1399C4.69495 10.0799 4.61995 9.89986 4.67995 9.73486L5.58745 7.34236C5.64745 7.19986 5.77495 7.10986 5.92495 7.10986C6.07495 7.10986 6.20995 7.19986 6.26245 7.33486C6.26245 7.33486 6.26245 7.33486 6.26245 7.34236L7.16245 9.73486C7.22245 9.89986 7.13995 10.0799 6.98245 10.1399C6.94495 10.1549 6.90745 10.1624 6.86995 10.1624H6.88495Z" fill="#777777"/>
<path d="M6.88495 10.2076C6.73495 10.2076 6.59995 10.1176 6.54745 9.97508L5.92495 8.33258L5.30245 9.97508C5.26495 10.0651 5.20495 10.1326 5.11495 10.1776C5.03245 10.2151 4.92745 10.2226 4.84495 10.1851C4.75495 10.1476 4.68745 10.0876 4.64995 9.99758C4.61245 9.90758 4.60495 9.81008 4.64245 9.72758L5.54995 7.34258C5.61745 7.17758 5.76745 7.08008 5.93245 7.08008C6.09745 7.08008 6.24745 7.17758 6.31495 7.33508L7.21495 9.73508C7.25245 9.82508 7.24495 9.92258 7.20745 10.0126C7.16995 10.1026 7.09495 10.1626 7.00495 10.2001C6.95995 10.2151 6.92245 10.2226 6.87745 10.2226L6.88495 10.2076ZM5.93245 8.09258L6.62995 9.95258C6.68245 10.0876 6.83245 10.1626 6.97495 10.1101C7.04245 10.0876 7.09495 10.0351 7.12495 9.96758C7.15495 9.90008 7.15495 9.82508 7.12495 9.75758L6.21745 7.35758C6.16495 7.23758 6.05245 7.16258 5.91745 7.16258C5.78245 7.16258 5.66245 7.24508 5.61745 7.36508L4.70245 9.75758C4.67995 9.82508 4.67995 9.90008 4.70245 9.96758C4.73245 10.0351 4.78495 10.0801 4.85245 10.1101C4.91995 10.1326 4.99495 10.1326 5.06245 10.1101C5.12995 10.0801 5.17495 10.0276 5.20495 9.96008L5.90995 8.10008L5.93245 8.09258Z" fill="#777777"/>
<path d="M6.59994 9.56262H5.24994C5.07744 9.56262 4.93494 9.42012 4.93494 9.24762C4.93494 9.07512 5.07744 8.93262 5.24994 8.93262H6.59994C6.77244 8.93262 6.91494 9.07512 6.91494 9.24762C6.91494 9.42012 6.77244 9.56262 6.59994 9.56262Z" fill="#777777"/>
<path d="M6.59989 9.6077H5.24989C5.05489 9.6077 4.88989 9.4502 4.88989 9.2477C4.88989 9.0452 5.04739 8.8877 5.24989 8.8877H6.59989C6.79489 8.8877 6.95989 9.0452 6.95989 9.2477C6.95989 9.4502 6.80239 9.6077 6.59989 9.6077ZM5.24989 8.9777C5.09989 8.9777 4.97989 9.0977 4.97989 9.2477C4.97989 9.3977 5.09989 9.5177 5.24989 9.5177H6.59989C6.74989 9.5177 6.86989 9.3977 6.86989 9.2477C6.86989 9.0977 6.74989 8.9777 6.59989 8.9777H5.24989Z" fill="#777777"/>
<path d="M6.73493 14.1526H5.12243C5.00993 14.1526 4.90493 14.0926 4.84493 13.9876C4.79243 13.8901 4.79243 13.7626 4.85993 13.6651L6.11993 11.7301H5.16743C4.99493 11.7301 4.85243 11.5876 4.85243 11.4151C4.85243 11.2426 4.99493 11.1001 5.16743 11.1001H6.69743C6.80993 11.1001 6.91493 11.1601 6.97493 11.2651C7.02743 11.3626 7.02743 11.4901 6.95993 11.5876L5.69993 13.5226H6.73493C6.90743 13.5226 7.04993 13.6651 7.04993 13.8376C7.04993 14.0101 6.90743 14.1526 6.73493 14.1526Z" fill="#777777"/>
<path d="M6.73491 14.1899H5.12241C4.98741 14.1899 4.86741 14.1149 4.80741 14.0024C4.74741 13.8899 4.75491 13.7474 4.82241 13.6349L6.04491 11.7674H5.17491C4.97991 11.7674 4.81491 11.6099 4.81491 11.4074C4.81491 11.2049 4.97241 11.0474 5.17491 11.0474H6.70491C6.83241 11.0474 6.95991 11.1224 7.01991 11.2349C7.07991 11.3474 7.07241 11.4899 7.00491 11.6024L5.78241 13.4699H6.74241C6.93741 13.4699 7.10241 13.6274 7.10241 13.8299C7.10241 14.0324 6.94491 14.1899 6.74241 14.1899H6.73491ZM5.16741 11.1374C5.01741 11.1374 4.89741 11.2574 4.89741 11.4074C4.89741 11.5574 5.01741 11.6774 5.16741 11.6774H6.19491L6.14991 11.7449L4.88991 13.6799C4.83741 13.7624 4.82991 13.8674 4.88241 13.9574C4.93491 14.0474 5.01741 14.0999 5.12241 14.0999H6.73491C6.88491 14.0999 7.00491 13.9799 7.00491 13.8299C7.00491 13.6799 6.88491 13.5599 6.73491 13.5599H5.61741L5.66241 13.4924L6.92241 11.5574C6.97491 11.4749 6.98241 11.3699 6.93741 11.2799C6.89241 11.1899 6.79491 11.1374 6.69741 11.1374H5.16741Z" fill="#777777"/>
<path d="M8.3625 15.6225C8.22 15.48 8.115 15.33 7.995 15.1725H4.6425C4.05 15.1725 3.57 14.6925 3.57 14.1L3.57 6.0375C3.9 6.2025 4.26 6.2925 4.6425 6.2925L12.525 6.2925V8.6325C13.005 8.7825 13.4475 9.0075 13.8525 9.315L13.8525 2.4525C13.8525 1.9275 13.425 1.5 12.9 1.5L4.6425 1.5C3.3225 1.5 2.25 2.5725 2.25 3.8925L2.25 14.1075C2.25 15.4275 3.3225 16.5 4.6425 16.5H9.645C9.18 16.29 8.7375 15.9975 8.3625 15.6225ZM4.6425 2.8275L12.525 2.8275V3.2325L3.8025 3.2325C4.005 2.9775 4.305 2.8275 4.6425 2.8275ZM12.525 4.56V4.965L4.6425 4.965C4.3125 4.965 4.005 4.8075 3.8025 4.56L12.525 4.56Z" fill="#777777"/>
<path fill-rule="evenodd" clip-rule="evenodd" d="M13.0875 15.2699C11.8875 16.0574 10.2375 15.9074 9.1575 14.8274C7.9275 13.5974 7.8975 11.6249 9.0975 10.4249C10.2975 9.22485 12.27 9.24735 13.5 10.4849C14.5575 11.5424 14.7225 13.1399 13.995 14.3324C14.04 14.3624 14.085 14.3924 14.13 14.4374L15.6525 15.9599C15.915 16.2224 15.915 16.6499 15.6525 16.9124C15.39 17.1824 14.955 17.1824 14.6925 16.9124L13.17 15.3899C13.17 15.3899 13.1025 15.3149 13.08 15.2774L13.0875 15.2699ZM12.6225 13.9424C13.32 13.2449 13.305 12.1049 12.5925 11.3924C11.88 10.6799 10.74 10.6649 10.0425 11.3624C9.34501 12.0599 9.36001 13.1999 10.0725 13.9124C10.785 14.6249 11.925 14.6399 12.6225 13.9424Z" fill="#777777"/>
</g>
<defs>
<clipPath id="clip0_1961_1832">
<rect width="13.6125" height="15.6075" fill="white" transform="translate(2.25 1.5)"/>
</clipPath>
</defs>
</svg>
