<svg width="18" height="18" viewBox="0 0 18 18" fill="none" xmlns="http://www.w3.org/2000/svg">
<path d="M9 0.75C13.5564 0.75 17.25 4.44365 17.25 9C17.25 13.5564 13.5564 17.25 9 17.25C4.44365 17.25 0.75 13.5564 0.75 9C0.75 4.44365 4.44365 0.75 9 0.75ZM9 2.25C5.27208 2.25 2.25 5.27208 2.25 9C2.25 12.7279 5.27208 15.75 9 15.75C12.7279 15.75 15.75 12.7279 15.75 9C15.75 5.27208 12.7279 2.25 9 2.25Z" fill="#EE79EE"/>
<path d="M11.5792 9.95773C11.3684 9.63162 10.9331 9.53814 10.607 9.74897L9.00004 10.7878L7.39305 9.74897C7.06694 9.53814 6.63163 9.63158 6.42083 9.95773C6.21 10.2838 6.30348 10.7191 6.62959 10.9299L7.70488 11.625L6.62959 12.3202C6.30348 12.531 6.21 12.9662 6.42083 13.2924C6.63146 13.6182 7.06665 13.7121 7.39305 13.5011L9.00004 12.4623L10.607 13.5011C10.9338 13.7124 11.3689 13.6178 11.5792 13.2924C11.7901 12.9663 11.6966 12.531 11.3705 12.3202L10.2952 11.625L11.3705 10.9299C11.6966 10.7191 11.7901 10.2838 11.5792 9.95773Z" fill="#EE79EE"/>
<path d="M7.59375 7.45312C7.59375 7.06479 7.27896 6.75 6.89062 6.75H4.78125C4.39291 6.75 4.07812 7.06479 4.07812 7.45312C4.07812 7.84146 4.39291 8.15625 4.78125 8.15625H6.89062C7.27896 8.15625 7.59375 7.84146 7.59375 7.45312Z" fill="#EE79EE"/>
<path d="M13.2188 6.75H11.1094C10.721 6.75 10.4062 7.06479 10.4062 7.45312C10.4062 7.84146 10.721 8.15625 11.1094 8.15625H13.2188C13.6071 8.15625 13.9219 7.84146 13.9219 7.45312C13.9219 7.06479 13.6071 6.75 13.2188 6.75Z" fill="#EE79EE"/>
</svg>
