<svg viewBox="0 0 19 18" fill="none" xmlns="http://www.w3.org/2000/svg">
    <path fill-rule="evenodd" clip-rule="evenodd"
        d="M13.0048 6.6606L15.386 4.27942C15.6777 3.98774 15.6777 3.51044 15.386 3.21876C15.0943 2.92708 14.617 2.92708 14.3254 3.21876L11.9442 5.59994C11.6525 5.89162 11.6525 6.36892 11.9442 6.6606C12.2359 6.95229 12.7132 6.95229 13.0048 6.6606ZM11.276 8.38948L8.89478 10.7707C8.6031 11.0623 8.1258 11.0623 7.83412 10.7707C7.54244 10.479 7.54244 10.0017 7.83412 9.71L10.2153 7.32882C10.507 7.03714 10.9843 7.03714 11.276 7.32882C11.5676 7.6205 11.5676 8.0978 11.276 8.38948ZM7.1606 12.5048L4.77942 14.886C4.48774 15.1777 4.01044 15.1777 3.71876 14.886C3.42708 14.5943 3.42708 14.117 3.71876 13.8254L6.09994 11.4442C6.39162 11.1525 6.86892 11.1525 7.1606 11.4442C7.45228 11.7359 7.45228 12.2132 7.1606 12.5048Z"
        fill="#FFFFFF" />
</svg>