<svg width="19" height="18" viewBox="0 0 19 18" fill="none" xmlns="http://www.w3.org/2000/svg">
    <path fill-rule="evenodd" clip-rule="evenodd"
        d="M11.7169 3.27614C11.3547 2.87357 10.7283 2.83125 10.2547 3.30476L5.31007 8.24941L10.9994 13.9387L15.9441 8.99407C15.9534 8.98477 15.9629 8.97578 15.9727 8.96693C16.3753 8.60468 16.4176 7.97827 15.9441 7.50472L11.7441 3.30476C11.7348 3.29546 11.7258 3.28592 11.7169 3.27614ZM9.93875 14.9994L4.24941 9.31007L3.05475 10.5047C3.04545 10.514 3.03591 10.5231 3.02614 10.5319C2.62357 10.8942 2.58125 11.5206 3.05475 11.9941L6.06068 15L9.93815 15L9.93875 14.9994ZM1.99409 13.0547L5.21589 16.2765C5.3519 16.4145 5.54096 16.5 5.75 16.5H17C17.4142 16.5 17.75 16.1642 17.75 15.75C17.75 15.3358 17.4142 15 17 15H12.0595L16.992 10.0675C18.0732 9.07853 18.0263 7.46563 17.0047 6.44409L12.8176 2.25688C11.8285 1.1757 10.2157 1.22255 9.19408 2.24409L2.00688 9.43132C0.925701 10.4203 0.972552 12.0332 1.99409 13.0547Z"
        fill="#777777" />
</svg>