<svg viewBox="0 0 19 18" fill="none" xmlns="http://www.w3.org/2000/svg">
    <path
        d="M15.7406 8.28234L15.7391 5.68487C15.7391 4.91129 15.0172 4.28189 14.1693 4.28189C13.961 4.28189 13.7549 4.32024 13.5489 4.38905V3.98355C13.5489 3.23929 12.9495 2.62795 12.1337 2.62795H12.0169C11.844 2.62795 11.6104 2.67137 11.4561 2.72119C11.4305 1.94817 10.8221 1.5 10.0519 1.5H9.93503C9.1195 1.5 8.60377 2.09123 8.60377 2.83549V2.93907C8.33096 2.83887 8.1482 2.81594 7.98254 2.81594H7.86571C7.04997 2.81594 6.33726 3.4724 6.33726 4.21666L6.33726 7.89226C6.13121 7.74506 5.9501 7.63415 5.70346 7.5708C5.25428 7.45556 4.795 7.50669 4.38786 7.7148C3.55337 8.14154 3.25728 9.10462 3.7147 9.8688C3.82494 10.0848 4.10887 10.6612 4.19253 10.9492C4.47625 11.9252 4.91327 13.1883 5.77207 14.3029C6.89564 15.7612 8.39937 16.5002 10.2422 16.5C10.2727 16.5 10.3041 16.4998 10.3348 16.4994C12.0254 16.4769 13.2781 16.0734 14.1647 15.2656C15.2016 14.3206 15.7727 13.0801 15.7727 11.769L15.7406 8.28234ZM13.4648 14.6265C12.7696 15.26 11.7412 15.5773 10.3205 15.5961C10.2948 15.5965 10.2692 15.5967 10.2437 15.5967C7.77237 15.5967 6.10628 13.9997 5.1527 10.7176C5.02907 10.2922 4.59432 9.44281 4.59432 9.44281C4.39012 9.11082 4.52034 8.68897 4.88422 8.50286C5.0606 8.41262 5.26479 8.39044 5.4595 8.44063C5.65401 8.49064 5.81576 8.60682 5.91445 8.76774L7.46783 11.1336C7.60836 11.3475 7.91248 11.4173 8.14717 11.2891C8.38185 11.1609 8.45335 10.8834 8.31283 10.6693L7.36749 9.2364L7.36749 4.21666C7.36749 3.97077 7.59599 3.75589 7.86571 3.75589H7.98254C8.25205 3.75589 8.60377 3.97077 8.60377 4.21666V8.3848C8.60377 8.63426 8.74243 8.83654 9.01586 8.83654C9.28928 8.83654 9.42795 8.63426 9.42795 8.3848V2.83549C9.42795 2.5896 9.57424 2.25196 9.84375 2.25196H10.0519C10.3216 2.25196 10.4582 2.5896 10.4582 2.83549V8.60306C10.4582 8.85252 10.6999 9.0548 10.9733 9.0548C11.2467 9.0548 11.4884 8.85252 11.4884 8.60306V3.95441C11.4544 3.67487 11.6761 3.37991 11.9349 3.37991H12.0517C12.3212 3.37991 12.5186 3.73747 12.5186 3.98355L12.5186 9.04014C12.5186 9.2896 12.7603 9.49188 13.0338 9.49188C13.3072 9.49188 13.5489 9.2896 13.5489 9.04014L13.5489 5.86403C13.5231 5.40082 13.9016 5.18519 14.2035 5.18519C14.5053 5.18519 14.7851 5.40946 14.7851 5.68487V8.09247L14.8004 11.773C14.8004 12.8387 14.3143 13.8521 13.4648 14.6265Z"
        fill="#777777" />
    <path fill-rule="evenodd" clip-rule="evenodd"
        d="M5.70335 7.5709C5.88885 7.61854 6.03729 7.6931 6.18715 7.78976C6.23654 7.82162 6.28608 7.85587 6.33715 7.89236L6.33715 4.21676C6.33715 3.4725 7.04986 2.81604 7.8656 2.81604L7.98243 2.81604C8.11575 2.81604 8.26015 2.83089 8.45366 2.88892C8.50059 2.903 8.55041 2.91961 8.60366 2.93917V2.83559C8.60366 2.81704 8.60398 2.79858 8.60461 2.78022C8.62955 2.06222 9.13972 1.5001 9.93492 1.5001H10.0517C10.7696 1.5001 11.347 1.88946 11.4428 2.56832C11.4498 2.61779 11.4542 2.66879 11.456 2.72129C11.5 2.70706 11.5506 2.69336 11.6043 2.68104C11.7388 2.65021 11.8933 2.62804 12.0168 2.62804H12.1336C12.9494 2.62804 13.5488 3.23939 13.5488 3.98365V4.38915C13.5988 4.37245 13.6487 4.35755 13.6988 4.34456C13.8549 4.30399 14.0114 4.28199 14.1692 4.28199C15.017 4.28199 15.739 4.91138 15.739 5.68497L15.7405 8.28244L15.7726 11.7691C15.7726 13.0802 15.2015 14.3207 14.1646 15.2657C13.278 16.0735 12.0253 16.477 10.3346 16.4995C10.3039 16.4999 10.2726 16.5001 10.2421 16.5001C8.39926 16.5003 6.89553 15.7613 5.77196 14.303C4.91316 13.1884 4.47614 11.9253 4.19241 10.9493C4.10876 10.6613 3.82483 10.0849 3.71459 9.8689C3.25717 9.10471 3.55326 8.14164 4.38775 7.7149C4.79489 7.50679 5.25417 7.45566 5.70335 7.5709ZM3.58323 9.94147C3.69684 10.1644 3.97003 10.7214 4.04837 10.9911C4.33353 11.9721 4.77682 13.2573 5.65314 14.3946C6.80515 15.8898 8.3528 16.6503 10.2421 16.6501C10.2732 16.6501 10.3052 16.6499 10.3365 16.6495C12.0488 16.6267 13.3426 16.2176 14.2657 15.3766C15.3311 14.4055 15.9226 13.1256 15.9226 11.7691L15.8905 8.28236L15.8905 8.28106L15.889 5.68497M3.58323 9.94147C3.08178 9.09808 3.41512 8.0438 4.31945 7.58135C4.7594 7.35647 5.25626 7.30133 5.74063 7.4256C5.91144 7.46948 6.05326 7.53417 6.18715 7.61336L6.18715 4.21676C6.18715 3.37782 6.97937 2.66604 7.8656 2.66604L7.98243 2.66604C8.12104 2.66604 8.26883 2.68096 8.45665 2.73361C8.47828 2.3667 8.61687 2.03354 8.85518 1.78494C9.11628 1.51258 9.48915 1.3501 9.93492 1.3501H10.0517C10.465 1.3501 10.8455 1.47036 11.1289 1.70536C11.372 1.90704 11.5366 2.18776 11.5889 2.53076C11.7287 2.49984 11.8863 2.47804 12.0168 2.47804H12.1336C13.0288 2.47804 13.6988 3.15319 13.6988 3.98365V4.18992C13.8535 4.15252 14.0101 4.13199 14.1692 4.13199C15.0824 4.13199 15.889 4.81215 15.889 5.68497M4.5942 9.44291C4.5942 9.44291 5.02896 10.2923 5.15259 10.7177C6.10617 13.9998 7.77226 15.5968 10.2436 15.5968C10.2691 15.5968 10.2947 15.5966 10.3204 15.5962C11.7411 15.5774 12.7695 15.2601 13.4647 14.6266C14.3142 13.8522 14.8003 12.8388 14.8003 11.7731L14.785 8.09257V5.68497C14.785 5.40956 14.5052 5.18529 14.2034 5.18529C13.9015 5.18529 13.523 5.40091 13.5488 5.86412L13.5488 9.04023C13.5488 9.2897 13.3071 9.49198 13.0336 9.49198C12.7602 9.49198 12.5185 9.2897 12.5185 9.04023L12.5185 3.98365C12.5185 3.73757 12.3211 3.38001 12.0516 3.38001H11.9348C11.676 3.38001 11.4543 3.67497 11.4883 3.95451L11.4883 8.60316C11.4883 8.85262 11.2466 9.0549 10.9732 9.0549C10.6998 9.0549 10.4581 8.85262 10.4581 8.60316V2.83559C10.4581 2.58969 10.3215 2.25206 10.0517 2.25206H9.84364C9.57413 2.25206 9.42784 2.58969 9.42784 2.83559V8.3849C9.42784 8.63436 9.28917 8.83664 9.01575 8.83664C8.74232 8.83664 8.60366 8.63436 8.60366 8.3849V4.21676C8.60366 3.97087 8.25193 3.75599 7.98243 3.75599H7.8656C7.59588 3.75599 7.36738 3.97087 7.36738 4.21676L7.36738 9.2365L8.31272 10.6694C8.45324 10.8835 8.38174 11.161 8.14706 11.2892C7.91237 11.4174 7.60825 11.3476 7.46772 11.1337L5.91434 8.76783C5.81565 8.60691 5.6539 8.49074 5.45939 8.44073C5.26468 8.39054 5.06049 8.41272 4.88411 8.50296C4.52023 8.68907 4.39001 9.11092 4.5942 9.44291ZM4.72773 9.37456L4.72505 9.36933L4.72197 9.36433C4.56757 9.11329 4.65954 8.7863 4.95242 8.6365C5.09569 8.5632 5.26223 8.54481 5.42195 8.58598C5.58149 8.627 5.70957 8.72086 5.78648 8.84626L7.34233 11.216C7.52866 11.4997 7.92047 11.5839 8.21897 11.4208C8.52706 11.2525 8.62887 10.8777 8.43812 10.5871L7.51738 9.19147L7.51738 4.21676C7.51738 4.06382 7.66824 3.90599 7.8656 3.90599H7.98243C8.08198 3.90599 8.20797 3.94753 8.30855 4.01737C8.4134 4.09018 8.45366 4.16599 8.45366 4.21676V8.3849C8.45366 8.53586 8.49555 8.6859 8.59243 8.80094C8.69219 8.9194 8.83868 8.98664 9.01575 8.98664C9.19282 8.98664 9.3393 8.9194 9.43906 8.80094C9.53594 8.6859 9.57784 8.53586 9.57784 8.3849V2.83559C9.57784 2.73817 9.60784 2.61968 9.66272 2.52975C9.71748 2.44001 9.78032 2.40206 9.84364 2.40206H10.0517C10.1142 2.40206 10.1744 2.43884 10.2268 2.52778C10.2796 2.61729 10.3081 2.73629 10.3081 2.83559V8.60316C10.3081 8.95527 10.6382 9.2049 10.9732 9.2049C11.3082 9.2049 11.6383 8.95527 11.6383 8.60316L11.6383 3.94542L11.6372 3.9364C11.6256 3.8406 11.6579 3.73554 11.7207 3.65384C11.784 3.5715 11.8639 3.53001 11.9348 3.53001H12.0516C12.1164 3.53001 12.1934 3.57444 12.2627 3.67483C12.3309 3.77338 12.3685 3.89503 12.3685 3.98365L12.3685 9.04023C12.3685 9.39235 12.6987 9.64198 13.0336 9.64198C13.3686 9.64198 13.6988 9.39235 13.6988 9.04023L13.6988 5.86412L13.6985 5.8558C13.6883 5.67146 13.7567 5.5464 13.8514 5.4644C13.9507 5.37845 14.0849 5.33529 14.2034 5.33529C14.4479 5.33529 14.635 5.51579 14.635 5.68497L14.635 8.09257L14.6503 11.7731C14.6503 11.773 14.6503 11.7732 14.6503 11.7731C14.6502 12.7913 14.186 13.7662 13.3636 14.5157C12.7065 15.1146 11.7205 15.4277 10.3184 15.4463C10.2934 15.4466 10.2684 15.4468 10.2436 15.4468C9.0439 15.4468 8.04754 15.0607 7.23272 14.2797C6.41401 13.4951 5.7693 12.3027 5.29663 10.6758C5.23115 10.4505 5.0867 10.122 4.96292 9.85723C4.90026 9.72322 4.84155 9.60272 4.79851 9.51574C4.77698 9.47223 4.75934 9.43705 4.74706 9.4127L4.73284 9.38459L4.72908 9.3772L4.72809 9.37527L4.72773 9.37456Z"
        fill="#777777" />
</svg>