<svg width="24" height="24" viewBox="0 0 24 24" fill="none" xmlns="http://www.w3.org/2000/svg">
<path fill-rule="evenodd" clip-rule="evenodd" d="M2.5 3C2.5 2.44772 2.94772 2 3.5 2H20.5C21.0523 2 21.5 2.44772 21.5 3C21.5 3.55228 21.0523 4 20.5 4H19.3125C18.6563 7.00059 17.8026 8.37141 16.7134 10.0471C16.1931 10.8476 15.6039 11.5091 14.9449 12.0017C15.6038 12.4947 16.193 13.1565 16.7134 13.9571C17.8025 15.6325 18.6561 17.0019 19.3123 20H20.5C21.0523 20 21.5 20.4477 21.5 21C21.5 21.5523 21.0523 22 20.5 22H3.5C2.94772 22 2.5 21.5523 2.5 21C2.5 20.4477 2.94772 20 3.5 20H4.68752C5.34372 16.9994 6.19738 15.6286 7.28656 13.9529C7.80691 13.1524 8.39612 12.4909 9.0551 11.9983C8.39617 11.5053 7.80697 10.8435 7.28656 10.0429C6.19751 8.36745 5.34387 6.99808 4.68766 4H3.5C2.94772 4 2.5 3.55228 2.5 3ZM6.7375 4C7.35219 6.66669 8.10505 7.63231 8.96344 8.95293C9.92934 10.4389 10.9457 10.999 12.0009 11C13.0552 11.001 14.0708 10.4428 15.0366 8.9571C15.895 7.6364 16.648 6.66944 17.2627 4H6.7375ZM11.9991 13C10.9448 12.999 9.92916 13.5572 8.96344 15.0429C8.10499 16.3636 7.35203 17.3306 6.73727 20H17.2625C16.6478 17.3333 15.895 16.3677 15.0366 15.0471C14.0707 13.5611 13.0543 13.001 11.9991 13ZM9.5 7.5C9.5 6.94772 9.94772 6.5 10.5 6.5H13.5C14.0523 6.5 14.5 6.94772 14.5 7.5C14.5 8.05228 14.0523 8.5 13.5 8.5H10.5C9.94772 8.5 9.5 8.05228 9.5 7.5ZM8.5 18C8.5 17.4477 8.94772 17 9.5 17H14.5C15.0523 17 15.5 17.4477 15.5 18C15.5 18.5523 15.0523 19 14.5 19H9.5C8.94772 19 8.5 18.5523 8.5 18Z" fill="#777777"/>
</svg>
