<svg width="20" height="20" viewBox="0 0 20 20" fill="none" xmlns="http://www.w3.org/2000/svg">
<path fill-rule="evenodd" clip-rule="evenodd" d="M2.0835 2.49984C2.0835 2.0396 2.45659 1.6665 2.91683 1.6665H17.0835C17.5437 1.6665 17.9168 2.0396 17.9168 2.49984C17.9168 2.96007 17.5437 3.33317 17.0835 3.33317H16.0939C15.5471 5.83366 14.8357 6.97602 13.928 8.3724C13.4944 9.03952 13.0034 9.5908 12.4542 10.0012C13.0034 10.4121 13.4944 10.9636 13.928 11.6308C14.8356 13.027 15.5469 14.1681 16.0938 16.6665H17.0835C17.5437 16.6665 17.9168 17.0396 17.9168 17.4998C17.9168 17.9601 17.5437 18.3332 17.0835 18.3332H2.91683C2.45659 18.3332 2.0835 17.9601 2.0835 17.4998C2.0835 17.0396 2.45659 16.6665 2.91683 16.6665H3.90643C4.45326 14.166 5.16464 13.0237 6.07229 11.6273C6.50592 10.9602 6.99693 10.4089 7.54608 9.99843C6.99697 9.58759 6.50597 9.03612 6.07229 8.36892C5.16476 6.97271 4.45339 5.83157 3.90655 3.33317H2.91683C2.45659 3.33317 2.0835 2.96007 2.0835 2.49984ZM5.61474 3.33317C6.12698 5.55541 6.75437 6.3601 7.4697 7.46061C8.27461 8.69894 9.1216 9.16569 10.0009 9.1665C10.8795 9.16732 11.7259 8.70219 12.5306 7.46408C13.246 6.3635 13.8735 5.55771 14.3858 3.33317H5.61474ZM9.99939 10.8332C9.12084 10.8324 8.27447 11.2975 7.4697 12.5356C6.75432 13.6362 6.12685 14.442 5.61456 16.6665H14.3856C13.8733 14.4443 13.246 13.6396 12.5306 12.5391C11.7257 11.3007 10.8787 10.834 9.99939 10.8332ZM7.91683 6.24984C7.91683 5.7896 8.28993 5.4165 8.75016 5.4165H11.2502C11.7104 5.4165 12.0835 5.7896 12.0835 6.24984C12.0835 6.71007 11.7104 7.08317 11.2502 7.08317H8.75016C8.28993 7.08317 7.91683 6.71007 7.91683 6.24984ZM7.0835 14.9998C7.0835 14.5396 7.45659 14.1665 7.91683 14.1665H12.0835C12.5437 14.1665 12.9168 14.5396 12.9168 14.9998C12.9168 15.4601 12.5437 15.8332 12.0835 15.8332H7.91683C7.45659 15.8332 7.0835 15.4601 7.0835 14.9998Z" fill="#003BFF"/>
</svg>
