<svg width="16" height="16" viewBox="0 0 16 16" fill="none" xmlns="http://www.w3.org/2000/svg">
    <g clip-path="url(#clip0_67_14536)">
        <path
            d="M8.83317 4.50008C8.83317 4.03985 8.46007 3.66675 7.99984 3.66675C7.5396 3.66675 7.1665 4.03985 7.1665 4.50008C7.1665 4.96031 7.5396 5.33341 7.99984 5.33341C8.46007 5.33341 8.83317 4.96031 8.83317 4.50008Z"
            fill="#003BFF" />
        <path
            d="M6.83317 6.66675C6.83317 6.29856 7.13165 6.00008 7.49984 6.00008H8.1665C8.53469 6.00008 8.83317 6.29856 8.83317 6.66675V10.6667H9.33317C9.70136 10.6667 9.99984 10.9652 9.99984 11.3334C9.99984 11.7016 9.70136 12.0001 9.33317 12.0001H6.99984C6.63165 12.0001 6.33317 11.7016 6.33317 11.3334C6.33317 10.9652 6.63165 10.6667 6.99984 10.6667H7.49984V7.33341C7.13165 7.33341 6.83317 7.03494 6.83317 6.66675Z"
            fill="#003BFF" />
        <path fill-rule="evenodd" clip-rule="evenodd"
            d="M7.99984 0.666748C5.97499 0.666748 4.14075 1.48829 2.81439 2.81463C1.48806 4.14098 0.666504 5.97524 0.666504 8.00008C0.666504 10.0249 1.48805 11.8592 2.81438 13.1855C4.14074 14.5119 5.97499 15.3334 7.99984 15.3334C10.0247 15.3334 11.8589 14.5119 13.1853 13.1855C14.5116 11.8592 15.3332 10.0249 15.3332 8.00008C15.3332 5.97523 14.5116 4.14099 13.1853 2.81463C11.8589 1.4883 10.0247 0.666748 7.99984 0.666748ZM3.75719 3.75744C4.84373 2.67092 6.34282 2.00008 7.99984 2.00008C9.65686 2.00008 11.1559 2.67092 12.2425 3.75744C13.329 4.84397 13.9998 6.34306 13.9998 8.00008C13.9998 9.6571 13.329 11.1562 12.2425 12.2427C11.1559 13.3292 9.65686 14.0001 7.99984 14.0001C6.34282 14.0001 4.84373 13.3292 3.7572 12.2427C2.67068 11.1562 1.99984 9.6571 1.99984 8.00008C1.99984 6.34306 2.67067 4.84398 3.75719 3.75744Z"
            fill="#003BFF" />
    </g>
    <defs>
        <clipPath id="clip0_67_14536">
            <rect width="16" height="16" fill="white" />
        </clipPath>
    </defs>
</svg>