<svg width="24" height="24" viewBox="0 0 24 24" fill="none" xmlns="http://www.w3.org/2000/svg">
<g clip-path="url(#clip0_6361_77451)">
<path d="M6.89307 15.0665L10.4697 13.1222L12.6541 14.9945C12.7741 15.1025 12.9302 15.1505 13.0862 15.1505C13.2542 15.1505 13.4223 15.0905 13.5543 14.9585L17.8871 10.6257C18.1151 10.3977 18.1391 10.0256 17.9471 9.76157C17.755 9.49752 17.383 9.42551 17.0949 9.58154L13.5183 11.5259L11.3339 9.65355C11.0698 9.42551 10.6738 9.44951 10.4337 9.68956L6.10092 14.0223C5.9809 14.1424 5.90889 14.3104 5.90889 14.4904C5.90889 14.6705 5.9809 14.8385 6.10092 14.9585C6.30496 15.1626 6.62902 15.2106 6.88107 15.0665H6.89307Z" fill="#777777"/>
<path d="M19.7834 4.21657C16.0267 0.47189 10.1457 -0.068208 5.77688 2.93234C0.807972 6.32896 -0.488264 13.1102 2.84834 18.1031C2.65631 18.6792 1.99619 20.0474 1.28806 21.2957C1.10803 21.6077 1.10803 21.9918 1.28806 22.3039C1.42008 22.5439 1.63612 22.7239 1.91217 22.808C2.17622 22.88 2.46427 22.856 2.71632 22.7119C2.81234 22.6639 3.50846 22.2799 4.2886 21.9078C5.26078 21.4397 5.75287 21.2717 5.99291 21.1997C7.78124 22.3759 9.85762 23 11.994 23H12.018C14.9585 23 17.719 21.8598 19.7954 19.7834C21.8718 17.707 23.024 14.9465 23.024 12.006C23.024 9.06545 21.8838 6.30495 19.7954 4.22857L19.7834 4.21657ZM4.74469 18.9673C4.97273 18.3551 5.12876 17.719 4.74469 17.1909C3.65249 15.6667 3.07638 13.8663 3.07638 11.994C3.07638 7.08509 7.08511 3.07636 11.994 3.07636C16.9029 3.07636 20.9116 7.07309 20.9116 11.994C20.9116 16.9149 16.9149 20.9116 11.994 20.9116H11.982C10.1457 20.9116 8.38135 20.3595 6.88108 19.3033C6.66504 19.1593 6.41299 19.0873 6.14894 19.0873C5.78888 19.0873 5.40481 19.1953 5.10475 19.2913C4.92472 19.3513 4.73269 19.4233 4.51665 19.5194C4.60066 19.3153 4.67267 19.1353 4.73268 18.9673H4.74469Z" fill="#777777"/>
</g>
<defs>
<clipPath id="clip0_6361_77451">
<rect width="22" height="22" fill="white" transform="translate(1 1)"/>
</clipPath>
</defs>
</svg>
