<svg width="24" height="24" viewBox="0 0 24 24" fill="none" xmlns="http://www.w3.org/2000/svg">
<path d="M20.96 12.5L20.92 17.66C20.92 17.74 20.92 17.8 20.9 17.86C20.6 19.24 19.34 20.26 17.88 20.26L7.8 19.9H3C2.44 19.9 2 19.46 2 18.9V9.90001C2 9.34001 2.44 8.90001 3 8.90001H7.84H10.18L13.28 5.34001C13.48 5.12001 13.74 5.00001 14.04 5.00001C14.08 5.00001 14.12 5.00001 14.16 5.00001L15.9 5.24001C16.08 5.26001 16.24 5.34001 16.4 5.44001C17.44 6.26001 17.72 7.60001 17.08 8.70001L16.96 8.90001H17.96C18.88 8.90001 19.76 9.32001 20.34 10.04C20.88 10.74 21.12 11.64 20.96 12.5ZM4 17.9H6.84V10.9H4V17.9ZM18.78 11.3C18.58 11.06 18.28 10.9 17.96 10.9H15.2C14.84 10.9 14.5 10.7 14.34 10.4C14.16 10.08 14.16 9.70001 14.34 9.40001L15.36 7.68001C15.48 7.48001 15.42 7.30001 15.34 7.18001L14.42 7.06001L11.38 10.58C11.18 10.8 10.9 10.92 10.62 10.92H8.84V17.94L17.92 18.28C18.38 18.28 18.78 17.98 18.92 17.54L18.96 12.4C18.96 12.32 18.96 12.26 18.98 12.2C19.04 11.88 18.98 11.56 18.78 11.3Z" fill="#777777"/>
</svg>
