<svg viewBox="0 0 19 18" fill="none" xmlns="http://www.w3.org/2000/svg">
    <path
        d="M15.1789 3.34486C15.11 3.27592 15.0251 3.22288 14.9349 3.18576C14.8448 3.14864 14.7493 3.12742 14.6433 3.12742L10.5226 3.12212C10.1089 3.12212 9.77483 3.45623 9.77483 3.86989C9.77483 4.28354 10.1089 4.61765 10.5226 4.61765H12.8348L3.50633 13.9462C3.21465 14.2378 3.21465 14.7151 3.50633 15.0068C3.79801 15.2985 4.27531 15.2985 4.56699 15.0068L13.8955 5.67831L13.8955 7.99055C13.8955 8.40421 14.2296 8.73832 14.6433 8.73832C14.8554 8.73832 15.0357 8.65346 15.1736 8.51558C15.3115 8.37769 15.391 8.19208 15.3963 7.98525L15.3963 3.85928C15.3963 3.76382 15.3804 3.66306 15.338 3.5676C15.3009 3.47744 15.2478 3.4138 15.1789 3.34486Z"
        fill="#777777" />
</svg>