<svg width="156" height="46" viewBox="0 0 156 46" fill="none" xmlns="http://www.w3.org/2000/svg">
    <path
        d="M87.641 22.4981C87.077 22.4 86.5233 22.5619 86.077 22.9029C85.8635 21.0101 85.1385 19.4173 83.9045 18.1345C82.434 16.5553 80.5526 15.7652 78.2603 15.7652C75.2452 15.7652 72.6549 16.8381 70.4881 18.9851C68.3487 21.1059 67.2802 23.6702 67.2802 26.6792C67.2802 29.1455 68.0542 31.1796 69.6011 32.7816C71.1697 34.3608 73.1652 35.1498 75.59 35.1498C78.5046 35.1498 80.991 34.078 83.0551 31.9333C83.8588 31.0952 84.5027 30.1865 84.9936 29.2105C85.086 29.3473 85.1899 29.4716 85.3064 29.581C84.2001 32.5045 82.3404 34.208 80.5115 35.2547C79.3482 35.9126 78.2009 36.2843 77.2751 36.4975C76.7157 36.1862 75.8275 35.9833 74.8217 35.9833C73.1275 35.9833 71.7553 36.5545 71.7553 37.2591C71.7553 37.9638 73.1264 38.5362 74.8217 38.5362C76.3732 38.5362 77.6449 38.0573 77.8539 37.437C78.7957 37.1942 79.9008 36.8019 81.0299 36.1657C83.0117 35.0563 85.0335 33.1601 86.2425 30.0736C86.263 30.0781 86.2813 30.0838 86.3019 30.0873C87.4606 30.2914 88.5897 29.3929 88.8203 28.0805L89.3192 25.2471C89.5509 23.9336 88.7974 22.7022 87.641 22.4981ZM79.0731 30.8204C78.1153 31.9583 77.0365 32.5239 75.8229 32.5239C73.373 32.5239 72.1503 30.6882 72.1503 27.0121C72.1503 24.6964 72.7086 22.6851 73.8137 20.9793C74.9199 19.2542 76.2236 18.3945 77.718 18.3945C80.0869 18.3945 81.2753 20.1196 81.2753 23.5722C81.2753 26.6553 80.5401 29.0725 79.0731 30.8204Z"
        fill="#0000FF" />
    <path
        d="M51.3923 16.2109H49.7746C48.9641 16.2109 48.1741 16.8586 48.0165 17.6533L47.6067 19.7239L47.1968 21.7968C47.0416 22.5892 46.7173 23.8697 46.481 24.6439C46.481 24.6439 45.6248 27.4351 44.417 29.126C44.3359 29.24 44.2526 29.3483 44.1681 29.4532C42.853 31.0552 41.4602 31.8602 39.9932 31.8602C38.5993 31.8602 37.9029 31.1795 37.9029 29.8227C37.9029 29.5901 37.9326 29.2674 37.9896 28.8581C37.9942 28.833 37.9999 28.7999 38.0045 28.7748C38.1415 27.9938 38.3709 26.7441 38.5239 25.954L39.3345 21.7797L40.137 17.6533C40.2912 16.8597 39.7557 16.2109 38.9463 16.2109H37.364C36.5558 16.2109 35.7658 16.8597 35.6116 17.6533L34.7155 22.2403L33.5385 28.2686C33.3832 29.053 33.2805 29.7223 33.2177 30.3016C33.2085 30.3951 33.1971 30.4885 33.1903 30.5763C33.1834 30.6505 33.1777 30.7223 33.1709 30.7975C33.1583 30.9914 33.1492 31.1749 33.1492 31.3414C33.1492 32.525 33.5373 33.4599 34.3102 34.152C35.0797 34.8145 36.1528 35.1508 37.5193 35.1508C40.1519 35.1508 42.6281 33.8043 44.9421 31.1179C45.215 31.0746 45.3474 31.3334 45.2458 31.8614L45.1134 32.5637L44.9798 33.2638V33.2649C44.8302 34.0585 45.3691 34.7073 46.1774 34.7073H47.7939C48.6022 34.7073 49.391 34.0585 49.5451 33.2649H49.5463L51.0635 25.4603L52.5807 17.6556C52.7371 16.8597 52.2006 16.2109 51.3923 16.2109Z"
        fill="#0000FF" />
    <path
        d="M65.8874 16.2109H64.191C63.3839 16.2109 62.8496 15.5655 62.998 14.7742L63.2606 13.4174L63.522 12.0697C63.6761 11.2749 63.1578 10.7767 62.3701 10.9625L61.4442 11.1803L60.5161 11.3981C59.7295 11.5839 58.9635 12.3844 58.8105 13.1757L58.6598 13.9727L58.508 14.7674C58.508 14.7674 58.508 14.7674 58.508 14.7685C58.3561 15.5621 57.686 16.2097 57.017 16.2097C56.3469 16.2097 55.6939 16.7662 55.566 17.4503C55.4382 18.1298 55.8651 18.6885 56.5136 18.6885C57.162 18.6885 57.5673 19.3362 57.4189 20.1298L56.8058 23.3474L56.1928 26.5639C56.1848 26.6016 56.1779 26.6449 56.1699 26.6859L55.9188 28.0086C55.5592 29.8831 55.3674 31.0278 55.3411 31.4611C55.3388 31.4964 55.3365 31.5364 55.3365 31.5614C55.3365 33.9559 56.8309 35.1485 59.8231 35.1485C60.088 35.1485 60.3528 35.1246 60.6177 35.1052C61.9922 34.9718 63.2914 34.559 63.2914 34.559C64.062 34.3139 64.6316 33.5716 64.5586 32.9103C64.4855 32.2558 63.7983 31.8898 63.0265 32.0871C63.0185 32.0905 63.0117 32.0905 63.0037 32.0905C63.0037 32.0905 62.99 32.0951 62.9694 32.0996C62.5425 32.184 62.1635 32.2273 61.8335 32.2273C60.6474 32.2273 60.0549 31.6344 60.0549 30.4509C60.0549 30.0096 60.2204 29.0849 60.2204 29.0849C60.362 28.2936 60.6051 27.0052 60.7638 26.2116L61.3689 23.1627L61.9717 20.1286C62.1315 19.335 62.9204 18.6885 63.7275 18.6885H65.4262C66.2345 18.6885 67.0005 18.1321 67.1284 17.4503C67.1284 17.448 67.1284 17.448 67.1284 17.448C67.254 16.7684 66.6946 16.2109 65.8874 16.2109Z"
        fill="#0000FF" />
    <path
        d="M103.361 15.8904C99.6853 15.8904 97.8347 19.7261 97.8347 19.7261L98.184 17.9679L98.2457 17.6532C98.4044 16.8585 97.8712 16.2108 97.0618 16.2108H95.4019C94.5936 16.2108 93.8059 16.8596 93.6529 17.6532L92.1529 25.4579L90.6505 33.2626C90.4975 34.0562 91.0364 34.7049 91.8446 34.7049H93.4646C94.274 34.7049 95.0617 34.0562 95.2158 33.2626L95.6896 30.8214L96.1645 28.3802C96.3186 27.5866 96.6154 26.2982 96.8221 25.5183C96.8221 25.5183 97.3781 23.4295 98.0391 22.287C98.0859 22.2049 98.135 22.1262 98.1829 22.0555C99.0871 20.7728 100.28 20.1001 102.027 20.2734C103.587 20.4285 104.163 19.7808 104.623 19.0773L105.054 18.3909C105.478 17.7022 105.758 15.8904 103.361 15.8904Z"
        fill="#0000FF" />
    <path
        d="M30.553 16.211H28.8566C28.0495 16.211 27.514 15.5656 27.6636 14.7743L27.9273 13.4175L28.1876 12.0698C28.3417 11.2751 27.8234 10.7768 27.0357 10.9626L26.1098 11.1804L25.1828 11.3982C24.3951 11.584 23.6291 12.3845 23.4773 13.1758L23.3254 13.9728L23.1736 14.7686C23.1736 14.7686 23.1736 14.7686 23.1736 14.7698C23.0218 15.5634 22.3516 16.211 21.6826 16.211C21.0125 16.211 20.3595 16.7674 20.2316 17.4515C20.1038 18.1311 20.5307 18.6898 21.1792 18.6898C21.8276 18.6898 22.2329 19.3374 22.0833 20.131L21.4703 23.3487L20.8572 26.5652C20.8504 26.6028 20.8424 26.6461 20.8344 26.6872C20.6826 27.4865 20.4565 28.6985 20.3195 29.4545C20.3195 29.4545 20.0455 30.9664 20.0056 31.4612C20.0022 31.4966 19.9999 31.5365 19.9999 31.5615C19.9999 33.956 21.4954 35.1486 24.4865 35.1486C24.7513 35.1486 25.0162 35.1247 25.281 35.1053C26.6555 34.9719 27.9547 34.5591 27.9547 34.5591C28.7253 34.314 29.295 33.5717 29.2219 32.9104C29.1477 32.2559 28.4616 31.8899 27.6898 32.0872C27.6727 32.0906 27.6522 32.0963 27.6339 32.0997C27.5152 32.1282 27.0665 32.2274 26.4969 32.2274C25.3107 32.2274 24.7193 31.6345 24.7193 30.451C24.7193 30.0097 24.8586 29.0713 25.1429 27.6392L25.426 26.2129L26.0311 23.1639L26.6327 20.1299C26.7925 19.3363 27.5825 18.6898 28.3908 18.6898H30.0895C30.8978 18.6898 31.6638 18.1334 31.7928 17.4515V17.4493C31.9184 16.7686 31.3613 16.211 30.553 16.211Z"
        fill="#0000FF" />
    <path
        d="M125.679 5.63564H107.915C106.972 5.63564 106.062 6.35054 105.892 7.22508C105.723 8.09961 106.356 8.81452 107.3 8.81452H110.298C111.241 8.81452 111.869 9.57162 111.693 10.4975L106.884 35.8328C106.267 39.0242 105.806 40.9694 105.496 41.6695C105.188 42.3695 104.789 42.8838 104.303 43.2167C103.818 43.5474 103.251 43.7127 102.603 43.7127C101.683 43.7127 100.979 43.5029 100.487 43.081C100.15 42.796 100.019 42.4551 100.094 42.0651C100.143 41.8086 100.435 41.3764 100.966 40.7664C101.499 40.1564 101.81 39.7767 101.9 39.6262C102.066 39.3092 102.19 38.9398 102.272 38.5202C102.437 37.6617 102.263 36.9388 101.753 36.3516C101.24 35.7644 100.524 35.4713 99.6065 35.4713C98.6692 35.4713 97.8164 35.7974 97.0424 36.453C96.2684 37.1087 95.7775 37.9627 95.5743 39.0151C95.258 40.6558 95.7638 42.154 97.0915 43.5086C98.4203 44.8666 100.373 45.5427 102.95 45.5427C105.061 45.5427 106.952 45.0946 108.624 44.1996C110.298 43.3034 111.556 42.1905 112.402 40.8576C113.248 39.5259 113.954 37.3926 114.521 34.4565L119.119 10.4975C119.296 9.57162 120.214 8.81566 121.157 8.81566H125.043C125.986 8.81566 126.902 8.09961 127.076 7.22622C127.251 6.35054 126.623 5.63564 125.679 5.63564Z"
        fill="#FF091A" />
    <path
        d="M133.002 15.7686C130.284 16.2145 128.41 18.8426 127.984 20.3397L128.435 18.0171C128.626 17.0251 127.957 16.2145 126.946 16.2145H124.299C123.287 16.2145 122.303 17.0263 122.112 18.0183L119.249 32.9048C119.059 33.8967 119.73 34.7085 120.741 34.7085H123.356C124.367 34.7085 125.352 33.8979 125.544 32.9059L125.988 30.6209V30.6221C125.988 30.6221 127.152 24.9313 128.717 22.7296C129.615 21.464 131.141 19.9361 133.061 20.1664C134.331 20.3181 134.912 20.936 135.642 20.0182C135.724 19.9144 136.458 19.0365 136.762 18.5542C137.669 17.1152 135.891 15.2955 133.002 15.7686Z"
        fill="#FF091A" />
</svg>