<svg width="140" height="40" viewBox="0 0 140 40" fill="none" xmlns="http://www.w3.org/2000/svg">
    <path fill-rule="evenodd" clip-rule="evenodd"
        d="M128.399 10.4182C129.666 10.4182 130.998 10.7114 132.395 11.2968L134.065 9.00663C132.317 7.8765 130.343 7.3125 128.137 7.3125C124.469 7.3125 121.371 8.51407 118.837 10.9193C116.304 13.3246 115.038 16.2736 115.038 19.7685C115.038 23.0523 116.165 25.6452 118.41 27.5493C120.354 29.1998 122.776 30.0271 125.682 30.0271C127.624 30.0271 129.512 29.6593 131.346 28.929L130.463 26.2305C129.109 26.6889 127.821 26.9214 126.598 26.9214C124.46 26.9214 122.733 26.2401 121.424 24.8807C120.136 23.5203 119.492 21.7121 119.492 19.4518C119.492 16.8397 120.312 14.6829 121.947 12.9898C123.607 11.2754 125.759 10.4182 128.399 10.4182ZM113.742 12.3629C113.742 10.7711 113.108 9.53965 111.843 8.66007C111.167 8.17923 110.304 7.87644 109.257 7.75063C108.799 7.70905 107.859 7.68666 106.442 7.68666H101.039L96.7808 29.6496H102.476C105.47 29.6496 107.686 29.3148 109.126 28.6474C110.325 28.0834 111.275 27.2987 111.974 26.2933C112.674 25.2879 113.023 24.1909 113.023 22.9989C113.023 21.6385 112.596 20.4998 111.747 19.5797C110.96 18.7214 109.803 18.1873 108.275 17.9783C111.919 17.0582 113.742 15.1871 113.742 12.3629ZM108.733 22.8411C108.733 24.2207 108.234 25.3093 107.226 26.1036C106.355 26.7944 104.903 27.1409 102.87 27.1409H101.397L102.87 19.4518H104.443C105.795 19.4518 106.733 19.6202 107.259 19.955C108.243 20.583 108.733 21.5436 108.733 22.8411ZM108.341 15.8449C107.445 16.5358 106.171 16.8802 104.509 16.8802H103.394L104.638 10.2614H105.948C107.039 10.2614 107.805 10.3339 108.243 10.48C109.201 10.8158 109.684 11.6315 109.684 12.929C109.682 14.1828 109.234 15.1541 108.341 15.8449ZM75.5749 29.6497L88.2793 7.68783H91.2912L94.6987 29.6497H90.4734L89.7549 23.6259H82.7118L79.3736 29.6497H75.5749ZM88.6396 12.2052C87.4829 14.6115 85.9657 17.5189 84.0893 20.9274H89.4595C89 17.4773 88.7281 14.5699 88.6396 12.2052ZM46.0678 16.0657H42.14L40.6314 23.6568C40.3926 24.8712 40.2732 25.6655 40.2732 26.0429C40.2732 27.0461 40.7743 27.5494 41.7786 27.5494C42.3458 27.5494 43.0772 27.4022 43.9717 27.1091L44.2009 29.1465C42.8266 29.7318 41.4523 30.0271 40.077 30.0271C37.5427 30.0271 36.2751 29.0132 36.2751 26.9822C36.2751 26.689 36.4392 25.6868 36.7698 23.9692L38.2762 16.0657H36.2761L36.6695 13.9633H38.7336L39.4544 10.1677L43.4471 9.2263L42.5313 13.9633H46.4612L46.0678 16.0657ZM26.8139 25.1942C27.9494 23.8135 28.7245 22.0575 29.1392 19.922L30.3184 13.9621H34.1833L31.1362 29.6486H27.2724L27.9601 26.0087C25.864 28.6858 23.6058 30.026 21.1825 30.026C20.0257 30.026 19.1194 29.7424 18.4637 29.1784C17.8102 28.5931 17.4818 27.7988 17.4818 26.7945C17.4818 26.1665 17.5927 25.2986 17.8102 24.1909L19.8082 13.9632H23.6378L21.8062 23.4062C21.61 24.4095 21.5119 25.111 21.5119 25.5087C21.5119 26.6591 22.0994 27.2348 23.2796 27.2348C24.5227 27.2348 25.703 26.5535 26.8139 25.1942ZM78.9568 14.7788C78.1283 13.9824 77.2893 13.5858 76.4374 13.5858C75.4768 13.5858 74.5045 14.1925 73.5236 15.4068L72.2772 16.9432L72.8679 13.9632H68.9711L65.9581 29.6497H69.8208L71.0991 23.0608C71.4691 21.2014 71.9617 19.8197 72.5726 18.9198C73.3381 17.8313 74.3104 17.2875 75.4864 17.2875C75.9662 17.2875 76.4907 17.3931 77.0601 17.6031L78.9568 14.7788ZM62.3128 19.5979C62.7084 19.2567 63.2159 19.0883 63.7308 19.1789C64.7128 19.3516 65.3514 20.3954 65.1531 21.5074L64.7298 23.9105C64.5326 25.0257 63.5762 25.788 62.5932 25.6143C62.5133 25.5993 62.4365 25.578 62.3608 25.5524C60.8074 29.6422 57.5737 31.202 55.3774 31.7969C55.3774 31.7986 55.3776 31.8002 55.3778 31.8019C55.378 31.8034 55.3783 31.805 55.3785 31.8065L55.3793 31.8119L55.3796 31.8161C55.3796 32.4132 54.2164 32.8951 52.7824 32.8951C51.3473 32.8951 50.1831 32.4132 50.1831 31.8161C50.1831 31.217 51.3463 30.734 52.7824 30.734C53.7633 30.734 54.6162 30.9589 55.0587 31.2937C57.1409 30.7926 60.349 29.3608 61.8427 25.2635C61.6987 25.1452 61.5729 25.0034 61.4695 24.8434C61.0462 25.7273 60.4769 26.5461 59.7551 27.2977C58.0077 29.1145 55.902 30.026 53.4338 30.026C51.3825 30.026 49.6916 29.3565 48.3589 28.0163C47.0496 26.658 46.394 24.9319 46.394 22.8412C46.394 20.2898 47.3002 18.1138 49.1127 16.3152C50.9443 14.4963 53.1385 13.5858 55.6941 13.5858C57.6388 13.5858 59.2306 14.2575 60.4748 15.5945C61.5143 16.6766 62.1263 18.0104 62.3128 19.5979ZM53.6321 27.7988C54.6578 27.7988 55.5757 27.3169 56.3839 26.3563C57.6281 24.8711 58.2508 22.8198 58.2508 20.2056C58.2508 17.2779 57.2464 15.8141 55.2367 15.8141C53.9712 15.8141 52.8656 16.5455 51.9295 18.0115C50.9923 19.4518 50.5221 21.1566 50.5221 23.1237C50.5221 26.239 51.5574 27.7988 53.6321 27.7988ZM24.6027 7.68783L24.3319 9.05678L24.0675 10.3852H16.5713L12.8376 29.6497H8.71045L12.4111 10.3852H6.125L6.64955 7.68783H24.6027Z"
        fill="#0037CC" />
</svg>