<svg width="240" height="74" viewBox="0 0 240 74" fill="none" xmlns="http://www.w3.org/2000/svg">
    <path
        d="M24.0282 12.6211C23.6088 14.7572 22.8383 16.5128 21.6971 17.8979C20.5852 19.2536 19.405 19.9364 18.1565 19.9364C16.908 19.9364 16.3911 19.3609 16.3911 18.21C16.3911 17.8101 16.4886 17.1078 16.6837 16.1032L18.5174 6.65184H14.6842L12.6847 16.8835C12.4701 17.9954 12.353 18.8635 12.353 19.4877C12.353 20.4924 12.6847 21.2922 13.3382 21.8774C13.9916 22.4431 14.8987 22.7259 16.0594 22.7259C18.4881 22.7259 20.7412 21.3897 22.8383 18.7074L22.1457 22.3456H26.0082L29.0611 6.64209H25.1987L24.0185 12.6016L24.0282 12.6211Z"
        fill="#333333" />
    <path
        d="M37.0402 8.7597H40.9709L41.3611 6.6529H37.4303L38.3472 1.9126L34.3482 2.85871L33.6264 6.6529H31.5586L31.1685 8.7597H33.168L31.6659 16.67C31.3343 18.3866 31.1685 19.3912 31.1685 19.6838C31.1685 21.7126 32.4364 22.727 34.9724 22.727C36.3477 22.727 37.7229 22.4344 39.0982 21.8492L38.8641 19.8106C37.9668 20.1033 37.2353 20.2496 36.6695 20.2496C35.6649 20.2496 35.1675 19.7424 35.1675 18.7377C35.1675 18.3573 35.2845 17.5673 35.5284 16.3481L37.0402 8.74995V8.7597Z"
        fill="#333333" />
    <path
        d="M73.8801 7.47218C73.051 6.67237 72.2122 6.28223 71.3637 6.28223C70.398 6.28223 69.4324 6.88696 68.4473 8.10617L67.1988 9.64725L67.7938 6.66262H63.8923L60.8784 22.3661H64.7409L66.0186 15.7726C66.3893 13.9096 66.8769 12.5246 67.4914 11.6273C68.262 10.5348 69.2276 9.99839 70.4078 9.99839C70.8857 9.99839 71.4124 10.1057 71.9781 10.3105L73.8801 7.48193V7.47218Z"
        fill="#333333" />
    <path
        d="M83.2037 0.370117L70.4946 22.3452H74.2986L77.6343 16.3174H84.6765L85.3983 22.3452H89.6216L86.2176 0.370117H83.2037ZM79.0096 13.6254C80.8823 10.2116 82.4039 7.305 83.5646 4.89584C83.6524 7.26599 83.9255 10.1726 84.3839 13.6254H79.0096Z"
        fill="#333333" />
    <path
        d="M108.68 5.05189C108.68 3.46204 108.046 2.22332 106.778 1.34549C106.105 0.867556 105.237 0.565191 104.194 0.438393C103.735 0.399378 102.799 0.370117 101.375 0.370117H95.9714L91.709 22.3452H97.4051C100.4 22.3452 102.614 22.0136 104.057 21.3406C105.257 20.7749 106.213 19.9946 106.905 18.9899C107.608 17.9853 107.959 16.8831 107.959 15.6932C107.959 14.3277 107.529 13.1962 106.681 12.2696C105.891 11.4113 104.74 10.8749 103.209 10.67C106.856 9.75318 108.68 7.88047 108.68 5.05189ZM103.667 15.5371C103.667 16.9222 103.17 18.0048 102.155 18.8046C101.287 19.4971 99.8338 19.8385 97.7953 19.8385H96.3225L97.7953 12.1428H99.3656C100.721 12.1428 101.658 12.3087 102.184 12.65C103.17 13.2743 103.657 14.2399 103.657 15.5371H103.667ZM103.277 8.53397C102.38 9.22648 101.102 9.56786 99.4437 9.56786H98.3318L99.5802 2.94509H100.887C101.98 2.94509 102.75 3.01337 103.179 3.15968C104.135 3.50106 104.623 4.31061 104.623 5.60786C104.623 6.9051 104.174 7.8317 103.277 8.52421V8.53397Z"
        fill="#333333" />
    <path
        d="M58.6448 11.8809C58.1279 11.7931 57.6207 11.9589 57.2305 12.3003C57.0452 10.7104 56.4307 9.37415 55.3871 8.29149C54.1386 6.95523 52.5488 6.28223 50.6078 6.28223C48.0523 6.28223 45.8577 7.18932 44.024 9.01326C42.2098 10.8177 41.3027 12.9928 41.3027 15.5482C41.3027 17.6453 41.9562 19.3717 43.273 20.7275C44.6092 22.0637 46.2966 22.7367 48.3547 22.7367C50.8223 22.7367 52.9291 21.8296 54.6751 20.0057C55.3968 19.2547 55.9626 18.4353 56.3917 17.5478C56.499 17.7038 56.616 17.8501 56.7624 17.9672C55.27 22.0637 52.0611 23.4975 49.9738 24.0047C49.5349 23.6731 48.6765 23.4487 47.7012 23.4487C46.2674 23.4487 45.0969 23.9364 45.0969 24.5314C45.0969 25.1264 46.2576 25.6141 47.7012 25.6141C49.1447 25.6141 50.2957 25.1361 50.2957 24.5314C50.2957 24.5314 50.2957 24.5217 50.2957 24.5119C52.4902 23.9169 55.7285 22.3563 57.2793 18.2598C57.3573 18.289 57.4354 18.3085 57.5134 18.3183C58.4985 18.4939 59.4544 17.7331 59.6495 16.6114L60.0689 14.2022C60.2639 13.0903 59.6299 12.0467 58.6448 11.8711V11.8809ZM51.2905 19.0596C50.481 20.0252 49.5641 20.5031 48.54 20.5031C46.4624 20.5031 45.4286 18.9425 45.4286 15.8214C45.4286 13.8511 45.8967 12.1442 46.8331 10.7007C47.7694 9.2376 48.8716 8.50607 50.1396 8.50607C52.1489 8.50607 53.1535 9.96913 53.1535 12.905C53.1535 15.519 52.5293 17.577 51.2905 19.0596Z"
        fill="#333333" />
    <path
        d="M123.35 3.11143C124.618 3.11143 125.955 3.40404 127.349 3.98927L129.017 1.69714C127.271 0.565715 125.291 0 123.087 0C119.42 0 116.318 1.19971 113.782 3.60887C111.246 6.01804 109.978 8.96365 109.978 12.4652C109.978 15.7522 111.109 18.3467 113.353 20.2487C115.294 21.8971 117.722 22.7261 120.629 22.7261C122.57 22.7261 124.462 22.3555 126.296 21.624L125.408 18.9222C124.053 19.3806 122.765 19.6147 121.546 19.6147C119.41 19.6147 117.683 18.9319 116.367 17.5762C115.079 16.2107 114.435 14.4062 114.435 12.1434C114.435 9.52937 115.255 7.3738 116.893 5.67666C118.552 3.96 120.707 3.10168 123.35 3.10168V3.11143Z"
        fill="#333333" />
    <path
        d="M19.2199 1.74539L19.493 0.370117H1.5267L1 3.07189H7.29114L3.58473 22.355H7.7203L11.456 3.07189H18.9566L19.2199 1.74539Z"
        fill="#333333" />
    <path
        d="M33.2838 59.4392C33.04 60.1024 32.6791 60.9022 32.2109 61.8386C31.8598 62.9407 31.3331 63.9454 30.6113 64.8622C31.4697 65.467 32.4158 66.0132 33.4399 66.4911C34.8249 67.1738 36.21 67.7396 37.5755 68.2077V56.4058C37.3999 56.5521 37.1756 56.6594 36.8732 56.6984C35.2443 56.5521 34.1129 56.474 33.4692 56.474C33.157 56.474 32.8742 56.474 32.6303 56.5033C33.596 56.9422 34.0739 57.3616 34.0739 57.7713C34.0739 58.5223 33.8105 59.088 33.2838 59.4489V59.4392Z"
        fill="#EE325F" />
    <path
        d="M34.0456 71.2408C32.9824 71.2408 31.8315 70.5581 30.583 69.173C29.9685 68.5098 29.3053 67.7588 28.5932 66.9199C26.1841 68.8512 22.9263 70.0216 18.8395 70.441C18.6445 70.441 18.5469 70.3435 18.5469 70.1387C22.146 68.1977 24.7113 66.1982 26.2231 64.1401C26.1353 64.0523 26.067 63.9646 26.0085 63.8963C25.2965 62.8819 24.3601 62.0431 23.1994 61.3603C22.185 60.9897 21.6779 60.6288 21.6779 60.2582C21.8047 59.6924 22.2728 59.4096 23.0921 59.4096C24.5259 59.6339 25.9402 60.4825 27.335 61.965C27.4228 62.0723 27.5106 62.1796 27.5984 62.2674C28.8761 60.4922 29.5979 58.8439 29.7734 57.3418C29.7734 57.137 29.7149 56.9419 29.5881 56.7371C29.5393 56.6785 29.4906 56.6395 29.4613 56.6005C28.1348 56.6688 27.1107 56.7858 26.3986 56.9321C24.5259 57.3028 22.9166 57.7905 21.5511 58.4147C21.0048 58.4147 20.4781 58.1318 19.9515 57.5564C19.1126 56.4347 18.5957 55.6739 18.4006 55.274C18.4006 55.1277 18.4786 55.0107 18.6347 54.9131C19.0736 54.9521 19.454 54.9716 19.7856 54.9716C24.4869 54.1621 29.2077 53.333 33.9383 52.4649C35.7622 52.7868 36.9619 53.4111 37.5471 54.3279V36.5664H1V44.8375C1.59498 44.8766 2.15094 44.9546 2.65813 45.1009C2.93123 45.1692 3.16532 45.2472 3.3604 45.3155C4.6869 45.1204 6.03291 44.9058 7.39843 44.6912C7.41794 43.5696 7.42769 42.4089 7.4472 41.2092C7.33015 40.4874 6.97902 40.0387 6.41331 39.8729C6.41331 39.4535 6.7937 39.1024 7.55449 38.8098C8.55912 38.8488 9.47597 39.0341 10.3245 39.3852C11.0463 39.7656 11.4072 40.185 11.4072 40.6337C11.2024 41.0531 11.0756 41.492 11.0463 41.9602V44.106C12.3533 43.8719 13.6896 43.6476 15.0356 43.4233C16.0207 43.4233 17.1424 43.8622 18.4006 44.7498C19.337 45.4228 19.7954 46.0275 19.7954 46.5737C19.7954 47.0321 19.3857 47.6466 18.5762 48.4269C17.8544 49.5193 17.4057 50.4264 17.2302 51.1482C17.2107 51.2067 17.1912 51.236 17.1814 51.2555C17.2984 51.4701 17.3862 51.7139 17.4447 51.9675C17.4447 52.543 17.3472 52.8356 17.1619 52.8356C16.8693 52.9819 16.3036 53.0502 15.455 53.0502C14.5576 53.177 13.6896 53.2452 12.841 53.2452C12.168 53.3135 11.5242 53.3915 10.9195 53.4598C10.8805 54.9814 10.8512 56.503 10.822 58.0246C10.7342 61.7797 10.0709 63.828 8.83222 64.1694C7.79833 63.6037 7.28139 61.7797 7.28139 58.6781C7.28139 57.176 7.28139 55.5861 7.31065 53.9182C6.45232 54.0646 5.76956 54.2011 5.29163 54.3279C5.0868 54.3279 4.86247 54.2596 4.61862 54.1133C4.4138 54.7863 3.96513 55.1179 3.27261 55.1179C2.44355 55.1179 1.87783 54.4645 1.56571 53.1575C1.38039 52.2991 1.19507 51.4993 1.01951 50.7483V73.1233H37.5959V70.8897C36.601 71.0457 35.4306 71.153 34.0651 71.2213L34.0456 71.2408ZM26.2328 47.8709C26.6718 48.0563 27.1985 48.2416 27.8324 48.4172C28.6908 48.6903 29.4321 48.8951 30.066 49.0219C30.4855 49.0804 30.7976 49.2072 31.0122 49.412C31.2365 49.8314 31.3535 50.2509 31.3535 50.6508C31.178 51.8797 30.4855 52.4942 29.2857 52.4942C28.5835 52.4942 27.9007 52.0748 27.2375 51.2262C26.6132 50.4167 26.1646 49.4218 25.9012 48.2221C25.9012 47.988 26.0183 47.8612 26.2426 47.8612L26.2328 47.8709Z"
        fill="#EE325F" />
    <path
        d="M14.0504 47.5306C14.0504 46.9161 13.6505 46.604 12.8605 46.604C12.2265 46.6625 11.612 46.7113 11.017 46.7698C10.9975 48.1256 10.978 49.4813 10.9683 50.8176C12.0412 50.6713 12.8897 50.5445 13.5042 50.4372C13.6603 49.6179 13.8359 48.6523 14.0504 47.5306Z"
        fill="#EE325F" />
    <path
        d="M4.56944 51.5293C5.41802 51.4708 6.33486 51.4025 7.31999 51.3147C7.3395 49.9687 7.359 48.5837 7.36876 47.1597C6.65674 47.2475 5.93496 47.3743 5.19368 47.5401C4.8523 47.6278 4.54018 47.7059 4.25732 47.7546C4.27683 47.8814 4.28659 47.9887 4.28659 48.0765C4.35486 48.8763 4.43289 49.8614 4.52067 51.0416C4.54018 51.227 4.55969 51.383 4.56944 51.5293Z"
        fill="#EE325F" />
    <path
        d="M78.3664 60.9711C78.0835 64.9116 76.6302 68.0035 74.0065 70.2663C71.3827 72.5292 67.9299 73.6606 63.6481 73.6606C58.9565 73.6606 55.2696 72.0805 52.5776 68.9301C49.8856 65.7699 48.5493 61.4392 48.5493 55.9284V53.6948C48.5493 50.1737 49.1736 47.0818 50.4123 44.3995C51.651 41.7172 53.4262 39.669 55.728 38.2352C58.0299 36.8014 60.7024 36.0894 63.7553 36.0894C67.9787 36.0894 71.373 37.2208 73.9577 39.4836C76.5327 41.7465 78.025 44.9165 78.4249 49.0033H70.8853C70.7 46.6429 70.0465 44.9262 68.915 43.8631C67.7836 42.7999 66.067 42.2635 63.7553 42.2635C61.2389 42.2635 59.3662 43.1608 58.1177 44.9652C56.8692 46.7697 56.2255 49.5592 56.1962 53.3437V56.104C56.1962 60.0542 56.7912 62.9413 57.9909 64.775C59.1906 66.5989 61.0731 67.5158 63.6578 67.5158C65.9889 67.5158 67.7251 66.9891 68.8663 65.9162C70.0172 64.853 70.6707 63.2047 70.8365 60.9808H78.3761L78.3664 60.9711Z"
        fill="#EE325F" />
    <path
        d="M91.2118 48.9351C93.1333 46.6235 95.562 45.4725 98.4686 45.4725C104.36 45.4725 107.354 48.8961 107.432 55.7432V73.1535H100.175V55.948C100.175 54.3874 99.8439 53.2365 99.1708 52.4952C98.4978 51.7539 97.3859 51.3735 95.8253 51.3735C93.699 51.3735 92.1579 52.1928 91.2021 53.8315V73.1535H83.9453V36.5771H91.2021V48.9351H91.2118Z"
        fill="#EE325F" />
    <path
        d="M114.153 38.9378C114.153 37.8454 114.514 36.9578 115.245 36.2458C115.977 35.5338 116.962 35.1924 118.22 35.1924C119.478 35.1924 120.444 35.5435 121.185 36.2458C121.927 36.948 122.287 37.8454 122.287 38.9378C122.287 40.0302 121.917 40.9471 121.166 41.6493C120.424 42.3516 119.439 42.7027 118.21 42.7027C116.981 42.7027 116.006 42.3516 115.255 41.6493C114.514 40.9471 114.133 40.04 114.133 38.9378H114.153ZM121.868 73.1538H114.582V45.9702H121.868V73.1538Z"
        fill="#EE325F" />
    <path
        d="M135.806 45.9701L136.03 49.1108C137.971 46.6821 140.575 45.4727 143.843 45.4727C146.72 45.4727 148.866 46.3212 150.27 48.0086C151.675 49.696 152.397 52.232 152.436 55.597V73.1537H145.179V55.7726C145.179 54.2315 144.847 53.1098 144.174 52.4173C143.501 51.7248 142.389 51.3736 140.829 51.3736C138.78 51.3736 137.249 52.2417 136.235 53.9876V73.1537H128.978V45.9701H135.815H135.806Z"
        fill="#EE325F" />
    <path
        d="M171.738 73.6609C167.749 73.6609 164.51 72.4417 162.004 69.9935C159.497 67.5453 158.249 64.2876 158.249 60.2203V59.518C158.249 56.787 158.775 54.3485 159.829 52.193C160.882 50.0374 162.374 48.3793 164.315 47.2186C166.247 46.0579 168.461 45.4727 170.938 45.4727C174.654 45.4727 177.58 46.6431 179.716 48.9937C181.852 51.3346 182.916 54.6606 182.916 58.962V61.9272H165.603C165.837 63.7023 166.549 65.1264 167.729 66.1993C168.909 67.2722 170.402 67.8086 172.216 67.8086C175.015 67.8086 177.2 66.7943 178.77 64.7655L182.34 68.7645C181.248 70.3056 179.775 71.5053 177.922 72.3734C176.059 73.2317 174.001 73.6706 171.738 73.6706V73.6609ZM170.909 51.3249C169.465 51.3249 168.305 51.8126 167.407 52.7879C166.51 53.7633 165.934 55.1581 165.691 56.9723H175.786V56.3871C175.756 54.7679 175.318 53.5195 174.479 52.6416C173.64 51.754 172.45 51.3151 170.909 51.3151V51.3249Z"
        fill="#EE325F" />
    <path
        d="M203.048 65.6433C203.048 64.7557 202.609 64.0535 201.731 63.5463C200.853 63.0391 199.439 62.5807 197.498 62.1808C191.031 60.825 187.803 58.0744 187.803 53.9389C187.803 51.5297 188.807 49.5107 190.807 47.9013C192.806 46.2822 195.42 45.4727 198.659 45.4727C202.111 45.4727 204.872 46.2822 206.939 47.9111C209.007 49.54 210.041 51.6468 210.041 54.2412H202.784C202.784 53.2073 202.453 52.349 201.78 51.6663C201.107 50.9835 200.063 50.6519 198.639 50.6519C197.42 50.6519 196.474 50.925 195.801 51.4809C195.128 52.0369 194.796 52.7392 194.796 53.5877C194.796 54.3875 195.176 55.041 195.937 55.5385C196.698 56.0359 197.986 56.4553 199.79 56.8162C201.594 57.1771 203.126 57.5868 204.364 58.0354C208.198 59.44 210.119 61.8784 210.119 65.341C210.119 67.8184 209.056 69.8277 206.93 71.359C204.803 72.8903 202.053 73.6609 198.688 73.6609C196.405 73.6609 194.386 73.2512 192.621 72.4417C190.856 71.6321 189.471 70.5202 188.466 69.0961C187.461 67.6818 186.954 66.1505 186.954 64.5119H193.84C193.909 65.7994 194.386 66.7943 195.274 67.477C196.162 68.1598 197.352 68.5109 198.844 68.5109C200.229 68.5109 201.282 68.2476 201.994 67.7209C202.706 67.1942 203.057 66.5016 203.057 65.6531L203.048 65.6433Z"
        fill="#EE325F" />
    <path
        d="M228.572 73.6609C224.583 73.6609 221.345 72.4417 218.838 69.9935C216.331 67.5453 215.083 64.2876 215.083 60.2203V59.518C215.083 56.787 215.61 54.3485 216.663 52.193C217.717 50.0374 219.209 48.3793 221.15 47.2186C223.081 46.0579 225.295 45.4727 227.773 45.4727C231.489 45.4727 234.415 46.6431 236.551 48.9937C238.687 51.3346 239.75 54.6606 239.75 58.962V61.9272H222.437C222.671 63.7023 223.383 65.1264 224.564 66.1993C225.744 67.2722 227.236 67.8086 229.05 67.8086C231.85 67.8086 234.034 66.7943 235.605 64.7655L239.175 68.7645C238.082 70.3056 236.609 71.5053 234.756 72.3734C232.893 73.2317 230.835 73.6706 228.572 73.6706V73.6609ZM227.743 51.3249C226.3 51.3249 225.139 51.8126 224.242 52.7879C223.344 53.7633 222.769 55.1581 222.525 56.9723H232.62V56.3871C232.591 54.7679 232.152 53.5195 231.313 52.6416C230.474 51.754 229.284 51.3151 227.743 51.3151V51.3249Z"
        fill="#EE325F" />
</svg>