<svg width="18" height="18" viewBox="0 0 18 18" fill="none" xmlns="http://www.w3.org/2000/svg">
    <path
        d="M6.57907 1.5C6.57907 1.08579 6.91486 0.75 7.32907 0.75C7.74328 0.75 8.07907 1.08579 8.07907 1.5V3.75C8.07907 4.16421 7.74328 4.5 7.32907 4.5C6.91486 4.5 6.57907 4.16421 6.57907 3.75V1.5Z"
        fill="#777777" />
    <path
        d="M10.5111 2.50736C10.8039 2.21447 11.2788 2.21447 11.5717 2.50736C11.8646 2.80025 11.8646 3.27513 11.5717 3.56802L9.98072 5.15901C9.68783 5.4519 9.21295 5.4519 8.92006 5.15901C8.62717 4.86612 8.62717 4.39124 8.92006 4.09835L10.5111 2.50736Z"
        fill="#777777" />
    <path
        d="M3.08643 3.56802C2.79354 3.27513 2.79354 2.80025 3.08643 2.50736C3.37932 2.21447 3.8542 2.21447 4.14709 2.50736L5.73808 4.09835C6.03097 4.39124 6.03097 4.86612 5.73808 5.15901C5.44519 5.4519 4.97031 5.4519 4.67742 5.15901L3.08643 3.56802Z"
        fill="#777777" />
    <path
        d="M12.5791 6C12.9933 6 13.3291 6.33579 13.3291 6.75C13.3291 7.16421 12.9933 7.5 12.5791 7.5H10.3291C9.91486 7.5 9.57907 7.16421 9.57907 6.75C9.57907 6.33579 9.91486 6 10.3291 6H12.5791Z"
        fill="#777777" />
    <path
        d="M4.32907 6C4.74328 6 5.07907 6.33579 5.07907 6.75C5.07907 7.16421 4.74328 7.5 4.32907 7.5H2.07907C1.66486 7.5 1.32907 7.16421 1.32907 6.75C1.32907 6.33579 1.66486 6 2.07907 6H4.32907Z"
        fill="#777777" />
    <path
        d="M10.5159 10.9974L15.9697 16.4512C16.2626 16.7441 16.7374 16.7441 17.0303 16.4512C17.3232 16.1583 17.3232 15.6834 17.0303 15.3906L8.01472 6.37494C7.72182 6.08205 7.24695 6.08205 6.95406 6.37494C6.66116 6.66784 6.66116 7.14271 6.95406 7.4356L8.91522 9.39677C8.91683 9.3984 8.91844 9.40003 8.92006 9.40165L10.5111 10.9926C10.5127 10.9942 10.5143 10.9958 10.5159 10.9974Z"
        fill="#777777" />
    <path
        d="M4.67742 8.34099C4.97031 8.0481 5.44519 8.0481 5.73808 8.34099C6.03097 8.63388 6.03097 9.10876 5.73808 9.40165L4.14709 10.9926C3.8542 11.2855 3.37932 11.2855 3.08643 10.9926C2.79354 10.6997 2.79354 10.2249 3.08643 9.93198L4.67742 8.34099Z"
        fill="#777777" />
    <path
        d="M6.57907 9.75C6.57907 9.33579 6.91486 9 7.32907 9C7.74328 9 8.07907 9.33579 8.07907 9.75V12C8.07907 12.4142 7.74328 12.75 7.32907 12.75C6.91486 12.75 6.57907 12.4142 6.57907 12V9.75Z"
        fill="#777777" />
</svg>