<svg width="24" height="24" viewBox="0 0 24 24" fill="none" xmlns="http://www.w3.org/2000/svg">
<path fill-rule="evenodd" clip-rule="evenodd" d="M8.12605 8.76922L13.5924 3.05052L8.12605 8.76922L8.12605 8.76922ZM7.12191 21.8197L8.78003 20.0851L15.6838 17.9786C15.7072 17.9719 15.7304 17.9637 15.7531 17.954C15.7304 17.9637 15.7072 17.9719 15.6838 17.9786L8.78003 20.0851L7.12191 21.8197ZM22.1169 11.9423C22.4944 11.5473 22.4944 10.9142 22.1169 10.5192C21.7296 10.1141 21.0939 10.1141 20.7067 10.5192L15.5294 15.9354L8.67939 8.76922L13.8816 3.32691C14.2591 2.93196 14.2591 2.29881 13.8816 1.90386C13.4943 1.4987 12.8587 1.49874 12.4714 1.90386L6.61708 8.02845C6.51483 8.12685 6.43227 8.24873 6.37749 8.38942C6.36289 8.42672 6.35045 8.46482 6.34026 8.50356L4.35446 15.6263L1.8832 18.2116C1.43581 18.6796 1.52873 19.4645 2.09121 19.8007L6.2089 22.2622C6.60215 22.4973 7.09668 22.425 7.41106 22.0961L8.99686 20.4371L15.7972 18.3621C15.8356 18.3511 15.8734 18.3376 15.9104 18.3217C16.0503 18.2622 16.1688 18.1735 16.2625 18.0669L22.1169 11.9423ZM13.6731 16.8918L8.75922 18.3912L6.34401 15.8645L7.77724 10.7238L13.6731 16.8918ZM4.18443 18.7025L5.23535 17.603L7.0854 19.5385L6.53903 20.1101L4.18443 18.7025Z" fill="#777777"/>
</svg>
