<svg width="24" height="24" viewBox="0 0 24 24" fill="none" xmlns="http://www.w3.org/2000/svg">
<path fill-rule="evenodd" clip-rule="evenodd" d="M9.6 13.97C10.74 13.97 11.83 13.52 12.63 12.71C13.43 11.91 13.89 10.81 13.89 9.68V5.29C13.89 4.15 13.44 3.06 12.63 2.26C11.83 1.46 10.73 1 9.6 1C8.47 1 7.37 1.45 6.57 2.26C5.77 3.07 5.31 4.16 5.31 5.29V9.68C5.31 10.82 5.76 11.91 6.57 12.71C7.38 13.51 8.47 13.97 9.6 13.97ZM7.31 5.29C7.31 4.68 7.55 4.1 7.98 3.67C8.41 3.24 8.99 3 9.6 3C10.21 3 10.79 3.24 11.22 3.67C11.65 4.1 11.89 4.68 11.89 5.29V9.68C11.89 10.29 11.65 10.87 11.22 11.3C10.79 11.73 10.21 11.97 9.6 11.97C8.99 11.97 8.41 11.73 7.98 11.3C7.55 10.87 7.31 10.29 7.31 9.68V5.29ZM21.99 17.41L22.65 17.92V17.93C23.02 18.23 23.12 18.74 22.9 19.15L21.97 20.75C21.81 21.04 21.49 21.23 21.14 21.23C21.02 21.23 20.9 21.2 20.79 21.16L20 20.84C19.9465 20.8782 19.8988 20.9047 19.8481 20.933L19.848 20.933L19.848 20.9331C19.8324 20.9417 19.8165 20.9506 19.8 20.96L19.68 21.79C19.62 22.25 19.21 22.61 18.73 22.61H16.9C16.42 22.61 16.01 22.25 15.95 21.78L15.83 20.97C15.7951 20.95 15.7626 20.93 15.7301 20.9101L15.73 20.91C15.6975 20.89 15.665 20.87 15.63 20.85L14.85 21.16C14.73 21.21 14.61 21.23 14.5 21.23C14.15 21.23 13.83 21.04 13.66 20.74L12.75 19.17C12.51 18.74 12.61 18.23 12.98 17.94L13.64 17.42V17.19L12.98 16.67C12.61 16.37 12.51 15.84 12.75 15.43L13.66 13.85C13.82 13.56 14.14 13.37 14.49 13.37C14.61 13.37 14.73 13.4 14.84 13.44L15.63 13.76C15.665 13.74 15.6975 13.72 15.73 13.7C15.7625 13.68 15.795 13.66 15.83 13.64L15.95 12.81C16.01 12.35 16.42 11.99 16.9 11.99H18.73C19.21 11.99 19.62 12.35 19.68 12.82L19.8 13.63C19.835 13.65 19.8675 13.67 19.9 13.69C19.9325 13.71 19.965 13.73 20 13.75L20.78 13.44C20.9 13.39 21.01 13.37 21.13 13.37C21.48 13.37 21.8 13.56 21.97 13.86L22.88 15.43C23.12 15.86 23.02 16.37 22.65 16.66L21.99 17.18V17.41ZM15.15 17.64C15.18 17.9 15.07 18.15 14.87 18.31L14.9 18.3L14.28 18.79L14.76 19.61L15.6 19.28H15.77C15.93 19.28 16.08 19.33 16.21 19.43C16.4 19.58 16.61 19.7 16.82 19.79C17.06 19.88 17.23 20.1 17.27 20.36L17.38 21.14H18.33L18.46 20.35C18.49 20.11 18.66 19.89 18.9 19.79C19.11 19.71 19.31 19.59 19.52 19.43C19.65 19.33 19.8 19.28 19.96 19.28H20.06L20.23 19.33L20.95 19.62L21.44 18.79L20.82 18.3C20.62 18.14 20.51 17.89 20.55 17.63C20.56 17.54 20.57 17.41 20.57 17.28C20.57 17.1819 20.5586 17.0839 20.5487 16.9987C20.5455 16.971 20.5425 16.9446 20.54 16.92C20.51 16.67 20.61 16.42 20.81 16.26L21.44 15.77L20.96 14.95L20.12 15.28H19.95C19.78 15.28 19.63 15.23 19.5 15.13C19.31 14.99 19.1 14.87 18.89 14.78C18.65 14.68 18.48 14.46 18.44 14.21L18.33 13.43H17.38L17.25 14.22C17.22 14.46 17.05 14.68 16.81 14.78C16.6 14.86 16.4 14.98 16.19 15.14C16.06 15.24 15.91 15.29 15.75 15.29H15.65L15.48 15.24L14.76 14.95L14.27 15.77L14.89 16.27C15.08 16.42 15.18 16.68 15.15 16.93C15.12 17.06 15.12 17.18 15.12 17.28C15.12 17.38 15.13 17.5 15.15 17.64ZM19.76 17.29C19.76 18.35 18.89 19.22 17.83 19.22C16.77 19.22 15.9 18.35 15.9 17.29C15.9 16.23 16.77 15.36 17.83 15.36C18.89 15.36 19.76 16.23 19.76 17.29ZM18.42 17.29C18.42 16.97 18.16 16.7 17.83 16.7C17.51 16.7 17.24 16.97 17.24 17.29C17.24 17.61 17.51 17.88 17.83 17.88C18.15 17.88 18.42 17.61 18.42 17.29ZM11.66 16.01C11.69 16.48 11.86 16.94 12.21 17.29C11.99 17.52 11.85 17.79 11.76 18.08C11.38 18.17 10.99 18.25 10.6 18.3V21.2C10.6 21.75 10.15 22.2 9.60002 22.2C9.05002 22.2 8.60002 21.75 8.60002 21.2V18.3C6.88002 18.1 5.24002 17.39 3.92002 16.24C2.34002 14.87 1.31002 12.98 1.01002 10.92C0.930023 10.38 1.31002 9.86999 1.86002 9.78999C2.40002 9.70999 2.91002 10.09 2.99002 10.64C3.22002 12.23 4.02002 13.68 5.23002 14.73C6.44002 15.78 7.99002 16.36 9.60002 16.36C10.31 16.36 11 16.23 11.66 16.01Z" fill="#777777"/>
</svg>
