<svg width="24" height="24" viewBox="0 0 24 24" fill="none" xmlns="http://www.w3.org/2000/svg">
<path fill-rule="evenodd" clip-rule="evenodd" d="M8.9666 2.65692C9.7714 1.85213 10.8629 1.39999 12.0011 1.39999C13.1393 1.39999 14.2308 1.85213 15.0356 2.65692C15.8404 3.46172 16.2925 4.55327 16.2925 5.69142V10.08C16.2925 11.2182 15.8404 12.3097 15.0356 13.1145C14.2308 13.9193 13.1393 14.3714 12.0011 14.3714C10.8629 14.3714 9.7714 13.9193 8.9666 13.1145C8.1618 12.3097 7.70967 11.2182 7.70967 10.08V5.69142C7.70967 4.55327 8.1618 3.46172 8.9666 2.65692ZM12.0011 3.39999C11.3934 3.39999 10.8105 3.64141 10.3808 4.07114C9.95109 4.50086 9.70967 5.0837 9.70967 5.69142V10.08C9.70967 10.6877 9.95109 11.2706 10.3808 11.7003C10.8105 12.13 11.3934 12.3714 12.0011 12.3714C12.6088 12.3714 13.1917 12.13 13.6214 11.7003C14.0511 11.2706 14.2925 10.6877 14.2925 10.08V5.69142C14.2925 5.0837 14.0511 4.50086 13.6214 4.07114C13.1917 3.64141 12.6088 3.39999 12.0011 3.39999ZM4.25387 10.1876C4.8004 10.108 5.30793 10.4866 5.38747 11.0331C5.6187 12.6219 6.4142 14.0742 7.62845 15.1246C8.8427 16.1749 10.3945 16.7529 12 16.7529C13.6055 16.7529 15.1573 16.1749 16.3715 15.1246C17.5858 14.0742 18.3813 12.6219 18.6125 11.0331C18.6921 10.4866 19.1996 10.108 19.7461 10.1876C20.2927 10.2671 20.6712 10.7746 20.5917 11.3212C20.2912 13.3854 19.2576 15.2725 17.68 16.6372C16.3561 17.7823 14.7235 18.4953 13 18.6952V21.6C13 22.1523 12.5523 22.6 12 22.6C11.4477 22.6 11 22.1523 11 21.6V18.6952C9.27648 18.4953 7.64386 17.7823 6.32003 16.6372C4.74236 15.2725 3.70875 13.3854 3.40832 11.3212C3.32878 10.7746 3.70735 10.2671 4.25387 10.1876Z" fill="#777777"/>
</svg>
