<svg width="60" height="60" viewBox="0 0 60 60" fill="none" xmlns="http://www.w3.org/2000/svg">
    <rect width="60" height="60" rx="30" fill="#F2F2F2" />
    <path fill-rule="evenodd" clip-rule="evenodd"
        d="M24 30C24 31.1046 23.1046 32 22 32C20.8954 32 20 31.1046 20 30C20 28.8954 20.8954 28 22 28C23.1046 28 24 28.8954 24 30ZM32 30C32 31.1046 31.1046 32 30 32C28.8954 32 28 31.1046 28 30C28 28.8954 28.8954 28 30 28C31.1046 28 32 28.8954 32 30ZM38 32C39.1046 32 40 31.1046 40 30C40 28.8954 39.1046 28 38 28C36.8954 28 36 28.8954 36 30C36 31.1046 36.8954 32 38 32Z"
        fill="#555555" />
</svg>