<svg width="18" height="18" viewBox="0 0 18 18" fill="none" xmlns="http://www.w3.org/2000/svg">
    <g clip-path="url(#clip0_1373_5312)">
        <path
            d="M10.6269 14.3483L9.83074 15.1444V11.5098C9.83074 11.0512 9.45863 10.6704 8.99132 10.6704C8.52401 10.6704 8.1519 11.0425 8.1519 11.5098V15.1444L7.35574 14.3483C7.0442 14.0368 6.49036 14.0281 6.17016 14.3483C6.0144 14.5041 5.92786 14.7204 5.92786 14.9368C5.92786 15.1531 6.0144 15.3694 6.17016 15.5252L8.3942 17.7406C8.54997 17.8964 8.77497 17.9916 8.99132 17.9916C9.01728 17.9916 9.04324 17.9916 9.06055 17.9916C9.44132 17.9483 9.69228 17.6454 9.94324 17.3858L10.7567 16.5723L11.5355 15.7935C11.6221 15.7069 11.7173 15.6118 11.8038 15.5252C11.9596 15.3694 12.0461 15.1531 12.0461 14.9368C12.0461 14.7204 11.9596 14.5041 11.8038 14.3483C11.4836 14.0281 10.9384 14.0281 10.6182 14.3483H10.6269Z"
            fill="#ffffff" />
        <path
            d="M7.37313 3.65192L8.16928 2.85577V6.49039C8.16928 6.94904 8.5414 7.32981 9.00871 7.32981C9.47601 7.32981 9.84813 6.95769 9.84813 6.49039V2.85577L10.6443 3.65192C10.9645 3.97212 11.5097 3.97212 11.8299 3.65192C12.1587 3.32308 12.1587 2.79519 11.8299 2.46635L9.58851 0.242308C9.58851 0.242308 9.5539 0.207692 9.52794 0.190385C9.51928 0.181731 9.50198 0.173077 9.48467 0.155769L9.19044 0.0173077L9.15582 0.0173077L9.07794 0C9.02601 0 8.96544 0 8.91351 0L8.87024 0C8.87024 0 8.84428 0.00865385 8.83563 0.00865385L8.71448 0.0432692C8.71448 0.0432692 8.68851 0.0432692 8.67986 0.0519231L8.60198 0.0865385C8.60198 0.0865385 8.57601 0.103846 8.56736 0.103846C8.55871 0.103846 8.5414 0.121154 8.53274 0.129808L8.47217 0.173077C8.47217 0.173077 8.4289 0.207692 8.41159 0.225L6.18755 2.44904C5.85871 2.77788 5.85871 3.30577 6.18755 3.63462C6.50774 3.95481 7.05294 3.94615 7.37313 3.63462V3.65192Z"
            fill="#ffffff" />
        <path
            d="M2.85572 9.83948H6.49033C6.94899 9.83948 7.32976 9.46736 7.32976 9.00005C7.32976 8.53274 6.95764 8.16063 6.49033 8.16063H2.85572L3.65187 7.36448C3.80764 7.20871 3.89418 7.00101 3.89418 6.77601C3.89418 6.55101 3.80764 6.34332 3.65187 6.18755C3.32302 5.85871 2.79514 5.85871 2.46629 6.18755L0.242255 8.41159C0.242255 8.41159 0.207639 8.44621 0.181678 8.47217L0.129755 8.5414L0.103793 8.57601L0.0259086 8.75774C0.0259086 8.75774 0.0259086 8.78371 0.0172547 8.80101C0.0172547 8.80967 0.0172547 8.82698 0.00860086 8.84428L0.00860086 8.92217C-0.00870684 8.97409 -0.00870684 9.03467 -5.2989e-05 9.08659C-5.2989e-05 9.09524 -5.2989e-05 9.11255 -5.2989e-05 9.12121L0.0259086 9.24236C0.0259086 9.24236 0.0259086 9.26832 0.0432162 9.28563C0.0432162 9.30294 0.0432162 9.31159 0.0691778 9.34621L0.0951393 9.38948C0.0951393 9.38948 0.103793 9.41544 0.112447 9.42409L0.138409 9.45871L0.190332 9.52794C0.190332 9.52794 0.224947 9.57121 0.242255 9.58851L2.46629 11.8126C2.62206 11.9683 2.83841 12.0549 3.05475 12.0549C3.2711 12.0549 3.48745 11.9683 3.64322 11.8126C3.79899 11.6568 3.88552 11.4491 3.88552 11.2241C3.88552 10.9991 3.79899 10.7914 3.64322 10.6356L2.84706 9.83948H2.85572Z"
            fill="#ffffff" />
        <path
            d="M17.9913 8.91345C17.9913 8.87018 17.974 8.82691 17.9654 8.75768L17.9394 8.67979C17.9394 8.67979 17.9308 8.65383 17.9221 8.63652L17.8615 8.53268C17.8615 8.53268 17.8442 8.50672 17.8356 8.49806C17.8356 8.49806 17.8096 8.4721 17.8096 8.46345C17.7923 8.43748 17.775 8.42018 17.7577 8.40287L15.5336 6.17883C15.3779 6.02306 15.1615 5.93652 14.9452 5.93652C14.7288 5.93652 14.5125 6.02306 14.3567 6.17883C14.0279 6.50768 14.0279 7.03556 14.3567 7.36441L15.1529 8.16056H11.5183C11.0596 8.16056 10.6788 8.53268 10.6788 8.99998C10.6788 9.46729 11.0509 9.83941 11.5183 9.83941H15.1529L14.3567 10.6356C14.0279 10.9644 14.0279 11.4923 14.3567 11.8211C14.5125 11.9769 14.7202 12.0634 14.9452 12.0634C15.1702 12.0634 15.3779 11.9769 15.5336 11.8211L17.7577 9.5971C17.7577 9.5971 17.7923 9.55383 17.8183 9.52787L17.8788 9.44999L17.9654 9.2596C17.9654 9.2596 17.9654 9.23364 17.974 9.21633C17.974 9.19902 17.974 9.19037 17.9827 9.18172V9.13845L17.9913 9.10383C17.9913 9.04325 17.9913 8.99133 17.9913 8.93941V8.91345Z"
            fill="#ffffff" />
    </g>
    <defs>
        <clipPath id="clip0_1373_5312">
            <rect width="18" height="18" fill="white" />
        </clipPath>
    </defs>
</svg>