<svg width="24" height="24" viewBox="0 0 24 24" fill="none" xmlns="http://www.w3.org/2000/svg">
    <path fill-rule="evenodd" clip-rule="evenodd"
        d="M5.72663 2C5.29572 2 4.92471 2.30587 4.8402 2.7308L2.08931 16.5631C1.52994 19.3758 3.66917 22 6.52144 22H19.9824C20.7279 22 21.4481 21.5339 21.696 20.7686C21.9244 20.0683 22.0296 19.3171 21.9928 18.5386L21.9927 18.5363C21.8439 15.5544 19.505 13.057 16.5478 12.7414C14.5893 12.5324 12.7936 13.257 11.5439 14.5265L10.1248 9.24697L13.4844 6.83031C13.8615 6.55902 13.9734 6.04475 13.7433 5.63987L11.9354 2.45806C11.7744 2.17481 11.4749 2 11.1505 2H5.72663ZM8.26588 9.29874L7.27252 8.01205C6.96635 7.61547 7.03784 7.04437 7.43219 6.73647C7.82654 6.42857 8.39443 6.50046 8.7006 6.89704L9.26596 7.62934L11.7686 5.82913L10.6259 3.81818H6.46772L3.86216 16.9197C3.52654 18.6073 4.81008 20.1818 6.52144 20.1818H19.9824L19.9847 20.1817C20.1399 19.6976 20.2128 19.1749 20.1869 18.6259C20.0819 16.5356 18.4254 14.7702 16.357 14.5495C14.1733 14.3163 12.2791 15.7233 11.7371 17.6966C11.6042 18.1805 11.1064 18.4645 10.6251 18.3308C10.1439 18.1972 9.86152 17.6965 9.99443 17.2125C10.0562 16.9877 10.1303 16.768 10.2161 16.5542L8.26588 9.29874ZM21.696 20.7686L21.6964 20.7674L20.8367 20.4864L21.6956 20.7699L21.696 20.7686Z"
        fill="#EE5A50" />
</svg>