<svg width="18" height="18" viewBox="0 0 18 18" fill="none" xmlns="http://www.w3.org/2000/svg">
    <path fill-rule="evenodd" clip-rule="evenodd"
        d="M11.625 4.68196V3.19567L14.9563 3.97485V5.47192L11.625 4.68196ZM10.125 2.25001V5.27491L10.125 10.875L7.515 10.875C6.05697 10.875 4.875 12.057 4.875 13.515V13.86C4.875 15.318 6.05697 16.5 7.515 16.5H8.985C10.443 16.5 11.625 15.318 11.625 13.86V13.125V11.625L11.625 6.22356L15.5332 7.15033C15.7564 7.20325 15.9915 7.15115 16.1714 7.00891C16.3513 6.86667 16.4563 6.64992 16.4563 6.42057V3.38003C16.4563 3.03162 16.2163 2.72909 15.8771 2.64974L11.0622 1.52354C11.0023 1.50817 10.9396 1.5 10.875 1.5C10.6806 1.5 10.5035 1.57393 10.3703 1.69521C10.3527 1.71124 10.3359 1.72809 10.3198 1.74572C10.1988 1.87891 10.125 2.05584 10.125 2.25V2.25001ZM10.125 12.375L7.515 12.375C6.8854 12.375 6.375 12.8854 6.375 13.515V13.86C6.375 14.4896 6.8854 15 7.515 15L8.985 15C9.6146 15 10.125 14.4896 10.125 13.86V13.125V12.375ZM2.25 2.25C1.83579 2.25 1.5 2.58579 1.5 3C1.5 3.41421 1.83579 3.75 2.25 3.75L7.5 3.75C7.91421 3.75 8.25 3.41421 8.25 3C8.25 2.58579 7.91421 2.25 7.5 2.25L2.25 2.25ZM1.5 6C1.5 5.58579 1.83579 5.25 2.25 5.25L7.5 5.25C7.91421 5.25 8.25 5.58579 8.25 6C8.25 6.41421 7.91421 6.75 7.5 6.75L2.25 6.75C1.83579 6.75 1.5 6.41421 1.5 6ZM2.25 8.25C1.83579 8.25 1.5 8.58579 1.5 9C1.5 9.41421 1.83579 9.75 2.25 9.75H6C6.41421 9.75 6.75 9.41421 6.75 9C6.75 8.58579 6.41421 8.25 6 8.25H2.25Z"
        fill="#777777" />
</svg>