<svg width="18" height="18" viewBox="0 0 18 18" fill="none" xmlns="http://www.w3.org/2000/svg">
    <path fill-rule="evenodd" clip-rule="evenodd"
        d="M4.05004 14.8666C3.71867 14.6457 3.65152 14.2279 3.90004 13.9333L8.06251 9L3.90004 4.0667C3.65152 3.77215 3.71867 3.35429 4.05004 3.13337C4.38141 2.91246 4.85151 2.97216 5.10003 3.26671L9.6 8.6C9.8 8.83704 9.8 9.16296 9.6 9.4L5.10003 14.7333C4.85151 15.0278 4.38141 15.0875 4.05004 14.8666Z"
        fill="#777777" />
    <path
        d="M12.75 15.375C12.5511 15.375 12.3603 15.3099 12.2197 15.1941C12.079 15.0783 12 14.9212 12 14.7574L12 3.24265C12 3.07884 12.079 2.92174 12.2197 2.8059C12.3603 2.69007 12.5511 2.625 12.75 2.625C12.9489 2.625 13.1397 2.69007 13.2803 2.8059C13.421 2.92174 13.5 3.07884 13.5 3.24265V14.7574C13.5 14.9212 13.421 15.0783 13.2803 15.1941C13.1397 15.3099 12.9489 15.375 12.75 15.375Z"
        fill="#777777" />
</svg>