<svg width="18" height="18" viewBox="0 0 18 18" fill="none" xmlns="http://www.w3.org/2000/svg">
<g clip-path="url(#clip0_1302_1123)">
<path d="M10.0499 5.48234C9.7349 5.16734 9.3074 5.16734 8.9849 5.48234C8.6699 5.79734 8.6699 6.22484 8.9849 6.54734L9.8324 7.39484H6.3299C5.9024 7.39484 5.5874 7.70984 5.5874 8.13734C5.5874 8.34734 5.6399 8.51234 5.8049 8.66984C5.9699 8.82734 6.1199 8.87984 6.3374 8.88734H9.8399L8.9924 9.73484C8.6774 10.0498 8.6774 10.4773 8.9924 10.7998C9.3074 11.1148 9.7349 11.1148 10.0574 10.7998L12.1799 8.67734C12.4874 8.34734 12.4949 7.92734 12.1799 7.60484L10.0574 5.48234H10.0499Z" fill="#777777"/>
<path d="M16.05 3.45C15.75 3.15 15.375 3 15 3L3 3C2.625 3 2.2575 3.15 1.95 3.45C1.6425 3.75 1.5 4.125 1.5 4.5L1.5 12C1.5 12.375 1.65 12.75 1.95 13.05C2.2425 13.35 2.625 13.5 3 13.5H6L6 15H5.25C4.8 15 4.5 15.3 4.5 15.75C4.5 16.2 4.8 16.5 5.25 16.5H12.75C13.2 16.5 13.5 16.2 13.5 15.75C13.5 15.3 13.2 15 12.75 15H12V13.5H15C15.375 13.5 15.75 13.35 16.05 13.05C16.35 12.7575 16.5 12.375 16.5 12V4.5C16.5 4.125 16.35 3.7575 16.05 3.45ZM10.5 14.9925L7.5 14.9925L7.5 13.4925L10.5 13.4925V14.9925ZM3 12L3 4.5L15 4.5L15 12L3 12Z" fill="#777777"/>
</g>
<defs>
<clipPath id="clip0_1302_1123">
<rect width="15" height="13.5" fill="white" transform="translate(1.5 3)"/>
</clipPath>
</defs>
</svg>
