<svg width="19" height="18" viewBox="0 0 19 18" fill="none" xmlns="http://www.w3.org/2000/svg">
    <path fill-rule="evenodd" clip-rule="evenodd"
        d="M12.195 2.45811C12.4724 2.18063 12.9223 2.18063 13.1998 2.45811L16.0419 5.30021C16.3194 5.57769 16.3194 6.02757 16.0419 6.30505L6.80505 15.5419C6.6718 15.6751 6.49107 15.75 6.30263 15.75H3.46053C3.06811 15.75 2.75 15.4319 2.75 15.0395L2.75 12.1974C2.75 12.0089 2.82486 11.8282 2.95811 11.695L10.0632 4.58983L12.195 2.45811ZM10.5658 6.09694L4.17105 12.4917V14.3289H6.00832L12.4031 7.93421L10.5658 6.09694ZM13.4079 6.92937L11.5706 5.09211L12.6974 3.96536L14.5346 5.80263L13.4079 6.92937Z"
        fill="#ffffff" />
</svg>