<svg width="18" height="18" viewBox="0 0 18 18" fill="none" xmlns="http://www.w3.org/2000/svg">
<g clip-path="url(#clip0_1991_16403)">
<path d="M16.05 3.45C15.75 3.15 15.375 3 15 3L3 3C2.625 3 2.2575 3.15 1.95 3.45C1.6425 3.75 1.5 4.125 1.5 4.5L1.5 12C1.5 12.375 1.65 12.75 1.95 13.05C2.2425 13.35 2.625 13.5 3 13.5H6L6 15H5.25C4.8 15 4.5 15.3 4.5 15.75C4.5 16.2 4.8 16.5 5.25 16.5H12.75C13.2 16.5 13.5 16.2 13.5 15.75C13.5 15.3 13.2 15 12.75 15H12V13.5H15C15.375 13.5 15.75 13.35 16.05 13.05C16.35 12.7575 16.5 12.375 16.5 12V4.5C16.5 4.125 16.35 3.7575 16.05 3.45ZM10.5 14.9925L7.5 14.9925L7.5 13.4925L10.5 13.4925V14.9925ZM3 12L3 4.5L15 4.5L15 12L3 12Z" fill="#777777"/>
<path d="M11.9054 10.0858V7.04981H11.1914C11.0294 7.04981 10.9214 6.94181 10.9214 6.7798V6.5698C10.9214 6.4078 11.0294 6.2998 11.1914 6.2998H13.5014C13.6634 6.2998 13.7714 6.4078 13.7714 6.5698V6.7798C13.7714 6.94181 13.6634 7.04981 13.5014 7.04981H12.7874V10.0858C12.7874 10.2478 12.6794 10.3558 12.5174 10.3558H12.1754C12.0134 10.3558 11.9054 10.2478 11.9054 10.0858Z" fill="#777777"/>
<path d="M7.8457 10.0858L7.8457 6.5698C7.8457 6.4078 7.9537 6.2998 8.1157 6.2998H9.2917C10.1137 6.2998 10.6237 6.91181 10.6237 7.5958C10.6237 8.2798 10.1137 8.87381 9.2917 8.87381H8.7277V10.0858C8.7277 10.2478 8.6197 10.3558 8.4577 10.3558H8.1157C7.9537 10.3558 7.8457 10.2478 7.8457 10.0858ZM8.7277 8.1418H9.2617C9.5437 8.1418 9.7297 7.9258 9.7297 7.5958C9.7297 7.27181 9.5437 7.04981 9.2617 7.04981H8.7277V8.1418Z" fill="#777777"/>
<path d="M4.5 10.0858L4.5 6.5698C4.5 6.4078 4.608 6.2998 4.77 6.2998H5.946C6.768 6.2998 7.278 6.91181 7.278 7.5958C7.278 8.2798 6.768 8.87381 5.946 8.87381H5.382V10.0858C5.382 10.2478 5.274 10.3558 5.112 10.3558H4.77C4.608 10.3558 4.5 10.2478 4.5 10.0858ZM5.382 8.1418H5.916C6.198 8.1418 6.384 7.9258 6.384 7.5958C6.384 7.27181 6.198 7.04981 5.916 7.04981H5.382V8.1418Z" fill="#777777"/>
</g>
<defs>
<clipPath id="clip0_1991_16403">
<rect width="15" height="13.5" fill="white" transform="translate(1.5 3)"/>
</clipPath>
</defs>
</svg>
