<svg width="18" height="18" viewBox="0 0 18 18" fill="none" xmlns="http://www.w3.org/2000/svg">
<path d="M14.2998 13.1501L14.3001 13.1496C14.4897 12.8134 14.3782 12.3896 14.0489 12.1989L14.0484 12.1987C13.7122 12.009 13.2884 12.1206 13.0977 12.4499L13.141 12.475L13.0979 12.4497C12.7776 12.9965 12.2 13.3318 11.5761 13.3318C10.9522 13.3318 10.3666 12.9885 10.0544 12.4499L10.0544 12.4499L10.0539 12.4491C9.85561 12.1214 9.43245 12.0084 9.10332 12.1989L9.10332 12.1989L9.10248 12.1994C8.77482 12.3978 8.66182 12.8209 8.85237 13.1501L8.85239 13.1501C9.41502 14.1204 10.4587 14.7239 11.5761 14.7239C12.6935 14.7239 13.7372 14.1204 14.2998 13.1501ZM3.69212 7.55444L3.69211 7.55447C3.50156 7.8836 3.61455 8.30676 3.94222 8.50508L3.94222 8.50509L3.94306 8.50558C4.27219 8.69612 4.69534 8.58313 4.89367 8.25546L4.89368 8.25547L4.89415 8.25465C5.20637 7.71606 5.79194 7.37271 6.41582 7.37271C7.03966 7.37271 7.61726 7.708 7.93754 8.25471C8.12764 8.58296 8.5513 8.70436 8.88876 8.50548C9.21794 8.31477 9.32944 7.8911 9.13982 7.55496L9.13953 7.55444C8.57689 6.5841 7.53322 5.98064 6.41582 5.98064C5.29843 5.98064 4.25476 6.5841 3.69212 7.55444ZM0.691943 6.42375V6.42388C0.691943 9.39724 2.97739 11.8491 5.88032 12.1198C6.15889 15.0225 8.60271 17.3 11.5761 17.3C14.7089 17.3 17.2648 14.7606 17.2917 11.6261H17.3V11.5761C17.3 8.60276 15.0145 6.15091 12.1116 5.88023C11.833 2.9775 9.3892 0.7 6.41582 0.7C3.2663 0.7 0.700039 3.26645 0.691943 6.42375ZM6.41984 10.7557C4.03367 10.7535 2.09204 8.81054 2.09204 6.42388C2.09204 4.03576 4.02795 2.09207 6.41582 2.09207C8.80382 2.09207 10.7476 4.03588 10.7476 6.42388C10.7476 8.81054 8.806 10.7535 6.41984 10.7557ZM12.068 7.27324C14.2269 7.5172 15.9079 9.35518 15.9079 11.5761C15.9079 13.9641 13.9641 15.9079 11.5761 15.9079C9.35536 15.9079 7.52518 14.2271 7.2734 12.076C9.7447 11.7038 11.6959 9.74447 12.068 7.27324Z" fill="#777777" stroke="#777777" stroke-width="0.1"/>
</svg>
