<svg width="18" height="18" viewBox="0 0 18 18" fill="none" xmlns="http://www.w3.org/2000/svg">
    <path fill-rule="evenodd" clip-rule="evenodd"
        d="M13.95 3.13337C14.2813 3.35428 14.3485 3.77215 14.1 4.0667L9.93749 9L14.1 13.9333C14.3485 14.2278 14.2813 14.6457 13.95 14.8666C13.6186 15.0875 13.1485 15.0278 12.9 14.7333L8.4 9.4C8.2 9.16296 8.2 8.83704 8.4 8.6L12.9 3.2667C13.1485 2.97215 13.6186 2.91246 13.95 3.13337Z"
        fill="#777777" />
    <path
        d="M5.25 15.375C5.05109 15.375 4.86032 15.3099 4.71967 15.1941C4.57902 15.0783 4.5 14.9212 4.5 14.7574L4.5 3.24265C4.5 3.07884 4.57902 2.92174 4.71967 2.8059C4.86032 2.69007 5.05109 2.625 5.25 2.625C5.44891 2.625 5.63968 2.69007 5.78033 2.8059C5.92098 2.92174 6 3.07884 6 3.24265V14.7574C6 14.9212 5.92098 15.0783 5.78033 15.1941C5.63968 15.3099 5.44891 15.375 5.25 15.375Z"
        fill="#777777" />
</svg>