<svg width="19" height="18" viewBox="0 0 19 18" fill="none" xmlns="http://www.w3.org/2000/svg">
    <path fill-rule="evenodd" clip-rule="evenodd"
        d="M8.32678 1.93025C8.04412 1.81533 7.72001 1.88311 7.50708 2.10167L1.46276 8.30616C1.18447 8.59183 1.17841 9.04533 1.44897 9.33833L7.4933 15.8838C7.70278 16.1107 8.0299 16.186 8.31747 16.0735C8.60505 15.961 8.7943 15.6838 8.7943 15.375V12.0235C9.79469 11.931 10.8474 11.9991 11.956 12.2343C13.1133 12.4798 14.6026 13.5707 16.4198 15.7888C16.6295 16.0448 16.9821 16.1331 17.2877 16.0062C17.5932 15.8793 17.7795 15.5671 17.7462 15.2379C17.4747 12.5604 16.4456 10.2929 14.6499 8.47323C13.019 6.82055 11.0568 5.89877 8.7943 5.71969V2.62502C8.7943 2.31989 8.60944 2.04518 8.32678 1.93025ZM7.2943 4.4697V6.43765C7.2943 6.84955 7.62649 7.18437 8.03837 7.18763C10.2212 7.20489 12.055 7.97921 13.5822 9.52682C14.5084 10.4654 15.2009 11.5426 15.6576 12.7666C14.4935 11.6918 13.3638 10.9996 12.2673 10.7669C10.7627 10.4477 9.31259 10.396 7.92311 10.6235C7.5605 10.6829 7.2943 10.9962 7.2943 11.3636V13.4573L3.03359 8.84332L7.2943 4.4697Z"
        fill="#777777" />
</svg>