<svg width="18" height="18" viewBox="0 0 18 18" fill="none" xmlns="http://www.w3.org/2000/svg">
    <path
        d="M15.7426 8.24268C15.3235 8.24268 14.9853 8.58091 14.9853 9.00003C14.9853 12.3015 12.3015 14.978 9.00735 14.978C5.71324 14.978 3.02206 12.3015 3.02206 9.00003C3.02206 5.69856 5.69853 3.02209 9 3.02209C10.6838 3.02209 12.2647 3.71326 13.3897 4.94121H11.5956C11.1765 4.94121 10.8382 5.27944 10.8382 5.69856C10.8382 6.11768 11.1765 6.45591 11.5956 6.45591L15.0368 6.45591C15.4559 6.45591 15.7941 6.11768 15.7941 5.69856V2.25738C15.7941 1.83826 15.4559 1.50003 15.0368 1.50003C14.6176 1.50003 14.2794 1.83826 14.2794 2.25738V3.66179C12.8824 2.27944 10.9779 1.49268 9 1.49268C4.86765 1.50003 1.5 4.86768 1.5 9.00003C1.5 13.1324 4.86765 16.5 9 16.5C13.1324 16.5 16.5 13.1324 16.5 9.00003C16.5 8.58091 16.1618 8.24268 15.7426 8.24268Z"
        fill="#777777" />
</svg>