<svg width="18" height="18" viewBox="0 0 18 18" fill="none" xmlns="http://www.w3.org/2000/svg">
<g clip-path="url(#clip0_1991_15701)">
<path d="M16.05 3.45C15.75 3.15 15.375 3 15 3L3 3C2.625 3 2.2575 3.15 1.95 3.45C1.6425 3.75 1.5 4.125 1.5 4.5L1.5 12C1.5 12.375 1.65 12.75 1.95 13.05C2.2425 13.35 2.625 13.5 3 13.5H6L6 15H5.25C4.8 15 4.5 15.3 4.5 15.75C4.5 16.2 4.8 16.5 5.25 16.5H12.75C13.2 16.5 13.5 16.2 13.5 15.75C13.5 15.3 13.2 15 12.75 15H12V13.5H15C15.375 13.5 15.75 13.35 16.05 13.05C16.35 12.7575 16.5 12.375 16.5 12V4.5C16.5 4.125 16.35 3.7575 16.05 3.45ZM10.5 14.9925L7.5 14.9925L7.5 13.4925L10.5 13.4925V14.9925ZM3 12L3 4.5L15 4.5L15 12L3 12Z" fill="#777777"/>
<g clip-path="url(#clip1_1991_15701)">
<path d="M5.90502 7.97049L12.0868 7.97049C12.357 7.97049 12.5944 7.81157 12.6927 7.56064C12.7909 7.30971 12.7418 7.02533 12.5535 6.83295L11.2025 5.44447C10.9487 5.18518 10.5311 5.18518 10.2773 5.44447C10.1545 5.56993 10.0808 5.73722 10.0808 5.92124C10.0808 6.10525 10.1463 6.27254 10.2691 6.398L10.4984 6.6322L5.90502 6.6322C5.54476 6.6322 5.25 6.93332 5.25 7.30135C5.25 7.66938 5.54476 7.97049 5.90502 7.97049Z" fill="#777777"/>
<path d="M12.0869 8.53174H5.90509C5.63489 8.53174 5.39744 8.69066 5.29919 8.94159C5.20094 9.19252 5.25006 9.47691 5.43838 9.66928L6.78936 11.0494C6.91218 11.1749 7.07594 11.2418 7.25607 11.2418C7.4362 11.2418 7.59177 11.1749 7.72277 11.0494C7.97659 10.7901 7.97659 10.3635 7.72277 10.1042L7.49351 9.87003H12.095C12.4553 9.87003 12.7501 9.56891 12.7501 9.20088C12.7501 8.83285 12.4553 8.53174 12.095 8.53174H12.0869Z" fill="#777777"/>
</g>
</g>
<defs>
<clipPath id="clip0_1991_15701">
<rect width="15" height="13.5" fill="white" transform="translate(1.5 3)"/>
</clipPath>
<clipPath id="clip1_1991_15701">
<rect width="7.5" height="6.75" fill="white" transform="translate(5.25 4.5)"/>
</clipPath>
</defs>
</svg>
