<svg width="24" height="24" viewBox="0 0 24 24" fill="none" xmlns="http://www.w3.org/2000/svg">
<g clip-path="url(#clip0_6380_77854)">
<path d="M14.63 6.77002H13.67V5.81002C13.67 5.55002 13.46 5.33002 13.19 5.33002C12.92 5.33002 12.71 5.54002 12.71 5.81002V6.77002H11.75C11.49 6.77002 11.27 6.98002 11.27 7.25002C11.27 7.52002 11.48 7.73002 11.75 7.73002H12.71V8.69002C12.71 8.95002 12.92 9.17002 13.19 9.17002C13.46 9.17002 13.67 8.96002 13.67 8.69002V7.73002H14.63C14.89 7.73002 15.11 7.52002 15.11 7.25002C15.11 6.98002 14.9 6.77002 14.63 6.77002Z" fill="#777777" stroke="#777777" stroke-width="0.4" stroke-miterlimit="10"/>
<path d="M10.23 12.1C9.94002 12.1 9.67002 11.92 9.57002 11.64L8.08002 7.68L6.57003 11.64C6.43003 12.01 6.02003 12.19 5.65003 12.05C5.28003 11.91 5.10002 11.5 5.24002 11.13L7.30002 5.73C7.30002 5.73 7.30002 5.72 7.30002 5.71C7.43003 5.4 7.73003 5.19 8.07002 5.19C8.41002 5.19 8.71002 5.39 8.84002 5.71C8.84002 5.71 8.84002 5.72 8.84002 5.73L10.88 11.14C11.02 11.51 10.83 11.92 10.47 12.05C10.39 12.08 10.3 12.1 10.22 12.1H10.23Z" fill="#777777"/>
<path d="M10.23 12.2C9.9 12.2 9.59 11.99 9.47 11.68L8.07 7.96003L6.65 11.68C6.57 11.88 6.42 12.04 6.23 12.13C6.04 12.22 5.81 12.23 5.61 12.15C5.41 12.07 5.25 11.92 5.16 11.72C5.07 11.52 5.06 11.3 5.14 11.1L7.2 5.69003C7.35 5.32003 7.69 5.09003 8.07 5.09003C8.45 5.09003 8.79 5.32003 8.93 5.67003V5.69003L10.98 11.1C11.06 11.3 11.05 11.52 10.96 11.72C10.87 11.92 10.71 12.07 10.51 12.14C10.42 12.17 10.32 12.19 10.22 12.19L10.23 12.2ZM8.07 7.40003L9.66 11.6C9.78 11.9 10.12 12.08 10.45 11.96C10.6 11.9 10.72 11.79 10.79 11.64C10.86 11.49 10.86 11.32 10.81 11.17L8.75 5.74003C8.64 5.47003 8.37 5.29003 8.07 5.29003C7.77 5.29003 7.5 5.47003 7.39 5.75003L5.33 11.17C5.27 11.32 5.28 11.49 5.34 11.64C5.41 11.79 5.53 11.9 5.68 11.96C5.83 12.02 6 12.01 6.15 11.95C6.3 11.88 6.41 11.76 6.47 11.61L8.07 7.40003Z" fill="#777777"/>
<path d="M9.59996 10.75H6.53996C6.14996 10.75 5.82996 10.43 5.82996 10.04C5.82996 9.65002 6.14996 9.33002 6.53996 9.33002H9.59996C9.98996 9.33002 10.31 9.65002 10.31 10.04C10.31 10.43 9.98996 10.75 9.59996 10.75Z" fill="#777777"/>
<path d="M9.59998 10.85H6.53998C6.08998 10.85 5.72998 10.49 5.72998 10.04C5.72998 9.59004 6.08998 9.23004 6.53998 9.23004H9.59998C10.05 9.23004 10.41 9.59004 10.41 10.04C10.41 10.49 10.05 10.85 9.59998 10.85ZM6.53998 9.43004C6.19998 9.43004 5.92998 9.70004 5.92998 10.04C5.92998 10.38 6.19998 10.65 6.53998 10.65H9.59998C9.93998 10.65 10.21 10.38 10.21 10.04C10.21 9.70004 9.93998 9.43004 9.59998 9.43004H6.53998Z" fill="#777777"/>
<path fill-rule="evenodd" clip-rule="evenodd" d="M6.04003 13.41C5.51003 13.41 5.09003 13.84 5.09003 14.36C5.09003 14.88 5.52003 15.31 6.04003 15.31H12.71C13.24 15.31 13.66 14.88 13.66 14.36C13.66 13.84 13.23 13.41 12.71 13.41H6.04003Z" fill="#777777"/>
<path fill-rule="evenodd" clip-rule="evenodd" d="M5.09003 17.16C5.09003 16.63 5.52003 16.21 6.04003 16.21H9.85003C10.38 16.21 10.8 16.64 10.8 17.16C10.8 17.68 10.37 18.11 9.85003 18.11H6.04003C5.51003 18.11 5.09003 17.68 5.09003 17.16Z" fill="#777777"/>
<path fill-rule="evenodd" clip-rule="evenodd" d="M10.82 21.61V20.11H4.86C4.77 20.11 4.68 20.09 4.6 20.07C4.52 20.05 4.45 20.02 4.39 19.98C4.25 19.89 4.14 19.77 4.05 19.63C4.02 19.57 3.99 19.51 3.97 19.45C3.94 19.36 3.91 19.26 3.91 19.16V4.86C3.91 4.33 4.34 3.91 4.86 3.91H15.34C15.43 3.91 15.52 3.93 15.6 3.95C15.68 3.97 15.75 4 15.81 4.04C15.95 4.13 16.06 4.25 16.15 4.39C16.18 4.45 16.21 4.51 16.23 4.57C16.26 4.66 16.29 4.76 16.29 4.86V13.25L17.68 11.86C17.83 11.71 18.01 11.59 18.2 11.48V4.86C18.2 4.68 18.18 4.51 18.15 4.34C18.15 4.29 18.13 4.24 18.12 4.19C18.09 4.07 18.05 3.95 18.01 3.83C17.99 3.78 17.98 3.74 17.96 3.69C17.89 3.54 17.82 3.39 17.72 3.25C17.62 3.1 17.5 2.96 17.37 2.83C17.24 2.7 17.1 2.58 16.95 2.48C16.81 2.39 16.67 2.31 16.51 2.24C16.47 2.22 16.42 2.2 16.37 2.19C16.25 2.15 16.14 2.11 16.01 2.08C15.96 2.07 15.91 2.06 15.86 2.05C15.69 2.02 15.52 2 15.34 2H4.86C3.28 2 2 3.28 2 4.86V12.21V19.16C2 19.34 2.02 19.51 2.05 19.68C2.05 19.73 2.07 19.78 2.08 19.83C2.11 19.95 2.15 20.07 2.19 20.19C2.21 20.24 2.22 20.28 2.24 20.33C2.31 20.48 2.38 20.63 2.48 20.77C2.58 20.92 2.7 21.06 2.83 21.19C2.96 21.32 3.1 21.44 3.25 21.54C3.39 21.63 3.53 21.71 3.69 21.78C3.73 21.8 3.78 21.82 3.83 21.83C3.95 21.87 4.06 21.91 4.19 21.94C4.24 21.95 4.29 21.96 4.34 21.97C4.51 22 4.68 22.02 4.86 22.02H10.86C10.84 21.89 10.82 21.75 10.82 21.62V21.61Z" fill="#777777"/>
<path d="M21.95 14.76L20.06 12.86C19.69 12.49 19.05 12.49 18.68 12.86L12.52 19.02C12.34 19.2 12.23 19.45 12.23 19.71V21.6C12.23 22.14 12.67 22.57 13.2 22.57H15.09C15.35 22.57 15.59 22.47 15.78 22.28L21.94 16.12C22.32 15.74 22.32 15.12 21.94 14.74L21.95 14.76ZM14.18 20.63V20.11L19.36 14.93L19.88 15.45L14.7 20.63H14.18Z" fill="#777777"/>
</g>
<defs>
<clipPath id="clip0_6380_77854">
<rect width="20.24" height="20.58" fill="white" transform="translate(2 2)"/>
</clipPath>
</defs>
</svg>
