<svg width="81" height="80" viewBox="0 0 81 80" fill="none" xmlns="http://www.w3.org/2000/svg">
    <circle cx="40.5" cy="40" r="40" fill="white" />
    <g clip-path="url(#clip0_2377_17945)">
        <path
            d="M53.0799 51.2612C52.8609 51.0311 52.5652 50.8887 52.2586 50.8887C51.9739 50.8887 51.7221 50.9873 51.514 51.1845C51.295 51.3817 51.1636 51.6557 51.1527 51.9515C51.1417 52.2474 51.2403 52.5322 51.4374 52.7514L53.5288 55.0524C53.9559 55.5126 54.6567 55.5235 55.0947 55.1291C55.3137 54.9319 55.4451 54.6579 55.4561 54.3621C55.467 54.0662 55.3685 53.7814 55.1714 53.5622L53.0799 51.2612Z"
            fill="#003BFF" />
        <path
            d="M57.8539 48.4455L54.996 47.1636C54.8646 47.0978 54.7112 47.0649 54.547 47.0649C54.109 47.0649 53.7148 47.317 53.5286 47.7114C53.2768 48.2483 53.5286 48.9277 54.0761 49.1797L56.9232 50.4617C57.0546 50.5274 57.2079 50.5603 57.3721 50.5603C57.8101 50.5603 58.2043 50.3083 58.3905 49.9138C58.6423 49.3769 58.3905 48.7085 57.843 48.4455H57.8539Z"
            fill="#003BFF" />
        <path
            d="M57.7446 39.373C57.7446 38.4855 57.3942 37.6418 56.7591 37.0063C56.5729 36.82 56.343 36.6447 56.0582 36.4584L55.8502 36.3269L55.9925 36.1407C56.4306 35.5599 56.6605 34.8696 56.6605 34.1246C56.6605 33.237 56.3101 32.3933 55.675 31.7578C55.4122 31.4948 55.0946 31.2647 54.7333 31.0894L54.5581 31.0018L54.6238 30.8155C54.7661 30.421 54.8428 30.0156 54.8428 29.6212C54.8428 28.7336 54.4924 27.8899 53.8573 27.2544C53.2222 26.6189 52.4119 26.2902 51.4921 26.2902C51.3607 26.2902 51.2293 26.2902 51.0979 26.3012L50.9227 26.3231L50.8679 26.1587C50.7146 25.7095 50.4409 25.2712 50.0905 24.8986C49.4882 24.296 48.6888 23.9673 47.8128 23.9673C46.9368 23.9673 46.1594 24.285 45.5352 24.8986L39.9945 30.443L39.9507 29.9828C39.7536 28.0762 38.3629 26.5203 36.4905 26.082C36.3153 26.0491 36.151 26.0163 35.9867 26.0163C35.0012 26.0163 34.1143 26.6737 33.8186 27.6051C33.5449 28.5145 33.0521 29.9937 32.5156 31.5825L32.428 31.8345L32.198 31.6921C31.7819 31.4401 31.3439 31.2757 30.895 31.1771C30.7198 31.1442 30.5446 31.1113 30.3803 31.1113C29.3838 31.1113 28.4859 31.7797 28.2122 32.744C27.9275 33.7301 26.931 36.9953 25.8798 40.4468L24.971 43.4272C23.5584 48.0839 25.2776 53.0914 29.2415 55.8854C31.1578 57.2441 33.4135 57.9563 35.7458 57.9563C36.0525 57.9563 36.37 57.9563 36.6876 57.9235C39.3265 57.7043 41.8231 56.5538 43.7175 54.6582L57.0766 41.3124C57.5037 40.7427 57.7336 40.0524 57.7336 39.3292L57.7446 39.373ZM50.7365 28.898C51.1417 28.4926 51.8863 28.4707 52.3352 28.9199C52.5542 29.1391 52.6747 29.413 52.6747 29.6979C52.6747 29.9828 52.5652 30.2567 52.3462 30.4868L51.9629 30.9032L50.0576 32.7549L49.9153 32.5139C49.7729 32.2728 49.5977 32.0537 49.3896 31.8455C49.1706 31.6263 48.9516 31.462 48.7107 31.3195L48.4589 31.1771L50.7365 28.898ZM47.1777 26.5641C47.5719 26.1697 48.207 26.1697 48.6012 26.5641C48.7874 26.7504 48.864 26.9586 48.864 27.2435C48.864 27.5064 48.7545 27.7694 48.5574 27.9557L46.2689 30.2676L46.1265 30.0266C46.0061 29.8403 45.8528 29.6431 45.6666 29.4568C45.4805 29.2705 45.2943 29.1171 45.0972 28.9966L44.8563 28.8542L47.1668 26.5641H47.1777ZM34.1143 33.9054C34.8917 31.7578 35.5487 29.7088 35.921 28.5145L35.9977 28.2734L36.4467 28.4707C37.3446 28.9199 37.8154 29.4568 37.8154 30.4977C37.8154 31.188 37.5307 32.0427 37.3227 32.6673C37.0927 33.237 36.8628 33.6753 36.2496 34.3437L34.4318 36.1626V35.6366C34.4318 35.0997 34.3333 34.5738 34.1471 34.0588L34.1143 33.9821L34.1362 33.9054H34.1143ZM50.7803 44.6872L42.2502 53.2009C40.7391 54.713 38.7352 55.6444 36.6109 55.8197C36.3262 55.8416 36.0963 55.8526 35.8553 55.8526C33.961 55.8526 32.1542 55.2828 30.6103 54.1871C27.4128 51.9299 26.0441 47.9086 27.1829 44.1832C28.3655 40.3373 29.9204 35.2093 30.3694 33.6315L30.4351 33.4123L30.6541 33.4781C31.1687 33.6424 31.5958 33.9712 31.9024 34.4314C32.209 34.9135 32.3075 35.6257 32.1652 36.2393L32.0995 36.557L31.3658 39.4278C31.2563 39.899 31.4753 40.4139 31.9024 40.6331C32.428 40.8961 32.9098 40.7755 33.2273 40.4468L42.6772 31.0018C43.0715 30.6073 43.7066 30.6073 44.1008 31.0018C44.2979 31.199 44.3964 31.4401 44.3964 31.714C44.3964 31.9879 44.2979 32.229 44.1008 32.4262L38.4286 38.0801C38.2206 38.2883 38.1001 38.5732 38.1001 38.869C38.1001 39.1648 38.2096 39.4497 38.4286 39.6579C38.8447 40.0743 39.5893 40.0743 40.0054 39.6579L46.2689 33.4123C46.7069 32.9741 47.4186 32.9741 47.8676 33.4123C48.0866 33.6315 48.207 33.9054 48.207 34.1903C48.207 34.4752 48.1194 34.7162 47.9442 34.9135L41.626 41.2357C41.407 41.4549 41.2975 41.7288 41.2975 42.0356C41.2975 42.3314 41.418 42.5944 41.626 42.8026C41.7574 42.9341 41.9326 43.0327 42.1735 43.1094L42.3268 43.1423L42.6444 43.1094C42.8524 43.0656 43.0496 42.967 43.1919 42.8136L48.1194 37.8938C48.5574 37.4555 49.2692 37.4555 49.7182 37.8938C49.9262 38.102 50.0357 38.3759 50.0357 38.6718C50.0357 38.9676 49.9153 39.2525 49.6963 39.4716L42.4692 46.7033C42.2611 46.9115 42.1407 47.1964 42.1407 47.4923C42.1407 47.7662 42.2502 48.0292 42.4801 48.2921L42.6334 48.4127L42.9948 48.5551L43.1481 48.588L43.4985 48.5551C43.6737 48.5222 43.8599 48.4236 44.046 48.2593L49.1925 43.1204C49.6415 42.6711 50.3971 42.693 50.7913 43.1204C50.9993 43.3505 51.0979 43.6025 51.0979 43.8983C51.0979 44.1942 50.9884 44.4681 50.7803 44.6763V44.6872ZM50.5394 35.79L50.2876 35.6476L52.598 33.3356C53.0251 32.9521 53.7149 32.9631 54.142 33.3904C54.35 33.5986 54.4595 33.8725 54.4595 34.1684C54.4595 34.4642 54.35 34.7272 54.142 34.9463L51.8644 37.1926L51.733 36.9625C51.5906 36.7324 51.4154 36.5023 51.2293 36.316C51.0103 36.0968 50.7913 35.9325 50.5504 35.79H50.5394ZM55.2041 40.1619L52.9484 42.441L52.8061 42.2C52.6637 41.9589 52.4885 41.7398 52.2805 41.5316C52.0724 41.3234 51.8534 41.1481 51.6125 41.0056L51.3716 40.8632L53.7368 38.5074C54.1967 38.1568 54.8428 38.2116 55.226 38.5951C55.4341 38.8033 55.5436 39.0772 55.5436 39.373C55.5436 39.6689 55.4231 39.9538 55.2151 40.1729L55.2041 40.1619Z"
            fill="#003BFF" />
    </g>
    <defs>
        <clipPath id="clip0_2377_17945">
            <rect width="34" height="34" fill="white" transform="translate(24.5 24)" />
        </clipPath>
    </defs>
</svg>