<svg width="81" height="80" viewBox="0 0 81 80" fill="none" xmlns="http://www.w3.org/2000/svg">
<circle cx="40.5" cy="40" r="40" fill="white"/>
<path fill-rule="evenodd" clip-rule="evenodd" d="M31.6129 25.833C31.0024 25.833 30.4768 26.2663 30.3571 26.8683L26.46 46.4641C25.6676 50.4487 28.6982 54.1663 32.7389 54.1663H51.8086C52.8647 54.1663 53.8849 53.506 54.2362 52.4219C54.5598 51.4298 54.7088 50.3656 54.6566 49.2627L54.6564 49.2594C54.4457 45.0351 51.1322 41.4971 46.9429 41.05C44.1684 40.7539 41.6244 41.7804 39.854 43.5788L37.8437 36.0996L42.603 32.676C43.1373 32.2916 43.2958 31.5631 42.9699 30.9895L40.4086 26.4819C40.1806 26.0806 39.7563 25.833 39.2967 25.833H31.6129ZM35.2102 36.1729L33.8029 34.3501C33.3692 33.7883 33.4704 32.9792 34.0291 32.543C34.5878 32.1068 35.3923 32.2087 35.826 32.7705L36.6269 33.8079L40.1723 31.2576L38.5535 28.4088H32.6628L28.9716 46.9692C28.4961 49.36 30.3144 51.5906 32.7389 51.5906H51.8086L51.8118 51.5904C52.0317 50.9046 52.135 50.1641 52.0983 49.3863C51.9495 46.4252 49.6029 43.9241 46.6726 43.6114C43.5789 43.2811 40.8955 45.2744 40.1278 48.0698C39.9395 48.7554 39.2342 49.1577 38.5524 48.9683C37.8707 48.779 37.4706 48.0697 37.6589 47.3841C37.7464 47.0655 37.8515 46.7543 37.9729 46.4515L35.2102 36.1729ZM54.2362 52.4219L54.2368 52.4201L53.0188 52.022L54.2356 52.4237L54.2362 52.4219Z" fill="#EE5A50"/>
</svg>
