<svg width="19" height="18" viewBox="0 0 19 18" fill="none" xmlns="http://www.w3.org/2000/svg">
    <path fill-rule="evenodd" clip-rule="evenodd"
        d="M15.5923 6.4913C15.5871 6.4913 15.5814 6.49369 15.5758 6.49369C15.3987 3.29862 12.7125 0.692383 9.50024 0.692383C6.28788 0.692383 3.60174 3.29862 3.42435 6.49369C3.419 6.49369 3.4134 6.4913 3.4078 6.4913C2.18933 6.4913 1.19238 7.49508 1.19238 8.72172L1.19238 10.9521C1.19238 12.1788 2.18933 13.1825 3.4078 13.1825C4.62619 13.1825 5.62313 12.1788 5.62313 10.9521V8.72172C5.62313 7.90328 5.17457 7.19293 4.5178 6.80473C4.52968 4.027 6.73882 1.80759 9.50024 1.80759C12.2613 1.80759 14.4704 4.02665 14.4823 6.80473C13.8256 7.19293 13.377 7.9043 13.377 8.72172V10.9521C13.377 11.8109 13.871 12.5526 14.5822 12.9238C13.9708 13.6798 12.7713 14.8631 11.154 15.0494C10.907 14.4282 10.2943 13.9622 9.61101 13.9622C8.72474 13.9622 7.94923 14.7426 7.94923 15.6348C7.94923 16.5271 8.72474 17.3078 9.61101 17.3078C10.4017 17.3078 10.9776 16.8138 11.1838 16.1646C13.6618 15.9349 15.2579 13.9409 15.8151 13.1592C16.9281 13.0443 17.8078 12.102 17.8078 10.9521V8.72172C17.8078 7.49508 16.8112 6.4913 15.5923 6.4913ZM4.51548 10.9521C4.51548 11.6214 4.0726 12.0672 3.40785 12.0672C2.74336 12.0672 2.30014 11.6214 2.30014 10.9521L2.30014 8.72168C2.30014 8.05278 2.74336 7.60647 3.40785 7.60647C4.0726 7.60647 4.51548 8.05278 4.51548 8.72168L4.51548 10.9521ZM9.61097 16.1935C9.27868 16.1935 9.0569 15.9706 9.0569 15.6361C9.0569 15.3013 9.27843 15.0784 9.61097 15.0784C9.94317 15.0784 10.1646 15.3013 10.1646 15.6361C10.1646 15.9706 9.94317 16.1935 9.61097 16.1935ZM16.7001 10.9521C16.7001 11.6214 16.2571 12.0672 15.5924 12.0672C14.928 12.0672 14.4847 11.6214 14.4847 10.9521V8.72168C14.4847 8.05278 14.928 7.60647 15.5924 7.60647C16.2571 7.60647 16.7001 8.05278 16.7001 8.72168V10.9521Z"
        fill="#777777" />
    <path fill-rule="evenodd" clip-rule="evenodd"
        d="M15.7052 6.35534C15.4594 3.14848 12.7437 0.553711 9.50003 0.553711C6.25626 0.553711 3.54062 3.14849 3.29452 6.35534C2.05078 6.41522 1.05371 7.45737 1.05371 8.72151L1.05371 10.9519C1.05371 12.2542 2.11177 13.3207 3.40759 13.3207C4.70333 13.3207 5.76139 12.2542 5.76139 10.9519V8.72151C5.76139 7.87988 5.31538 7.14717 4.65697 6.72764C4.7088 4.0615 6.84156 1.94585 9.50003 1.94585C12.1582 1.94585 14.2909 4.06117 14.3428 6.72764C13.6843 7.14726 13.2383 7.88091 13.2383 8.72151V10.9519C13.2383 11.8045 13.6961 12.5472 14.3702 12.9624C13.7545 13.6903 12.6656 14.6941 11.2394 14.8985C10.9502 14.2804 10.3194 13.8235 9.6108 13.8235C8.64722 13.8235 7.81056 14.6668 7.81056 15.6346C7.81056 16.6025 8.64719 17.446 9.6108 17.446C10.4306 17.446 11.0399 16.9525 11.2856 16.2932C13.7264 16.0244 15.3079 14.0976 15.8918 13.2894C17.0442 13.1392 17.946 12.1525 17.946 10.9519V8.72151C17.946 7.45738 16.9493 6.41522 15.7052 6.35534ZM15.6164 6.49122C15.6083 6.49113 15.6002 6.49109 15.5921 6.49109C15.5895 6.49109 15.5869 6.49167 15.5841 6.49226C15.5821 6.49269 15.5801 6.49313 15.578 6.49334C15.5772 6.49343 15.5764 6.49348 15.5756 6.49348C15.573 6.44732 15.5699 6.40129 15.5664 6.35538C15.5663 6.35516 15.5663 6.35495 15.5663 6.35473C15.3204 3.2233 12.6657 0.692172 9.50003 0.692172C6.3343 0.692172 3.67963 3.22328 3.43345 6.3547C3.43343 6.35493 3.43341 6.35515 3.4334 6.35538C3.42979 6.40128 3.4267 6.44732 3.42414 6.49348C3.4234 6.49348 3.42266 6.49343 3.42192 6.49336C3.41999 6.49315 3.41803 6.49273 3.41606 6.4923C3.41326 6.4917 3.41042 6.49109 3.40759 6.49109C3.39953 6.49109 3.39147 6.49113 3.38342 6.49122C2.17596 6.50438 1.19217 7.50299 1.19217 8.72151L1.19217 10.9519C1.19217 12.1786 2.18912 13.1823 3.40759 13.1823C4.62598 13.1823 5.62292 12.1786 5.62292 10.9519V8.72151C5.62292 7.90307 5.17436 7.19272 4.51759 6.80452C4.52947 4.02679 6.73861 1.80738 9.50003 1.80738C12.2611 1.80738 14.4702 4.02644 14.4821 6.80452C13.8254 7.19272 13.3768 7.90409 13.3768 8.72151V10.9519C13.3768 11.7605 13.8147 12.4653 14.4595 12.8548C14.4995 12.8789 14.5404 12.9019 14.582 12.9236C14.5533 12.9591 14.5233 12.9955 14.4921 13.0327C13.8571 13.7884 12.6952 14.8716 11.1537 15.0492C10.9068 14.428 10.294 13.962 9.6108 13.962C8.72453 13.962 7.94902 14.7424 7.94902 15.6346C7.94902 16.5269 8.72453 17.3076 9.6108 17.3076C10.4015 17.3076 10.9774 16.8136 11.1836 16.1644C13.6616 15.9347 15.2576 13.9406 15.8149 13.1589C16.9279 13.0441 17.8076 12.1018 17.8076 10.9519V8.72151C17.8076 7.50301 16.8241 6.50442 15.6164 6.49122ZM4.1125 11.6629C4.27698 11.4973 4.3768 11.2554 4.3768 10.9519L4.3768 8.72147C4.3768 8.4182 4.27698 8.17626 4.11248 8.01059C3.94807 7.84501 3.70825 7.74472 3.40764 7.74472C3.10717 7.74472 2.86732 7.845 2.70284 8.0106C2.53828 8.17629 2.43839 8.41823 2.43839 8.72147L2.43839 10.9519C2.43839 11.2553 2.53829 11.4972 2.70283 11.6628C2.86729 11.8284 3.10713 11.9286 3.40764 11.9286C3.70829 11.9286 3.9481 11.8284 4.1125 11.6629ZM9.30731 15.9424C9.37489 16.0104 9.47634 16.0549 9.61076 16.0549C9.74512 16.0549 9.84644 16.0104 9.91392 15.9425C9.98148 15.8745 10.0259 15.772 10.0259 15.6359C10.0259 15.4997 9.98146 15.3971 9.9139 15.3291C9.84643 15.2611 9.74512 15.2167 9.61076 15.2167C9.47619 15.2167 9.37477 15.2611 9.30725 15.3291C9.23965 15.3972 9.19516 15.4997 9.19516 15.6359C9.19516 15.7719 9.23966 15.8744 9.30731 15.9424ZM16.2971 11.6628C16.4616 11.4973 16.5614 11.2554 16.5614 10.9519V8.72147C16.5614 8.41821 16.4616 8.17627 16.297 8.01059C16.1326 7.84501 15.8928 7.74472 15.5922 7.74472C15.2917 7.74472 15.0519 7.845 14.8874 8.0106C14.7228 8.17629 14.6229 8.41824 14.6229 8.72147V10.9519C14.6229 11.2553 14.7228 11.4972 14.8874 11.6628C15.0518 11.8284 15.2917 11.9286 15.5922 11.9286C15.8928 11.9286 16.1326 11.8284 16.2971 11.6628ZM3.40764 12.067C4.07239 12.067 4.51527 11.6211 4.51527 10.9519L4.51527 8.72147C4.51527 8.05257 4.07239 7.60626 3.40764 7.60626C2.74315 7.60626 2.29993 8.05257 2.29993 8.72147L2.29993 10.9519C2.29993 11.6211 2.74315 12.067 3.40764 12.067ZM9.05669 15.6359C9.05669 15.9704 9.27847 16.1933 9.61076 16.1933C9.94296 16.1933 10.1644 15.9704 10.1644 15.6359C10.1644 15.3011 9.94296 15.0782 9.61076 15.0782C9.27822 15.0782 9.05669 15.3011 9.05669 15.6359ZM15.5922 12.067C16.2569 12.067 16.6999 11.6211 16.6999 10.9519V8.72147C16.6999 8.05257 16.2569 7.60626 15.5922 7.60626C14.9278 7.60626 14.4844 8.05257 14.4844 8.72147V10.9519C14.4844 11.6211 14.9278 12.067 15.5922 12.067Z"
        fill="#777777" />
    <ellipse cx="11.3816" cy="7.12562" rx="0.623835" ry="0.62806" fill="#777777" />
    <ellipse cx="7.63848" cy="7.12562" rx="0.623834" ry="0.62806" fill="#777777" />
    <path fill-rule="evenodd" clip-rule="evenodd"
        d="M7.86828 9.70352C7.83131 9.55865 7.94474 9.42873 8.09425 9.42873H10.6525C10.802 9.42873 10.9155 9.55865 10.8785 9.70352C10.7565 10.1817 10.3882 11.1161 9.37338 11.1161C8.35857 11.1161 7.99029 10.1817 7.86828 9.70352Z"
        fill="#777777" />
</svg>