<svg width="18" height="18" viewBox="0 0 18 18" fill="none" xmlns="http://www.w3.org/2000/svg">
<g clip-path="url(#clip0_1302_5620)">
<path d="M15.7546 8.99766C15.3045 8.99766 15.0021 9.3 15.0021 9.75L15.0021 12L2.99789 12L2.99789 4.49766L9.74895 4.49766C10.199 4.49766 10.5014 4.19531 10.5014 3.74531C10.5014 3.29531 10.199 3 9.74895 3L2.99789 3C2.62518 3 2.25246 3.14766 1.95007 3.45C1.64768 3.75234 1.5 4.125 1.5 4.49766L1.5 12C1.5 12.3727 1.64768 12.7523 1.95007 13.0477C2.25246 13.35 2.62518 13.4977 2.99789 13.4977H6.0007L6.0007 14.9953H5.24824C4.79817 14.9953 4.49578 15.2977 4.49578 15.7477C4.49578 16.1977 4.79817 16.5 5.24824 16.5H12.7518C13.2018 16.5 13.5042 16.1977 13.5042 15.7477C13.5042 15.2977 13.2018 14.9953 12.7518 14.9953H11.9993V13.4977H15.0021C15.3748 13.4977 15.7546 13.35 16.0499 13.0477C16.3453 12.7453 16.5 12.3727 16.5 12V9.75C16.5 9.3 16.1976 8.99766 15.7475 8.99766H15.7546ZM10.5014 14.9953L7.49859 14.9953L7.49859 13.4977L10.5014 13.4977V14.9953Z" fill="#EE79EE"/>
<path d="M15.7547 3L12.7518 3C12.3018 3 11.9994 3.30234 11.9994 3.75234C11.9994 4.20234 12.3018 4.50469 12.7518 4.50469H13.9544L11.479 6.97969C11.1766 7.28203 11.1766 7.73203 11.479 8.02734C11.6267 8.175 11.7814 8.25234 12.0064 8.25234C12.2315 8.25234 12.3791 8.175 12.5338 8.02734L15.0092 5.55234V6.75469C15.0092 7.20469 15.3116 7.50703 15.7617 7.50703C16.2118 7.50703 16.5142 7.20469 16.5142 6.75469V3.75234C16.5001 3.30234 16.2047 3 15.7547 3Z" fill="#EE79EE"/>
</g>
<defs>
<clipPath id="clip0_1302_5620">
<rect width="15" height="13.5" fill="white" transform="translate(1.5 3)"/>
</clipPath>
</defs>
</svg>
