<svg width="24" height="24" viewBox="0 0 24 24" fill="none" xmlns="http://www.w3.org/2000/svg">
<g clip-path="url(#clip0_7622_115248)">
<path d="M21.0061 11.9969C20.406 11.9969 20.0028 12.4 20.0028 13V16H3.99719V5.99687H12.9986C13.5987 5.99687 14.0019 5.59375 14.0019 4.99375C14.0019 4.39375 13.5987 4 12.9986 4H3.99719C3.50023 4 3.00328 4.19687 2.60009 4.6C2.19691 5.00312 2 5.5 2 5.99687V16C2 16.4969 2.19691 17.0031 2.60009 17.3969C3.00328 17.8 3.50023 17.9969 3.99719 17.9969H8.00094V19.9937H6.99766C6.39756 19.9937 5.99437 20.3969 5.99437 20.9969C5.99437 21.5969 6.39756 22 6.99766 22H17.0023C17.6024 22 18.0056 21.5969 18.0056 20.9969C18.0056 20.3969 17.6024 19.9937 17.0023 19.9937H15.9991V17.9969H20.0028C20.4998 17.9969 21.0061 17.8 21.3999 17.3969C21.7937 16.9937 22 16.4969 22 16V13C22 12.4 21.5968 11.9969 20.9967 11.9969H21.0061ZM14.0019 19.9937H9.99812V17.9969H14.0019V19.9937Z" fill="#777777"/>
<path d="M21.0061 4H17.0023C16.4022 4 15.9991 4.40313 15.9991 5.00313C15.9991 5.60313 16.4022 6.00625 17.0023 6.00625H18.6057L15.3052 9.30625C14.902 9.70937 14.902 10.3094 15.3052 10.7031C15.5021 10.9 15.7084 11.0031 16.0084 11.0031C16.3085 11.0031 16.5054 10.9 16.7117 10.7031L20.0122 7.40313V9.00625C20.0122 9.60625 20.4154 10.0094 21.0155 10.0094C21.6156 10.0094 22.0187 9.60625 22.0187 9.00625V5.00313C22 4.40313 21.6062 4 21.0061 4Z" fill="#777777"/>
</g>
<defs>
<clipPath id="clip0_7622_115248">
<rect width="20" height="18" fill="white" transform="translate(2 4)"/>
</clipPath>
</defs>
</svg>
