<svg viewBox="0 0 18 18" fill="none" xmlns="http://www.w3.org/2000/svg">
    <path
        d="M9 0.75C13.5564 0.75 17.25 4.44365 17.25 9C17.25 13.5564 13.5564 17.25 9 17.25C4.44365 17.25 0.75 13.5564 0.75 9C0.75 4.44365 4.44365 0.75 9 0.75ZM9 2.25C5.27208 2.25 2.25 5.27208 2.25 9C2.25 12.7279 5.27208 15.75 9 15.75C12.7279 15.75 15.75 12.7279 15.75 9C15.75 5.27208 12.7279 2.25 9 2.25ZM11.9604 10.9542C12.3309 11.1394 12.4811 11.5899 12.2958 11.9604C12.1626 12.2268 11.9099 12.5835 11.5139 12.9356C10.8556 13.5207 10.0142 13.875 9 13.875C7.9858 13.875 7.14443 13.5207 6.4861 12.9356C6.09005 12.5835 5.83736 12.2268 5.70418 11.9604C5.51894 11.5899 5.66911 11.1394 6.03959 10.9542C6.38361 10.7822 6.79663 10.8994 7.00219 11.2136L7.04582 11.2896C7.10014 11.3982 7.24588 11.604 7.48265 11.8144C7.87901 12.1668 8.37357 12.375 9 12.375C9.62643 12.375 10.121 12.1668 10.5174 11.8144C10.7203 11.6341 10.8564 11.4571 10.9253 11.3418L10.9542 11.2896C11.1394 10.9191 11.5899 10.7689 11.9604 10.9542ZM11.625 6C12.0096 6 12.3266 6.28953 12.37 6.66253L12.375 6.75L12.375 8.25C12.375 8.66421 12.0392 9 11.625 9C11.2404 9 10.9234 8.71047 10.88 8.33747L10.875 8.25L10.875 6.75C10.875 6.33579 11.2108 6 11.625 6ZM6.375 6C6.75963 6 7.07663 6.28953 7.11995 6.66253L7.125 6.75V8.25C7.125 8.66421 6.78921 9 6.375 9C5.99037 9 5.67337 8.71047 5.63005 8.33747L5.625 8.25V6.75C5.625 6.33579 5.96079 6 6.375 6Z"
        fill="#777777" />
</svg>