<svg width="24" height="24" viewBox="0 0 24 24" fill="none" xmlns="http://www.w3.org/2000/svg">
    <path fill-rule="evenodd" clip-rule="evenodd"
        d="M14.8593 3.78533C15.1897 3.94306 15.4 4.27656 15.4 4.64264V19.6426C15.4 20.0088 15.1896 20.3423 14.8592 20.5C14.5288 20.6577 14.1371 20.6115 13.8525 20.3812L8.72121 16.2301L3.45027 16.2315C3.19826 16.2316 2.95656 16.1315 2.77834 15.9534C2.60013 15.7752 2.5 15.5335 2.5 15.2815V9.00315C2.5 8.47848 2.92533 8.05315 3.45 8.05315H8.72122L13.8527 3.90392C14.1373 3.67375 14.5289 3.62761 14.8593 3.78533ZM13.5 6.63251L9.65457 9.74187C9.48551 9.87857 9.27467 9.95315 9.05725 9.95315H4.4V14.3313L9.05698 14.33C9.27457 14.3299 9.48559 14.4045 9.65475 14.5414L13.5 17.6522V6.63251Z"
        fill="#777777" />
    <path fill-rule="evenodd" clip-rule="evenodd"
        d="M18.4076 8.28955C18.8 7.96238 19.3833 8.01523 19.7105 8.40759C21.394 10.4266 21.6293 13.1541 20.0382 15.5167C19.7528 15.9404 19.1779 16.0526 18.7542 15.7672C18.3305 15.4818 18.2183 14.907 18.5037 14.4833C19.6253 12.8179 19.4579 10.9934 18.2896 9.59236C17.9624 9.2 18.0153 8.61672 18.4076 8.28955Z"
        fill="#777777" />
</svg>