<svg width="24" height="24" viewBox="0 0 24 24" fill="none" xmlns="http://www.w3.org/2000/svg">
    <path fill-rule="evenodd" clip-rule="evenodd"
        d="M16.4093 3.78222C16.7396 3.93994 16.95 4.27344 16.95 4.63952V19.6395C16.95 20.0056 16.7396 20.3392 16.4092 20.4969C16.0788 20.6546 15.6871 20.6084 15.4025 20.3781L10.2712 16.2269L5.00025 16.2284C4.74825 16.2285 4.50655 16.1284 4.32833 15.9503C4.15011 15.7721 4.04999 15.5304 4.04999 15.2784V9.00003C4.04999 8.47536 4.47532 8.05003 4.99999 8.05003H10.2712L15.4027 3.9008C15.6873 3.67063 16.0789 3.6245 16.4093 3.78222ZM15.05 6.62939L11.2046 9.73875C11.0355 9.87545 10.8247 9.95003 10.6072 9.95003H5.94999V14.3281L10.607 14.3268C10.8246 14.3268 11.0356 14.4014 11.2047 14.5383L15.05 17.649V6.62939Z"
        fill="#777777" />
    <path fill-rule="evenodd" clip-rule="evenodd"
        d="M21.1384 5.16365C21.4692 5.5709 21.4073 6.16921 21 6.5L5.65556 20.1832C5.24831 20.514 4.65 20.452 4.31921 20.0448C3.98842 19.6375 4.0504 19.0392 4.45766 18.7084L19.8021 5.0252C20.2094 4.69441 20.8077 4.7564 21.1384 5.16365Z"
        fill="#777777" />
</svg>