<svg width="19" height="18" viewBox="0 0 19 18" fill="none" xmlns="http://www.w3.org/2000/svg">
    <path fill-rule="evenodd" clip-rule="evenodd"
        d="M13.849 3.30971C12.9032 2.36475 11.6677 1.89151 10.4315 1.89686C10.115 1.89839 9.85733 1.64227 9.8558 1.32652C9.85427 1.01 10.1096 0.751589 10.4261 0.75006C11.9575 0.743179 13.4889 1.32805 14.6594 2.49931C15.8306 3.66981 16.4155 5.20117 16.4086 6.73253C16.4071 7.04904 16.1487 7.3044 15.8321 7.30287C15.5164 7.30134 15.2603 7.04369 15.2618 6.72717C15.2672 5.49092 14.7939 4.25544 13.849 3.30971ZM10.4292 4.60023C10.9712 4.60023 11.5194 4.80588 11.9361 5.22255C12.3528 5.63922 12.5584 6.18739 12.5584 6.72945C12.5584 7.04596 12.8153 7.30285 13.1318 7.30285C13.4483 7.30285 13.7052 7.04596 13.7052 6.72945C13.7052 5.89534 13.3887 5.05283 12.7473 4.41139C12.1058 3.77071 11.2633 3.45343 10.4292 3.45343C10.1127 3.45343 9.85579 3.71031 9.85579 4.02683C9.85579 4.34334 10.1127 4.60023 10.4292 4.60023ZM4.91311 8.26539C4.91311 6.64917 6.22505 5.33723 7.84127 5.33723C9.45749 5.33723 10.7702 6.64917 10.7702 8.26539C10.7702 9.13657 10.3888 9.91956 9.78405 10.4563C11.4737 11.2034 12.654 12.8946 12.654 14.8595C12.654 15.5216 12.2304 16.0942 11.4621 16.4918C10.5836 16.9459 9.21436 17.1875 7.84126 17.1875C6.46893 17.1875 5.09965 16.9459 4.2212 16.4918C3.45285 16.0942 3.0293 15.5216 3.0293 14.8595C3.0293 12.8946 4.20929 11.2033 5.89875 10.4562C5.29426 9.91949 4.91311 9.13653 4.91311 8.26539ZM9.6234 8.26539C9.6234 7.2822 8.82523 6.48403 7.84127 6.48403C6.85808 6.48403 6.05991 7.2822 6.05991 8.26539C6.05991 9.24858 6.85808 10.0475 7.84127 10.0475C8.82523 10.0475 9.6234 9.24858 9.6234 8.26539ZM11.5072 14.8595C11.5072 12.8365 9.86498 11.1943 7.84126 11.1943C5.81831 11.1943 4.1761 12.8365 4.1761 14.8595C4.1761 15.1347 4.42916 15.3083 4.74797 15.4734C5.49721 15.861 6.67076 16.0407 7.84126 16.0407C9.01253 16.0407 10.1861 15.861 10.9353 15.4734C11.2541 15.3083 11.5072 15.1347 11.5072 14.8595Z"
        fill="#777777" />
    <path fill-rule="evenodd" clip-rule="evenodd"
        d="M10.425 0.600037L10.4251 0.600037C11.9952 0.592982 13.5653 1.19275 14.765 2.39318C15.9655 3.59288 16.5653 5.16307 16.5582 6.73317L16.5582 6.73323C16.5563 7.13278 16.2302 7.45477 15.831 7.45284C15.4327 7.45091 15.1095 7.12602 15.1114 6.7265C15.1166 5.52912 14.6584 4.3324 13.7425 3.41576C12.8259 2.4999 11.6292 2.04167 10.4318 2.04683M13.8486 3.30969C12.9028 2.36473 11.6673 1.89148 10.4311 1.89683C10.1146 1.89836 9.85694 1.64224 9.85541 1.32649C9.85388 1.00998 10.1092 0.751565 10.4257 0.750036C11.9571 0.743155 13.4885 1.32802 14.659 2.49929C15.8302 3.66978 16.4151 5.20114 16.4082 6.7325C16.4067 7.04902 16.1483 7.30437 15.8318 7.30284C15.516 7.30131 15.2599 7.04367 15.2614 6.72715C15.2668 5.4909 14.7935 4.25542 13.8486 3.30969ZM10.4318 2.04683C10.0322 2.04872 9.70734 1.72559 9.70541 1.32722C9.70348 0.928056 10.0255 0.601968 10.425 0.600037M12.8529 4.30523L12.8529 4.3053C13.5239 4.97629 13.8548 5.85759 13.8548 6.72942C13.8548 7.12878 13.5308 7.45282 13.1314 7.45282C12.7321 7.45282 12.408 7.12878 12.408 6.72942C12.408 6.22503 12.2167 5.71567 11.8296 5.3286C11.4426 4.94152 10.9332 4.7502 10.4288 4.7502C10.0294 4.7502 9.7054 4.42616 9.7054 4.0268C9.7054 3.62744 10.0294 3.3034 10.4288 3.3034C11.3007 3.3034 12.1819 3.63512 12.8529 4.30523ZM11.5306 16.625L11.5306 16.625C10.6222 17.0946 9.22588 17.3375 7.84087 17.3375C6.45662 17.3375 5.06028 17.0946 4.15193 16.625L4.15188 16.625C3.35277 16.2115 2.87891 15.5962 2.87891 14.8595C2.87891 12.912 4.00296 11.2256 5.63653 10.4135C5.09612 9.8587 4.76272 9.10056 4.76272 8.26537C4.76272 6.5663 6.14182 5.18721 7.84088 5.18721C9.53989 5.18721 10.9198 6.56625 10.9198 8.26537C10.9198 9.10062 10.5862 9.85879 10.0455 10.4136C11.6792 11.2257 12.8036 12.912 12.8036 14.8595C12.8036 15.5962 12.3297 16.2115 11.5306 16.625ZM9.93152 10.5247C11.5417 11.3032 12.6536 12.9525 12.6536 14.8595C12.6536 15.5216 12.2301 16.0942 11.4617 16.4917C10.5833 16.9459 9.21397 17.1875 7.84087 17.1875C6.46854 17.1875 5.09926 16.9459 4.22081 16.4917C3.45246 16.0942 3.02891 15.5216 3.02891 14.8595C3.02891 12.9524 4.14045 11.3031 5.75052 10.5246C5.79935 10.501 5.84864 10.4782 5.89836 10.4562C5.85786 10.4203 5.81835 10.3832 5.77989 10.345C5.2445 9.81413 4.91272 9.07813 4.91272 8.26537C4.91272 6.64914 6.22466 5.33721 7.84088 5.33721C9.4571 5.33721 10.7698 6.64914 10.7698 8.26537C10.7698 9.07817 10.4378 9.81421 9.90217 10.3451C9.8637 10.3833 9.82418 10.4203 9.78366 10.4563C9.83339 10.4783 9.88269 10.5011 9.93152 10.5247ZM12.7469 4.41136C13.3883 5.0528 13.7048 5.89532 13.7048 6.72942C13.7048 7.04594 13.4479 7.30282 13.1314 7.30282C12.8149 7.30282 12.558 7.04594 12.558 6.72942C12.558 6.18737 12.3524 5.6392 11.9357 5.22253C11.519 4.80586 10.9709 4.6002 10.4288 4.6002C10.1123 4.6002 9.8554 4.34332 9.8554 4.0268C9.8554 3.71028 10.1123 3.4534 10.4288 3.4534C11.2629 3.4534 12.1054 3.77068 12.7469 4.41136ZM9.47301 8.26537C9.47301 7.36506 8.74203 6.63401 7.84088 6.63401C6.94054 6.63401 6.20952 7.36502 6.20952 8.26537C6.20952 9.1658 6.94062 9.89749 7.84088 9.89749C8.74195 9.89749 9.47301 9.16575 9.47301 8.26537ZM11.3568 14.8595C11.3568 12.9194 9.78177 11.3443 7.84087 11.3443C5.90076 11.3443 4.3257 12.9194 4.3257 14.8595C4.3257 14.9443 4.36239 15.0197 4.44566 15.0992C4.5323 15.1819 4.65888 15.2585 4.81657 15.3402C5.53417 15.7114 6.67913 15.8907 7.84087 15.8907C9.00339 15.8907 10.1483 15.7114 10.8659 15.3402M4.74758 15.4734C4.42877 15.3082 4.1757 15.1347 4.1757 14.8595C4.1757 12.8365 5.81792 11.1943 7.84087 11.1943C9.86459 11.1943 11.5068 12.8365 11.5068 14.8595C11.5068 15.1347 11.2537 15.3082 10.9349 15.4734C10.1857 15.861 9.01214 16.0407 7.84087 16.0407C6.67037 16.0407 5.49682 15.861 4.74758 15.4734ZM11.3568 14.8595C11.3568 14.9443 11.3201 15.0197 11.2368 15.0992L11.3568 14.8595ZM11.2368 15.0992C11.1502 15.1819 11.0237 15.2585 10.866 15.3402L11.2368 15.0992ZM7.84088 6.48401C8.82483 6.48401 9.62301 7.28218 9.62301 8.26537C9.62301 9.24855 8.82483 10.0475 7.84088 10.0475C6.85769 10.0475 6.05952 9.24855 6.05952 8.26537C6.05952 7.28218 6.85769 6.48401 7.84088 6.48401Z"
        fill="#777777" />
</svg>