<svg width="24" height="24" viewBox="0 0 24 24" fill="none" xmlns="http://www.w3.org/2000/svg">
    <path fill-rule="evenodd" clip-rule="evenodd"
        d="M17.0646 3.17464C17.3371 3.36103 17.5 3.66988 17.5 4.00001L17.5 20C17.5 20.3301 17.3371 20.639 17.0646 20.8254C16.7921 21.0118 16.4452 21.0517 16.1376 20.932L7.31239 17.5H2C1.44772 17.5 1 17.0523 1 16.5L1 7.5C1 6.94772 1.44772 6.5 2 6.5L7.31241 6.5L16.1376 3.068C16.4452 2.94835 16.7921 2.98825 17.0646 3.17464ZM15.5 18.5382L8.5 15.8159L8.5 8.18407L15.5 5.46185L15.5 18.5382ZM3 8.5L3 15.5H6.5L6.5 8.5H3Z"
        fill="#AAAAAA" />
    <path
        d="M20 7.5C19.4477 7.5 19 7.94772 19 8.5C19 9.05228 19.4477 9.5 20 9.5H21C21.5523 9.5 22 9.05228 22 8.5C22 7.94772 21.5523 7.5 21 7.5H20Z"
        fill="#AAAAAA" />
    <path
        d="M18.5 12.5C18.5 11.9477 18.9477 11.5 19.5 11.5H22C22.5523 11.5 23 11.9477 23 12.5C23 13.0523 22.5523 13.5 22 13.5H19.5C18.9477 13.5 18.5 13.0523 18.5 12.5Z"
        fill="#AAAAAA" />
    <path
        d="M20 15.5C19.4477 15.5 19 15.9477 19 16.5C19 17.0523 19.4477 17.5 20 17.5H21C21.5523 17.5 22 17.0523 22 16.5C22 15.9477 21.5523 15.5 21 15.5H20Z"
        fill="#AAAAAA" />
</svg>