<svg width="18" height="18" viewBox="0 0 18 18" fill="none" xmlns="http://www.w3.org/2000/svg">
<path fill-rule="evenodd" clip-rule="evenodd" d="M8.99757 1.125C9.28314 1.12427 9.54435 1.28578 9.67131 1.54158L11.8189 5.86865L16.6082 6.56701C16.8904 6.60815 17.1247 6.80568 17.2131 7.07674C17.3014 7.3478 17.2285 7.64552 17.0248 7.845L13.5412 11.2567L14.3684 15.996C14.4177 16.2784 14.3017 16.5642 14.0696 16.7324C13.8374 16.9005 13.5297 16.9217 13.2768 16.7869L8.99953 14.5071L4.72325 16.7868C4.47014 16.9218 4.16224 16.9005 3.93006 16.7321C3.69788 16.5637 3.58208 16.2776 3.63175 15.9951L4.46493 11.2567L0.975721 7.84545C0.7717 7.646 0.698525 7.34805 0.786935 7.07677C0.875345 6.80549 1.11002 6.60787 1.39239 6.56693L6.20776 5.86867L8.32598 1.54503C8.45162 1.28858 8.712 1.12574 8.99757 1.125ZM9.00385 3.57082L7.38064 6.88407C7.27166 7.1065 7.05988 7.26079 6.81475 7.29634L3.10935 7.83364L5.79641 10.4606C5.97344 10.6337 6.05365 10.883 6.01078 11.1268L5.37559 14.7392L8.64667 12.9954C8.86718 12.8778 9.13175 12.8778 9.35226 12.9953L12.6266 14.7405L11.9957 11.1259C11.9532 10.8825 12.0333 10.6339 12.2097 10.4611L14.8934 7.83283L11.2135 7.29625C10.97 7.26074 10.7594 7.10799 10.6499 6.88752L9.00385 3.57082Z" fill="#777777"/>
<path d="M8.99757 1.125C9.28314 1.12427 9.54435 1.28578 9.67131 1.54158L11.8189 5.86865L16.6082 6.56701C16.8904 6.60815 17.1247 6.80568 17.2131 7.07674C17.3014 7.3478 17.2285 7.64552 17.0248 7.845L13.5412 11.2567L14.3684 15.996C14.4177 16.2784 14.3017 16.5642 14.0696 16.7324C13.8374 16.9005 13.5297 16.9217 13.2768 16.7869L8.99953 14.5071L4.72325 16.7868C4.47014 16.9218 4.16224 16.9005 3.93006 16.7321C3.69788 16.5637 3.58208 16.2776 3.63175 15.9951L4.46493 11.2567L0.975721 7.84545C0.7717 7.646 0.698525 7.34805 0.786935 7.07677C0.875345 6.80549 1.11002 6.60787 1.39239 6.56693L6.20776 5.86867L8.32598 1.54503C8.45162 1.28858 8.712 1.12574 8.99757 1.125Z" fill="#777777"/>
</svg>
