<svg width="24" height="24" viewBox="0 0 24 24" fill="none" xmlns="http://www.w3.org/2000/svg">
    <path
        d="M14.5923 3.46388C13.4351 1.47708 10.5649 1.47707 9.40766 3.46388L7.70008 6.39562C7.55878 6.63822 7.322 6.81025 7.04761 6.86967L3.73168 7.58772C1.48453 8.07433 0.597568 10.8041 2.12953 12.5186L4.39011 15.0486C4.57717 15.258 4.66761 15.5363 4.63933 15.8156L4.29756 19.1911C4.06595 21.4787 6.38804 23.1658 8.49205 22.2386L11.5967 20.8705C11.8537 20.7573 12.1463 20.7573 12.4032 20.8705L15.5079 22.2386C17.612 23.1658 19.934 21.4787 19.7024 19.1911L19.3607 15.8156C19.3324 15.5363 19.4228 15.258 19.6099 15.0486L21.8705 12.5186C23.4024 10.8041 22.5155 8.07433 20.2683 7.58772L16.9524 6.86967C16.678 6.81025 16.4412 6.63822 16.2999 6.39562L14.5923 3.46388Z"
        fill="#FFD058" stroke="white" stroke-width="2" />
</svg>