<svg width="40" height="40" viewBox="0 0 40 40" fill="none" xmlns="http://www.w3.org/2000/svg">
    <g clip-path="url(#clip0_1011_9529)">
        <path
            d="M18.2718 5.96718C19.0432 4.64264 20.9568 4.64264 21.7282 5.96718L25.0522 11.6741C25.3348 12.1593 25.8084 12.5034 26.3572 12.6222L32.812 14.02C34.3101 14.3444 34.9014 16.1642 33.8801 17.3073L29.4796 22.2321C29.1055 22.6508 28.9246 23.2075 28.9812 23.7662L29.6465 30.337C29.8009 31.862 28.2528 32.9867 26.8501 32.3686L20.8065 29.7054C20.2927 29.479 19.7073 29.479 19.1935 29.7054L13.1499 32.3686C11.7472 32.9867 10.1991 31.862 10.3536 30.337L11.0188 23.7662C11.0754 23.2075 10.8945 22.6508 10.5204 22.2321L6.11994 17.3073C5.09863 16.1642 5.68994 14.3444 7.18804 14.02L13.6428 12.6222C14.1916 12.5034 14.6652 12.1593 14.9478 11.6741L18.2718 5.96718Z"
            fill="#FFD058" />
    </g>
    <defs>
        <clipPath id="clip0_1011_9529">
            <rect width="40" height="40" fill="white" />
        </clipPath>
    </defs>
</svg>