<svg width="27" height="26" viewBox="0 0 27 26" fill="none" xmlns="http://www.w3.org/2000/svg">
    <path
        d="M11.8137 0.936911C12.5107 -0.312303 14.2393 -0.312304 14.9363 0.936911L17.9391 6.31933C18.1944 6.77694 18.6222 7.10143 19.118 7.21351L24.9491 8.53179C26.3025 8.83775 26.8367 10.5541 25.9141 11.6321L21.9387 16.2769C21.6008 16.6718 21.4374 17.1969 21.4885 17.7238L22.0895 23.9209C22.229 25.3592 20.8305 26.42 19.5633 25.837L14.1036 23.3253C13.6394 23.1117 13.1106 23.1117 12.6464 23.3253L7.18669 25.837C5.91954 26.42 4.52104 25.3592 4.66053 23.9209L5.26155 17.7238C5.31264 17.1969 5.14924 16.6718 4.81126 16.2769L0.835947 11.6321C-0.0866892 10.5541 0.447488 8.83775 1.80085 8.53179L7.63203 7.21351C8.12779 7.10143 8.55559 6.77694 8.8109 6.31933L11.8137 0.936911Z"
        fill="#FFD058" />
</svg>