<svg width="18" height="18" viewBox="0 0 18 18" fill="none" xmlns="http://www.w3.org/2000/svg">
    <path
        d="M8.35052 14.9382H7.60829L7.60829 3.06184L12.0619 3.06184V3.8042C12.0619 4.21465 12.3937 4.54642 12.8041 4.54642C13.2146 4.54642 13.5463 4.21465 13.5463 3.8042V2.31962C13.5463 1.90916 13.2146 1.57739 12.8041 1.57739L0.742223 1.57739C0.331764 1.57739 0 1.90916 0 2.31962L0 3.8042C0 4.21465 0.331764 4.54642 0.742223 4.54642C1.15268 4.54642 1.48458 4.21465 1.48458 3.8042V3.06184L6.12371 3.06184L6.12371 14.9382H5.38149C4.97103 14.9382 4.63913 15.27 4.63913 15.6804C4.63913 16.0909 4.97103 16.4227 5.38149 16.4227H8.35052C8.76097 16.4227 9.09274 16.0909 9.09274 15.6804C9.09274 15.27 8.76097 14.9382 8.35052 14.9382Z"
        fill="#777777" />
    <path
        d="M17.2576 8.25781H11.3194C10.9089 8.25781 10.5771 8.58958 10.5771 9.00004V10.299C10.5771 10.7094 10.9089 11.0413 11.3194 11.0413C11.7298 11.0413 12.0617 10.7094 12.0617 10.299V9.74226H13.5462V14.9382H13.1751C12.7647 14.9382 12.4328 15.27 12.4328 15.6804C12.4328 16.0909 12.7647 16.4227 13.1751 16.4227H15.4019C15.8124 16.4227 16.1442 16.0909 16.1442 15.6804C16.1442 15.27 15.8124 14.9382 15.4019 14.9382H15.0308V9.74226H16.5153V10.1134C16.5153 10.5239 16.8471 10.8557 17.2576 10.8557C17.668 10.8557 17.9998 10.5239 17.9998 10.1134V9.00004C17.9998 8.58958 17.668 8.25781 17.2576 8.25781Z"
        fill="#777777" />
</svg>