<svg width="24" height="24" viewBox="0 0 24 24" fill="none" xmlns="http://www.w3.org/2000/svg">
<g clip-path="url(#clip0_6361_77560)">
<path d="M19 2.25H5C3.48 2.25 2.25 3.48 2.25 5V19C2.25 20.52 3.48 21.75 5 21.75H19C20.52 21.75 21.75 20.52 21.75 19V5C21.75 3.48 20.52 2.25 19 2.25ZM20.25 19C20.25 19.69 19.69 20.25 19 20.25H5C4.31 20.25 3.75 19.69 3.75 19V5C3.75 4.31 4.31 3.75 5 3.75H19C19.69 3.75 20.25 4.31 20.25 5V19Z" fill="#777777"/>
<path d="M19 22H5C3.35 22 2 20.65 2 19V5C2 3.35 3.35 2 5 2H19C20.65 2 22 3.35 22 5V19C22 20.65 20.65 22 19 22ZM5 2.5C3.62 2.5 2.5 3.62 2.5 5V19C2.5 20.38 3.62 21.5 5 21.5H19C20.38 21.5 21.5 20.38 21.5 19V5C21.5 3.62 20.38 2.5 19 2.5H5ZM19 20.5H5C4.17 20.5 3.5 19.83 3.5 19V5C3.5 4.17 4.17 3.5 5 3.5H19C19.83 3.5 20.5 4.17 20.5 5V19C20.5 19.83 19.83 20.5 19 20.5ZM5 4C4.45 4 4 4.45 4 5V19C4 19.55 4.45 20 5 20H19C19.55 20 20 19.55 20 19V5C20 4.45 19.55 4 19 4H5Z" fill="#777777"/>
<path d="M8.51001 17.6L7.19001 17.98C6.94001 18.05 6.69001 17.87 6.68001 17.61L6.63001 16.23L5.86001 15.09C5.72001 14.88 5.81001 14.58 6.05001 14.5L7.35001 14.03L8.20001 12.94C8.36001 12.74 8.67001 12.74 8.83001 12.94L9.68001 14.03L10.98 14.5C11.22 14.59 11.32 14.88 11.17 15.09L10.4 16.23L10.35 17.61C10.35 17.87 10.09 18.05 9.84001 17.98L8.52001 17.6H8.51001Z" fill="#777777"/>
<path d="M10.6 11.04H6.42C6.19 11.04 6 10.85 6 10.62V6.43001C6 6.20001 6.19 6.01001 6.42 6.01001H10.6C10.83 6.01001 11.02 6.20001 11.02 6.43001V10.61C11.02 10.84 10.83 11.03 10.6 11.03V11.04Z" fill="#777777"/>
<path d="M12.31 17.26L14.89 13.14C15.03 12.91 15.36 12.91 15.5 13.14L18.08 17.26C18.23 17.5 18.06 17.81 17.77 17.81H12.61C12.33 17.81 12.15 17.5 12.3 17.26H12.31Z" fill="#777777"/>
<path d="M15.19 11.04C13.8 11.04 12.67 9.91 12.67 8.52C12.67 7.13 13.8 6 15.19 6C16.58 6 17.71 7.13 17.71 8.52C17.71 9.91 16.58 11.04 15.19 11.04Z" fill="#777777"/>
</g>
<defs>
<clipPath id="clip0_6361_77560">
<rect width="20" height="20" fill="white" transform="translate(2 2)"/>
</clipPath>
</defs>
</svg>
