<svg width="24" height="24" viewBox="0 0 24 24" fill="none" xmlns="http://www.w3.org/2000/svg">
    <path fill-rule="evenodd" clip-rule="evenodd"
        d="M15.5933 3.27748C15.9632 2.90751 16.5631 2.90751 16.933 3.27748L20.7225 7.06695C21.0925 7.43692 21.0925 8.03676 20.7225 8.40673L8.40673 20.7225C8.22907 20.9002 7.9881 21 7.73684 21H3.94737C3.42415 21 3 20.5758 3 20.0526V16.2632C3 16.0119 3.09981 15.7709 3.27748 15.5933L12.751 6.11978L15.5933 3.27748ZM13.4211 8.12925L4.89474 16.6556V19.1053H7.34443L15.8707 10.5789L13.4211 8.12925ZM17.2105 9.23917L14.7608 6.78947L16.2632 5.28715L18.7128 7.73684L17.2105 9.23917Z"
        fill="#777777" />
    <path fill-rule="evenodd" clip-rule="evenodd"
        d="M3.92814 4.08089C3.59735 4.48814 3.65934 5.08644 4.06659 5.41724L19.411 19.1004C19.8183 19.4312 20.4166 19.3692 20.7474 18.962C21.0782 18.5547 21.0162 17.9564 20.6089 17.6256L5.26449 3.94244C4.85724 3.61165 4.25893 3.67363 3.92814 4.08089Z"
        fill="#777777" />
</svg>