<svg width="19" height="18" viewBox="0 0 19 18" fill="none" xmlns="http://www.w3.org/2000/svg">
    <path fill-rule="evenodd" clip-rule="evenodd"
        d="M10.6732 1.93025C10.9559 1.81533 11.28 1.88311 11.4929 2.10167L17.5372 8.30616C17.8155 8.59183 17.8216 9.04533 17.551 9.33833L11.5067 15.8838C11.2972 16.1107 10.9701 16.186 10.6825 16.0735C10.3949 15.961 10.2057 15.6838 10.2057 15.375V12.0235C9.20531 11.931 8.15259 11.9991 7.04404 12.2343C5.88673 12.4798 4.39737 13.5707 2.5802 15.7888C2.37052 16.0448 2.01788 16.1331 1.71232 16.0062C1.40676 15.8793 1.22047 15.5671 1.25385 15.2379C1.52534 12.5604 2.55444 10.2929 4.35012 8.47323C5.98097 6.82055 7.94318 5.89877 10.2057 5.71969V2.62502C10.2057 2.31989 10.3906 2.04518 10.6732 1.93025ZM11.7057 4.4697V6.43765C11.7057 6.84955 11.3735 7.18437 10.9616 7.18763C8.77883 7.20489 6.94497 7.97921 5.4178 9.52682C4.49158 10.4654 3.79913 11.5426 3.34241 12.7666C4.50645 11.6918 5.63617 10.9996 6.73271 10.7669C8.23728 10.4477 9.68741 10.396 11.0769 10.6235C11.4395 10.6829 11.7057 10.9962 11.7057 11.3636V13.4573L15.9664 8.84332L11.7057 4.4697Z"
        fill="#777777" />
</svg>