<svg viewBox="0 0 18 18" fill="none" xmlns="http://www.w3.org/2000/svg">
    <g clip-path="url(#clip0_305_832)">
        <path
            d="M5.71962 10.2355H2.05605C1.38247 10.2355 0.840332 10.7846 0.840332 11.4668L0.840332 15.1689C0.840332 15.8511 1.38247 16.4002 2.05605 16.4002H5.71962C6.39319 16.4002 6.93533 15.8511 6.93533 15.1689L6.93533 11.4668C6.93533 10.7846 6.39319 10.2355 5.71962 10.2355ZM2.05605 15.1772L2.05605 11.4751H5.71962L5.71962 15.1772H2.05605ZM8.15105 3.44679C8.15105 3.1057 8.42212 2.83115 8.7589 2.83115L17.2935 2.83115C17.6303 2.83115 17.9014 3.1057 17.9014 3.44679C17.9014 3.78789 17.6303 4.06243 17.2935 4.06243L8.76712 4.06243C8.43033 4.06243 8.15926 3.78789 8.15926 3.44679H8.15105ZM8.15105 5.91768C8.15105 5.57658 8.42212 5.30203 8.7589 5.30203L14.246 5.30203C14.5828 5.30203 14.8539 5.57658 14.8539 5.91768C14.8539 6.25877 14.5828 6.53332 14.246 6.53332L8.7589 6.53332C8.42212 6.53332 8.15105 6.25877 8.15105 5.91768ZM17.9096 12.0907C17.9096 12.4318 17.6385 12.7064 17.3018 12.7064H8.76712C8.43033 12.7064 8.15926 12.4318 8.15926 12.0907C8.15926 11.7496 8.43033 11.4751 8.76712 11.4751H17.3018C17.6385 11.4751 17.9096 11.7496 17.9096 12.0907ZM14.8621 14.5616C14.8621 14.9027 14.591 15.1772 14.2543 15.1772H8.76712C8.43033 15.1772 8.15926 14.9027 8.15926 14.5616C8.15926 14.2205 8.43033 13.946 8.76712 13.946H14.2543C14.591 13.946 14.8621 14.2205 14.8621 14.5616ZM6.93533 5.29372V6.525C6.93533 7.20719 6.39319 7.75628 5.71962 7.75628L2.05605 7.75628C1.38247 7.7646 0.840332 7.21551 0.840332 6.53332L0.840332 2.82283C0.840332 2.14064 1.38247 1.59155 2.05605 1.59155L3.88783 1.59155C4.22462 1.59155 4.49569 1.8661 4.49569 2.20719C4.49569 2.54829 4.22462 2.82283 3.88783 2.82283L2.05605 2.82283L2.05605 6.53332L5.71962 6.53332V5.30203C5.71962 4.96094 5.99069 4.68639 6.32747 4.68639C6.66426 4.68639 6.93533 4.96094 6.93533 5.30203V5.29372ZM6.75462 2.39022C6.99283 2.63149 6.99283 3.0225 6.75462 3.26377L4.31497 5.73465C4.07676 5.97591 3.69069 5.97591 3.45247 5.73465L2.84462 5.11901C2.61462 4.87774 2.61462 4.48673 2.86105 4.24546C3.09926 4.01252 3.4689 4.01252 3.70712 4.24546L3.88783 4.42849L5.89212 2.39022C6.13033 2.14896 6.5164 2.14896 6.75462 2.39022Z"
            fill="#777777" />
        <path
            d="M5.71964 16.5H2.05607C1.33321 16.5 0.75 15.9093 0.75 15.1772L0.75 11.475C0.75 10.7429 1.33321 10.1522 2.05607 10.1522H5.71964C6.4425 10.1522 7.02571 10.7429 7.02571 11.475L7.02571 15.1772C7.02571 15.9093 6.4425 16.5 5.71964 16.5ZM2.05607 10.327C1.43179 10.327 0.9225 10.8428 0.9225 11.475L0.9225 15.1772C0.9225 15.8095 1.43179 16.3253 2.05607 16.3253H5.71964C6.34393 16.3253 6.85321 15.8095 6.85321 15.1772L6.85321 11.475C6.85321 10.8428 6.34393 10.327 5.71964 10.327H2.05607ZM14.2543 15.2687H8.76714C8.38107 15.2687 8.06893 14.9526 8.06893 14.5616C8.06893 14.1705 8.38107 13.8544 8.76714 13.8544H14.2543C14.6404 13.8544 14.9525 14.1705 14.9525 14.5616C14.9525 14.9526 14.6404 15.2687 14.2543 15.2687ZM8.76714 14.0374C8.47964 14.0374 8.24964 14.2704 8.24964 14.5616C8.24964 14.8527 8.47964 15.0857 8.76714 15.0857H14.2543C14.5418 15.0857 14.7718 14.8527 14.7718 14.5616C14.7718 14.2704 14.5418 14.0374 14.2543 14.0374H8.76714ZM5.81 15.2687H1.96571L1.96571 11.3835H5.80179L5.80179 15.2687H5.81ZM2.15464 15.0857H5.62929L5.62929 11.5582H2.14643L2.14643 15.0857H2.15464ZM17.31 12.7978H8.76714C8.38107 12.7978 8.06893 12.4817 8.06893 12.0907C8.06893 11.6997 8.38107 11.3835 8.76714 11.3835H17.3018C17.6879 11.3835 18 11.6997 18 12.0907C18 12.4817 17.6879 12.7978 17.3018 12.7978H17.31ZM8.77536 11.5666C8.48786 11.5666 8.25786 11.7995 8.25786 12.0907C8.25786 12.3819 8.48786 12.6148 8.77536 12.6148H17.31C17.5975 12.6148 17.8275 12.3819 17.8275 12.0907C17.8275 11.7995 17.5975 11.5666 17.31 11.5666H8.76714H8.77536ZM5.72786 7.86439L2.05607 7.86439C1.33321 7.86439 0.75 7.27371 0.75 6.5416L0.75 2.8228C0.75 2.09068 1.33321 1.5 2.05607 1.5L3.88786 1.5C4.27393 1.5 4.58607 1.81614 4.58607 2.20715C4.58607 2.59817 4.27393 2.91431 3.88786 2.91431L2.14643 2.91431L2.14643 6.44176L5.62929 6.44176V5.29368C5.62929 4.90266 5.94143 4.58652 6.3275 4.58652C6.71357 4.58652 7.02571 4.90266 7.02571 5.29368V6.52496C7.02571 7.25707 6.4425 7.84775 5.71964 7.84775L5.72786 7.86439ZM2.05607 1.68303C1.43179 1.68303 0.930714 2.19052 0.930714 2.8228L0.930714 6.53328C0.930714 7.16556 1.44 7.68136 2.06429 7.68136L5.71964 7.68136C6.34393 7.68136 6.85321 7.16556 6.85321 6.53328V5.302C6.85321 5.01082 6.62321 4.77787 6.33571 4.77787C6.04821 4.77787 5.81821 5.01082 5.81821 5.302V6.62479L1.96571 6.62479L1.96571 2.73128L3.88786 2.73128C4.17536 2.73128 4.40536 2.49834 4.40536 2.20715C4.40536 1.91597 4.17536 1.68303 3.88786 1.68303L2.05607 1.68303ZM14.2543 6.62479L8.76714 6.62479C8.38107 6.62479 8.06893 6.30865 8.06893 5.91764C8.06893 5.52662 8.38107 5.21048 8.76714 5.21048L14.2543 5.21048C14.6404 5.21048 14.9525 5.52662 14.9525 5.91764C14.9525 6.30865 14.6404 6.62479 14.2543 6.62479ZM8.76714 5.39351C8.47964 5.39351 8.24964 5.62646 8.24964 5.91764C8.24964 6.20882 8.47964 6.44176 8.76714 6.44176L14.2543 6.44176C14.5418 6.44176 14.7718 6.20882 14.7718 5.91764C14.7718 5.62646 14.5418 5.39351 14.2543 5.39351L8.76714 5.39351ZM3.88786 6.00915C3.70714 6.00915 3.52643 5.9426 3.395 5.80116L2.78714 5.18552C2.51607 4.90266 2.52429 4.45341 2.80357 4.18719C3.07464 3.92096 3.50179 3.92096 3.77286 4.18719L3.88786 4.30366L5.83464 2.32363C6.0975 2.0574 6.5575 2.0574 6.82036 2.32363C7.09143 2.59817 7.09143 3.04742 6.82036 3.32196L4.38071 5.79284C4.24107 5.93428 4.06857 6.00083 3.88786 6.00083V6.00915ZM3.28821 4.16223C3.15679 4.16223 3.02536 4.21215 2.92679 4.31198C2.72143 4.51165 2.71321 4.85275 2.91036 5.06073L3.51821 5.67637C3.72357 5.88436 4.05214 5.88436 4.2575 5.67637L6.69714 3.20549C6.9025 2.9975 6.9025 2.66473 6.69714 2.45674C6.5 2.25707 6.16321 2.25707 5.95786 2.45674L3.88786 4.55324L3.64964 4.31198C3.55107 4.21215 3.41964 4.16223 3.28821 4.16223ZM17.3018 4.16223L8.76714 4.16223C8.38107 4.16223 8.06893 3.84609 8.06893 3.45507C8.06893 3.06406 8.38107 2.74792 8.76714 2.74792L17.3018 2.74792C17.6879 2.74792 18 3.06406 18 3.45507C18 3.84609 17.6879 4.16223 17.3018 4.16223ZM8.76714 2.91431C8.47964 2.91431 8.24964 3.14725 8.24964 3.43844C8.24964 3.72962 8.47964 3.96256 8.76714 3.96256L17.3018 3.96256C17.5893 3.96256 17.8193 3.72962 17.8193 3.43844C17.8193 3.14725 17.5893 2.91431 17.3018 2.91431L8.76714 2.91431Z"
            fill="#777777" />
    </g>
    <defs>
        <clipPath id="clip0_305_832">
            <rect width="17.25" height="15" fill="white" transform="translate(0.75 1.5)" />
        </clipPath>
    </defs>
</svg>