<svg viewBox="0 0 24 24" xmlns="http://www.w3.org/2000/svg">
    <g clip-path="url(#clip0_2663_53777)">
        <path
            d="M21.677 12.8625C21.1874 12.0367 20.4902 11.3449 19.6607 10.862C19.4305 10.7278 19.191 10.6114 18.9451 10.5119C18.9866 10.4745 19.0273 10.4362 19.0671 10.3963C20.2997 9.16382 20.2997 7.15835 19.0671 5.9259C17.8347 4.6933 15.8292 4.6933 14.5968 5.9259C14.0238 6.49872 13.7176 7.23877 13.6774 7.99042C13.1794 7.67731 12.6028 7.50885 12 7.50885C11.3979 7.50885 10.8221 7.677 10.3243 7.98935C10.2828 7.20962 9.95979 6.48224 9.4033 5.9259C8.80622 5.32883 8.01246 5 7.16804 5C6.32377 5 5.52986 5.32883 4.93293 5.9259C4.33586 6.52298 4.00703 7.31674 4.00703 8.16116C4.00703 9.00543 4.33586 9.79935 4.93293 10.3963C4.97261 10.4361 5.0135 10.4745 5.055 10.5119C4.80903 10.6114 4.56962 10.7278 4.33937 10.862C3.5099 11.3449 2.81272 12.0367 2.32307 12.8625C1.89842 13.5789 1.89201 14.4406 2.30613 15.1674C2.72438 15.9016 3.4777 16.34 4.32106 16.34H6.84089C6.80091 16.7944 6.89964 17.2577 7.13813 17.6762C7.55638 18.4105 8.3097 18.8489 9.15305 18.8489H14.8472C15.6905 18.8489 16.4437 18.4105 16.8621 17.6762C17.1004 17.2577 17.1992 16.7944 17.1592 16.34H19.679C20.5224 16.34 21.2757 15.9016 21.6939 15.1674C22.1081 14.4406 22.1017 13.5789 21.677 12.8625ZM20.6324 14.5625C20.4342 14.9106 20.0777 15.1183 19.679 15.1183H16.6848C16.2083 14.4041 15.5718 13.8036 14.8287 13.3708C14.5985 13.2368 14.3592 13.1203 14.1132 13.0208C14.1546 12.9834 14.1955 12.9451 14.2353 12.9053C14.5716 12.569 14.8228 12.1701 14.9781 11.7349C15.5515 11.468 16.1832 11.3222 16.832 11.3222C18.3811 11.3222 19.835 12.1512 20.626 13.4856C20.824 13.8194 20.8263 14.2221 20.6324 14.5625ZM15.794 15.9944C15.992 16.3284 15.9945 16.7311 15.8004 17.0715C15.6022 17.4194 15.2459 17.6273 14.847 17.6273H9.15305C8.75419 17.6273 8.39775 17.4194 8.19953 17.0715C8.00559 16.7311 8.00804 16.3284 8.20594 15.9944C8.99711 14.66 10.4508 13.831 12 13.831C13.5493 13.831 15.003 14.66 15.794 15.9944ZM3.36769 14.5627C3.17359 14.2221 3.17604 13.8194 3.3741 13.4856C4.16511 12.1512 5.61882 11.3222 7.16804 11.3222C7.81669 11.3222 8.4484 11.468 9.02198 11.7349C9.17732 12.17 9.42848 12.5688 9.76478 12.9053C9.80461 12.9449 9.84535 12.9834 9.88685 13.0208C9.64088 13.1203 9.40162 13.2368 9.17121 13.3708C8.42826 13.8036 7.79182 14.4041 7.31513 15.1183H4.32106C3.92234 15.1183 3.5659 14.9106 3.36769 14.5627ZM5.79673 9.53247C5.43052 9.16611 5.2288 8.67905 5.2288 8.16116C5.2288 7.64313 5.43052 7.15607 5.79673 6.7897C6.1631 6.42349 6.65 6.22177 7.16804 6.22177C7.68608 6.22177 8.17314 6.42349 8.5395 6.7897C8.90571 7.15607 9.10743 7.64313 9.10743 8.16116C9.10743 8.67905 8.90571 9.16611 8.5395 9.53247C8.17314 9.89868 7.68608 10.1006 7.16804 10.1006C6.65 10.1006 6.1631 9.89868 5.79673 9.53247ZM16.8319 6.22269C17.3286 6.22269 17.8252 6.41159 18.2033 6.7897C18.9594 7.54593 18.9594 8.77624 18.2033 9.53247C17.4471 10.2887 16.2168 10.2885 15.4606 9.53247C14.7045 8.77624 14.7045 7.54593 15.4606 6.7897C15.8387 6.41174 16.3354 6.22269 16.8319 6.22269ZM13.3713 9.2987C13.7377 9.66492 13.9394 10.152 13.9394 10.67C13.9394 11.188 13.7377 11.675 13.3713 12.0413C13.0051 12.4077 12.5181 12.6094 12 12.6094C11.482 12.6094 10.9949 12.4077 10.6287 12.0413C10.2624 11.675 10.0606 11.188 10.0606 10.67C10.0606 10.152 10.2624 9.66492 10.6287 9.2987C10.9949 8.93234 11.482 8.73062 12 8.73062C12.5181 8.73062 13.0051 8.93234 13.3713 9.2987Z"
             />
    </g>
    <defs>
        <clipPath id="clip0_2663_53777">
            <rect width="20" height="20" fill="white" transform="translate(2 2)" />
        </clipPath>
    </defs>
</svg>