<svg viewBox="0 0 18 18" fill="none" xmlns="http://www.w3.org/2000/svg">
<path d="M16.125 11L16.125 14.5C16.125 14.7321 16.0312 14.9546 15.8641 15.1187C15.6971 15.2828 15.4706 15.375 15.2344 15.375L2.76562 15.375C2.52942 15.375 2.30288 15.2828 2.13586 15.1187C1.96883 14.9546 1.875 14.7321 1.875 14.5L1.875 11C1.875 10.7679 1.96883 10.5454 2.13586 10.3813C2.30288 10.2172 2.52942 10.125 2.76562 10.125L15.2344 10.125C15.4706 10.125 15.6971 10.2172 15.8641 10.3813C16.0312 10.5454 16.125 10.7679 16.125 11Z" stroke-width="1.4" stroke-linecap="round" stroke-linejoin="round"/>
<path d="M7.5 6.375L9 7.875L10.5 6.375" stroke-width="1.4" stroke-linecap="round" stroke-linejoin="round"/>
<path d="M9 1.875L9 7.5" stroke-width="1.4" stroke-linecap="round" stroke-linejoin="round"/>
</svg>
