<svg viewBox="0 0 18 18" fill="none" xmlns="http://www.w3.org/2000/svg">
<g clip-path="url(#clip0_3660_425)">
<path d="M10.625 1.875H14.125C14.3571 1.875 14.5796 1.96883 14.7437 2.13586C14.9078 2.30288 15 2.52942 15 2.76562V15.2344C15 15.4706 14.9078 15.6971 14.7437 15.8641C14.5796 16.0312 14.3571 16.125 14.125 16.125H10.625C10.3929 16.125 10.1704 16.0312 10.0063 15.8641C9.84219 15.6971 9.75 15.4706 9.75 15.2344V2.76562C9.75 2.52942 9.84219 2.30288 10.0063 2.13586C10.1704 1.96883 10.3929 1.875 10.625 1.875Z" stroke-width="1.4" stroke-linecap="round" stroke-linejoin="round"/>
<path d="M6 10.5L7.5 9L6 7.5"  stroke-width="1.4" stroke-linecap="round" stroke-linejoin="round"/>
<path d="M2.25 9L6.75 9" stroke-width="1.4" stroke-linecap="round" stroke-linejoin="round"/>
</g>
<defs>
<clipPath id="clip0_3660_425">
<rect width="18" height="18" fill="white"/>
</clipPath>
</defs>
</svg>
